/* XPM */
static char * icewm_xpm[] = {
"100 20 113 2",
"  	c #CCCCCC",
". 	c #000000",
"+ 	c #747474",
"@ 	c #757575",
"# 	c #CBCBCB",
"$ 	c #1F1F1F",
"% 	c #020202",
"& 	c #202020",
"* 	c #959595",
"= 	c #424242",
"- 	c #969696",
"; 	c #818181",
"> 	c #222222",
", 	c #050505",
"' 	c #181818",
") 	c #737373",
"! 	c #7E7E7E",
"~ 	c #262626",
"{ 	c #060606",
"] 	c #161616",
"^ 	c #727272",
"/ 	c #121212",
"( 	c #4F4F4F",
"_ 	c #C0C0C0",
": 	c #CACACA",
"< 	c #6B6B6B",
"[ 	c #191919",
"} 	c #030303",
"| 	c #6A6A6A",
"1 	c #7F7F7F",
"2 	c #1E1E1E",
"3 	c #040404",
"4 	c #212121",
"5 	c #999999",
"6 	c #717171",
"7 	c #1C1C1C",
"8 	c #171717",
"9 	c #6D6D6D",
"0 	c #9A9A9A",
"a 	c #2D2D2D",
"b 	c #080808",
"c 	c #070707",
"d 	c #383838",
"e 	c #939393",
"f 	c #3E3E3E",
"g 	c #3F3F3F",
"h 	c #BCBCBC",
"i 	c #BDBDBD",
"j 	c #767676",
"k 	c #3D3D3D",
"l 	c #BABABA",
"m 	c #BBBBBB",
"n 	c #555555",
"o 	c #AAAAAA",
"p 	c #C6C6C6",
"q 	c #4B4B4B",
"r 	c #5B5B5B",
"s 	c #C5C5C5",
"t 	c #4E4E4E",
"u 	c #C2C2C2",
"v 	c #8B8B8B",
"w 	c #6E6E6E",
"x 	c #C4C4C4",
"y 	c #666666",
"z 	c #707070",
"A 	c #151515",
"B 	c #8A8A8A",
"C 	c #9C9C9C",
"D 	c #B3B3B3",
"E 	c #242424",
"F 	c #232323",
"G 	c #B4B4B4",
"H 	c #B2B2B2",
"I 	c #B1B1B1",
"J 	c #1A1A1A",
"K 	c #B0B0B0",
"L 	c #101010",
"M 	c #B8B8B8",
"N 	c #B7B7B7",
"O 	c #B6B6B6",
"P 	c #C8C8C8",
"Q 	c #010101",
"R 	c #BFBFBF",
"S 	c #0A0A0A",
"T 	c #A1A1A1",
"U 	c #5F5F5F",
"V 	c #7A7A7A",
"W 	c #606060",
"X 	c #C9C9C9",
"Y 	c #313131",
"Z 	c #0B0B0B",
"` 	c #2A2A2A",
" .	c #111111",
"..	c #1B1B1B",
"+.	c #131313",
"@.	c #8F8F8F",
"#.	c #6C6C6C",
"$.	c #363636",
"%.	c #575757",
"&.	c #9B9B9B",
"*.	c #5A5A5A",
"=.	c #626262",
"-.	c #4C4C4C",
";.	c #949494",
">.	c #3A3A3A",
",.	c #C7C7C7",
"'.	c #858585",
").	c #808080",
"!.	c #7D7D7D",
"~.	c #787878",
"{.	c #686868",
"].	c #2E2E2E",
"^.	c #9E9E9E",
"                                                                                                                                                                                                        ",
"                                                                                                                                                                                                        ",
"                                                                                                                                                                                                        ",
"                                                                                                                                                                                                        ",
"                                                                                                                                                                                                        ",
"                                                  . .     . .                                                       . .                                                                                 ",
"              + . . @                             . .     . .                                                       . .                                                                                 ",
"            # $ % % & #                           . .                                                                                                                                                   ",
"            * . = = . -       . . ; > , ' )       . .     . .       ! ~ { ] !       ^ . % / ( _       ! ~ { ] !     . .     : < [ } [ | :     . . 1 2 3 4 5     # 6 7 3 8 9 #     0 a b c d e           ",
"            f . 0 5 . g       . . = h i = . j     . .     . .     @ . k l m n       | o p ! . q     @ . k l m n     . .     | . r s r . <     . . t u v . 7     w . ( x y . z     A . B s C f           ",
"          D % E     F % G     . . H     I . 7     . .     . .     J . K                   : . L     J . K           . .     ' . M   N . [     . . O   P . Q     J . I   R . J     S , T p               ",
"          U . V     V . W     . . :     X . 3     . .     . .     } . :           0 Y Z Q . . Q     } . :           . .     } . :   : . }     . .       . .     } . . . . . %     ) c . % ` *           ",
"          L . . . . . .  .p   . . H     I . 7     . .     . .     ... K           +.. @.P s . .     ... K           . .     ] . M   N . [     . .       . .     J . l               s T #..  .          ",
"          . $.        $.. ;   . . = h i = . j     . .     . .     j . k l h %.    / . &.u *.. .     j . k l h %.    . .     =.. r s r . |     . .       . .     ) . -.R u ;.>.    = T ,.T . '           ",
"          . '.        '.. `   . . ).$ 3 ' ^       . .     . .       !.~ , ] !.    - 4 } ' ~.. .       !.~ , ] !.    . .     P U ] % 8 {.:     . .       . .       V E , Z >.;.    @.Y { c ].^.          ",
"                              . .                                                                                                                                                                       ",
"                              . .                                                                                                                                                                       ",
"                              . .                                                                                                                                                                       ",
"                                                                                                                                                                                                        ",
"                                                                                                                                                                                                        "};
