<?xml version="1.0" encoding="UTF-8" standalone="no"?>
<!-- Created with Inkscape (http://www.inkscape.org/) -->
<!-- 
Created By Andrew Fitzsimon.
Much of this document has been manually cleaned and crafted in a text editor so that only the colour definitions and basic presentation related data remain in the XML. 
Changes to this document may compromise the structure of this palette.
-->
<svg
   xmlns:dc="http://purl.org/dc/elements/1.1/"
   xmlns:cc="http://web.resource.org/cc/"
   xmlns:rdf="http://www.w3.org/1999/02/22-rdf-syntax-ns#"
   xmlns:svg="http://www.w3.org/2000/svg"
   xmlns="http://www.w3.org/2000/svg"
   xmlns:xlink="http://www.w3.org/1999/xlink"
   xmlns:sodipodi="http://inkscape.sourceforge.net/DTD/sodipodi-0.dtd"
   xmlns:inkscape="http://www.inkscape.org/namespaces/inkscape"
   version="1.0"
   x="00"
   y="00"
   width="128"
   height="128"
   id="Etiquette"
   sodipodi:version="0.32"
   inkscape:version="0.41+cvs"
   sodipodi:docname="gnome-fs-loading-icon.svg"
   sodipodi:docbase="/home/andy/Desktop/Etiquette/human/scalable/filesystems">
  <metadata
     id="About">
    <rdf:RDF
       id="RDF232">
      <cc:Work
         rdf:about=""
         id="Work233">
        <dc:format
           id="format234">image/svg+xml</dc:format>
        <dc:type
           id="type236"
           rdf:resource="http://purl.org/dc/dcmitype/StillImage" />
        <dc:creator
           id="creator1291">
          <cc:Agent
             id="Agent1292">
            <dc:title
               id="title1293">Andrew Fitzsimon</dc:title>
          </cc:Agent>
        </dc:creator>
        <dc:date
           id="date1295">2004-12-25</dc:date>
        <dc:title
           id="title1297">Etiquette Icon</dc:title>
        <cc:license
           id="license1299"
           rdf:resource="http://creativecommons.org/licenses/by/2.0/" />
        <dc:rights
           id="rights1308">
          <cc:Agent
             id="Agent1309">
            <dc:title
               id="title1310">Andrew Fitzsimon</dc:title>
          </cc:Agent>
        </dc:rights>
      </cc:Work>
      <cc:License
         rdf:about="http://creativecommons.org/licenses/by/2.0/"
         id="License1300">
        <cc:permits
           rdf:resource="http://web.resource.org/cc/Reproduction"
           id="permits1301" />
        <cc:permits
           rdf:resource="http://web.resource.org/cc/Distribution"
           id="permits1302" />
        <cc:requires
           rdf:resource="http://web.resource.org/cc/Notice"
           id="requires1303" />
        <cc:requires
           rdf:resource="http://web.resource.org/cc/Attribution"
           id="requires1304" />
        <cc:prohibits
           rdf:resource="http://web.resource.org/cc/CommercialUse"
           id="prohibits1305" />
        <cc:permits
           rdf:resource="http://web.resource.org/cc/DerivativeWorks"
           id="permits1306" />
        <cc:requires
           rdf:resource="http://web.resource.org/cc/ShareAlike"
           id="requires1307" />
      </cc:License>
    </rdf:RDF>
  </metadata>
  <sodipodi:namedview
     id="base"
     pagecolor="#ffffff"
     bordercolor="#666666"
     borderopacity="1.0"
     inkscape:pageopacity="0.0"
     inkscape:pageshadow="0"
     inkscape:zoom="0.50000000"
     inkscape:cx="67.127747"
     inkscape:cy="73.474213"
     inkscape:window-width="640"
     inkscape:window-height="536"
     inkscape:window-x="142"
     inkscape:window-y="145"
     inkscape:current-layer="Etiquette"
     showgrid="true"
     gridspacingx="8.0000000pt"
     gridspacingy="8.0000000pt"
     gridoriginy="0.0000000pt"
     gridoriginx="0pt"
     inkscape:grid-points="false"
     gridtolerance="40pt"
     showborder="true"
     inkscape:grid-bbox="false"
     gridcolor="#3f3fff"
     gridopacity="0.082352941"
     gridempspacing="2"
     gridempcolor="#3f3fff"
     gridempopacity="0.082352941" />
  <defs
     id="Gradients">
    <linearGradient
       xlink:href="#linearGradient4215"
       id="linearGradient4018"
       x1="378.43629"
       y1="327.63349"
       x2="379.11277"
       y2="391.87178"
       gradientTransform="scale(1.414214,0.707107)"
       gradientUnits="userSpaceOnUse" />
    <linearGradient
       xlink:href="#linearGradient4215"
       id="linearGradient4019"
       x1="351.20394"
       y1="275.07490"
       x2="371.07721"
       y2="394.56709"
       gradientTransform="scale(1.414214,0.707107)"
       gradientUnits="userSpaceOnUse" />
    <linearGradient
       xlink:href="#linearGradient4215"
       id="linearGradient4033"
       x1="185.14415"
       y1="715.94743"
       x2="189.58926"
       y2="1001.3565"
       gradientTransform="scale(1.784600,0.560350)"
       gradientUnits="userSpaceOnUse" />
    <linearGradient
       id="linearGradient1501">
      <stop
         style="stop-color:#ffffff;stop-opacity:1.0000000;"
         offset="0.0000000"
         id="stop1896" />
      <stop
         style="stop-color:#ffffff;stop-opacity:0.0000000;"
         offset="1.0000000"
         id="stop1504" />
    </linearGradient>
    <linearGradient
       xlink:href="#linearGradient1501"
       id="linearGradient3969"
       x1="223.02322"
       y1="696.47012"
       x2="217.79782"
       y2="567.49299"
       gradientTransform="scale(1.611330,0.620605)"
       gradientUnits="userSpaceOnUse" />
    <linearGradient
       id="linearGradient1496">
      <stop
         style="stop-color:#ffffff;stop-opacity:1.0000000;"
         offset="0.0000000"
         id="stop1497" />
      <stop
         style="stop-color:#ffffff;stop-opacity:0.0000000;"
         offset="1.0000000"
         id="stop1498" />
    </linearGradient>
    <linearGradient
       xlink:href="#linearGradient1496"
       id="linearGradient1508"
       x1="471.14257"
       y1="492.05970"
       x2="268.28472"
       y2="373.60830"
       gradientTransform="scale(1.255230,0.796667)"
       gradientUnits="userSpaceOnUse" />
    <linearGradient
       id="linearGradient4215">
      <stop
         style="stop-color:#ffffff;stop-opacity:1.0000000;"
         offset="0.0000000"
         id="stop4216" />
      <stop
         style="stop-color:#ffffff;stop-opacity:0.0000000;"
         offset="1.0000000"
         id="stop4217" />
    </linearGradient>
    <linearGradient
       xlink:href="#linearGradient4215"
       id="linearGradient3983"
       x1="2.2892229"
       y1="335.79082"
       x2="563.74663"
       y2="364.08682"
       gradientTransform="scale(0.852153,1.173498)"
       gradientUnits="userSpaceOnUse" />
    <linearGradient
       id="linearGradient1511">
      <stop
         style="stop-color:#bab5ab;stop-opacity:1.0000000;"
         offset="0.0000000"
         id="stop1512" />
      <stop
         style="stop-color:#eae8e3;stop-opacity:1.0000000;"
         offset="1.0000000"
         id="stop1513" />
    </linearGradient>
    <linearGradient
       xlink:href="#linearGradient1511"
       id="linearGradient3978"
       x1="76.445731"
       y1="289.65241"
       x2="694.83337"
       y2="415.79919"
       gradientTransform="scale(0.897919,1.113686)"
       gradientUnits="userSpaceOnUse" />
    <radialGradient
       xlink:href="#linearGradient1806"
       id="radialGradient1505"
       cx="24.825565"
       cy="176.56437"
       r="51.667703"
       fx="27.010122"
       fy="137.43433"
       gradientUnits="userSpaceOnUse" />
    <linearGradient
       id="linearGradient1806">
      <stop
         style="stop-color:#000000;stop-opacity:0.40784314;"
         offset="0.0000000"
         id="stop1807" />
      <stop
         style="stop-color:#000000;stop-opacity:0.073446326;"
         offset="0.64777780"
         id="stop3276" />
      <stop
         style="stop-color:#939393;stop-opacity:0.0000000;"
         offset="1.0000000"
         id="stop1808" />
    </linearGradient>
    <radialGradient
       xlink:href="#linearGradient1806"
       id="radialGradient1502"
       cx="24.825565"
       cy="176.56437"
       r="51.667703"
       fx="24.819926"
       fy="130.38605"
       gradientUnits="userSpaceOnUse" />
    <linearGradient
       y2="1001.3565"
       x2="189.58926"
       y1="841.18566"
       x1="188.71904"
       gradientTransform="matrix(0.279729,0.000000,0.000000,8.783262e-2,13.19464,-3.049815)"
       gradientUnits="userSpaceOnUse"
       id="linearGradient1420"
       xlink:href="#linearGradient4215"
       inkscape:collect="always" />
    <linearGradient
       y2="567.49299"
       x2="217.79782"
       y1="632.47911"
       x1="219.88392"
       gradientTransform="matrix(0.334121,0.000000,0.000000,0.128687,-2.534426,-21.73775)"
       gradientUnits="userSpaceOnUse"
       id="linearGradient1423"
       xlink:href="#linearGradient1501"
       inkscape:collect="always" />
    <linearGradient
       y2="373.60830"
       x2="268.28472"
       y1="492.05970"
       x1="471.14257"
       gradientTransform="matrix(0.196752,0.000000,0.000000,0.124874,13.19464,-3.049815)"
       gradientUnits="userSpaceOnUse"
       id="linearGradient1429"
       xlink:href="#linearGradient1496"
       inkscape:collect="always" />
    <linearGradient
       y2="364.08682"
       x2="563.74663"
       y1="335.79082"
       x1="2.2892229"
       gradientTransform="matrix(0.133572,0.000000,0.000000,0.183941,13.19464,-3.049815)"
       gradientUnits="userSpaceOnUse"
       id="linearGradient1432"
       xlink:href="#linearGradient4215"
       inkscape:collect="always" />
    <linearGradient
       y2="415.79919"
       x2="694.83337"
       y1="289.65241"
       x1="76.445731"
       gradientTransform="matrix(0.140745,0.000000,0.000000,0.174566,13.19464,-3.049815)"
       gradientUnits="userSpaceOnUse"
       id="linearGradient1435"
       xlink:href="#linearGradient1511"
       inkscape:collect="always" />
    <radialGradient
       r="51.667703"
       fy="137.43433"
       fx="27.010122"
       cy="176.56437"
       cx="24.825565"
       gradientUnits="userSpaceOnUse"
       id="radialGradient1439"
       xlink:href="#linearGradient1806"
       inkscape:collect="always" />
    <radialGradient
       r="51.667703"
       fy="130.38605"
       fx="24.819926"
       cy="176.56437"
       cx="24.825565"
       gradientUnits="userSpaceOnUse"
       id="radialGradient1441"
       xlink:href="#linearGradient1806"
       inkscape:collect="always" />
    <linearGradient
       y2="391.87178"
       x2="379.11277"
       y1="327.63349"
       x1="378.43629"
       gradientTransform="scale(1.414214,0.707107)"
       gradientUnits="userSpaceOnUse"
       id="linearGradient1443"
       xlink:href="#linearGradient4215"
       inkscape:collect="always" />
    <linearGradient
       y2="394.56709"
       x2="371.07721"
       y1="275.07490"
       x1="351.20394"
       gradientTransform="scale(1.414214,0.707107)"
       gradientUnits="userSpaceOnUse"
       id="linearGradient1445"
       xlink:href="#linearGradient4215"
       inkscape:collect="always" />
  </defs>
  <path
     sodipodi:type="arc"
     style="fill:url(#radialGradient1441);fill-opacity:0.75000000;fill-rule:evenodd;stroke-width:1.0000000pt"
     id="path3635"
     sodipodi:cx="25.912205"
     sodipodi:cy="175.83524"
     sodipodi:rx="56.143108"
     sodipodi:ry="56.143108"
     d="M 82.055313 175.83524 A 56.143108 56.143108 0 1 1  -30.230904,175.83524 A 56.143108 56.143108 0 1 1  82.055313 175.83524 z"
     transform="matrix(0.674393,0.000000,0.000000,0.200993,45.38480,58.79479)" />
  <path
     sodipodi:type="arc"
     style="fill:url(#radialGradient1439);fill-opacity:0.75000000;fill-rule:evenodd;stroke-width:1.0000000pt"
     id="path3636"
     sodipodi:cx="25.912205"
     sodipodi:cy="175.83524"
     sodipodi:rx="56.143108"
     sodipodi:ry="56.143108"
     d="M 82.055313 175.83524 A 56.143108 56.143108 0 1 1  -30.230904,175.83524 A 56.143108 56.143108 0 1 1  82.055313 175.83524 z"
     transform="matrix(0.929497,0.000000,0.000000,6.988426e-2,39.52905,78.10386)" />
  <path
     style="fill:url(#linearGradient1435);fill-rule:evenodd;stroke:#444400;stroke-width:2.4999995;stroke-miterlimit:4.0000000;stroke-opacity:0.0000000"
     d="M 39.150613,28.822454 C 39.150613,39.831823 41.263555,53.611480 60.291390,57.573006 C 41.444874,59.951608 39.158173,74.853013 39.210060,87.960587 L 87.498379,88.744276 C 87.700699,73.620356 81.855924,60.889777 66.581306,57.413450 C 80.799778,53.798412 87.559773,43.587630 87.238715,28.772401 L 39.150613,28.822454 z "
     id="path900"
     sodipodi:nodetypes="ccccccc" />
  <path
     style="fill:url(#linearGradient1432);fill-opacity:0.75000000;fill-rule:evenodd;stroke-width:0.83953638pt"
     d="M 42.978132,31.437070 C 42.978132,41.628781 44.739838,54.385037 60.604667,58.052343 C 44.891018,60.254289 42.984435,74.048980 43.027697,86.183065 L 83.289025,86.908550 C 83.457715,72.907870 78.584519,61.122780 65.849007,57.904638 C 77.703938,54.558085 83.340215,45.105649 83.072526,31.390734 L 42.978132,31.437070 z "
     id="path3638"
     sodipodi:nodetypes="ccccccc" />
  <path
     style="fill:url(#linearGradient1429);fill-opacity:0.75000000;fill-rule:evenodd;stroke-width:0.83953638pt"
     d="M 46.568172,32.505576 C 46.568172,41.440667 48.186015,52.624099 62.755299,55.839232 L 67.571379,55.709740 C 78.458221,52.775809 83.634231,44.488842 83.388402,32.464954 L 46.568172,32.505576 z "
     id="path3639"
     sodipodi:nodetypes="ccccc" />
  <path
     style="fill:#565248;fill-rule:evenodd;stroke-width:0.79778638pt"
     d="M 48.780307,47.115996 C 49.692335,49.871682 51.721326,54.197169 59.999643,57.727994 C 65.381689,59.695523 62.674622,76.068700 62.674622,76.068700 C 61.182357,82.965712 48.093765,79.182569 46.475575,86.235914 L 81.003272,86.224092 C 80.953793,77.725850 64.270993,83.240441 64.599293,76.149166 C 64.115962,68.988164 63.758556,64.484763 65.164102,57.949076 C 71.082571,54.978818 75.584678,53.672631 78.876625,45.789497 C 79.143751,43.910290 67.875291,48.145615 63.761685,48.387225 C 59.997580,48.608309 48.424137,44.794622 48.780307,47.115996 z "
     id="path901"
     sodipodi:nodetypes="ccccccccsc" />
  <path
     style="fill:#807d74;fill-rule:evenodd;stroke-width:1.0000000pt"
     d="M 39.256539,85.316833 C 37.988962,85.316833 36.968494,86.170778 36.968494,87.231506 C 36.968494,88.292235 37.988962,89.146179 39.256539,89.146179 L 86.633702,89.146179 C 87.901279,89.146179 88.921747,88.292235 88.921747,87.231506 C 88.921747,86.170778 87.901279,85.316833 86.633702,85.316833 L 39.256539,85.316833 z "
     id="rect906" />
  <path
     style="fill:#807d74;fill-rule:evenodd;stroke-width:1.0000000pt"
     d="M 40.091816,27.876649 C 38.841718,27.876649 37.835321,28.730593 37.835321,29.791322 C 37.835321,30.852052 38.841718,31.705994 40.091816,31.705994 L 86.815683,31.705994 C 88.065781,31.705994 89.072176,30.852052 89.072176,29.791322 C 89.072176,28.730593 88.065781,27.876649 86.815683,27.876649 L 40.091816,27.876649 z "
     id="rect909" />
  <path
     style="fill:url(#linearGradient1423);fill-opacity:0.75000000;fill-rule:evenodd;stroke-width:1.0000000pt"
     d="M 76.145560,49.576422 C 76.145560,49.576422 68.504512,55.479212 63.841515,56.112433 C 59.281676,56.731650 51.918920,52.453222 58.453164,49.358054 C 50.543291,48.326330 71.482558,47.676753 76.145560,49.576422 z "
     id="path3643"
     sodipodi:nodetypes="czcc" />
  <path
     style="stroke-width:1.0000000pt;fill-rule:evenodd;fill-opacity:0.75000000;fill:url(#linearGradient1420)"
     d="M 73.761954,86.615295 C 73.761954,86.615295 71.669488,81.633302 64.108101,81.154635 C 56.713998,80.686555 55.110533,84.700623 55.110533,84.700623 C 55.110533,84.700623 66.200563,88.051300 73.761954,86.615295 z "
     id="path1515"
     sodipodi:nodetypes="czcc" />
  <path
     sodipodi:type="arc"
     style="fill:url(#linearGradient1445);fill-opacity:0.75000000;fill-rule:evenodd;stroke:none;stroke-width:1.0000000pt;stroke-linecap:butt;stroke-linejoin:miter;stroke-opacity:1.0000000"
     id="path5770"
     sodipodi:cx="519.72351"
     sodipodi:cy="272.33051"
     sodipodi:rx="40.658642"
     sodipodi:ry="20.329321"
     d="M 560.38215 272.33051 A 40.658642 20.329321 0 1 1  479.06487,272.33051 A 40.658642 20.329321 0 1 1  560.38215 272.33051 z"
     transform="matrix(0.379780,0.000000,0.000000,0.452119,-133.4627,-53.36352)" />
  <path
     sodipodi:type="arc"
     style="fill:url(#linearGradient1443);fill-opacity:0.75000000;fill-rule:evenodd;stroke:none;stroke-width:1.0000000pt;stroke-linecap:butt;stroke-linejoin:miter;stroke-opacity:1.0000000"
     id="path5769"
     sodipodi:cx="519.72351"
     sodipodi:cy="272.33051"
     sodipodi:rx="40.658642"
     sodipodi:ry="20.329321"
     d="M 560.38215 272.33051 A 40.658642 20.329321 0 1 1  479.06487,272.33051 A 40.658642 20.329321 0 1 1  560.38215 272.33051 z"
     transform="matrix(0.452119,0.000000,0.000000,0.452119,-170.5390,-80.87420)" />
  <path
     style="fill:none;fill-rule:evenodd;stroke:#444444;stroke-width:2.4999995;stroke-miterlimit:4.0000000;stroke-opacity:1.0000000"
     d="M 37.812500,28.562500 C 37.157381,29.412325 38.677992,31.221959 38.799132,32.428815 C 39.214949,35.798252 39.187303,39.263080 40.606797,42.414142 C 42.041540,47.714466 45.898816,52.160109 50.724443,54.738107 C 53.108349,56.031807 55.584829,57.096937 58.218750,57.750000 C 54.184074,58.527331 50.239091,60.155461 47.048656,62.765144 C 44.134391,65.082908 42.272485,68.380481 40.980997,71.817251 C 38.811796,77.122927 38.065005,83.540281 37.562500,89.187500 C 54.020924,89.447400 71.479076,89.240100 87.937500,89.500000 C 87.586164,85.515598 87.772805,81.456299 86.513210,77.608254 C 86.036685,74.619097 84.813921,71.887926 83.403949,69.244426 C 80.878131,65.156526 77.427196,61.521447 72.984098,59.522135 C 71.508335,58.671745 69.785109,58.301643 68.187500,57.656250 C 71.981629,56.562710 75.509960,54.642457 78.574118,52.140574 C 81.248405,49.979346 83.245935,47.027935 84.826074,44.011856 C 85.819500,40.707714 87.253717,37.495238 87.243875,33.985072 C 87.298605,32.326167 88.546176,30.496749 88.312500,28.937500 C 86.725154,27.971232 83.930043,28.752159 82.156252,28.503101 C 67.791668,28.522901 52.177084,28.542700 37.812500,28.562500 z "
     id="path2280"
     sodipodi:nodetypes="ccccccccccccccccccc" />
</svg>
