<?xml version="1.0" encoding="UTF-8" standalone="no"?>
<!-- Created with Inkscape (http://www.inkscape.org/) -->
<!-- 
Created By Andrew Fitzsimon.
Much of this document has been manually cleaned and crafted in a text editor so that only the colour definitions and basic presentation related data remain in the XML. 
Changes to this document may compromise the structure of this palette.
-->
<svg
   xmlns:dc="http://purl.org/dc/elements/1.1/"
   xmlns:cc="http://web.resource.org/cc/"
   xmlns:rdf="http://www.w3.org/1999/02/22-rdf-syntax-ns#"
   xmlns:svg="http://www.w3.org/2000/svg"
   xmlns="http://www.w3.org/2000/svg"
   xmlns:xlink="http://www.w3.org/1999/xlink"
   xmlns:sodipodi="http://inkscape.sourceforge.net/DTD/sodipodi-0.dtd"
   xmlns:inkscape="http://www.inkscape.org/namespaces/inkscape"
   sodipodi:docbase="/home/andy/Desktop/Etiquette/human/scalable/filesystems"
   sodipodi:docname="gnome-fs-ftp.svg"
   inkscape:version="0.41+cvs"
   sodipodi:version="0.32"
   id="Etiquette"
   height="128"
   width="128"
   y="00"
   x="00"
   version="1.0">
  <metadata
     id="About">
    <rdf:RDF
       id="RDF232">
      <cc:Work
         id="Work233"
         rdf:about="">
        <dc:format
           id="format234">image/svg+xml</dc:format>
        <dc:type
           rdf:resource="http://purl.org/dc/dcmitype/StillImage"
           id="type236" />
        <dc:creator
           id="creator1291">
          <cc:Agent
             id="Agent1292">
            <dc:title
               id="title1293">Andrew Fitzsimon</dc:title>
          </cc:Agent>
        </dc:creator>
        <dc:date
           id="date1295">2004-12-25</dc:date>
        <dc:title
           id="title1297">Etiquette Icon</dc:title>
        <cc:license
           rdf:resource="http://creativecommons.org/licenses/by/2.0/"
           id="license1299" />
        <dc:rights
           id="rights1308">
          <cc:Agent
             id="Agent1309">
            <dc:title
               id="title1310">Andrew Fitzsimon</dc:title>
          </cc:Agent>
        </dc:rights>
      </cc:Work>
      <cc:License
         id="License1300"
         rdf:about="http://creativecommons.org/licenses/by/2.0/">
        <cc:permits
           id="permits1301"
           rdf:resource="http://web.resource.org/cc/Reproduction" />
        <cc:permits
           id="permits1302"
           rdf:resource="http://web.resource.org/cc/Distribution" />
        <cc:requires
           id="requires1303"
           rdf:resource="http://web.resource.org/cc/Notice" />
        <cc:requires
           id="requires1304"
           rdf:resource="http://web.resource.org/cc/Attribution" />
        <cc:prohibits
           id="prohibits1305"
           rdf:resource="http://web.resource.org/cc/CommercialUse" />
        <cc:permits
           id="permits1306"
           rdf:resource="http://web.resource.org/cc/DerivativeWorks" />
        <cc:requires
           id="requires1307"
           rdf:resource="http://web.resource.org/cc/ShareAlike" />
      </cc:License>
    </rdf:RDF>
  </metadata>
  <sodipodi:namedview
     gridempopacity="0.0000000"
     gridempcolor="#3f3fff"
     gridempspacing="14"
     gridopacity="0.0000000"
     gridcolor="#ffffff"
     inkscape:grid-bbox="false"
     showborder="true"
     gridtolerance="40pt"
     inkscape:grid-points="false"
     gridoriginx="0pt"
     gridoriginy="0.0000000pt"
     gridspacingy="8.0000000pt"
     gridspacingx="8.0000000pt"
     showgrid="true"
     inkscape:current-layer="Etiquette"
     inkscape:window-y="9"
     inkscape:window-x="163"
     inkscape:window-height="534"
     inkscape:window-width="531"
     inkscape:cy="50.018677"
     inkscape:cx="85.485718"
     inkscape:zoom="0.50000000"
     inkscape:pageshadow="0"
     inkscape:pageopacity="0.0"
     borderopacity="1.0"
     bordercolor="#666666"
     pagecolor="#ffffff"
     id="base" />
  <defs
     id="Gradients">
    <linearGradient
       y2="32.579056"
       x2="77.407570"
       y1="-17.627333"
       x1="78.170364"
       gradientTransform="matrix(0.896978,0.000000,0.000000,0.960648,29.62398,37.45617)"
       gradientUnits="userSpaceOnUse"
       id="linearGradient26784"
       xlink:href="#WhiteTransparent"
       inkscape:collect="always" />
    <linearGradient
       y2="276.50476"
       x2="246.58887"
       y1="330.42316"
       x1="246.58887"
       gradientTransform="matrix(0.557543,0.000000,0.000000,0.557543,-59.24322,-55.65313)"
       gradientUnits="userSpaceOnUse"
       id="linearGradient26786"
       xlink:href="#WhiteTransparent"
       inkscape:collect="always" />
    <linearGradient
       id="linearGradient1693">
      <stop
         id="stop1694"
         offset="0.00000000"
         style="stop-color:#ffffff;stop-opacity:1.0000000;" />
      <stop
         id="stop1695"
         offset="1.0000000"
         style="stop-color:#ffffff;stop-opacity:0.00000000;" />
    </linearGradient>
    <linearGradient
       y2="162.85263"
       x2="72.715558"
       y1="-11.108592"
       x1="88.009292"
       gradientTransform="matrix(0.635449,0.000000,0.000000,0.553944,29.73846,37.33714)"
       gradientUnits="userSpaceOnUse"
       id="linearGradient26788"
       xlink:href="#linearGradient1693"
       inkscape:collect="always" />
    <linearGradient
       id="linearGradient1694">
      <stop
         id="stop1696"
         offset="0.0000000"
         style="stop-color:#9db8d2;stop-opacity:1.0000000;" />
      <stop
         id="stop1698"
         offset="0.56999999"
         style="stop-color:#7590ae;stop-opacity:1.0000000;" />
      <stop
         id="stop1697"
         offset="1.0000000"
         style="stop-color:#314e6c;stop-opacity:1.0000000;" />
    </linearGradient>
    <radialGradient
       r="83.198463"
       fy="203.93304"
       fx="242.12482"
       cy="248.48956"
       cx="244.43382"
       gradientTransform="matrix(0.557543,0.000000,0.000000,0.557543,-59.24322,-55.65313)"
       gradientUnits="userSpaceOnUse"
       id="radialGradient26790"
       xlink:href="#linearGradient1694"
       inkscape:collect="always" />
    <linearGradient
       id="linearGradient2381">
      <stop
         id="stop2382"
         offset="0.0000000"
         style="stop-color:#000000;stop-opacity:0.47058824;" />
      <stop
         id="stop2384"
         offset="0.31578946"
         style="stop-color:#000000;stop-opacity:0.19191919;" />
      <stop
         id="stop2383"
         offset="1.0000000"
         style="stop-color:#6f6f6f;stop-opacity:0.0000000;" />
    </linearGradient>
    <radialGradient
       r="125.20509"
       fy="598.36652"
       fx="-289.09140"
       cy="598.36652"
       cx="-289.09140"
       gradientUnits="userSpaceOnUse"
       id="radialGradient26794"
       xlink:href="#linearGradient2381"
       inkscape:collect="always" />
    <radialGradient
       r="125.20509"
       fy="598.36652"
       fx="-289.09140"
       cy="598.36652"
       cx="-289.09140"
       gradientUnits="userSpaceOnUse"
       id="radialGradient26795"
       xlink:href="#MaterialSoftShadow"
       inkscape:collect="always" />
    <linearGradient
       id="linearGradient92"
       inkscape:collect="always">
      <stop
         id="stop93"
         offset="0"
         style="stop-color:#000000;stop-opacity:1;" />
      <stop
         id="stop94"
         offset="1"
         style="stop-color:#000000;stop-opacity:0;" />
    </linearGradient>
    <linearGradient
       id="3DShadowGradient">
      <stop
         id="stop3933"
         offset="0"
         style="stop-color:#565248;stop-opacity:1;" />
      <stop
         id="stop3934"
         offset="1"
         style="stop-color:#565248;stop-opacity:0;" />
    </linearGradient>
    <radialGradient
       r="56.143108"
       fy="142.80988"
       fx="25.459438"
       cy="175.83524"
       cx="25.912205"
       gradientUnits="userSpaceOnUse"
       id="radialGradient2970"
       xlink:href="#MaterialSoftShadow"
       inkscape:collect="always" />
    <linearGradient
       id="Basic3DDarkGradient">
      <stop
         id="stop3929"
         offset="0"
         style="stop-color:#807d74;stop-opacity:1;" />
      <stop
         id="stop3930"
         offset="1"
         style="stop-color:#807d74;stop-opacity:0;" />
    </linearGradient>
    <linearGradient
       id="MaterialSoftShadow">
      <stop
         id="stop2619"
         offset="0"
         style="stop-color:#000000;stop-opacity:0.215;" />
      <stop
         id="stop2621"
         offset="0.50000000"
         style="stop-color:#000000;stop-opacity:0.098;" />
      <stop
         id="stop2620"
         offset="1"
         style="stop-color:#000000;stop-opacity:0;" />
    </linearGradient>
    <linearGradient
       id="WhiteTransparent">
      <stop
         id="stopWhiteFull"
         offset="0"
         style="stop-color:#ffffff;stop-opacity:1;" />
      <stop
         id="stopWhiteTransparent"
         offset="1"
         style="stop-color:#ffffff;stop-opacity:0;" />
    </linearGradient>
    <linearGradient
       y2="207.16502"
       x2="26.888615"
       y1="160.47531"
       x1="26.845953"
       gradientTransform="matrix(3.180358,0.000000,0.000000,0.346182,-3.048520,-4.711982)"
       gradientUnits="userSpaceOnUse"
       id="linearGradient10409"
       xlink:href="#WhiteTransparent"
       inkscape:collect="always" />
    <linearGradient
       y2="124.18470"
       x2="78.711426"
       y1="124.18470"
       x1="3.3979435"
       gradientTransform="matrix(1.531530,0.000000,0.000000,0.718878,-3.048520,-5.175702)"
       gradientUnits="userSpaceOnUse"
       id="linearGradient10415"
       xlink:href="#Basic3DDarkGradient"
       inkscape:collect="always" />
    <linearGradient
       y2="23.747826"
       x2="65.807091"
       y1="58.259041"
       x1="64.216156"
       gradientTransform="scale(1.150702,0.869035)"
       gradientUnits="userSpaceOnUse"
       id="linearGradient10421"
       xlink:href="#Basic3DDarkGradient"
       inkscape:collect="always" />
    <linearGradient
       gradientUnits="userSpaceOnUse"
       y2="148.93845"
       x2="41.340191"
       y1="235.00525"
       x1="38.306545"
       gradientTransform="matrix(1.912425,0.000000,0.000000,0.575700,-3.048520,-5.175702)"
       id="linearGradient194"
       xlink:href="#WhiteTransparent"
       inkscape:collect="always" />
    <linearGradient
       gradientUnits="userSpaceOnUse"
       y2="52.618374"
       x2="59.674019"
       y1="-6.4641781"
       x1="51.691013"
       gradientTransform="matrix(1.222691,0.000000,0.000000,0.900458,-3.048520,-5.175702)"
       id="linearGradient198"
       xlink:href="#3DShadowGradient"
       inkscape:collect="always" />
    <linearGradient
       gradientUnits="userSpaceOnUse"
       y2="85.134789"
       x2="34.190170"
       y1="113.74319"
       x1="34.063450"
       gradientTransform="scale(1.884921,0.530526)"
       id="linearGradient225"
       xlink:href="#linearGradient92"
       inkscape:collect="always" />
    <linearGradient
       y2="253.63820"
       x2="55.407467"
       y1="92.169785"
       x1="55.407467"
       gradientTransform="scale(1.459604,0.685117)"
       gradientUnits="userSpaceOnUse"
       id="linearGradient102"
       xlink:href="#Basic3DDarkGradient"
       inkscape:collect="always" />
    <linearGradient
       y2="125.36791"
       x2="33.548130"
       y1="237.15240"
       x1="38.521580"
       gradientTransform="scale(1.822611,0.548663)"
       gradientUnits="userSpaceOnUse"
       id="linearGradient866"
       xlink:href="#MaterialSoftShadow"
       inkscape:collect="always" />
  </defs>
  <path
     transform="matrix(1.061544,0.000000,0.000000,7.393471e-2,34.34913,106.7019)"
     d="M 82.055313 175.83524 A 56.143108 56.143108 0 1 1  -30.230904,175.83524 A 56.143108 56.143108 0 1 1  82.055313 175.83524 z"
     sodipodi:ry="56.143108"
     sodipodi:rx="56.143108"
     sodipodi:cy="175.83524"
     sodipodi:cx="25.912205"
     id="path10398"
     style="fill:url(#radialGradient2970);fill-opacity:1.0000000;fill-rule:evenodd;stroke-width:1.0000000pt"
     sodipodi:type="arc" />
  <path
     sodipodi:nodetypes="cczzzzzcc"
     id="path10399"
     d="M 13.527831,89.021069 L 13.527831,23.621047 C 13.527831,17.011674 16.786355,12.239726 23.632986,12.239726 L 57.099549,12.239726 C 63.946187,12.239726 64.776825,23.403470 71.623463,23.403470 L 109.74872,23.403470 C 112.83991,23.403470 115.19518,26.600999 115.19518,30.275073 L 115.19518,89.021069 L 13.527831,89.021069 z "
     style="stroke-opacity:1.0000000;stroke-miterlimit:4.0000000;stroke-width:3.1250000;stroke:#444444;fill-rule:evenodd;fill-opacity:1.0000000;fill:#bab5ab;stroke-dasharray:none" />
  <path
     sodipodi:nodetypes="cczzzzzcc"
     id="path10401"
     d="M 17.314787,85.634649 L 17.314787,26.447289 C 17.314787,20.465772 20.263779,16.147135 26.460007,16.147135 L 54.923970,16.147135 C 61.120207,16.147135 61.871939,26.250381 68.068184,26.250381 L 106.73964,26.250381 C 109.53718,26.250381 111.66872,29.144162 111.66872,32.469216 L 111.66872,85.634649 L 17.314787,85.634649 z "
     style="fill:url(#linearGradient198);fill-opacity:1.0000000;fill-rule:evenodd;stroke:none;stroke-width:1.2500000;stroke-opacity:0.33962265" />
  <path
     sodipodi:nodetypes="cczzzzzcc"
     id="path10400"
     d="M 13.527831,89.021069 L 13.527831,23.621047 C 13.527831,17.011674 16.786355,12.239726 23.632986,12.239726 L 57.099549,12.239726 C 63.946187,12.239726 64.776825,23.403470 71.623463,23.403470 L 109.74872,23.403470 C 112.83991,23.403470 115.19518,26.600999 115.19518,30.275073 L 115.19518,89.021069 L 13.527831,89.021069 z "
     style="fill:url(#linearGradient10421);fill-opacity:1.0;fill-rule:evenodd;stroke:none;stroke-width:1.2500000;stroke-opacity:0.33962265" />
  <path
     sodipodi:nodetypes="ccccc"
     id="path10402"
     d="M 29.832632,32.680251 L 29.832632,109.26545 L 98.692404,109.26545 L 98.717504,32.745896 L 29.832632,32.680251 z "
     style="fill:#fafafa;fill-opacity:1.0000000;fill-rule:evenodd;stroke:#000000;stroke-width:1.9673948;stroke-linecap:round;stroke-linejoin:round;stroke-miterlimit:4.0000000;stroke-opacity:0.58823532" />
  <path
     sodipodi:nodetypes="ccccc"
     id="path10424"
     d="M 28.940122,37.015430 L 28.940122,56.689800 L 98.816229,56.689800 L 98.841698,37.032293 L 28.940122,37.015430 z "
     style="fill:url(#linearGradient225);fill-opacity:1.0000000;fill-rule:evenodd;stroke:none;stroke-width:1.4895619;stroke-linecap:round;stroke-linejoin:round;stroke-miterlimit:4.0000000;stroke-opacity:0.58823532" />
  <path
     sodipodi:nodetypes="czzzzzzzz"
     id="path10403"
     d="M 3.5800406,67.752282 L 9.3924860,108.43403 C 9.9148550,112.09013 13.522236,116.26770 17.204085,116.26770 L 112.43256,116.26770 C 115.68675,116.26770 117.80666,111.66197 118.29127,108.43403 L 124.39889,67.752282 C 125.47737,60.568651 121.61305,53.386027 115.81257,53.386027 L 12.166386,53.386027 C 6.3658748,53.386027 2.5527687,60.562327 3.5800406,67.752282 z "
     style="stroke-dasharray:none;stroke-opacity:1.0000000;stroke-miterlimit:4.0000000;stroke-width:3.1250000;stroke:#444444;fill-rule:evenodd;fill-opacity:1.0000000;fill:#eae8e3" />
  <path
     sodipodi:nodetypes="czzzzzzzz"
     id="path10404"
     d="M 4.3152919,67.077140 L 10.532030,107.87857 C 11.029756,111.14522 14.611954,114.82222 18.248618,114.87654 L 111.38570,116.26770 C 114.59996,116.31572 116.73226,112.16028 117.17316,109.26973 L 123.66456,66.711464 C 124.64574,60.278708 120.91259,53.857352 115.18267,53.877816 L 12.797190,54.243492 C 7.0672744,54.263957 3.3364850,60.653076 4.3152919,67.077140 z "
     style="opacity:0.28301886;fill:url(#linearGradient10415);fill-opacity:1.0000000;fill-rule:evenodd;stroke:none;stroke-width:1.3937240;stroke-miterlimit:4.0000000;stroke-opacity:0.31372550" />
  <path
     sodipodi:nodetypes="czzzzzzzz"
     id="path101"
     d="M 4.3152919,67.077140 L 9.6481465,109.20440 C 10.063130,112.48258 13.727666,116.19984 17.364735,116.20237 L 111.38570,116.26770 C 114.60032,116.26993 116.73226,112.16028 117.17316,109.26973 L 123.66456,66.711464 C 124.64574,60.278708 120.91259,53.857352 115.18267,53.877816 L 12.797190,54.243492 C 7.0672744,54.263957 3.4992024,60.630384 4.3152919,67.077140 z "
     style="stroke-opacity:0.48026314;stroke-miterlimit:4.0000000;stroke-width:1.3937240;stroke:none;fill-rule:evenodd;fill-opacity:1.0;fill:url(#linearGradient102);opacity:0.48427673" />
  <path
     sodipodi:nodetypes="czzzzcc"
     id="path10405"
     d="M 10.033008,78.399512 L 14.020810,101.48840 C 14.701688,105.43060 14.205694,111.19236 19.940778,111.16118 L 106.40045,110.69105 C 113.40458,110.65296 112.79439,107.21951 113.80744,102.42459 L 118.86488,78.486788 L 10.033008,78.399512 z "
     style="fill:url(#linearGradient194);fill-opacity:1.0000000;fill-rule:evenodd;stroke-width:1.0000000pt;opacity:0.11320755" />
  <path
     sodipodi:nodetypes="czzzzzz"
     id="path10407"
     d="M 4.9682151,66.485404 C 4.7818079,67.291978 8.2654741,59.375578 14.171745,59.375578 L 111.83689,59.375578 C 119.10273,59.375578 122.28228,66.950432 122.46870,66.143857 C 122.65511,65.337290 124.48911,54.536131 113.18243,54.536131 L 14.596023,54.536131 C 3.1496173,54.536131 5.1546221,65.678836 4.9682151,66.485404 z "
     style="fill:url(#linearGradient10409);fill-opacity:1.0000000;fill-rule:evenodd;stroke-width:0.90415878pt" />
  <path
     sodipodi:nodetypes="czzzzzzzz"
     id="path99"
     d="M 3.5800406,67.752282 L 9.3924860,108.43403 C 9.9148550,112.09013 13.522236,116.26770 17.204085,116.26770 L 112.43256,116.26770 C 115.68675,116.26770 117.80666,111.66197 118.29127,108.43403 L 124.39889,67.752282 C 125.47737,60.568651 121.61305,53.386027 115.81257,53.386027 L 12.166386,53.386027 C 6.3658748,53.386027 2.5527687,60.562327 3.5800406,67.752282 z "
     style="fill:none;fill-opacity:1.0000000;fill-rule:evenodd;stroke:none;stroke-width:2.6231930;stroke-miterlimit:4.0000000;stroke-opacity:1.0000000" />
  <path
     sodipodi:nodetypes="ccccc"
     id="path864"
     d="M 8.8007750,67.899512 L 14.020810,101.48840 C 19.052329,79.460767 108.36546,78.976869 113.80744,102.42459 L 118.86488,67.986788 L 8.8007750,67.899512 z "
     style="fill:url(#linearGradient866);fill-opacity:1.0;fill-rule:evenodd;stroke-width:1.0000000pt" />
  <path
     transform="matrix(-0.237698,0.000000,0.000000,6.612441e-2,6.404063,73.98458)"
     d="M -163.88631 598.36652 A 125.20509 125.20509 0 1 1  -414.29649,598.36652 A 125.20509 125.20509 0 1 1  -163.88631 598.36652 z"
     sodipodi:ry="125.20509"
     sodipodi:rx="125.20509"
     sodipodi:cy="598.36652"
     sodipodi:cx="-289.09140"
     id="path4284"
     style="fill:url(#radialGradient26795);fill-opacity:1.0000000;fill-rule:evenodd;stroke:none;stroke-width:1.0000000pt;stroke-linecap:butt;stroke-linejoin:miter;stroke-opacity:1.0000000"
     sodipodi:type="arc" />
  <path
     transform="matrix(-0.332239,0.000000,0.000000,0.203406,-16.59305,-19.39329)"
     d="M -163.88631 598.36652 A 125.20509 125.20509 0 1 1  -414.29649,598.36652 A 125.20509 125.20509 0 1 1  -163.88631 598.36652 z"
     sodipodi:ry="125.20509"
     sodipodi:rx="125.20509"
     sodipodi:cy="598.36652"
     sodipodi:cx="-289.09140"
     id="path4285"
     style="fill:url(#radialGradient26794);fill-opacity:1.0000000;fill-rule:evenodd;stroke:none;stroke-width:1.0000000pt;stroke-linecap:butt;stroke-linejoin:miter;stroke-opacity:1.0000000"
     sodipodi:type="arc" />
  <path
     id="path4286"
     style="fill:#314e6c;fill-opacity:1.0000000;fill-rule:evenodd;stroke:none;stroke-width:8.7163954;stroke-linecap:butt;stroke-linejoin:miter;stroke-miterlimit:4.0000000;stroke-opacity:1.0000000"
     d="M 118.65351,82.962086 C 118.65351,60.047239 100.07731,41.471073 77.162458,41.471073 C 54.247603,41.471073 35.671474,60.047239 35.671474,82.962086 C 35.671474,105.87695 54.247603,124.45311 77.162458,124.45311 C 100.07731,124.45311 118.65351,105.87695 118.65351,82.962086 z " />
  <path
     id="path4287"
     style="stroke-dasharray:none;fill:url(#radialGradient26790);fill-opacity:1.0000000;fill-rule:evenodd;stroke:#444444;stroke-width:1.8750000;stroke-linecap:butt;stroke-linejoin:miter;stroke-miterlimit:4.0000000;stroke-opacity:1.0000000"
     d="M 118.53015,82.890611 C 118.53015,59.975755 99.954013,41.399598 77.039160,41.399598 C 54.124307,41.399598 35.548177,59.975755 35.548177,82.890611 C 35.548177,105.80546 54.124307,124.38162 77.039160,124.38162 C 99.954013,124.38162 118.53015,105.80546 118.53015,82.890611 z " />
  <path
     id="path4288"
     style="fill:url(#linearGradient26788);fill-opacity:1.0000000;fill-rule:evenodd;stroke:none;stroke-width:1.0000000pt;stroke-linecap:butt;stroke-linejoin:miter;stroke-opacity:1.0000000"
     d="M 73.729619,43.804672 C 70.332069,44.546245 66.699595,44.730684 63.666029,46.591088 C 62.491054,46.687076 57.744269,48.549328 60.912307,48.872696 C 62.874581,48.315774 63.786513,46.275388 65.977316,46.446499 C 68.329305,45.746751 70.748354,44.914189 73.312421,44.424341 C 73.577080,44.301332 73.582493,44.009701 73.729619,43.804672 z M 78.731363,44.463023 C 77.034169,46.414951 73.120587,46.290852 72.886717,49.470293 C 73.686599,50.569659 77.622466,45.395341 78.779867,48.591751 C 79.007832,50.734802 77.579587,53.439886 75.105285,52.043379 C 73.904724,51.943159 72.409626,52.189937 72.459536,51.115553 C 71.836444,52.691678 66.872168,55.741655 68.615896,52.343318 C 69.521432,51.662775 67.348836,51.539035 68.841331,50.369986 C 70.162167,49.028773 65.970499,49.155198 67.557610,50.601966 C 66.638087,51.869802 66.223629,53.218311 64.416495,53.438931 C 65.958970,53.266808 67.562319,53.017332 66.378980,54.663766 C 67.272143,58.019350 61.664882,56.267292 60.976838,58.744228 C 58.937872,62.025018 64.030507,61.851525 65.484271,60.235058 C 65.238801,57.201163 68.360938,58.096624 69.999154,57.797114 C 71.720177,56.519614 73.537363,60.471593 74.389124,61.884317 C 75.505754,62.473569 76.731059,60.164462 75.030423,59.567315 C 75.232168,58.433203 71.580291,56.513822 73.891580,56.431120 C 75.436444,57.252731 76.305567,58.954881 76.596867,60.063258 C 79.675843,59.923800 75.331353,63.482157 78.286539,62.399866 C 80.159048,62.064679 78.084794,58.941651 80.570481,60.166387 C 83.712160,61.372784 79.491741,56.112608 83.078314,56.090367 C 84.744577,55.106440 83.850570,59.509836 84.876591,57.357406 C 85.459122,53.870520 90.123241,58.657830 87.997603,60.053952 C 85.295055,59.302347 82.572895,59.083092 81.402349,62.126392 C 81.239124,63.559501 85.338427,60.058739 84.860282,62.614940 C 85.724483,65.325787 81.467864,65.819496 79.862193,64.880282 C 78.385936,63.103212 77.011113,64.759361 75.912339,65.567940 C 74.199541,65.328557 68.501457,64.875896 70.910242,62.322985 C 71.547393,59.657616 67.583056,62.080369 66.140190,61.479899 C 64.318434,62.466828 61.511570,61.592807 60.055205,63.064487 C 59.846922,64.771080 57.117453,63.830171 56.670589,65.883829 C 55.639157,68.221625 52.220939,69.002360 52.134827,71.508249 C 52.036766,74.308955 50.717547,76.857507 52.182558,79.616767 C 52.534874,82.438878 55.208250,84.184810 57.943555,83.521904 C 59.527364,83.487851 61.013180,85.469553 62.127140,83.079842 C 63.922323,80.122521 65.758067,84.728185 68.008480,83.532304 C 69.861728,85.666920 66.458413,88.206222 69.363339,89.700670 C 71.799048,92.281027 71.075365,95.864953 70.011244,98.861110 C 70.027693,101.27377 73.194818,102.52970 73.136825,104.92098 C 72.894941,108.34346 75.974970,111.34611 79.335547,109.69210 C 81.513555,109.07810 82.395541,106.49154 84.628380,105.89425 C 86.323043,104.46389 85.586426,100.28524 88.679953,100.18355 C 92.901636,98.771717 89.872922,93.724705 91.023435,90.867259 C 92.710998,88.873875 93.427298,85.923659 96.012313,84.819582 C 98.010293,83.070083 96.691283,79.543951 98.717883,77.562434 C 97.001293,78.885718 94.112604,80.043396 92.233416,78.436078 C 89.325184,75.913177 86.933552,72.757354 85.450477,69.197799 C 84.756457,67.624007 84.800461,64.459076 86.520992,64.473901 C 86.792049,67.776625 89.128289,70.437009 90.758492,73.179080 C 92.318401,74.961211 93.406350,77.755379 96.301153,76.821287 C 98.746843,75.992199 102.09955,74.371548 102.15325,71.471867 C 101.92493,68.188228 96.069323,71.254797 94.914170,67.904224 C 92.603724,66.527706 96.486593,64.254160 97.186733,66.806419 C 98.686183,68.336150 101.37565,67.527656 102.47829,69.594669 C 104.71029,68.596949 106.49598,69.299157 107.41551,71.640776 C 109.38277,73.588866 109.91524,76.540983 109.84201,79.210571 C 112.42366,81.727376 111.63016,75.548500 112.31272,74.029212 C 112.41556,72.588224 112.56108,70.813507 113.16801,73.170390 C 115.05702,74.075670 113.74070,70.226925 113.30943,69.360454 C 109.99658,61.791916 108.93183,60.405340 105.29788,56.048212 C 99.300563,50.165956 94.427167,47.655700 87.787558,45.466592 C 87.304845,47.824477 84.356480,45.748916 82.950237,47.723486 C 81.474753,48.838710 81.467372,48.696405 82.501896,47.215466 C 81.750589,45.868234 80.044396,45.224005 78.731363,44.463023 z M 68.270187,47.096380 C 66.795548,46.398376 63.142264,48.702282 66.413495,48.546833 C 67.338503,48.739538 67.647165,47.538302 68.270187,47.096380 z M 66.182789,50.548655 C 65.005564,50.998829 62.209594,51.791500 64.680874,52.319440 C 65.388458,51.987178 65.849450,51.224700 66.182789,50.548655 z M 72.926714,60.584339 C 71.136521,61.482457 72.809533,63.267609 73.754434,61.569152 C 73.530053,61.196927 73.178229,60.934468 72.926714,60.584339 z M 113.31035,79.692288 C 110.68111,81.484347 116.42496,82.832994 113.31035,79.692288 z M 38.163137,84.268557 C 38.010598,87.553487 38.853852,91.016355 39.587306,94.559152 C 40.533753,96.235438 41.170272,99.668373 42.259416,100.15314 C 43.394323,97.550231 41.060190,94.638955 42.421305,91.946025 C 40.782807,90.657214 42.987529,87.800467 40.323995,87.021796 C 39.485731,86.202091 38.861303,85.202303 38.163137,84.268557 z M 95.808103,94.866241 C 95.536423,97.899119 91.406819,98.611395 92.176830,101.68534 C 92.912530,103.29681 91.816214,103.41574 91.647018,104.72191 C 93.165385,105.88676 94.455994,102.09484 95.619713,101.06539 C 95.891123,99.566722 99.430253,94.515023 95.808103,94.866241 z " />
  <path
     id="path4861"
     style="fill:url(#linearGradient26786);fill-opacity:1.0000000;fill-rule:evenodd;stroke:none;stroke-width:1.2500000;stroke-linecap:butt;stroke-linejoin:miter;stroke-miterlimit:4.0000000;stroke-opacity:1.0000000"
     d="M 115.48758,82.890611 C 115.48758,61.656148 98.273623,44.442216 77.039160,44.442216 C 55.804701,44.442216 38.590739,61.656148 38.590739,82.890611 C 38.590739,104.12507 55.804701,121.33900 77.039160,121.33900 C 98.273623,121.33900 115.48758,104.12507 115.48758,82.890611 z " />
  <path
     id="path4289"
     style="fill:url(#linearGradient26784);fill-opacity:1.0000000;fill-rule:evenodd;stroke:none;stroke-width:2.3390312;stroke-linecap:butt;stroke-linejoin:miter;stroke-miterlimit:4.0000000;stroke-opacity:1.0000000"
     d="M 113.34317,81.211650 C 113.34317,60.223468 97.456593,43.209179 77.859429,43.209179 C 58.262270,43.209179 42.375613,60.223468 42.375613,81.211650 C 42.375613,102.19984 58.262270,119.21412 77.859429,119.21412 C 97.456593,119.21412 113.34317,102.19984 113.34317,81.211650 z " />
  <path
     id="path4290"
     style="fill:#ffffff;fill-opacity:0.58854169;fill-rule:evenodd;stroke:none;stroke-width:1.0000000pt;stroke-linecap:butt;stroke-linejoin:miter;stroke-opacity:1.0000000"
     d="M 73.729619,43.804672 C 70.332069,44.546245 66.699595,44.730684 63.666029,46.591088 C 62.491054,46.687076 57.744269,48.549328 60.912307,48.872696 C 62.874581,48.315774 63.786513,46.275388 65.977316,46.446499 C 68.329305,45.746751 70.748354,44.914189 73.312421,44.424341 C 73.577080,44.301332 73.582493,44.009701 73.729619,43.804672 z M 78.731363,44.463023 C 77.034169,46.414951 73.120587,46.290852 72.886717,49.470293 C 73.686599,50.569659 77.622466,45.395341 78.779867,48.591751 C 79.007832,50.734802 77.579587,53.439886 75.105285,52.043379 C 73.904724,51.943159 72.409626,52.189937 72.459536,51.115553 C 71.836444,52.691678 66.872168,55.741655 68.615896,52.343318 C 69.521432,51.662775 67.348836,51.539035 68.841331,50.369986 C 70.162167,49.028773 65.970499,49.155198 67.557610,50.601966 C 66.638087,51.869802 66.223629,53.218311 64.416495,53.438931 C 65.958970,53.266808 67.562319,53.017332 66.378980,54.663766 C 67.272143,58.019350 61.664882,56.267292 60.976838,58.744228 C 58.937872,62.025018 64.030507,61.851525 65.484271,60.235058 C 65.238801,57.201163 68.360938,58.096624 69.999154,57.797114 C 71.720177,56.519614 73.537363,60.471593 74.389124,61.884317 C 75.505754,62.473569 76.731059,60.164462 75.030423,59.567315 C 75.232168,58.433203 71.580291,56.513822 73.891580,56.431120 C 75.436444,57.252731 76.305567,58.954881 76.596867,60.063258 C 79.675843,59.923800 75.331353,63.482157 78.286539,62.399866 C 80.159048,62.064679 78.084794,58.941651 80.570481,60.166387 C 83.712160,61.372784 79.491741,56.112608 83.078314,56.090367 C 84.744577,55.106440 83.850570,59.509836 84.876591,57.357406 C 85.459122,53.870520 90.123241,58.657830 87.997603,60.053952 C 85.295055,59.302347 82.572895,59.083092 81.402349,62.126392 C 81.239124,63.559501 85.338427,60.058739 84.860282,62.614940 C 85.724483,65.325787 81.467864,65.819496 79.862193,64.880282 C 78.385936,63.103212 77.011113,64.759361 75.912339,65.567940 C 74.199541,65.328557 68.501457,64.875896 70.910242,62.322985 C 71.547393,59.657616 67.583056,62.080369 66.140190,61.479899 C 64.318434,62.466828 61.511570,61.592807 60.055205,63.064487 C 59.846922,64.771080 57.117453,63.830171 56.670589,65.883829 C 55.639157,68.221625 52.220939,69.002360 52.134827,71.508249 C 52.036766,74.308955 50.717547,76.857507 52.182558,79.616767 C 52.534874,82.438878 55.208250,84.184810 57.943555,83.521904 C 59.527364,83.487851 61.013180,85.469553 62.127140,83.079842 C 63.922323,80.122521 65.758067,84.728185 68.008480,83.532304 C 69.861728,85.666920 66.458413,88.206222 69.363339,89.700670 C 71.799048,92.281027 71.075365,95.864953 70.011244,98.861110 C 70.027693,101.27377 73.194818,102.52970 73.136825,104.92098 C 72.894941,108.34346 75.974970,111.34611 79.335547,109.69210 C 81.513555,109.07810 82.395541,106.49154 84.628380,105.89425 C 86.323043,104.46389 85.586426,100.28524 88.679953,100.18355 C 92.901636,98.771717 89.872922,93.724705 91.023435,90.867259 C 92.710998,88.873875 93.427298,85.923659 96.012313,84.819582 C 98.010293,83.070083 96.691283,79.543951 98.717883,77.562434 C 97.001293,78.885718 94.112604,80.043396 92.233416,78.436078 C 89.325184,75.913177 86.933552,72.757354 85.450477,69.197799 C 84.756457,67.624007 84.800461,64.459076 86.520992,64.473901 C 86.792049,67.776625 89.128289,70.437009 90.758492,73.179080 C 92.318401,74.961211 93.406350,77.755379 96.301153,76.821287 C 98.746843,75.992199 102.09955,74.371548 102.15325,71.471867 C 101.92493,68.188228 96.069323,71.254797 94.914170,67.904224 C 92.603724,66.527706 96.486593,64.254160 97.186733,66.806419 C 98.686183,68.336150 101.37565,67.527656 102.47829,69.594669 C 104.71029,68.596949 106.49598,69.299157 107.41551,71.640776 C 109.38277,73.588866 109.91524,76.540983 109.84201,79.210571 C 112.42366,81.727376 111.63016,75.548500 112.31272,74.029212 C 112.41556,72.588224 112.56108,70.813507 113.16801,73.170390 C 115.05702,74.075670 113.74070,70.226925 113.30943,69.360454 C 109.99658,61.791916 108.93183,60.405340 105.29788,56.048212 C 99.300563,50.165956 94.427167,47.655700 87.787558,45.466592 C 87.304845,47.824477 84.356480,45.748916 82.950237,47.723486 C 81.474753,48.838710 81.467372,48.696405 82.501896,47.215466 C 81.750589,45.868234 80.044396,45.224005 78.731363,44.463023 z M 68.270187,47.096380 C 66.795548,46.398376 63.142264,48.702282 66.413495,48.546833 C 67.338503,48.739538 67.647165,47.538302 68.270187,47.096380 z M 66.182789,50.548655 C 65.005564,50.998829 62.209594,51.791500 64.680874,52.319440 C 65.388458,51.987178 65.849450,51.224700 66.182789,50.548655 z M 72.926714,60.584339 C 71.136521,61.482457 72.809533,63.267609 73.754434,61.569152 C 73.530053,61.196927 73.178229,60.934468 72.926714,60.584339 z M 113.31035,79.692288 C 110.68111,81.484347 116.42496,82.832994 113.31035,79.692288 z M 38.163137,84.268557 C 38.010598,87.553487 38.853852,91.016355 39.587306,94.559152 C 40.533753,96.235438 41.170272,99.668373 42.259416,100.15314 C 43.394323,97.550231 41.060190,94.638955 42.421305,91.946025 C 40.782807,90.657214 42.987529,87.800467 40.323995,87.021796 C 39.485731,86.202091 38.861303,85.202303 38.163137,84.268557 z M 95.808103,94.866241 C 95.536423,97.899119 91.406819,98.611395 92.176830,101.68534 C 92.912530,103.29681 91.816214,103.41574 91.647018,104.72191 C 93.165385,105.88676 94.455994,102.09484 95.619713,101.06539 C 95.891123,99.566722 99.430253,94.515023 95.808103,94.866241 z " />
  <path
     id="path4291"
     style="fill:none;fill-opacity:1.0000000;fill-rule:evenodd;stroke:none;stroke-width:3.7500000;stroke-linecap:butt;stroke-linejoin:miter;stroke-miterlimit:4.0000000;stroke-opacity:1.0000000"
     d="M 118.65351,82.962086 C 118.65351,60.047239 100.07731,41.471073 77.162458,41.471073 C 54.247603,41.471073 35.671474,60.047239 35.671474,82.962086 C 35.671474,105.87695 54.247603,124.45311 77.162458,124.45311 C 100.07731,124.45311 118.65351,105.87695 118.65351,82.962086 z " />
  <path
     id="path4292"
     style="fill:none;fill-opacity:0.94117647;fill-rule:evenodd;stroke:none;stroke-width:5.8040280;stroke-linecap:butt;stroke-linejoin:miter;stroke-miterlimit:4.0000000;stroke-opacity:1.0000000"
     d="M 118.65351,82.962086 C 118.65351,60.047239 100.07731,41.471073 77.162458,41.471073 C 54.247603,41.471073 35.671474,60.047239 35.671474,82.962086 C 35.671474,105.87695 54.247603,124.45311 77.162458,124.45311 C 100.07731,124.45311 118.65351,105.87695 118.65351,82.962086 z " />
</svg>
