/* XPM */
static char *bb-assist16[] = {
/* columns rows colors chars-per-pixel */
"16 16 108 2",
"   c black",
".  c #373737",
"X  c #3B3131",
"o  c #3C3535",
"O  c #3F3838",
"+  c #000046",
"@  c #000048",
"#  c #03034F",
"$  c #020257",
"%  c #000059",
"&  c #00005A",
"*  c #020259",
"=  c #030359",
"-  c #00005C",
";  c #03035D",
":  c #03035F",
">  c #030360",
",  c #030362",
"<  c #030363",
"1  c #020265",
"2  c #030364",
"3  c #030365",
"4  c #030367",
"5  c #030369",
"6  c #02026A",
"7  c #03036C",
"8  c #03036D",
"9  c #03036F",
"0  c #030371",
"q  c #463A3A",
"w  c #414141",
"e  c #484141",
"r  c #4A4343",
"t  c #494444",
"y  c #4D4040",
"u  c #514949",
"i  c #554D4D",
"p  c #575151",
"a  c #585252",
"s  c #595454",
"d  c #5A5555",
"f  c #5E5353",
"g  c #5F5858",
"h  c #605656",
"j  c #615858",
"k  c #605B5B",
"l  c #665E5E",
"z  c #746951",
"x  c #676060",
"c  c #686060",
"v  c #696161",
"b  c #6A6464",
"n  c #6C6666",
"m  c #6E6767",
"M  c #716A6A",
"N  c #726969",
"B  c #776E6E",
"V  c #796F6F",
"C  c #797272",
"Z  c #7C7474",
"A  c #7D7575",
"S  c #7E7575",
"D  c #7F7676",
"F  c #05058A",
"G  c #05058C",
"H  c #05058E",
"J  c #06068C",
"K  c #06068D",
"L  c #04029D",
"P  c #0B0B91",
"I  c #0404A1",
"U  c #0404A6",
"Y  c #0306AD",
"T  c #0404A8",
"R  c #0404AA",
"E  c #0604A8",
"W  c #0606A9",
"Q  c #0404AC",
"!  c #0404AE",
"~  c #0404AF",
"^  c #0202B1",
"/  c #0303B1",
"(  c #0202B3",
")  c #0303B2",
"_  c #0303B3",
"`  c #0303B4",
"'  c #0303B5",
"]  c #0303B6",
"[  c #0404B1",
"{  c #0000DC",
"}  c blue",
"|  c #3A00C7",
" . c #005BBC",
".. c #541DAC",
"X. c #4544AF",
"o. c #807777",
"O. c #817979",
"+. c #827A7A",
"@. c #837A7A",
"#. c #847B7B",
"$. c #857D7D",
"%. c #867D7D",
"&. c #867E7E",
"*. c #8E8154",
"=. c #A7945C",
"-. c #9C9191",
";. c gray100",
":. c None",
/* pixels */
":.:.:.:.:.:.- * * * :.:.:.:.:.:.",
":.:.:.:.:.1 K P P F * :.:.:.:.:.",
":.:.:.:.:.0 K P P K 1 :.:.:.:.:.",
":.z =.*.:.0 K P P F 1 b B m D f ",
":.m -.$.:.0 ^ { { ^ 1 i y   D D ",
":.O C d :.0 _ } } ] 1 :.:.r @.b ",
":.:.m p :.7 _ } } ] 1 :.q @.c :.",
":.:.l p :.7 ) } } ] 1 :.h #.:.:.",
":.:.N p :.7 Q } } [ , :.w t :.:.",
":.d $.r :.5 ^ } } ^ , :.k C :.:.",
"h @.g :.:.5 Q } } Y , :.p N O :.",
"@.A :.:.X 1 W }  .Y : :.$.-.m :.",
"x $.D A c 1 W } X.W - :.*.=.z :.",
":.. u o :.1 U } ..W ; :.:.:.:.:.",
":.:.:.:.:.$ I } | L # :.:.:.:.:.",
":.:.:.:.:.:.+ * * @ :.:.:.:.:.:."
};
