/* XPM */
static char *bb-assi32[] = {
/* columns rows colors chars-per-pixel */
"32 32 165 2",
"   c #001300130020",
".  c #01C603090B55",
"X  c #0B650A7F07B3",
"o  c #0C650BE80B80",
"O  c #054D070F133C",
"+  c #01B904F31884",
"@  c #10370F460D7B",
"#  c #151014AC1469",
"$  c #1A6A199017C6",
"%  c #1C281B401B2E",
"&  c #00FF05DB2320",
"*  c #043C06EB2C48",
"=  c #06FE0B8723C7",
"-  c #09150D2E2801",
";  c #09B70E712954",
":  c #09060F6937E3",
">  c #0F1913462EAF",
",  c #0B7510F0368E",
"<  c #0B5E132D3A50",
"1  c #112A15CC3023",
"2  c #17961BC93548",
"3  c #20D21F041B30",
"4  c #24D223942387",
"5  c #2D692BA42AE5",
"6  c #31792FFC2FFC",
"7  c #353A331732B6",
"8  c #3A7036B33436",
"9  c #3D063AF23AE9",
"0  c #0AD50E64404C",
"q  c #106A17E94BB3",
"w  c #16FA1DE85783",
"e  c #1BAC206A477A",
"r  c #1F6D24DB4A89",
"t  c #1D4323E05822",
"y  c #1A6022DE5C3D",
"u  c #150F269B616D",
"i  c #1DB22DC26D4B",
"p  c #1D8C244C7490",
"a  c #22EF29E85D99",
"s  c #350F37554F1A",
"d  c #270A2CFF617F",
"f  c #29102EF961ED",
"g  c #268F2B8571BE",
"h  c #2C8F31EE647C",
"j  c #2F5736836BD3",
"k  c #2A7831CE7F62",
"l  c #3100374864FB",
"z  c #3149374E6C5C",
"x  c #393D3F2869E6",
"c  c #3E2A42BC7BA8",
"v  c #41243E473DEE",
"b  c #80432FFD7A5B",
"n  c #426C40E53D3C",
"m  c #44C2425C425C",
"M  c #4ACA471C471C",
"N  c #51394EA74EA7",
"B  c #5748533F4F84",
"V  c #55D351E951D8",
"C  c #5A215682555F",
"Z  c #5D41599F59AA",
"A  c #456E47576138",
"S  c #572555EE642D",
"D  c #6366542B542B",
"F  c #62D95E535E59",
"G  c #664262A862B7",
"H  c #6A3B660C652B",
"J  c #6FD16A9568FA",
"K  c #74CB6EDC6EDC",
"L  c #765B70A16CCD",
"P  c #76FF71FD71FD",
"I  c #75B271587EBE",
"U  c #7B9376387611",
"Y  c #7BC37CC27717",
"T  c #7F037A417A27",
"R  c #150A150A95B9",
"E  c #19AC19AC97FA",
"W  c #1EF71EF79A81",
"Q  c #241624179CD3",
"!  c #298429859F4E",
"~  c #2AE833C2865B",
"^  c #2CC6341090BF",
"/  c #34613BE18997",
"(  c #338C390D96AE",
")  c #390E3E8193B7",
"_  c #3B283FA69F81",
"`  c #2E082E00A152",
"'  c #34893480A40E",
"]  c #3B6C3BC0A6EE",
"[  c #3E8B3EA0A913",
"{  c #3CB544AF97C2",
"}  c #3FC044B8A08A",
"|  c #403F4083A86B",
" . c #415B401AA897",
".. c #49073E4CA4B7",
"X. c #430144F692FD",
"o. c #417F44C79E9B",
"O. c #43A2491E957A",
"+. c #45884C3B9AD5",
"@. c #4B0052E69D55",
"#. c #4323452AA6BC",
"$. c #43F24466AB15",
"%. c #4D7A4F54A6C0",
"&. c #4D9D4D8FAF19",
"*. c #4D0D54CAA8BC",
"=. c #50345912A20C",
"-. c #52CB5851A139",
";. c #50FC51B1B097",
":. c #54995B5DA456",
">. c #5502552BB24C",
",. c #5B8E5BB1B539",
"<. c #53B0650EACF2",
"1. c #50F76A06A971",
"2. c #5CCE6229AB2F",
"3. c #63DF59E892B7",
"4. c #68CA541B97EF",
"5. c #60F35E25A0E0",
"6. c #65836B3A9229",
"7. c #7993772C827F",
"8. c #61F267F2A6D7",
"9. c #6D306F0CA80F",
"0. c #61736167B7DB",
"q. c #65A265B5BA00",
"w. c #64E868FEB196",
"e. c #689E6D42B39B",
"r. c #6C086C8BBCB2",
"t. c #6F6D724DAE44",
"y. c #6D1271AEB5D1",
"u. c #72ED72F4C003",
"i. c #77797B44BD1F",
"p. c #76187636C18A",
"a. c #77FA78ECC0C9",
"s. c #7C537C77C47E",
"d. c #2E7E96158854",
"f. c #36DA8B5C9034",
"g. c #3CE1829496D0",
"h. c #95481EE16182",
"j. c #876523396CAC",
"k. c #85AD603171D1",
"l. c #86A563A06F39",
"z. c #83DB7D1E7D20",
"x. c #85017F0D8126",
"c. c #935086946F1F",
"v. c #A69D92F559AB",
"b. c #A67A94856244",
"n. c #A54F96686FAC",
"m. c #A4EA95F87CC9",
"M. c #AD799BBA7736",
"N. c #AD219C967BD9",
"B. c #B3169F3064B1",
"V. c #B1C19FFD7079",
"C. c #BE0EA88E69DE",
"Z. c #B6B0A4187428",
"A. c #878681EE81EE",
"S. c #8C5D851D8526",
"D. c #8E8586AC88C2",
"F. c #9136881A8361",
"G. c #92E089AA8592",
"H. c #95058CD08CE1",
"J. c #9B6690D29008",
"K. c #9AEE921C925D",
"L. c #839983C4C794",
"P. c #87C987C8C9B1",
"I. c #8863888BC94E",
"U. c #8DF08E87CCCC",
"Y. c None",
/* pixels */
"Y.Y.Y.Y.Y.Y.Y.Y.Y.Y.Y.Y.Y.Y.Y.Y.Y.Y.Y.Y.Y.Y.Y.Y.Y.Y.Y.Y.Y.Y.Y.Y.",
"Y.Y.Y.Y.Y.Y.Y.Y.Y.Y.Y.Y.Y.Y.Y.Y.Y.Y.Y.Y.Y.Y.Y.Y.Y.Y.Y.Y.Y.Y.Y.Y.",
"Y.Y.Y.Y.Y.Y.Y.Y.Y.Y.Y.Y.Y.Y.Y.Y.Y.Y.Y.Y.Y.Y.Y.Y.Y.Y.Y.Y.Y.Y.Y.Y.",
"Y.Y.Y.Y.Y.Y.Y.Y.Y.Y.Y.Y.Y.  . , a a h d <   Y.Y.Y.Y.Y.Y.Y.Y.Y.Y.",
"Y.Y.Y.% 8 8 8 7 # Y.Y.Y.Y.. g +.,.q.r.r.-.r . Y.Y.Y.Y.Y.Y.Y.Y.Y.",
"Y.Y.Y.B Z.C.C.Z.n Y.Y.Y.  e %.,.,.0.q.p.p.@.* Y.Y.Y.Y.Y.Y.Y.Y.Y.",
"Y.Y.Y.C m.M.M.m.v Y.Y.Y.- { <.1.<.0.0.r.a.r.t Y.Y.Y.Y.Y.Y.Y.Y.Y.",
"Y.Y.Y.C K.J.J.F.8 Y.Y.. y *.g.d.f.<.0.r.p.s.z   Y.Y.Y.Y.Y.Y.Y.Y.",
"Y.Y.Y.V D.H.H.S.9 Y.Y.. / :.z.Y 6.>.>.q.q.L.O.&   # 4 $   Y.Y.Y.",
"Y.Y.Y.4 P S.D.U $ Y.Y.< } 4.l.l.3.>.,.0.q.s.-.A C G T H C 4   Y.",
"Y.Y.Y.  s c.S.8 Y.Y.Y.a &.b h.j...&.,.,.r.L.t.I S.L H z.x.U 4 Y.",
"Y.Y.Y.Y.7 K.K.7 Y.Y.+ ~ ;.;.| $.&.;.>.>.u.s.t.S 8 3 # 7 T D.Z Y.",
"Y.Y.Y.Y.7 J.K.7 Y.Y.> | i.I.s.a.L.L.,.>.r.L.y.2 Y.Y.Y.o U F.Z Y.",
"Y.Y.Y.Y.# 9 9 # Y.. y #.q.r.,.,.q.r.>.>.r.L.y.1 Y.Y.. 9 z.D.V Y.",
"Y.Y.Y.Y.5 z.T 5 Y.. ~ #.] ` ! ` ] $.>.>.r.L.e.> Y.  s c.A.G @ Y.",
"Y.Y.Y.Y.8 H.D.7 Y.O ) [ ` Q W ! ' $.&.,.u.L.w.>   v z.x.F @ Y.Y.",
"Y.Y.Y.. D D.P $ Y.q _ ] ` W E ! ' $.&.,.p.L.2.> $ P S.Z @ Y.Y.Y.",
"Y.Y.3 C z.x.M Y.Y.a $.' Q R E Q ' $.&.,.a.L.:.& 5 S.D.7 Y.Y.Y.Y.",
"Y.4 P S.z.N X Y.  d $.` Q R R Q ' $.;.0.s.I.=.* 5 D.K.7 Y.Y.Y.Y.",
"Y.C D.T 5 X Y.Y.+ ~ $.` E R E ! ] &.>.0.i.L.%.& # 9 v # Y.Y.Y.Y.",
"Y.C D.P o Y.Y.Y.= ^ [ ` W R E ` ] &.>.q.s.I.#.& 5 z.z.5 Y.Y.Y.Y.",
"Y.F D.z.8 o o 8 C { [ ` Q E Q `  .&.>.r.L.U.A . 7 K.J.6 Y.Y.Y.Y.",
"Y.9 c.7.U K P T 7.O.] ` Q W Q ' $.>.,.u.P.U.x   M x.z.M   Y.Y.Y.",
"Y.. 5 Z U T T K s ) ] ` ! ! ` ] &.>.,.r.P.U.l X P z.z.U 7 Y.Y.Y.",
"Y.Y.Y.X o o o X * ^ ] ' ! ! ' [ &.,.0.a.U.I.a o z.J.J.J.F Y.Y.Y.",
"Y.Y.Y.Y.Y.Y.Y.Y.+ g [ ' ' ' ] $.;.0.u.L.U.8.+ o z.J.J.K.G Y.Y.Y.",
"Y.Y.Y.Y.Y.Y.Y.Y.Y.w ] [ ] ] [ &.,.q.a.L.i.z . o c.M.M.J.H Y.Y.Y.",
"Y.Y.Y.Y.Y.Y.Y.Y.Y.+ p ( ] #.$.>.0.q.r.2.j o Y.o n.C.v.v.C Y.Y.Y.",
"Y.Y.Y.Y.Y.Y.Y.Y.Y.  . : y a d f h h d 0 . Y.Y.X T n X @ X Y.Y.Y.",
"Y.Y.Y.Y.Y.Y.Y.Y.Y.Y.Y.Y.Y.Y.Y.Y.Y.Y.Y.Y.Y.Y.Y.Y.Y.Y.Y.Y.Y.Y.Y.Y.",
"Y.Y.Y.Y.Y.Y.Y.Y.Y.Y.Y.Y.Y.Y.Y.Y.Y.Y.Y.Y.Y.Y.Y.Y.Y.Y.Y.Y.Y.Y.Y.Y.",
"Y.Y.Y.Y.Y.Y.Y.Y.Y.Y.Y.Y.Y.Y.Y.Y.Y.Y.Y.Y.Y.Y.Y.Y.Y.Y.Y.Y.Y.Y.Y.Y."
};
