/* XPM */
static char *bb-assist16[] = {
/* columns rows colors chars-per-pixel */
"16 16 146 2",
"   c black",
".  c gray17",
"X  c #393939",
"o  c #000066",
"O  c #434343",
"+  c #464646",
"@  c #4E4E4E",
"#  c #505050",
"$  c #5A5555",
"%  c #5D5D5D",
"&  c #615E5E",
"*  c gray42",
"=  c #6C6868",
"-  c #6E6A6A",
";  c #726F6F",
":  c #736F6F",
">  c #746868",
",  c #777474",
"<  c #797272",
"1  c #7D7777",
"2  c #7D7878",
"3  c #7E7878",
"4  c #7E7979",
"5  c #7E7A7A",
"6  c navy",
"7  c #141495",
"8  c #191997",
"9  c #1C1C99",
"0  c #1C398E",
"q  c #21219B",
"w  c #24249C",
"e  c #26269D",
"r  c #29299E",
"t  c #263380",
"y  c #2C2CA0",
"u  c #2E2EA1",
"i  c #3232A3",
"p  c #3333A3",
"a  c #3535A4",
"s  c #3636A4",
"d  c #3939A6",
"f  c #3A3AA6",
"g  c #3F3FA8",
"h  c #354080",
"j  c #334488",
"k  c #37458A",
"l  c #743281",
"z  c #445093",
"x  c #4A519F",
"c  c #4D559E",
"v  c #5E5E81",
"b  c #4040A9",
"n  c #4141A9",
"m  c #4242AA",
"M  c #4545AB",
"N  c #4646AC",
"B  c #4A4AAC",
"V  c #4A4BAC",
"C  c #4B4BAC",
"Z  c #4B4BAE",
"A  c #4C4CAD",
"S  c #4F4FAE",
"D  c #4351A1",
"F  c #5155A9",
"G  c #565DA2",
"H  c #555EA4",
"J  c #5855A5",
"K  c #5151B0",
"L  c #5353B0",
"P  c #5656B3",
"I  c #5959B3",
"U  c #5B5BB4",
"Y  c #5A6095",
"T  c #4D6FA5",
"R  c #5961A3",
"E  c #5C66A3",
"W  c #5C64A6",
"Q  c #5E66A6",
"!  c #5E60B1",
"~  c #664EA2",
"^  c #62638F",
"/  c #7F7280",
"(  c #6465AD",
")  c #646CA8",
"_  c #6363B9",
"`  c #6565B9",
"'  c #6666B9",
"]  c #6A6EB5",
"[  c #696ABA",
"{  c #6A6ABB",
"}  c #6B6DB9",
"|  c #6D6DBD",
" . c #6F6FBE",
".. c #6C70B4",
"X. c #6E75B0",
"o. c #7074B7",
"O. c #7171BF",
"+. c #7172BC",
"@. c #7278B6",
"#. c #767CB6",
"$. c #797EB9",
"%. c #7575C1",
"&. c #7676C2",
"*. c #7A7AC3",
"=. c #7E7EC5",
"-. c #47809C",
";. c #7980B7",
":. c #7B80B9",
">. c #7B80BA",
",. c #807B7B",
"<. c #837F7F",
"1. c #847E7E",
"2. c #9F8F66",
"3. c #9A8B7F",
"4. c #A8966B",
"5. c #B4A47E",
"6. c #838181",
"7. c #848181",
"8. c #878181",
"9. c #878585",
"0. c #888383",
"q. c #898282",
"w. c #888484",
"e. c #8A8787",
"r. c #8B8787",
"t. c #8C8282",
"y. c #8C8888",
"u. c #8D8A8A",
"i. c #8E8888",
"p. c #8F8989",
"a. c #8E8A8A",
"s. c #8E8B8B",
"d. c #918A8A",
"f. c #928F8F",
"g. c #938E8E",
"h. c #948D8D",
"j. c #948F8F",
"k. c #958F8F",
"l. c #9A8F8F",
"z. c #949090",
"x. c #A09185",
"c. c #B4A481",
"v. c #8082C1",
"b. c #8181C6",
"n. c gray100",
"m. c None",
/* pixels */
"m.m.m.m.m.m.m.m.m.m.m.m.m.m.m.m.",
"m.m.m.m.m.m.m.m.z c m.m.m.m.m.m.",
"m.+ 5.c.O m.D ] ` [ @.m.m.m.m.m.",
"m.$ x.3.X m.o.-.T _ O.k m.m.m.m.",
"m.# 1 2   o ( / J U { ) r.a.< m.",
"m.m.,.<.m.Q ~ l M K | v r.r.2 ,.",
"m.m.g.j.m...=.O.&.A  .$.m.% 2 7.",
"m.m.j.g.m.! f r a C  .>.@ 2 w.m.",
"m.* a.9.t C u 9 i C O.;.s.r.m.m.",
"* a.<.m.G M e 7 a A &.#.a.j.m.m.",
"j.7.m.m.Y m q 8 f K *.X.0.1.m.m.",
"> 0.< = ^ b e e m I b.Q = & . m.",
"m.m.m.m.Q m r i C ` v.h t.l.; m.",
"m.m.m.m.0 F a g P } ;.  2.4., m.",
"m.m.m.m.m.6 x H R j m.m.    m.m.",
"m.m.m.m.m.m.m.m.m.m.m.m.m.m.m.m."
};
