<?xml version="1.0" encoding="UTF-8" standalone="no"?>
<!-- Created with Inkscape (http://www.inkscape.org/) -->
<!-- 
Created By Andrew Fitzsimon.
Much of this document has been manually cleaned and crafted in a text editor so that only the colour definitions and basic presentation related data remain in the XML. 
Changes to this document may compromise the structure of this palette.
-->
<svg
   xmlns:dc="http://purl.org/dc/elements/1.1/"
   xmlns:cc="http://web.resource.org/cc/"
   xmlns:rdf="http://www.w3.org/1999/02/22-rdf-syntax-ns#"
   xmlns:svg="http://www.w3.org/2000/svg"
   xmlns="http://www.w3.org/2000/svg"
   xmlns:xlink="http://www.w3.org/1999/xlink"
   xmlns:sodipodi="http://inkscape.sourceforge.net/DTD/sodipodi-0.dtd"
   xmlns:inkscape="http://www.inkscape.org/namespaces/inkscape"
   version="1.0"
   x="00"
   y="00"
   width="128"
   height="128"
   id="Etiquette"
   sodipodi:version="0.32"
   inkscape:version="0.41+cvs"
   sodipodi:docname="firefox.svg"
   sodipodi:docbase="/home/andy/Desktop/Etiquette/human/scalable/apps">
  <metadata
     id="About">
    <rdf:RDF
       id="RDF232">
      <cc:Work
         rdf:about=""
         id="Work233">
        <dc:format
           id="format234">image/svg+xml</dc:format>
        <dc:type
           id="type236"
           rdf:resource="http://purl.org/dc/dcmitype/StillImage" />
        <dc:creator
           id="creator1291">
          <cc:Agent
             id="Agent1292">
            <dc:title
               id="title1293">Andrew Fitzsimon</dc:title>
          </cc:Agent>
        </dc:creator>
        <dc:date
           id="date1295">2004-12-25</dc:date>
        <dc:title
           id="title1297">Etiquette Icon</dc:title>
        <cc:license
           id="license1299"
           rdf:resource="http://creativecommons.org/licenses/by/2.0/" />
        <dc:rights
           id="rights1308">
          <cc:Agent
             id="Agent1309">
            <dc:title
               id="title1310">Andrew Fitzsimon</dc:title>
          </cc:Agent>
        </dc:rights>
      </cc:Work>
      <cc:License
         rdf:about="http://creativecommons.org/licenses/by/2.0/"
         id="License1300">
        <cc:permits
           rdf:resource="http://web.resource.org/cc/Reproduction"
           id="permits1301" />
        <cc:permits
           rdf:resource="http://web.resource.org/cc/Distribution"
           id="permits1302" />
        <cc:requires
           rdf:resource="http://web.resource.org/cc/Notice"
           id="requires1303" />
        <cc:requires
           rdf:resource="http://web.resource.org/cc/Attribution"
           id="requires1304" />
        <cc:prohibits
           rdf:resource="http://web.resource.org/cc/CommercialUse"
           id="prohibits1305" />
        <cc:permits
           rdf:resource="http://web.resource.org/cc/DerivativeWorks"
           id="permits1306" />
        <cc:requires
           rdf:resource="http://web.resource.org/cc/ShareAlike"
           id="requires1307" />
      </cc:License>
    </rdf:RDF>
  </metadata>
  <sodipodi:namedview
     id="base"
     pagecolor="#838383"
     bordercolor="#666666"
     borderopacity="1.0"
     inkscape:pageopacity="0.0000000"
     inkscape:pageshadow="0"
     inkscape:zoom="0.50000000"
     inkscape:cx="117.28241"
     inkscape:cy="62.004883"
     inkscape:window-width="491"
     inkscape:window-height="681"
     inkscape:window-x="222"
     inkscape:window-y="20"
     inkscape:current-layer="Etiquette"
     showgrid="false"
     gridspacingx="8.0000000pt"
     gridspacingy="8.0000000pt"
     gridoriginy="0.0000000pt"
     gridoriginx="0pt"
     inkscape:grid-points="false"
     gridtolerance="40pt"
     showborder="true"
     inkscape:grid-bbox="false"
     gridcolor="#3f3fff"
     gridopacity="0.082352941"
     gridempspacing="2"
     gridempcolor="#3f3fff"
     gridempopacity="0.082352941"
     showguides="true"
     inkscape:guide-bbox="true" />
  <defs
     id="Gradients">
    <linearGradient
       inkscape:collect="always"
       id="linearGradient867">
      <stop
         style="stop-color:#000000;stop-opacity:1;"
         offset="0"
         id="stop868" />
      <stop
         style="stop-color:#000000;stop-opacity:0;"
         offset="1"
         id="stop869" />
    </linearGradient>
    <linearGradient
       id="linearGradient117">
      <stop
         style="stop-color:#ffffff;stop-opacity:1.0000000;"
         offset="0.0000000"
         id="stop118" />
      <stop
         style="stop-color:#ffffff;stop-opacity:0;"
         offset="1"
         id="stop119" />
    </linearGradient>
    <linearGradient
       id="linearGradient2381">
      <stop
         style="stop-color:#000000;stop-opacity:0.47058824;"
         offset="0.0000000"
         id="stop2382" />
      <stop
         style="stop-color:#000000;stop-opacity:0.19191919;"
         offset="0.31578946"
         id="stop2384" />
      <stop
         style="stop-color:#6f6f6f;stop-opacity:0.0000000;"
         offset="1.0000000"
         id="stop2383" />
    </linearGradient>
    <linearGradient
       id="linearGradient1694">
      <stop
         style="stop-color:#9db8d2;stop-opacity:1.0000000;"
         offset="0.0000000"
         id="stop1696" />
      <stop
         style="stop-color:#7590ae;stop-opacity:1.0000000;"
         offset="0.56999999"
         id="stop1698" />
      <stop
         style="stop-color:#314e6c;stop-opacity:1.0000000;"
         offset="1.0000000"
         id="stop1697" />
    </linearGradient>
    <linearGradient
       id="linearGradient1693">
      <stop
         style="stop-color:#ffffff;stop-opacity:1.0000000;"
         offset="0.00000000"
         id="stop1694" />
      <stop
         style="stop-color:#ffffff;stop-opacity:0.00000000;"
         offset="1.0000000"
         id="stop1695" />
    </linearGradient>
    <linearGradient
       id="linearGradient6163">
      <stop
         style="stop-color:#ffffff;stop-opacity:1.0000000;"
         offset="0.0000000"
         id="stop6164" />
      <stop
         style="stop-color:#ffffff;stop-opacity:0.0000000;"
         offset="1.0000000"
         id="stop6165" />
    </linearGradient>
    <linearGradient
       id="MaterialSoftShadow">
      <stop
         style="stop-color:#000000;stop-opacity:0.215;"
         offset="0"
         id="stop2619" />
      <stop
         style="stop-color:#000000;stop-opacity:0.098;"
         offset="0.50000000"
         id="stop2621" />
      <stop
         style="stop-color:#000000;stop-opacity:0;"
         offset="1"
         id="stop2620" />
    </linearGradient>
    <linearGradient
       id="TransparentBlack">
      <stop
         style="stop-color:#000000;stop-opacity:0;"
         offset="0"
         id="stopBlackTransparent1" />
      <stop
         style="stop-color:#000000;stop-opacity:1;"
         offset="1"
         id="stopBlackFull1" />
    </linearGradient>
    <linearGradient
       id="WhiteTransparent">
      <stop
         style="stop-color:#ffffff;stop-opacity:1;"
         offset="0"
         id="stopWhiteFull" />
      <stop
         style="stop-color:#ffffff;stop-opacity:0;"
         offset="1"
         id="stopWhiteTransparent" />
    </linearGradient>
    <linearGradient
       inkscape:collect="always"
       xlink:href="#linearGradient1693"
       id="linearGradient26788"
       gradientUnits="userSpaceOnUse"
       gradientTransform="matrix(0.848857,0.000000,0.000000,0.739979,0.259102,3.443887)"
       x1="88.009292"
       y1="-11.108592"
       x2="72.715558"
       y2="162.85263" />
    <radialGradient
       inkscape:collect="always"
       xlink:href="#linearGradient1694"
       id="radialGradient26790"
       gradientUnits="userSpaceOnUse"
       gradientTransform="matrix(0.756423,0.000000,0.000000,0.756423,-121.4328,-123.5441)"
       cx="244.43382"
       cy="248.48956"
       fx="242.12482"
       fy="203.93304"
       r="83.198463" />
    <radialGradient
       inkscape:collect="always"
       xlink:href="#linearGradient2381"
       id="radialGradient26794"
       gradientUnits="userSpaceOnUse"
       cx="-289.09140"
       cy="598.36652"
       fx="-289.09140"
       fy="598.36652"
       r="125.20509" />
    <radialGradient
       inkscape:collect="always"
       xlink:href="#MaterialSoftShadow"
       id="radialGradient26795"
       gradientUnits="userSpaceOnUse"
       cx="-289.09140"
       cy="598.36652"
       fx="-289.09140"
       fy="598.36652"
       r="125.20509" />
    <linearGradient
       inkscape:collect="always"
       xlink:href="#TransparentBlack"
       id="linearGradient266"
       gradientUnits="userSpaceOnUse"
       gradientTransform="matrix(1.034863,0.000000,0.000000,0.966311,1.250000,-2.754284)"
       x1="99.688118"
       y1="78.300354"
       x2="97.919456"
       y2="186.39098" />
    <linearGradient
       inkscape:collect="always"
       xlink:href="#linearGradient6163"
       id="linearGradient267"
       gradientUnits="userSpaceOnUse"
       gradientTransform="matrix(1.433419,-2.801170e-7,6.968773e-8,0.356607,16.70095,20.05351)"
       x1="43.899635"
       y1="171.10580"
       x2="43.899635"
       y2="143.83127" />
    <linearGradient
       inkscape:collect="always"
       xlink:href="#WhiteTransparent"
       id="linearGradient268"
       gradientUnits="userSpaceOnUse"
       gradientTransform="matrix(1.201328,0.000000,0.000000,0.561569,0.596121,16.64240)"
       x1="66.366432"
       y1="22.893991"
       x2="66.366432"
       y2="101.42684" />
    <linearGradient
       inkscape:collect="always"
       xlink:href="#MaterialSoftShadow"
       id="linearGradient269"
       gradientUnits="userSpaceOnUse"
       gradientTransform="matrix(1.586201,0.000000,0.000000,0.630437,1.250000,-4.160534)"
       x1="48.733406"
       y1="65.609421"
       x2="48.953148"
       y2="104.85813" />
    <linearGradient
       inkscape:collect="always"
       xlink:href="#MaterialSoftShadow"
       id="linearGradient270"
       gradientUnits="userSpaceOnUse"
       gradientTransform="matrix(1.961161,0.000000,0.000000,0.509902,1.250000,-4.160534)"
       x1="44.787067"
       y1="173.81540"
       x2="44.787067"
       y2="220.83104" />
    <linearGradient
       inkscape:collect="always"
       xlink:href="#TransparentBlack"
       id="linearGradient271"
       gradientUnits="userSpaceOnUse"
       gradientTransform="matrix(1.603220,0.000000,0.000000,0.432086,-1.009641,15.45317)"
       x1="48.379337"
       y1="182.05821"
       x2="47.906109"
       y2="-14.693495" />
    <linearGradient
       inkscape:collect="always"
       xlink:href="#MaterialSoftShadow"
       id="linearGradient272"
       gradientUnits="userSpaceOnUse"
       gradientTransform="matrix(1.362771,0.000000,0.000000,0.733799,1.250000,-4.160534)"
       x1="26.374384"
       y1="157.50468"
       x2="54.654118"
       y2="134.36835" />
    <linearGradient
       inkscape:collect="always"
       xlink:href="#MaterialSoftShadow"
       id="linearGradient273"
       gradientUnits="userSpaceOnUse"
       gradientTransform="matrix(1.362771,0.000000,0.000000,0.733799,1.250000,-4.160534)"
       x1="86.836159"
       y1="171.70207"
       x2="67.888725"
       y2="147.51402" />
    <linearGradient
       inkscape:collect="always"
       xlink:href="#TransparentBlack"
       id="linearGradient274"
       gradientUnits="userSpaceOnUse"
       gradientTransform="matrix(0.849993,0.000000,0.000000,0.793687,0.596121,16.64240)"
       x1="5.0357265"
       y1="-47.032909"
       x2="353.24777"
       y2="443.13931" />
    <linearGradient
       inkscape:collect="always"
       xlink:href="#WhiteTransparent"
       id="linearGradient95"
       gradientUnits="userSpaceOnUse"
       x1="12.374367"
       y1="37.136780"
       x2="56.214989"
       y2="37.136780" />
    <linearGradient
       inkscape:collect="always"
       xlink:href="#linearGradient867"
       id="linearGradient96"
       gradientUnits="userSpaceOnUse"
       x1="409.55676"
       y1="772.36639"
       x2="402.35895"
       y2="412.47470" />
    <linearGradient
       inkscape:collect="always"
       xlink:href="#linearGradient117"
       id="linearGradient97"
       gradientUnits="userSpaceOnUse"
       x1="359.22729"
       y1="509.64545"
       x2="784.45319"
       y2="959.51013" />
  </defs>
  <path
     sodipodi:type="arc"
     style="fill:url(#radialGradient26795);fill-opacity:1.0000000;fill-rule:evenodd;stroke:none;stroke-width:1.0000000pt;stroke-linecap:butt;stroke-linejoin:miter;stroke-opacity:1.0000000"
     id="path4284"
     sodipodi:cx="-289.09140"
     sodipodi:cy="598.36652"
     sodipodi:rx="125.20509"
     sodipodi:ry="125.20509"
     d="M -163.88631 598.36652 A 125.20509 125.20509 0 1 1  -414.29649,598.36652 A 125.20509 125.20509 0 1 1  -163.88631 598.36652 z"
     transform="matrix(-0.322487,0.000000,0.000000,8.971150e-2,-32.36858,52.33634)" />
  <path
     sodipodi:type="arc"
     style="fill:url(#radialGradient26794);fill-opacity:1.0000000;fill-rule:evenodd;stroke:none;stroke-width:1.0000000pt;stroke-linecap:butt;stroke-linejoin:miter;stroke-opacity:1.0000000"
     id="path4285"
     sodipodi:cx="-289.09140"
     sodipodi:cy="598.36652"
     sodipodi:rx="125.20509"
     sodipodi:ry="125.20509"
     d="M -163.88631 598.36652 A 125.20509 125.20509 0 1 1  -414.29649,598.36652 A 125.20509 125.20509 0 1 1  -163.88631 598.36652 z"
     transform="matrix(-0.450751,0.000000,0.000000,0.275963,-63.56894,-74.35010)" />
  <path
     d="M 119.92112,64.516240 C 119.92112,33.427488 94.718648,8.2250592 63.629886,8.2250592 C 32.541123,8.2250592 7.3387439,33.427488 7.3387439,64.516240 C 7.3387439,95.605010 32.541123,120.80744 63.629886,120.80744 C 94.718648,120.80744 119.92112,95.605010 119.92112,64.516240 z "
     style="fill:#314e6c;fill-opacity:1.0000000;fill-rule:evenodd;stroke:none;stroke-width:8.7163954;stroke-linecap:butt;stroke-linejoin:miter;stroke-miterlimit:4.0000000;stroke-opacity:1.0000000"
     id="path4286" />
  <path
     d="M 119.75376,64.419268 C 119.75376,33.330506 94.551369,8.1280878 63.462607,8.1280878 C 32.373847,8.1280878 7.1714659,33.330506 7.1714659,64.419268 C 7.1714659,95.508021 32.373847,120.71045 63.462607,120.71045 C 94.551369,120.71045 119.75376,95.508021 119.75376,64.419268 z "
     style="fill:url(#radialGradient26790);fill-opacity:1.0000000;fill-rule:evenodd;stroke:#333333;stroke-width:2.5000000;stroke-linecap:butt;stroke-linejoin:miter;stroke-miterlimit:4.0000000;stroke-opacity:1.0000000"
     id="path4287" />
  <path
     d="M 59.024173,12.083468 C 54.485595,13.074090 49.633197,13.320470 45.580843,15.805668 C 44.011266,15.933894 37.670327,18.421561 41.902316,18.853529 C 44.523596,18.109571 45.741790,15.383944 48.668349,15.612521 C 51.810226,14.677770 55.041684,13.565603 58.466864,12.911244 C 58.820406,12.746925 58.827636,12.357353 59.024173,12.083468 z M 65.705694,12.962919 C 63.438518,15.570377 58.210604,15.404603 57.898192,19.651821 C 58.966705,21.120397 64.224386,14.208344 65.770488,18.478231 C 66.075013,21.341001 64.167107,24.954557 60.861841,23.089049 C 59.258085,22.955171 57.260876,23.284827 57.327547,21.849623 C 56.495196,23.955071 49.863726,28.029348 52.193065,23.489719 C 53.402715,22.580624 50.500477,22.415327 52.494209,20.853666 C 54.258633,19.062022 48.659242,19.230906 50.779366,21.163554 C 49.551032,22.857177 48.997384,24.658568 46.583344,24.953280 C 48.643842,24.723351 50.785657,24.390092 49.204907,26.589462 C 50.398029,31.071981 42.907633,28.731513 41.988518,32.040301 C 39.264789,36.422906 46.067726,36.191147 48.009720,34.031809 C 47.681813,29.979015 51.852482,31.175206 54.040874,30.775109 C 56.339883,29.068576 58.767350,34.347781 59.905165,36.234952 C 61.396802,37.022097 63.033612,33.937504 60.761836,33.139811 C 61.031334,31.624821 56.153018,29.060838 59.240526,28.950361 C 61.304214,30.047900 62.465222,32.321698 62.854353,33.802311 C 66.967367,33.616018 61.163830,38.369408 65.111482,36.923641 C 67.612851,36.475886 64.841983,32.304026 68.162459,33.940075 C 72.359235,35.551627 66.721438,28.524882 71.512518,28.495171 C 73.738376,27.180802 72.544128,33.063029 73.914725,30.187730 C 74.692893,25.529814 80.923402,31.924887 78.083892,33.789880 C 74.473726,32.785857 70.837361,32.492967 69.273701,36.558324 C 69.055658,38.472727 74.531664,33.796274 73.892940,37.210946 C 75.047374,40.832200 69.361218,41.491716 67.216301,40.237076 C 65.244259,37.863199 63.407718,40.075546 61.939934,41.155676 C 59.651912,40.835901 52.040193,40.231218 55.257941,36.820941 C 56.109071,33.260438 50.813358,36.496846 48.885921,35.694714 C 46.452350,37.013092 42.702833,35.845541 40.757366,37.811468 C 40.479133,40.091200 36.833003,38.834299 36.236065,41.577653 C 34.858238,44.700572 30.292051,45.743507 30.177020,49.090971 C 30.046027,52.832263 28.283763,56.236717 30.240780,59.922636 C 30.711419,63.692519 34.282616,66.024809 37.936542,65.139273 C 40.052254,65.093787 42.037064,67.741013 43.525136,64.548750 C 45.923210,60.598245 48.375467,66.750665 51.381656,65.153161 C 53.857295,68.004662 49.311016,71.396761 53.191528,73.393104 C 56.445241,76.840040 55.478517,81.627591 54.057024,85.629970 C 54.078998,88.852892 58.309765,90.530615 58.232296,93.724974 C 57.909178,98.296858 62.023599,102.30791 66.512787,100.09843 C 69.422253,99.278222 70.600445,95.822985 73.583157,95.025116 C 75.846953,93.114383 74.862951,87.532381 78.995401,87.396533 C 84.634890,85.510562 80.589018,78.768567 82.125916,74.951478 C 84.380228,72.288644 85.337093,68.347632 88.790253,66.872756 C 91.459238,64.535716 89.697255,59.825372 92.404457,57.178381 C 90.111366,58.946071 86.252545,60.492548 83.742255,58.345434 C 79.857330,54.975245 76.662494,50.759567 74.681344,46.004582 C 73.754247,43.902250 73.813028,39.674413 76.111381,39.694218 C 76.473468,44.106123 79.594311,47.659967 81.771998,51.322926 C 83.855782,53.703564 85.309107,57.436124 89.176097,56.188329 C 92.443145,55.080799 96.921815,52.915874 96.993555,49.042368 C 96.688560,44.655958 88.866410,48.752399 87.323312,44.276574 C 84.236932,42.437770 89.423813,39.400679 90.359078,42.810084 C 92.362108,44.853558 95.954809,43.773540 97.427761,46.534737 C 100.40935,45.201944 102.79474,46.139980 104.02308,49.268006 C 106.65103,51.870338 107.36232,55.813885 107.26449,59.380031 C 110.71315,62.742071 109.65317,54.488088 110.56497,52.458570 C 110.70234,50.533638 110.89673,48.162907 111.70749,51.311320 C 114.23091,52.520630 112.47251,47.379328 111.89641,46.221863 C 107.47098,36.111519 106.04864,34.259277 101.19427,28.438859 C 93.182814,20.581116 86.672758,17.227818 77.803312,14.303524 C 77.158485,17.453278 73.219942,14.680664 71.341429,17.318370 C 69.370419,18.808129 69.360559,18.618032 70.742518,16.639737 C 69.738893,14.840053 67.459695,13.979467 65.705694,12.962919 z M 51.731254,16.480658 C 49.761373,15.548236 44.881176,18.625883 49.251013,18.418228 C 50.486673,18.675651 50.898998,17.070993 51.731254,16.480658 z M 48.942827,21.092339 C 47.370245,21.693699 43.635281,22.752578 46.936510,23.457822 C 47.881729,23.013973 48.497541,21.995425 48.942827,21.092339 z M 57.951621,34.498392 C 55.560213,35.698132 57.795087,38.082807 59.057322,35.813943 C 58.757585,35.316710 58.287604,34.966107 57.951621,34.498392 z M 111.89763,60.023525 C 108.38540,62.417421 116.05825,64.219001 111.89763,60.023525 z M 11.513100,66.136683 C 11.309332,70.524812 12.435783,75.150645 13.415559,79.883252 C 14.679860,82.122502 15.530145,86.708342 16.985067,87.355910 C 18.501119,83.878851 15.383094,79.989851 17.201323,76.392540 C 15.012555,74.670896 17.957708,70.854738 14.399657,69.814562 C 13.279871,68.719569 12.445737,67.384015 11.513100,66.136683 z M 88.517467,80.293475 C 88.154535,84.344907 82.638057,85.296390 83.666664,89.402688 C 84.649446,91.555352 83.184944,91.714215 82.958923,93.459052 C 84.987211,95.015116 86.711258,89.949716 88.265808,88.574527 C 88.628366,86.572560 93.356064,79.824302 88.517467,80.293475 z "
     style="fill:url(#linearGradient26788);fill-opacity:1.0000000;fill-rule:evenodd;stroke:none;stroke-width:1.0000000pt;stroke-linecap:butt;stroke-linejoin:miter;stroke-opacity:1.0000000"
     id="path4288" />
  <path
     d="M 59.024173,12.083468 C 54.485595,13.074090 49.633197,13.320470 45.580843,15.805668 C 44.011266,15.933894 37.670327,18.421561 41.902316,18.853529 C 44.523596,18.109571 45.741790,15.383944 48.668349,15.612521 C 51.810226,14.677770 55.041684,13.565603 58.466864,12.911244 C 58.820406,12.746925 58.827636,12.357353 59.024173,12.083468 z M 65.705694,12.962919 C 63.438518,15.570377 58.210604,15.404603 57.898192,19.651821 C 58.966705,21.120397 64.224386,14.208344 65.770488,18.478231 C 66.075013,21.341001 64.167107,24.954557 60.861841,23.089049 C 59.258085,22.955171 57.260876,23.284827 57.327547,21.849623 C 56.495196,23.955071 49.863726,28.029348 52.193065,23.489719 C 53.402715,22.580624 50.500477,22.415327 52.494209,20.853666 C 54.258633,19.062022 48.659242,19.230906 50.779366,21.163554 C 49.551032,22.857177 48.997384,24.658568 46.583344,24.953280 C 48.643842,24.723351 50.785657,24.390092 49.204907,26.589462 C 50.398029,31.071981 42.907633,28.731513 41.988518,32.040301 C 39.264789,36.422906 46.067726,36.191147 48.009720,34.031809 C 47.681813,29.979015 51.852482,31.175206 54.040874,30.775109 C 56.339883,29.068576 58.767350,34.347781 59.905165,36.234952 C 61.396802,37.022097 63.033612,33.937504 60.761836,33.139811 C 61.031334,31.624821 56.153018,29.060838 59.240526,28.950361 C 61.304214,30.047900 62.465222,32.321698 62.854353,33.802311 C 66.967367,33.616018 61.163830,38.369408 65.111482,36.923641 C 67.612851,36.475886 64.841983,32.304026 68.162459,33.940075 C 72.359235,35.551627 66.721438,28.524882 71.512518,28.495171 C 73.738376,27.180802 72.544128,33.063029 73.914725,30.187730 C 74.692893,25.529814 80.923402,31.924887 78.083892,33.789880 C 74.473726,32.785857 70.837361,32.492967 69.273701,36.558324 C 69.055658,38.472727 74.531664,33.796274 73.892940,37.210946 C 75.047374,40.832200 69.361218,41.491716 67.216301,40.237076 C 65.244259,37.863199 63.407718,40.075546 61.939934,41.155676 C 59.651912,40.835901 52.040193,40.231218 55.257941,36.820941 C 56.109071,33.260438 50.813358,36.496846 48.885921,35.694714 C 46.452350,37.013092 42.702833,35.845541 40.757366,37.811468 C 40.479133,40.091200 36.833003,38.834299 36.236065,41.577653 C 34.858238,44.700572 30.292051,45.743507 30.177020,49.090971 C 30.046027,52.832263 28.283763,56.236717 30.240780,59.922636 C 30.711419,63.692519 34.282616,66.024809 37.936542,65.139273 C 40.052254,65.093787 42.037064,67.741013 43.525136,64.548750 C 45.923210,60.598245 48.375467,66.750665 51.381656,65.153161 C 53.857295,68.004662 49.311016,71.396761 53.191528,73.393104 C 56.445241,76.840040 55.478517,81.627591 54.057024,85.629970 C 54.078998,88.852892 58.309765,90.530615 58.232296,93.724974 C 57.909178,98.296858 62.023599,102.30791 66.512787,100.09843 C 69.422253,99.278222 70.600445,95.822985 73.583157,95.025116 C 75.846953,93.114383 74.862951,87.532381 78.995401,87.396533 C 84.634890,85.510562 80.589018,78.768567 82.125916,74.951478 C 84.380228,72.288644 85.337093,68.347632 88.790253,66.872756 C 91.459238,64.535716 89.697255,59.825372 92.404457,57.178381 C 90.111366,58.946071 86.252545,60.492548 83.742255,58.345434 C 79.857330,54.975245 76.662494,50.759567 74.681344,46.004582 C 73.754247,43.902250 73.813028,39.674413 76.111381,39.694218 C 76.473468,44.106123 79.594311,47.659967 81.771998,51.322926 C 83.855782,53.703564 85.309107,57.436124 89.176097,56.188329 C 92.443145,55.080799 96.921815,52.915874 96.993555,49.042368 C 96.688560,44.655958 88.866410,48.752399 87.323312,44.276574 C 84.236932,42.437770 89.423813,39.400679 90.359078,42.810084 C 92.362108,44.853558 95.954809,43.773540 97.427761,46.534737 C 100.40935,45.201944 102.79474,46.139980 104.02308,49.268006 C 106.65103,51.870338 107.36232,55.813885 107.26449,59.380031 C 110.71315,62.742071 109.65317,54.488088 110.56497,52.458570 C 110.70234,50.533638 110.89673,48.162907 111.70749,51.311320 C 114.23091,52.520630 112.47251,47.379328 111.89641,46.221863 C 107.47098,36.111519 106.04864,34.259277 101.19427,28.438859 C 93.182814,20.581116 86.672758,17.227818 77.803312,14.303524 C 77.158485,17.453278 73.219942,14.680664 71.341429,17.318370 C 69.370419,18.808129 69.360559,18.618032 70.742518,16.639737 C 69.738893,14.840053 67.459695,13.979467 65.705694,12.962919 z M 51.731254,16.480658 C 49.761373,15.548236 44.881176,18.625883 49.251013,18.418228 C 50.486673,18.675651 50.898998,17.070993 51.731254,16.480658 z M 48.942827,21.092339 C 47.370245,21.693699 43.635281,22.752578 46.936510,23.457822 C 47.881729,23.013973 48.497541,21.995425 48.942827,21.092339 z M 57.951621,34.498392 C 55.560213,35.698132 57.795087,38.082807 59.057322,35.813943 C 58.757585,35.316710 58.287604,34.966107 57.951621,34.498392 z M 111.89763,60.023525 C 108.38540,62.417421 116.05825,64.219001 111.89763,60.023525 z M 11.513100,66.136683 C 11.309332,70.524812 12.435783,75.150645 13.415559,79.883252 C 14.679860,82.122502 15.530145,86.708342 16.985067,87.355910 C 18.501119,83.878851 15.383094,79.989851 17.201323,76.392540 C 15.012555,74.670896 17.957708,70.854738 14.399657,69.814562 C 13.279871,68.719569 12.445737,67.384015 11.513100,66.136683 z M 88.517467,80.293475 C 88.154535,84.344907 82.638057,85.296390 83.666664,89.402688 C 84.649446,91.555352 83.184944,91.714215 82.958923,93.459052 C 84.987211,95.015116 86.711258,89.949716 88.265808,88.574527 C 88.628366,86.572560 93.356064,79.824302 88.517467,80.293475 z "
     style="fill:#ffffff;fill-opacity:0.58854169;fill-rule:evenodd;stroke:none;stroke-width:1.0000000pt;stroke-linecap:butt;stroke-linejoin:miter;stroke-opacity:1.0000000"
     id="path4290" />
  <path
     d="M 119.92112,64.516240 C 119.92112,33.427488 94.718648,8.2250592 63.629886,8.2250592 C 32.541123,8.2250592 7.3387439,33.427488 7.3387439,64.516240 C 7.3387439,95.605010 32.541123,120.80744 63.629886,120.80744 C 94.718648,120.80744 119.92112,95.605010 119.92112,64.516240 z "
     style="fill:none;fill-opacity:1.0000000;fill-rule:evenodd;stroke:none;stroke-width:3.7500000;stroke-linecap:butt;stroke-linejoin:miter;stroke-miterlimit:4.0000000;stroke-opacity:1.0000000"
     id="path4291" />
  <path
     d="M 119.92112,64.516240 C 119.92112,33.427488 94.718648,8.2250592 63.629886,8.2250592 C 32.541123,8.2250592 7.3387439,33.427488 7.3387439,64.516240 C 7.3387439,95.605010 32.541123,120.80744 63.629886,120.80744 C 94.718648,120.80744 119.92112,95.605010 119.92112,64.516240 z "
     style="fill:none;fill-opacity:0.94117647;fill-rule:evenodd;stroke:none;stroke-width:5.8040280;stroke-linecap:butt;stroke-linejoin:miter;stroke-miterlimit:4.0000000;stroke-opacity:1.0000000"
     id="path4292" />
</svg>
