<?xml version="1.0" encoding="UTF-8" standalone="no"?>
<!-- Created with Inkscape (http://www.inkscape.org/) -->
<!-- 
Created By Andrew Fitzsimon.
Much of this document has been manually cleaned and crafted in a text editor so that only the colour definitions and basic presentation related data remain in the XML. 
Changes to this document may compromise the structure of this palette.
-->
<svg
   xmlns:dc="http://purl.org/dc/elements/1.1/"
   xmlns:cc="http://web.resource.org/cc/"
   xmlns:rdf="http://www.w3.org/1999/02/22-rdf-syntax-ns#"
   xmlns:svg="http://www.w3.org/2000/svg"
   xmlns="http://www.w3.org/2000/svg"
   xmlns:xlink="&amp;#38;#38;#38;#38;#38;#38;#38;#38;#38;#38;ns_xlink;"
   xmlns:sodipodi="http://inkscape.sourceforge.net/DTD/sodipodi-0.dtd"
   xmlns:inkscape="http://www.inkscape.org/namespaces/inkscape"
   sodipodi:docbase="/home/andy/Desktop/Etiquette/human/scalable/apps"
   sodipodi:docname="gnome-cd-player.svg"
   inkscape:version="0.41+cvs"
   sodipodi:version="0.32"
   id="Etiquette"
   height="128"
   width="128"
   y="00"
   x="00"
   version="1.0">
  <metadata
     id="About">
    <rdf:RDF
       id="RDF232">
      <cc:Work
         id="Work233"
         rdf:about="">
        <dc:format
           id="format234">image/svg+xml</dc:format>
        <dc:type
           rdf:resource="http://purl.org/dc/dcmitype/StillImage"
           id="type236" />
        <dc:creator
           id="creator1291">
          <cc:Agent
             id="Agent1292">
            <dc:title
               id="title1293">Andrew Fitzsimon</dc:title>
          </cc:Agent>
        </dc:creator>
        <dc:date
           id="date1295">2004-12-25</dc:date>
        <dc:title
           id="title1297">Etiquette Icon</dc:title>
        <cc:license
           rdf:resource="http://creativecommons.org/licenses/by/2.0/"
           id="license1299" />
        <dc:rights
           id="rights1308">
          <cc:Agent
             id="Agent1309">
            <dc:title
               id="title1310">Andrew Fitzsimon</dc:title>
          </cc:Agent>
        </dc:rights>
      </cc:Work>
      <cc:License
         id="License1300"
         rdf:about="http://creativecommons.org/licenses/by/2.0/">
        <cc:permits
           id="permits1301"
           rdf:resource="http://web.resource.org/cc/Reproduction" />
        <cc:permits
           id="permits1302"
           rdf:resource="http://web.resource.org/cc/Distribution" />
        <cc:requires
           id="requires1303"
           rdf:resource="http://web.resource.org/cc/Notice" />
        <cc:requires
           id="requires1304"
           rdf:resource="http://web.resource.org/cc/Attribution" />
        <cc:prohibits
           id="prohibits1305"
           rdf:resource="http://web.resource.org/cc/CommercialUse" />
        <cc:permits
           id="permits1306"
           rdf:resource="http://web.resource.org/cc/DerivativeWorks" />
        <cc:requires
           id="requires1307"
           rdf:resource="http://web.resource.org/cc/ShareAlike" />
      </cc:License>
    </rdf:RDF>
  </metadata>
  <sodipodi:namedview
     inkscape:guide-bbox="true"
     showguides="true"
     gridempopacity="0.082352941"
     gridempcolor="#3f3fff"
     gridempspacing="2"
     gridopacity="0.082352941"
     gridcolor="#3f3fff"
     inkscape:grid-bbox="false"
     showborder="true"
     gridtolerance="40pt"
     inkscape:grid-points="false"
     gridoriginx="0pt"
     gridoriginy="0.0000000pt"
     gridspacingy="8.0000000pt"
     gridspacingx="8.0000000pt"
     showgrid="true"
     inkscape:current-layer="Etiquette"
     inkscape:window-y="172"
     inkscape:window-x="10"
     inkscape:window-height="569"
     inkscape:window-width="653"
     inkscape:cy="66.608002"
     inkscape:cx="79.345215"
     inkscape:zoom="1.0000000"
     inkscape:pageshadow="0"
     inkscape:pageopacity="0.0"
     borderopacity="1.0"
     bordercolor="#666666"
     pagecolor="#ffffff"
     id="base" />
  <defs
     id="Gradients">
    <linearGradient
       y2="83.462575"
       x2="135.99872"
       y1="65.844092"
       x1="130.06407"
       gradientTransform="matrix(0.677208,0.000000,0.000000,1.476651,404.2514,577.5670)"
       gradientUnits="userSpaceOnUse"
       id="linearGradient6952"
       xlink:href="#linearGradient924"
       inkscape:collect="always" />
    <linearGradient
       id="linearGradient924">
      <stop
         id="stop925"
         offset="0.00000000"
         style="stop-color:#ffffff;stop-opacity:0.00000000;" />
      <stop
         id="stop926"
         offset="1.00000000"
         style="stop-color:#ffffff;stop-opacity:1;" />
    </linearGradient>
    <linearGradient
       y2="33.854811"
       x2="158.64273"
       y1="50.687502"
       x1="155.03572"
       gradientTransform="matrix(0.654465,0.000000,0.000000,1.527967,404.2514,579.3376)"
       gradientUnits="userSpaceOnUse"
       id="linearGradient6951"
       xlink:href="#linearGradient924"
       inkscape:collect="always" />
    <linearGradient
       y2="51.483600"
       x2="185.22380"
       y1="50.709235"
       x1="216.72390"
       gradientTransform="matrix(0.347521,0.000000,0.000000,0.878712,438.1093,614.5281)"
       gradientUnits="userSpaceOnUse"
       id="linearGradient6950"
       xlink:href="#MaterialSoftShadow"
       inkscape:collect="always" />
    <linearGradient
       id="linearGradient3970">
      <stop
         id="stop3971"
         offset="0.0000000"
         style="stop-color:#ffffff;stop-opacity:1.0000000;" />
      <stop
         id="stop3972"
         offset="1.0000000"
         style="stop-color:#ffffff;stop-opacity:0.0000000;" />
    </linearGradient>
    <linearGradient
       y2="67.791361"
       x2="118.07529"
       y1="16.079463"
       x1="99.916230"
       gradientTransform="matrix(0.370827,0.000000,0.000000,0.486869,446.7351,626.0205)"
       gradientUnits="userSpaceOnUse"
       id="linearGradient6949"
       xlink:href="#linearGradient3970"
       inkscape:collect="always" />
    <linearGradient
       id="linearGradient9590">
      <stop
         id="stop9591"
         offset="0.0000000"
         style="stop-color:#ffffff;stop-opacity:0.0000000;" />
      <stop
         id="stop9592"
         offset="1"
         style="stop-color:#fff;stop-opacity:1;" />
    </linearGradient>
    <linearGradient
       id="linearGradient2023"
       inkscape:collect="always">
      <stop
         id="stop2024"
         offset="0.0000000"
         style="stop-color:#000000;stop-opacity:0.68686867;" />
      <stop
         id="stop2025"
         offset="1.0000000"
         style="stop-color:#000000;stop-opacity:0.0000000;" />
    </linearGradient>
    <linearGradient
       id="linearGradient1753">
      <stop
         id="stop1754"
         offset="0.0000000"
         style="stop-color:#000000;stop-opacity:1.0000000;" />
      <stop
         id="stop1755"
         offset="1.0000000"
         style="stop-color:#000000;stop-opacity:0.0000000;" />
    </linearGradient>
    <linearGradient
       id="linearGradient1601"
       inkscape:collect="always">
      <stop
         id="stop1602"
         offset="0.0000000"
         style="stop-color:#ffffff;stop-opacity:1.0000000;" />
      <stop
         id="stop1603"
         offset="1.0000000"
         style="stop-color:#ffffff;stop-opacity:0.0000000;" />
    </linearGradient>
    <linearGradient
       id="linearGradient1811">
      <stop
         id="stop1812"
         offset="0.0000000"
         style="stop-color:#ffffff;stop-opacity:1.0000000;" />
      <stop
         id="stop1813"
         offset="1.0000000"
         style="stop-color:#ffffff;stop-opacity:0.0000000;" />
    </linearGradient>
    <linearGradient
       id="MaterialSoftShadow">
      <stop
         id="stop2619"
         offset="0"
         style="stop-color:#000000;stop-opacity:0.215;" />
      <stop
         id="stop2621"
         offset="0.50000000"
         style="stop-color:#000000;stop-opacity:0.098;" />
      <stop
         id="stop2620"
         offset="1"
         style="stop-color:#000000;stop-opacity:0;" />
    </linearGradient>
    <radialGradient
       r="125.20509"
       fy="598.36652"
       fx="-289.09140"
       cy="598.36652"
       cx="-289.09140"
       gradientUnits="userSpaceOnUse"
       id="radialGradient95"
       xlink:href="#MaterialSoftShadow"
       inkscape:collect="always" />
    <linearGradient
       y2="77.293716"
       x2="127.76123"
       y1="267.64246"
       x1="127.76123"
       gradientTransform="matrix(0.910642,0.000000,0.000000,0.888804,-3.847705,-6.943422)"
       gradientUnits="userSpaceOnUse"
       id="linearGradient96"
       xlink:href="#linearGradient2023"
       inkscape:collect="always" />
    <linearGradient
       y2="87.374298"
       x2="98.614998"
       y1="-205.98883"
       x1="98.614998"
       gradientTransform="matrix(0.910641,0.000000,0.000000,0.888804,-3.847702,-6.943416)"
       gradientUnits="userSpaceOnUse"
       id="linearGradient97"
       xlink:href="#linearGradient2023"
       inkscape:collect="always" />
    <linearGradient
       y2="347.80743"
       x2="-72.849289"
       y1="537.68445"
       x1="-219.76663"
       gradientTransform="matrix(-0.430713,2.937544e-2,-3.675125e-2,-0.513205,22.90210,291.8808)"
       gradientUnits="userSpaceOnUse"
       id="linearGradient98"
       xlink:href="#linearGradient2023"
       inkscape:collect="always" />
    <linearGradient
       y2="383.04846"
       x2="-145.86057"
       y1="535.93958"
       x1="-265.25351"
       gradientTransform="matrix(0.428786,-2.924403e-2,3.073985e-2,0.429260,148.0792,-150.3121)"
       gradientUnits="userSpaceOnUse"
       id="linearGradient99"
       xlink:href="#linearGradient1601"
       inkscape:collect="always" />
    <linearGradient
       y2="372.94662"
       x2="-144.87398"
       y1="621.11951"
       x1="-326.93723"
       gradientTransform="matrix(0.442094,-3.015165e-2,3.580514e-2,0.499992,155.7400,-169.5112)"
       gradientUnits="userSpaceOnUse"
       id="linearGradient100"
       xlink:href="#linearGradient1753"
       inkscape:collect="always" />
    <linearGradient
       y2="396.03963"
       x2="-32.234216"
       y1="566.04219"
       x1="-118.47699"
       gradientTransform="matrix(0.280505,0.369294,-0.388182,0.280812,285.5433,-24.72836)"
       gradientUnits="userSpaceOnUse"
       id="linearGradient101"
       xlink:href="#linearGradient1601"
       inkscape:collect="always" />
    <linearGradient
       y2="391.66238"
       x2="-116.46814"
       y1="294.64521"
       x1="-36.098958"
       gradientTransform="matrix(0.222505,0.292936,-0.375406,0.271571,260.8323,-14.83148)"
       gradientUnits="userSpaceOnUse"
       id="linearGradient102"
       xlink:href="#linearGradient1601"
       inkscape:collect="always" />
    <linearGradient
       y2="411.96459"
       x2="-214.04250"
       y1="287.63866"
       x1="-95.537172"
       gradientTransform="matrix(-0.226455,-0.298138,0.382071,-0.276392,-159.6213,107.6789)"
       gradientUnits="userSpaceOnUse"
       id="linearGradient103"
       xlink:href="#linearGradient1601"
       inkscape:collect="always" />
    <linearGradient
       y2="391.21394"
       x2="-117.35160"
       y1="276.70308"
       x1="-2.8407425"
       gradientTransform="matrix(1.763197e-3,0.371427,-0.475996,2.152011e-3,272.9158,114.4792)"
       gradientUnits="userSpaceOnUse"
       id="linearGradient104"
       xlink:href="#linearGradient1601"
       inkscape:collect="always" />
    <linearGradient
       y2="346.77014"
       x2="-150.65967"
       y1="392.99153"
       x1="-192.84351"
       gradientTransform="matrix(-1.728076e-3,-0.364029,0.462670,-2.091762e-3,-138.7624,-27.74102)"
       gradientUnits="userSpaceOnUse"
       id="linearGradient105"
       xlink:href="#linearGradient9590"
       inkscape:collect="always" />
    <linearGradient
       y2="62.444678"
       x2="68.670421"
       y1="96.111842"
       x1="95.640574"
       gradientTransform="matrix(0.878166,0.000000,0.000000,0.857671,-3.778146,-6.825558)"
       gradientUnits="userSpaceOnUse"
       id="linearGradient106"
       xlink:href="#linearGradient1601"
       inkscape:collect="always" />
  </defs>
  <g
     transform="translate(-0.823276,1.974692)"
     id="g859">
    <path
       transform="matrix(-0.449651,0.000000,0.000000,5.655982e-2,-64.34662,83.43449)"
       d="M -163.88631 598.36652 A 125.20509 125.20509 0 1 1  -414.29649,598.36652 A 125.20509 125.20509 0 1 1  -163.88631 598.36652 z"
       sodipodi:ry="125.20509"
       sodipodi:rx="125.20509"
       sodipodi:cy="598.36652"
       sodipodi:cx="-289.09140"
       id="path1857"
       style="opacity:0.31360945;fill:url(#radialGradient95);fill-opacity:1.0000000;fill-rule:evenodd;stroke:none;stroke-width:1.0000000pt;stroke-linecap:butt;stroke-linejoin:miter;stroke-opacity:1.0000000"
       sodipodi:type="arc" />
    <path
       id="path965"
       d="M 65.613662,5.5739984 C 32.830521,5.5739984 6.2130575,31.536176 6.2130575,63.529383 C 6.2130575,95.522586 32.830521,121.49871 65.613662,121.49869 C 98.396804,121.49869 125.00000,95.522594 125.00000,63.529383 C 125.00000,31.536170 98.396804,5.5739984 65.613662,5.5739984 z M 65.613662,45.380895 C 75.878562,45.380899 84.210250,53.511823 84.210250,63.529383 C 84.210250,73.546951 75.878562,81.677878 65.613662,81.677878 C 55.348762,81.677868 47.017077,73.546946 47.017077,63.529383 C 47.017077,53.511829 55.348762,45.380895 65.613662,45.380895 z "
       style="fill:#ffffff;fill-opacity:1.0000000;fill-rule:evenodd;stroke:none;stroke-width:3.0230515;stroke-linecap:butt;stroke-linejoin:miter;stroke-miterlimit:4.0000000;stroke-opacity:0.58823532" />
    <path
       id="path2021"
       d="M 65.613543,6.5514333 C 33.383232,6.5514333 7.2146258,32.075803 7.2146258,63.529501 C 7.2146258,94.983195 33.383232,120.52127 65.613543,120.52126 C 97.843856,120.52126 123.99842,94.983203 123.99842,63.529501 C 123.99842,32.075798 97.843856,6.5514333 65.613543,6.5514333 z M 65.613543,45.687054 C 75.705342,45.687061 83.896531,53.680871 83.896531,63.529501 C 83.896531,73.378138 75.705342,81.371952 65.613543,81.371952 C 55.521743,81.371943 47.330557,73.378134 47.330557,63.529501 C 47.330557,53.680875 55.521743,45.687054 65.613543,45.687054 z "
       style="fill:url(#linearGradient96);fill-opacity:1.0000000;fill-rule:evenodd;stroke:#666666;stroke-width:2.5000000;stroke-linecap:butt;stroke-linejoin:miter;stroke-miterlimit:4.0000000;stroke-opacity:1.0000000" />
    <path
       id="path2005"
       d="M 65.613543,6.5514333 C 33.383232,6.5514333 7.2146258,32.075803 7.2146258,63.529501 C 7.2146258,94.983195 33.383232,120.52127 65.613543,120.52126 C 97.843856,120.52126 123.99842,94.983203 123.99842,63.529501 C 123.99842,32.075798 97.843856,6.5514333 65.613543,6.5514333 z M 65.613543,45.687054 C 75.705342,45.687061 83.896531,53.680871 83.896531,63.529501 C 83.896531,73.378138 75.705342,81.371952 65.613543,81.371952 C 55.521743,81.371943 47.330557,73.378134 47.330557,63.529501 C 47.330557,53.680875 55.521743,45.687054 65.613543,45.687054 z "
       style="fill:url(#linearGradient97);fill-opacity:1.0000000;fill-rule:evenodd;stroke:none;stroke-width:0.61535406;stroke-linecap:butt;stroke-linejoin:miter;stroke-miterlimit:4.0000000;stroke-opacity:0.58490568" />
    <path
       sodipodi:nodetypes="ccccc"
       id="path7873"
       d="M 57.028191,83.057296 L 44.513627,120.40628 C 37.680077,117.12926 29.796791,113.84400 24.024147,108.35832 L 50.358658,78.523727 C 51.864114,79.857092 54.543242,81.851865 57.028191,83.057296 z "
       style="fill:url(#linearGradient98);fill-opacity:1.0000000;fill-rule:evenodd;stroke:none;stroke-width:1.0000000pt;stroke-linecap:butt;stroke-linejoin:miter;stroke-opacity:1.0000000" />
    <path
       sodipodi:nodetypes="ccccc"
       id="path7875"
       d="M 68.170261,43.000000 L 73.040940,7.4141883 C 83.383681,8.8238366 103.95787,18.602579 110.08055,27.648230 L 80.677054,49.950516 C 80.377583,48.227000 72.152042,43.224390 68.170261,43.000000 z "
       style="fill:url(#linearGradient99);fill-opacity:1.0000000;fill-rule:evenodd;stroke:none;stroke-width:1.0000000pt;stroke-linecap:butt;stroke-linejoin:miter;stroke-opacity:1.0000000" />
    <path
       sodipodi:nodetypes="ccccc"
       id="path1750"
       d="M 73.617750,43.624944 L 86.132314,6.2759649 C 92.965864,9.5529833 102.93114,14.339105 108.60939,20.046490 L 80.287286,48.158516 C 78.781827,46.825149 76.102701,44.830376 73.617750,43.624944 z "
       style="fill:url(#linearGradient100);fill-opacity:1.0000000;fill-rule:evenodd;stroke:none;stroke-width:1.0000000pt;stroke-linecap:butt;stroke-linejoin:miter;stroke-opacity:1.0000000" />
    <path
       sodipodi:nodetypes="ccccc"
       id="path1730"
       d="M 85.000000,54.379163 L 121.55494,37.787702 C 126.31903,47.942514 129.19425,72.255263 124.24236,83.108181 L 85.795470,69.751823 C 87.250255,68.465636 87.135375,58.100918 85.000000,54.379163 z "
       style="fill:url(#linearGradient101);fill-opacity:0.75000000;fill-rule:evenodd;stroke:none;stroke-width:1.0000000pt;stroke-linecap:butt;stroke-linejoin:miter;stroke-opacity:1.0000000" />
    <path
       sodipodi:nodetypes="ccccc"
       id="path1606"
       d="M 86.775227,58.988981 L 120.92722,50.404879 C 121.66847,56.872637 122.58898,63.563445 120.94724,70.344140 L 86.488597,65.930715 C 86.787840,64.217711 87.034347,61.347406 86.775227,58.988981 z "
       style="fill:url(#linearGradient102);fill-opacity:1.0000000;fill-rule:evenodd;stroke:none;stroke-width:1.0000000pt;stroke-linecap:butt;stroke-linejoin:miter;stroke-opacity:1.0000000" />
    <path
       sodipodi:nodetypes="ccccc"
       id="path1732"
       d="M 45.646554,72.301710 L 9.0916131,88.893170 C 4.3275262,78.738357 1.4522997,54.425606 6.4041934,43.572690 L 44.851083,56.929047 C 43.396298,58.215236 43.511179,68.579953 45.646554,72.301710 z "
       style="fill:#000000;fill-opacity:0.013157786;fill-rule:evenodd;stroke:none;stroke-width:1.0000000pt;stroke-linecap:butt;stroke-linejoin:miter;stroke-opacity:1.0000000" />
    <path
       sodipodi:nodetypes="ccccc"
       id="path1733"
       d="M 43.866204,65.673747 L 9.1078632,74.410250 C 8.3534544,67.827663 7.9148871,60.657595 9.5857930,53.756518 L 44.157917,58.608764 C 43.853362,60.352183 43.602478,63.273447 43.866204,65.673747 z "
       style="fill:url(#linearGradient103);fill-opacity:1.0000000;fill-rule:evenodd;stroke:none;stroke-width:1.0000000pt;stroke-linecap:butt;stroke-linejoin:miter;stroke-opacity:1.0000000" />
    <path
       sodipodi:nodetypes="ccccc"
       id="path1859"
       d="M 84.397040,72.702235 L 117.74212,85.744206 C 114.35579,91.491042 110.35809,97.529296 104.82172,102.13124 L 79.873931,78.233596 C 81.177731,77.003053 83.153065,74.791211 84.397040,72.702235 z "
       style="fill:url(#linearGradient104);fill-opacity:1.0000000;fill-rule:evenodd;stroke:none;stroke-width:1.0000000pt;stroke-linecap:butt;stroke-linejoin:miter;stroke-opacity:1.0000000" />
    <path
       sodipodi:nodetypes="ccccc"
       id="path1862"
       d="M 46.357999,53.979883 L 14.115011,41.693963 C 17.420192,36.084851 20.413203,29.747817 25.816883,25.256158 L 50.772709,48.581079 C 49.500156,49.782131 47.572162,51.940967 46.357999,53.979883 z "
       style="fill:url(#linearGradient105);fill-opacity:1.0000000;fill-rule:evenodd;stroke:none;stroke-width:1.0000000pt;stroke-linecap:butt;stroke-linejoin:miter;stroke-opacity:1.0000000" />
    <path
       id="path964"
       d="M 65.614015,42.703930 C 53.835163,42.703930 44.274651,52.034079 44.274651,63.529109 C 44.274651,75.024144 53.835163,84.354282 65.614015,84.354290 C 77.392867,84.354290 86.953382,75.024149 86.953382,63.529109 C 86.953382,52.034074 77.392867,42.703934 65.614015,42.703930 z M 65.384736,53.635950 C 70.979686,53.635944 75.522162,58.068971 75.522162,63.529109 C 75.522162,68.989253 70.979686,73.422270 65.384736,73.422270 C 59.789782,73.422261 55.247312,68.989248 55.247312,63.529109 C 55.247312,58.068976 59.789782,53.635950 65.384736,53.635950 z "
       style="fill:#cccccc;fill-opacity:0.39215687;fill-rule:evenodd;stroke:url(#linearGradient106);stroke-width:1.3850145;stroke-linecap:butt;stroke-linejoin:miter;stroke-miterlimit:4.0000000;stroke-opacity:1.0000000" />
    <path
       sodipodi:nodetypes="cccccczzzz"
       id="path7887"
       d="M 65.613703,4.6910468 C 32.630563,4.6910468 5.8507157,30.811612 5.8507157,63.000000 C 5.8507157,95.188388 32.630563,121.32296 65.613703,121.32295 C 98.596851,121.32295 125.36235,95.188397 125.36235,63.000000 C 125.36235,30.811607 98.596851,4.6910468 65.613703,4.6910468 z M 66.136119,53.917681 C 72.040997,53.917681 75.442688,58.246193 75.442688,63.000000 C 75.442688,67.498894 70.856184,72.337235 65.613703,72.337235 C 61.416061,72.337235 56.001115,68.227081 56.001115,63.000000 C 56.001115,57.735762 59.709303,53.917681 66.136119,53.917681 z "
       style="fill:none;fill-opacity:1.0000000;fill-rule:evenodd;stroke:none;stroke-width:3.0230515;stroke-linecap:butt;stroke-linejoin:miter;stroke-miterlimit:4.0000000;stroke-opacity:0.58823532" />
  </g>
  <g
     transform="matrix(0.998387,0.000000,0.000000,0.998387,-424.0871,-593.0490)"
     id="g6939">
    <path
       sodipodi:nodetypes="cccc"
       id="path6940"
       d="M 488.76909,648.31104 L 488.38557,671.64483 C 482.47512,670.44530 479.57179,665.71965 479.57179,660.06800 C 479.57179,654.05798 482.29495,649.09881 488.76909,648.31104 z "
       style="fill:#000000;fill-opacity:1.0000000;fill-rule:evenodd;stroke:#000000;stroke-width:0.85333461;stroke-linecap:butt;stroke-linejoin:miter;stroke-miterlimit:4.0000000;stroke-opacity:1.0000000" />
    <path
       id="path6941"
       d="M 489.18210,649.93610 C 489.18210,649.93610 483.50449,650.47682 482.96377,658.58771 C 482.42303,666.69860 493.77827,663.18388 493.23755,658.85808 C 492.69683,654.53227 492.96719,649.66574 489.18210,649.93610 z "
       style="fill:url(#linearGradient6949);fill-opacity:1.0000000;fill-rule:evenodd;stroke:none;stroke-width:1.0000000pt;stroke-linecap:butt;stroke-linejoin:miter;stroke-opacity:1.0000000" />
    <path
       sodipodi:nodetypes="cczzczzccc"
       id="path6942"
       d="M 519.00939,668.82082 L 513.55794,668.82082 L 492.98042,689.39833 C 491.60859,690.77017 488.86492,689.39833 488.86492,685.28283 L 488.86492,660.58981 L 488.86492,635.89680 C 488.86492,631.78129 491.60859,630.40946 492.98042,631.78129 L 513.55794,652.35881 L 519.00939,652.35881 L 519.00939,668.82082 z "
       style="fill:#000000;fill-opacity:1.0000000;fill-rule:evenodd;stroke:none;stroke-width:1.7600212;stroke-linecap:butt;stroke-linejoin:miter;stroke-miterlimit:4.0000000;stroke-opacity:1.0000000" />
    <path
       sodipodi:nodetypes="czcc"
       id="path6943"
       d="M 494.74283,638.02198 C 503.77638,648.44531 513.76131,650.47210 514.10048,660.12612 C 514.43966,669.78014 503.08976,673.18843 494.75110,682.22199 L 494.74283,638.02198 z "
       style="fill:url(#linearGradient6950);fill-opacity:1.0000000;fill-rule:evenodd;stroke:none;stroke-width:1.0000000pt;stroke-linecap:butt;stroke-linejoin:miter;stroke-opacity:1.0000000" />
    <path
       sodipodi:nodetypes="czzccz"
       id="path6944"
       d="M 491.22369,636.92091 C 491.23194,636.00546 493.66500,635.70026 496.71664,638.75189 C 499.76827,641.80352 511.97827,654.12278 512.73771,662.09687 C 513.49715,670.07096 506.93961,672.62501 505.87154,674.45598 L 490.76595,687.73059 L 491.22369,636.92091 z "
       style="fill:url(#linearGradient6951);fill-opacity:1.0000000;fill-rule:evenodd;stroke:none;stroke-width:1.0000000pt;stroke-linecap:butt;stroke-linejoin:miter;stroke-opacity:1.0000000" />
    <path
       sodipodi:nodetypes="czzzccz"
       id="path6945"
       d="M 491.37060,660.44640 C 490.60152,666.34270 491.21750,670.41841 491.37060,678.28515 C 491.53732,686.85065 497.47333,680.63235 500.75942,678.28515 C 504.04550,675.93794 511.08711,670.02333 511.08711,664.20193 L 511.08711,650.11871 L 494.18725,638.85214 L 491.37060,660.44640 z "
       style="fill:url(#linearGradient6952);fill-opacity:1.0000000;fill-rule:evenodd;stroke:none;stroke-width:0.95254269pt;stroke-linecap:butt;stroke-linejoin:miter;stroke-opacity:1.0000000" />
    <path
       sodipodi:nodetypes="ccccc"
       id="path6946"
       d="M 466.01067,625.48781 C 455.38679,632.42604 450.84454,645.13088 450.84454,659.69162 C 450.84454,673.00552 454.21803,684.76816 463.35994,691.99446 C 449.64287,688.57554 441.98352,675.10634 441.98352,658.99784 C 441.98352,641.86793 450.98535,627.73314 466.01067,625.48781 z "
       style="fill:#000000;fill-opacity:0.19736840;fill-rule:evenodd;stroke:none;stroke-width:1.6250000;stroke-linecap:butt;stroke-linejoin:miter;stroke-miterlimit:4.0000000;stroke-opacity:1.0000000" />
    <path
       sodipodi:nodetypes="ccccc"
       id="path6947"
       d="M 473.95108,635.74570 C 466.07447,640.63028 463.25485,649.57460 463.25484,659.82553 C 463.25485,669.19864 465.20794,677.47965 471.98580,682.56703 C 461.81589,680.16008 456.68524,670.67763 456.68524,659.33709 C 456.68524,647.27747 462.81122,637.32643 473.95108,635.74570 z "
       style="fill:#000000;fill-opacity:0.19736840;fill-rule:evenodd;stroke:none;stroke-width:1.6250000;stroke-linecap:butt;stroke-linejoin:miter;stroke-miterlimit:4.0000000;stroke-opacity:1.0000000" />
    <path
       sodipodi:nodetypes="ccccc"
       id="path6948"
       d="M 483.34390,641.00214 C 476.32054,644.73928 474.25140,651.58251 474.25140,659.42540 C 474.25140,666.59669 475.54788,672.93243 481.59152,676.82475 C 472.52329,674.98320 468.39346,667.72825 468.39346,659.05171 C 468.39346,649.82498 473.41079,642.21153 483.34390,641.00214 z "
       style="fill:#000000;fill-opacity:0.19736840;fill-rule:evenodd;stroke:none;stroke-width:1.6250000;stroke-linecap:butt;stroke-linejoin:miter;stroke-miterlimit:4.0000000;stroke-opacity:1.0000000" />
  </g>
</svg>
