<?xml version="1.0" encoding="UTF-8" standalone="no"?>
<!-- Created with Inkscape (http://www.inkscape.org/) -->
<!-- 
Created By Andrew Fitzsimon.
Much of this document has been manually cleaned and crafted in a text editor so that only the colour definitions and basic presentation related data remain in the XML. 
Changes to this document may compromise the structure of this palette.
-->
<svg
   xmlns:dc="http://purl.org/dc/elements/1.1/"
   xmlns:cc="http://web.resource.org/cc/"
   xmlns:rdf="http://www.w3.org/1999/02/22-rdf-syntax-ns#"
   xmlns:svg="http://www.w3.org/2000/svg"
   xmlns="http://www.w3.org/2000/svg"
   xmlns:xlink="http://www.w3.org/1999/xlink"
   xmlns:sodipodi="http://inkscape.sourceforge.net/DTD/sodipodi-0.dtd"
   xmlns:inkscape="http://www.inkscape.org/namespaces/inkscape"
   version="1.0"
   x="00"
   y="00"
   width="128"
   height="128"
   id="Etiquette"
   sodipodi:version="0.32"
   inkscape:version="0.41+cvs"
   sodipodi:docname="gnome-globe.svg"
   sodipodi:docbase="/home/andy/Desktop/Etiquette/human/scalable/apps">
  <metadata
     id="About">
    <rdf:RDF
       id="RDF232">
      <cc:Work
         rdf:about=""
         id="Work233">
        <dc:format
           id="format234">image/svg+xml</dc:format>
        <dc:type
           id="type236"
           rdf:resource="http://purl.org/dc/dcmitype/StillImage" />
        <dc:creator
           id="creator1291">
          <cc:Agent
             id="Agent1292">
            <dc:title
               id="title1293">Andrew Fitzsimon</dc:title>
          </cc:Agent>
        </dc:creator>
        <dc:date
           id="date1295">2004-12-25</dc:date>
        <dc:title
           id="title1297">Etiquette Icon</dc:title>
        <cc:license
           id="license1299"
           rdf:resource="http://creativecommons.org/licenses/by/2.0/" />
        <dc:rights
           id="rights1308">
          <cc:Agent
             id="Agent1309">
            <dc:title
               id="title1310">Andrew Fitzsimon</dc:title>
          </cc:Agent>
        </dc:rights>
      </cc:Work>
      <cc:License
         rdf:about="http://creativecommons.org/licenses/by/2.0/"
         id="License1300">
        <cc:permits
           rdf:resource="http://web.resource.org/cc/Reproduction"
           id="permits1301" />
        <cc:permits
           rdf:resource="http://web.resource.org/cc/Distribution"
           id="permits1302" />
        <cc:requires
           rdf:resource="http://web.resource.org/cc/Notice"
           id="requires1303" />
        <cc:requires
           rdf:resource="http://web.resource.org/cc/Attribution"
           id="requires1304" />
        <cc:prohibits
           rdf:resource="http://web.resource.org/cc/CommercialUse"
           id="prohibits1305" />
        <cc:permits
           rdf:resource="http://web.resource.org/cc/DerivativeWorks"
           id="permits1306" />
        <cc:requires
           rdf:resource="http://web.resource.org/cc/ShareAlike"
           id="requires1307" />
      </cc:License>
    </rdf:RDF>
  </metadata>
  <sodipodi:namedview
     id="base"
     pagecolor="#838383"
     bordercolor="#666666"
     borderopacity="1.0"
     inkscape:pageopacity="0.0000000"
     inkscape:pageshadow="0"
     inkscape:zoom="0.50000000"
     inkscape:cx="116.13858"
     inkscape:cy="43.183655"
     inkscape:window-width="491"
     inkscape:window-height="681"
     inkscape:window-x="222"
     inkscape:window-y="20"
     inkscape:current-layer="Etiquette"
     showgrid="false"
     gridspacingx="8.0000000pt"
     gridspacingy="8.0000000pt"
     gridoriginy="0.0000000pt"
     gridoriginx="0pt"
     inkscape:grid-points="false"
     gridtolerance="40pt"
     showborder="true"
     inkscape:grid-bbox="false"
     gridcolor="#3f3fff"
     gridopacity="0.082352941"
     gridempspacing="2"
     gridempcolor="#3f3fff"
     gridempopacity="0.082352941"
     showguides="true"
     inkscape:guide-bbox="true" />
  <defs
     id="Gradients">
    <linearGradient
       id="linearGradient2381">
      <stop
         style="stop-color:#000000;stop-opacity:0.47058824;"
         offset="0.0000000"
         id="stop2382" />
      <stop
         style="stop-color:#000000;stop-opacity:0.19191919;"
         offset="0.31578946"
         id="stop2384" />
      <stop
         style="stop-color:#6f6f6f;stop-opacity:0.0000000;"
         offset="1.0000000"
         id="stop2383" />
    </linearGradient>
    <linearGradient
       id="linearGradient1694">
      <stop
         style="stop-color:#9db8d2;stop-opacity:1.0000000;"
         offset="0.0000000"
         id="stop1696" />
      <stop
         style="stop-color:#7590ae;stop-opacity:1.0000000;"
         offset="0.56999999"
         id="stop1698" />
      <stop
         style="stop-color:#314e6c;stop-opacity:1.0000000;"
         offset="1.0000000"
         id="stop1697" />
    </linearGradient>
    <linearGradient
       id="linearGradient1693">
      <stop
         style="stop-color:#ffffff;stop-opacity:1.0000000;"
         offset="0.00000000"
         id="stop1694" />
      <stop
         style="stop-color:#ffffff;stop-opacity:0.00000000;"
         offset="1.0000000"
         id="stop1695" />
    </linearGradient>
    <linearGradient
       id="MaterialSoftShadow">
      <stop
         style="stop-color:#000000;stop-opacity:0.215;"
         offset="0"
         id="stop2619" />
      <stop
         style="stop-color:#000000;stop-opacity:0.098;"
         offset="0.50000000"
         id="stop2621" />
      <stop
         style="stop-color:#000000;stop-opacity:0;"
         offset="1"
         id="stop2620" />
    </linearGradient>
    <linearGradient
       id="WhiteTransparent">
      <stop
         style="stop-color:#ffffff;stop-opacity:1;"
         offset="0"
         id="stopWhiteFull" />
      <stop
         style="stop-color:#ffffff;stop-opacity:0;"
         offset="1"
         id="stopWhiteTransparent" />
    </linearGradient>
    <linearGradient
       inkscape:collect="always"
       xlink:href="#WhiteTransparent"
       id="linearGradient26784"
       gradientUnits="userSpaceOnUse"
       gradientTransform="matrix(1.269867,0.000000,0.000000,1.360005,-3.261035,0.478359)"
       x1="78.170364"
       y1="-17.627333"
       x2="77.407570"
       y2="32.579056" />
    <linearGradient
       inkscape:collect="always"
       xlink:href="#WhiteTransparent"
       id="linearGradient26786"
       gradientUnits="userSpaceOnUse"
       gradientTransform="matrix(0.532083,0.000000,0.000000,0.532083,-66.19359,-48.32790)"
       x1="246.58887"
       y1="330.42316"
       x2="246.58887"
       y2="276.50476" />
    <linearGradient
       inkscape:collect="always"
       xlink:href="#linearGradient1693"
       id="linearGradient26788"
       gradientUnits="userSpaceOnUse"
       gradientTransform="matrix(0.899617,0.000000,0.000000,0.784227,-3.098958,0.309843)"
       x1="88.009292"
       y1="-11.108592"
       x2="72.715558"
       y2="162.85263" />
    <radialGradient
       inkscape:collect="always"
       xlink:href="#linearGradient1694"
       id="radialGradient26790"
       gradientUnits="userSpaceOnUse"
       gradientTransform="matrix(0.789323,0.000000,0.000000,0.789323,-129.0718,-131.3380)"
       cx="244.43382"
       cy="248.48956"
       fx="242.12482"
       fy="203.93304"
       r="83.198463" />
    <radialGradient
       inkscape:collect="always"
       xlink:href="#linearGradient2381"
       id="radialGradient26794"
       gradientUnits="userSpaceOnUse"
       cx="-289.09140"
       cy="598.36652"
       fx="-289.09140"
       fy="598.36652"
       r="125.20509" />
    <radialGradient
       inkscape:collect="always"
       xlink:href="#MaterialSoftShadow"
       id="radialGradient26795"
       gradientUnits="userSpaceOnUse"
       cx="-289.09140"
       cy="598.36652"
       fx="-289.09140"
       fy="598.36652"
       r="125.20509" />
  </defs>
  <path
     sodipodi:type="arc"
     style="fill:url(#radialGradient26795);fill-opacity:1.0000000;fill-rule:evenodd;stroke:none;stroke-width:1.0000000pt;stroke-linecap:butt;stroke-linejoin:miter;stroke-opacity:1.0000000"
     id="path4284"
     sodipodi:cx="-289.09140"
     sodipodi:cy="598.36652"
     sodipodi:rx="125.20509"
     sodipodi:ry="125.20509"
     d="M -163.88631 598.36652 A 125.20509 125.20509 0 1 1  -414.29649,598.36652 A 125.20509 125.20509 0 1 1  -163.88631 598.36652 z"
     transform="matrix(-0.336513,0.000000,0.000000,9.361344e-2,-36.13387,52.19219)" />
  <path
     sodipodi:type="arc"
     style="fill:url(#radialGradient26794);fill-opacity:1.0000000;fill-rule:evenodd;stroke:none;stroke-width:1.0000000pt;stroke-linecap:butt;stroke-linejoin:miter;stroke-opacity:1.0000000"
     id="path4285"
     sodipodi:cx="-289.09140"
     sodipodi:cy="598.36652"
     sodipodi:rx="125.20509"
     sodipodi:ry="125.20509"
     d="M -163.88631 598.36652 A 125.20509 125.20509 0 1 1  -414.29649,598.36652 A 125.20509 125.20509 0 1 1  -163.88631 598.36652 z"
     transform="matrix(-0.470356,0.000000,0.000000,0.287966,-68.69126,-80.00438)" />
  <path
     d="M 122.77956,64.901850 C 122.77956,32.460914 96.480930,6.1623244 64.039985,6.1623244 C 31.599038,6.1623244 5.3004998,32.460914 5.3004998,64.901850 C 5.3004998,97.342803 31.599038,123.64139 64.039985,123.64139 C 96.480930,123.64139 122.77956,97.342803 122.77956,64.901850 z "
     style="fill:#314e6c;fill-opacity:1.0000000;fill-rule:evenodd;stroke:none;stroke-width:8.7163954;stroke-linecap:butt;stroke-linejoin:miter;stroke-miterlimit:4.0000000;stroke-opacity:1.0000000"
     id="path4286" />
  <path
     d="M 122.60493,64.800660 C 122.60493,32.359715 96.306376,6.0611353 63.865430,6.0611353 C 31.424487,6.0611353 5.1259461,32.359715 5.1259461,64.800660 C 5.1259461,97.241596 31.424487,123.54018 63.865430,123.54018 C 96.306376,123.54018 122.60493,97.241596 122.60493,64.800660 z "
     style="fill:url(#radialGradient26790);fill-opacity:1.0000000;fill-rule:evenodd;stroke:#333333;stroke-width:2.6087358;stroke-linecap:butt;stroke-linejoin:miter;stroke-miterlimit:4.0000000;stroke-opacity:1.0000000"
     id="path4287" />
  <path
     d="M 115.26163,62.423730 C 115.26163,32.710405 92.770728,8.6229892 65.026698,8.6229892 C 37.282670,8.6229892 14.791663,32.710405 14.791663,62.423730 C 14.791663,92.137064 37.282670,116.22447 65.026698,116.22447 C 92.770728,116.22447 115.26163,92.137064 115.26163,62.423730 z "
     style="fill:url(#linearGradient26784);fill-opacity:1.0000000;fill-rule:evenodd;stroke:none;stroke-width:2.3390312;stroke-linecap:butt;stroke-linejoin:miter;stroke-miterlimit:4.0000000;stroke-opacity:1.0000000"
     id="path4289" />
  <path
     d="M 59.180057,9.4660399 C 54.370088,10.515897 49.227533,10.777010 44.932863,13.410816 C 43.269431,13.546708 36.549327,16.183128 41.034373,16.640927 C 43.812397,15.852482 45.103434,12.963873 48.204991,13.206119 C 51.534742,12.215473 54.959430,11.036801 58.589422,10.343315 C 58.964105,10.169169 58.971767,9.7563025 59.180057,9.4660399 z M 66.261111,10.398078 C 63.858365,13.161455 58.317839,12.985767 57.986746,17.486955 C 59.119153,19.043345 64.691226,11.717976 66.329778,16.243188 C 66.652512,19.277141 64.630521,23.106774 61.127611,21.129715 C 59.427956,20.987833 57.311321,21.337200 57.381979,19.816177 C 56.499856,22.047523 49.471847,26.365427 51.940474,21.554344 C 53.222455,20.590889 50.146675,20.415708 52.259625,18.760666 C 54.129555,16.861887 48.195340,17.040869 50.442240,19.089083 C 49.140456,20.883979 48.553701,22.793087 45.995310,23.105422 C 48.179019,22.861744 50.448907,22.508556 48.773633,24.839441 C 50.038099,29.589999 42.099805,27.109580 41.125730,30.616220 C 38.239131,35.260891 45.448860,35.015273 47.506979,32.726814 C 47.159463,28.431677 51.579525,29.699397 53.898774,29.275375 C 56.335255,27.466797 58.907878,33.061680 60.113729,35.061697 C 61.694561,35.895911 63.429246,32.626870 61.021627,31.781478 C 61.307241,30.175897 56.137218,27.458597 59.409347,27.341514 C 61.596437,28.504682 62.826869,30.914444 63.239269,32.483593 C 67.598226,32.286160 61.447659,37.323786 65.631366,35.791568 C 68.282307,35.317039 65.345751,30.895715 68.864781,32.629594 C 73.312508,34.337512 67.337591,26.890592 72.415162,26.859104 C 74.774118,25.466142 73.508457,31.700105 74.961013,28.652873 C 75.785711,23.716429 82.388783,30.493905 79.379480,32.470419 C 75.553439,31.406360 71.699632,31.095956 70.042471,35.404407 C 69.811390,37.433284 75.614842,32.477195 74.937923,36.096052 C 76.161389,39.933845 70.135221,40.632797 67.862046,39.303135 C 65.772083,36.787308 63.825723,39.131945 62.270171,40.276664 C 59.845333,39.937766 51.778459,39.296927 55.188617,35.682727 C 56.090642,31.909319 50.478265,35.339252 48.435574,34.489156 C 45.856483,35.886367 41.882759,34.649001 39.820959,36.732484 C 39.526088,39.148536 35.661933,37.816476 35.029302,40.723873 C 33.569084,44.033531 28.729855,45.138831 28.607946,48.686461 C 28.469120,52.651469 26.601479,56.259498 28.675519,60.165820 C 29.174300,64.161130 32.959043,66.632883 36.831460,65.694395 C 39.073685,65.646188 41.177179,68.451710 42.754232,65.068561 C 45.295704,60.881829 47.894597,67.402143 51.080544,65.709112 C 53.704219,68.731124 48.886088,72.326059 52.998640,74.441774 C 56.446915,78.094826 55.422384,83.168655 53.915890,87.410362 C 53.939178,90.826005 58.422930,92.604049 58.340829,95.989419 C 57.998390,100.83468 62.358838,105.08559 67.116464,102.74398 C 70.199906,101.87473 71.448548,98.212885 74.609617,97.367306 C 77.008780,95.342317 75.965938,89.426531 80.345495,89.282560 C 86.322206,87.283815 82.034404,80.138673 83.663203,76.093335 C 86.052314,73.271273 87.066397,69.094602 90.726044,67.531533 C 93.554625,65.054747 91.687281,60.062741 94.556364,57.257469 C 92.126154,59.130862 88.036591,60.769812 85.376193,58.494308 C 81.258963,54.922593 77.873088,50.454833 75.773472,45.415517 C 74.790937,43.187474 74.853234,38.706827 77.289020,38.727814 C 77.672759,43.403538 80.980217,47.169888 83.288122,51.051878 C 85.496509,53.574871 87.036738,57.530625 91.134960,56.208216 C 94.597366,55.034460 99.343844,52.740079 99.419875,48.634952 C 99.096642,43.986249 90.806754,48.327644 89.171384,43.584181 C 85.900450,41.635422 91.397488,38.416724 92.388680,42.030000 C 94.511483,44.195666 98.319015,43.051067 99.880043,45.977372 C 103.03992,44.564884 105.56795,45.559011 106.86974,48.874082 C 109.65483,51.632024 110.40866,55.811382 110.30498,59.590771 C 113.95986,63.153849 112.83650,54.406307 113.80281,52.255430 C 113.94840,50.215395 114.15441,47.702902 115.01365,51.039579 C 117.68796,52.321201 115.82442,46.872468 115.21387,45.645790 C 110.52381,34.930883 109.01643,32.967884 103.87178,26.799425 C 95.381265,18.471816 88.481930,14.918004 79.082123,11.818847 C 78.398737,15.156945 74.224682,12.218538 72.233841,15.013970 C 70.144973,16.592812 70.134524,16.391348 71.599118,14.294757 C 70.535479,12.387459 68.119994,11.475414 66.261111,10.398078 z M 51.451047,14.126166 C 49.363376,13.137989 44.191359,16.399668 48.822497,16.179595 C 50.132046,16.452413 50.569024,14.751801 51.451047,14.126166 z M 48.495882,19.013610 C 46.829265,19.650929 42.870963,20.773125 46.369595,21.520540 C 47.371334,21.050152 48.023969,19.970698 48.495882,19.013610 z M 58.043371,33.221296 C 55.508964,34.492778 57.877476,37.020048 59.215188,34.615513 C 58.897528,34.088547 58.399444,33.716981 58.043371,33.221296 z M 115.21516,60.272743 C 111.49291,62.809786 119.62457,64.719094 115.21516,60.272743 z M 8.8279893,66.751446 C 8.6120370,71.401970 9.8058456,76.304411 10.844209,81.320012 C 12.184110,83.693161 13.085241,88.553218 14.627161,89.239509 C 16.233868,85.554534 12.929396,81.432985 14.856349,77.620567 C 12.536700,75.795976 15.657962,71.751625 11.887153,70.649251 C 10.700407,69.488780 9.8163946,68.073364 8.8279893,66.751446 z M 90.436945,81.754765 C 90.052311,86.048458 84.205969,87.056836 85.296082,91.408677 C 86.337630,93.690062 84.785558,93.858425 84.546020,95.707596 C 86.695594,97.356707 88.522733,91.988415 90.170239,90.530995 C 90.554476,88.409317 95.564875,81.257536 90.436945,81.754765 z "
     style="fill:url(#linearGradient26788);fill-opacity:1.0000000;fill-rule:evenodd;stroke:none;stroke-width:1.0000000pt;stroke-linecap:butt;stroke-linejoin:miter;stroke-opacity:1.0000000"
     id="path4288" />
  <path
     d="M 100.55809,83.889188 C 100.55809,63.624406 84.130213,47.196554 63.865430,47.196554 C 43.600648,47.196554 27.172769,63.624406 27.172769,83.889188 C 27.172769,104.15397 43.600648,120.58182 63.865430,120.58182 C 84.130213,120.58182 100.55809,104.15397 100.55809,83.889188 z "
     style="opacity:0.53136086;fill:url(#linearGradient26786);fill-opacity:1.0000000;fill-rule:evenodd;stroke:none;stroke-width:1.2500000;stroke-linecap:butt;stroke-linejoin:miter;stroke-miterlimit:4.0000000;stroke-opacity:1.0000000"
     id="path4861" />
  <path
     d="M 59.180057,9.4660399 C 54.370088,10.515897 49.227533,10.777010 44.932863,13.410816 C 43.269431,13.546708 36.549327,16.183128 41.034373,16.640927 C 43.812397,15.852482 45.103434,12.963873 48.204991,13.206119 C 51.534742,12.215473 54.959430,11.036801 58.589422,10.343315 C 58.964105,10.169169 58.971767,9.7563025 59.180057,9.4660399 z M 66.261111,10.398078 C 63.858365,13.161455 58.317839,12.985767 57.986746,17.486955 C 59.119153,19.043345 64.691226,11.717976 66.329778,16.243188 C 66.652512,19.277141 64.630521,23.106774 61.127611,21.129715 C 59.427956,20.987833 57.311321,21.337200 57.381979,19.816177 C 56.499856,22.047523 49.471847,26.365427 51.940474,21.554344 C 53.222455,20.590889 50.146675,20.415708 52.259625,18.760666 C 54.129555,16.861887 48.195340,17.040869 50.442240,19.089083 C 49.140456,20.883979 48.553701,22.793087 45.995310,23.105422 C 48.179019,22.861744 50.448907,22.508556 48.773633,24.839441 C 50.038099,29.589999 42.099805,27.109580 41.125730,30.616220 C 38.239131,35.260891 45.448860,35.015273 47.506979,32.726814 C 47.159463,28.431677 51.579525,29.699397 53.898774,29.275375 C 56.335255,27.466797 58.907878,33.061680 60.113729,35.061697 C 61.694561,35.895911 63.429246,32.626870 61.021627,31.781478 C 61.307241,30.175897 56.137218,27.458597 59.409347,27.341514 C 61.596437,28.504682 62.826869,30.914444 63.239269,32.483593 C 67.598226,32.286160 61.447659,37.323786 65.631366,35.791568 C 68.282307,35.317039 65.345751,30.895715 68.864781,32.629594 C 73.312508,34.337512 67.337591,26.890592 72.415162,26.859104 C 74.774118,25.466142 73.508457,31.700105 74.961013,28.652873 C 75.785711,23.716429 82.388783,30.493905 79.379480,32.470419 C 75.553439,31.406360 71.699632,31.095956 70.042471,35.404407 C 69.811390,37.433284 75.614842,32.477195 74.937923,36.096052 C 76.161389,39.933845 70.135221,40.632797 67.862046,39.303135 C 65.772083,36.787308 63.825723,39.131945 62.270171,40.276664 C 59.845333,39.937766 51.778459,39.296927 55.188617,35.682727 C 56.090642,31.909319 50.478265,35.339252 48.435574,34.489156 C 45.856483,35.886367 41.882759,34.649001 39.820959,36.732484 C 39.526088,39.148536 35.661933,37.816476 35.029302,40.723873 C 33.569084,44.033531 28.729855,45.138831 28.607946,48.686461 C 28.469120,52.651469 26.601479,56.259498 28.675519,60.165820 C 29.174300,64.161130 32.959043,66.632883 36.831460,65.694395 C 39.073685,65.646188 41.177179,68.451710 42.754232,65.068561 C 45.295704,60.881829 47.894597,67.402143 51.080544,65.709112 C 53.704219,68.731124 48.886088,72.326059 52.998640,74.441774 C 56.446915,78.094826 55.422384,83.168655 53.915890,87.410362 C 53.939178,90.826005 58.422930,92.604049 58.340829,95.989419 C 57.998390,100.83468 62.358838,105.08559 67.116464,102.74398 C 70.199906,101.87473 71.448548,98.212885 74.609617,97.367306 C 77.008780,95.342317 75.965938,89.426531 80.345495,89.282560 C 86.322206,87.283815 82.034404,80.138673 83.663203,76.093335 C 86.052314,73.271273 87.066397,69.094602 90.726044,67.531533 C 93.554625,65.054747 91.687281,60.062741 94.556364,57.257469 C 92.126154,59.130862 88.036591,60.769812 85.376193,58.494308 C 81.258963,54.922593 77.873088,50.454833 75.773472,45.415517 C 74.790937,43.187474 74.853234,38.706827 77.289020,38.727814 C 77.672759,43.403538 80.980217,47.169888 83.288122,51.051878 C 85.496509,53.574871 87.036738,57.530625 91.134960,56.208216 C 94.597366,55.034460 99.343844,52.740079 99.419875,48.634952 C 99.096642,43.986249 90.806754,48.327644 89.171384,43.584181 C 85.900450,41.635422 91.397488,38.416724 92.388680,42.030000 C 94.511483,44.195666 98.319015,43.051067 99.880043,45.977372 C 103.03992,44.564884 105.56795,45.559011 106.86974,48.874082 C 109.65483,51.632024 110.40866,55.811382 110.30498,59.590771 C 113.95986,63.153849 112.83650,54.406307 113.80281,52.255430 C 113.94840,50.215395 114.15441,47.702902 115.01365,51.039579 C 117.68796,52.321201 115.82442,46.872468 115.21387,45.645790 C 110.52381,34.930883 109.01643,32.967884 103.87178,26.799425 C 95.381265,18.471816 88.481930,14.918004 79.082123,11.818847 C 78.398737,15.156945 74.224682,12.218538 72.233841,15.013970 C 70.144973,16.592812 70.134524,16.391348 71.599118,14.294757 C 70.535479,12.387459 68.119994,11.475414 66.261111,10.398078 z M 51.451047,14.126166 C 49.363376,13.137989 44.191359,16.399668 48.822497,16.179595 C 50.132046,16.452413 50.569024,14.751801 51.451047,14.126166 z M 48.495882,19.013610 C 46.829265,19.650929 42.870963,20.773125 46.369595,21.520540 C 47.371334,21.050152 48.023969,19.970698 48.495882,19.013610 z M 58.043371,33.221296 C 55.508964,34.492778 57.877476,37.020048 59.215188,34.615513 C 58.897528,34.088547 58.399444,33.716981 58.043371,33.221296 z M 115.21516,60.272743 C 111.49291,62.809786 119.62457,64.719094 115.21516,60.272743 z M 8.8279893,66.751446 C 8.6120370,71.401970 9.8058456,76.304411 10.844209,81.320012 C 12.184110,83.693161 13.085241,88.553218 14.627161,89.239509 C 16.233868,85.554534 12.929396,81.432985 14.856349,77.620567 C 12.536700,75.795976 15.657962,71.751625 11.887153,70.649251 C 10.700407,69.488780 9.8163946,68.073364 8.8279893,66.751446 z M 90.436945,81.754765 C 90.052311,86.048458 84.205969,87.056836 85.296082,91.408677 C 86.337630,93.690062 84.785558,93.858425 84.546020,95.707596 C 86.695594,97.356707 88.522733,91.988415 90.170239,90.530995 C 90.554476,88.409317 95.564875,81.257536 90.436945,81.754765 z "
     style="fill:#ffffff;fill-opacity:0.58854169;fill-rule:evenodd;stroke:none;stroke-width:1.0000000pt;stroke-linecap:butt;stroke-linejoin:miter;stroke-opacity:1.0000000"
     id="path4290" />
  <path
     d="M 122.77956,64.901850 C 122.77956,32.460914 96.480930,6.1623244 64.039985,6.1623244 C 31.599038,6.1623244 5.3004998,32.460914 5.3004998,64.901850 C 5.3004998,97.342803 31.599038,123.64139 64.039985,123.64139 C 96.480930,123.64139 122.77956,97.342803 122.77956,64.901850 z "
     style="fill:none;fill-opacity:1.0000000;fill-rule:evenodd;stroke:none;stroke-width:3.7500000;stroke-linecap:butt;stroke-linejoin:miter;stroke-miterlimit:4.0000000;stroke-opacity:1.0000000"
     id="path4291" />
  <path
     d="M 122.77956,64.901850 C 122.77956,32.460914 96.480930,6.1623244 64.039985,6.1623244 C 31.599038,6.1623244 5.3004998,32.460914 5.3004998,64.901850 C 5.3004998,97.342803 31.599038,123.64139 64.039985,123.64139 C 96.480930,123.64139 122.77956,97.342803 122.77956,64.901850 z "
     style="fill:none;fill-opacity:0.94117647;fill-rule:evenodd;stroke:none;stroke-width:5.8040280;stroke-linecap:butt;stroke-linejoin:miter;stroke-miterlimit:4.0000000;stroke-opacity:1.0000000"
     id="path4292" />
</svg>
