<?xml version="1.0" encoding="UTF-8" standalone="no"?>
<!-- Created with Inkscape (http://www.inkscape.org/) -->
<!-- 
Created By Andrew Fitzsimon.
Much of this document has been manually cleaned and crafted in a text editor so that only the colour definitions and basic presentation related data remain in the XML. 
Changes to this document may compromise the structure of this palette.
-->
<svg
   xmlns:dc="http://purl.org/dc/elements/1.1/"
   xmlns:cc="http://web.resource.org/cc/"
   xmlns:rdf="http://www.w3.org/1999/02/22-rdf-syntax-ns#"
   xmlns:svg="http://www.w3.org/2000/svg"
   xmlns="http://www.w3.org/2000/svg"
   xmlns:xlink="http://www.w3.org/1999/xlink"
   xmlns:sodipodi="http://inkscape.sourceforge.net/DTD/sodipodi-0.dtd"
   xmlns:inkscape="http://www.inkscape.org/namespaces/inkscape"
   version="1.0"
   x="00"
   y="00"
   width="128"
   height="128"
   id="Etiquette"
   sodipodi:version="0.32"
   inkscape:version="0.41+cvs"
   sodipodi:docname="synaptic.svg"
   sodipodi:docbase="/home/andy/Desktop/Etiquette/human/scalable/apps">
  <metadata
     id="About">
    <rdf:RDF
       id="RDF232">
      <cc:Work
         rdf:about=""
         id="Work233">
        <dc:format
           id="format234">image/svg+xml</dc:format>
        <dc:type
           id="type236"
           rdf:resource="http://purl.org/dc/dcmitype/StillImage" />
        <dc:creator
           id="creator1291">
          <cc:Agent
             id="Agent1292">
            <dc:title
               id="title1293">Andrew Fitzsimon</dc:title>
          </cc:Agent>
        </dc:creator>
        <dc:date
           id="date1295">2004-12-25</dc:date>
        <dc:title
           id="title1297">Etiquette Icon</dc:title>
        <cc:license
           id="license1299"
           rdf:resource="http://creativecommons.org/licenses/by/2.0/" />
        <dc:rights
           id="rights1308">
          <cc:Agent
             id="Agent1309">
            <dc:title
               id="title1310">Andrew Fitzsimon</dc:title>
          </cc:Agent>
        </dc:rights>
      </cc:Work>
      <cc:License
         rdf:about="http://creativecommons.org/licenses/by/2.0/"
         id="License1300">
        <cc:permits
           rdf:resource="http://web.resource.org/cc/Reproduction"
           id="permits1301" />
        <cc:permits
           rdf:resource="http://web.resource.org/cc/Distribution"
           id="permits1302" />
        <cc:requires
           rdf:resource="http://web.resource.org/cc/Notice"
           id="requires1303" />
        <cc:requires
           rdf:resource="http://web.resource.org/cc/Attribution"
           id="requires1304" />
        <cc:prohibits
           rdf:resource="http://web.resource.org/cc/CommercialUse"
           id="prohibits1305" />
        <cc:permits
           rdf:resource="http://web.resource.org/cc/DerivativeWorks"
           id="permits1306" />
        <cc:requires
           rdf:resource="http://web.resource.org/cc/ShareAlike"
           id="requires1307" />
      </cc:License>
    </rdf:RDF>
  </metadata>
  <sodipodi:namedview
     id="base"
     pagecolor="#ffffff"
     bordercolor="#666666"
     borderopacity="1.0"
     inkscape:pageopacity="0.0"
     inkscape:pageshadow="0"
     inkscape:zoom="0.50000000"
     inkscape:cx="74.800018"
     inkscape:cy="98.419617"
     inkscape:window-width="520"
     inkscape:window-height="568"
     inkscape:window-x="43"
     inkscape:window-y="58"
     inkscape:current-layer="Etiquette"
     showgrid="true"
     gridspacingx="8.0000000pt"
     gridspacingy="8.0000000pt"
     gridoriginy="0.0000000pt"
     gridoriginx="0pt"
     inkscape:grid-points="false"
     gridtolerance="40pt"
     showborder="true"
     inkscape:grid-bbox="false"
     gridcolor="#3f3fff"
     gridopacity="0.082352941"
     gridempspacing="2"
     gridempcolor="#3f3fff"
     gridempopacity="0.082352941" />
  <defs
     id="Gradients">
    <linearGradient
       inkscape:collect="always"
       xlink:href="#linearGradient1773"
       id="linearGradient3624"
       gradientUnits="userSpaceOnUse"
       gradientTransform="matrix(9.751466e-2,-9.751466e-2,0.311001,0.311001,-104.4364,115.9347)"
       x1="1225.5968"
       y1="146.32704"
       x2="955.32343"
       y2="157.45752" />
    <linearGradient
       id="linearGradient1759">
      <stop
         style="stop-color:#ffffff;stop-opacity:1.0000000;"
         offset="0.0000000"
         id="stop3001" />
      <stop
         style="stop-color:#ffffff;stop-opacity:0.0000000;"
         offset="1.0000000"
         id="stop1761" />
    </linearGradient>
    <linearGradient
       inkscape:collect="always"
       xlink:href="#linearGradient1759"
       id="linearGradient3618"
       gradientUnits="userSpaceOnUse"
       gradientTransform="matrix(0.996334,0.000000,0.000000,1.003679,-19.76614,13.84672)"
       x1="101.60055"
       y1="57.589176"
       x2="75.875305"
       y2="79.253632" />
    <linearGradient
       id="linearGradient1773">
      <stop
         style="stop-color:#000000;stop-opacity:1.0000000;"
         offset="0.0000000"
         id="stop1774" />
      <stop
         style="stop-color:#000000;stop-opacity:0.0000000;"
         offset="1.0000000"
         id="stop1775" />
    </linearGradient>
    <linearGradient
       inkscape:collect="always"
       xlink:href="#linearGradient1773"
       id="linearGradient3622"
       gradientUnits="userSpaceOnUse"
       gradientTransform="matrix(9.751466e-2,-9.751466e-2,0.311001,0.311001,-104.4364,115.9347)"
       x1="704.37604"
       y1="255.77260"
       x2="1174.9385"
       y2="59.151508" />
    <linearGradient
       id="WhiteTransparent">
      <stop
         style="stop-color:#ffffff;stop-opacity:1;"
         offset="0"
         id="stopWhiteFull" />
      <stop
         style="stop-color:#ffffff;stop-opacity:0;"
         offset="1"
         id="stopWhiteTransparent" />
    </linearGradient>
    <linearGradient
       inkscape:collect="always"
       xlink:href="#WhiteTransparent"
       id="linearGradient94"
       gradientTransform="matrix(0.993377,0.000000,0.000000,1.006667,-20.11969,14.20027)"
       x1="59.148312"
       y1="71.745026"
       x2="92.206894"
       y2="36.544720"
       gradientUnits="userSpaceOnUse" />
    <linearGradient
       inkscape:collect="always"
       xlink:href="#linearGradient1601"
       id="linearGradient106"
       gradientUnits="userSpaceOnUse"
       gradientTransform="matrix(0.878166,0.000000,0.000000,0.857671,-3.778146,-6.825558)"
       x1="95.640574"
       y1="96.111842"
       x2="68.670421"
       y2="62.444678" />
    <linearGradient
       id="linearGradient9590">
      <stop
         style="stop-color:#ffffff;stop-opacity:0.0000000;"
         offset="0.0000000"
         id="stop9591" />
      <stop
         style="stop-color:#fff;stop-opacity:1;"
         offset="1"
         id="stop9592" />
    </linearGradient>
    <linearGradient
       inkscape:collect="always"
       xlink:href="#linearGradient9590"
       id="linearGradient105"
       gradientUnits="userSpaceOnUse"
       gradientTransform="matrix(-1.728076e-3,-0.364029,0.462670,-2.091762e-3,-138.7624,-27.74102)"
       x1="-192.84351"
       y1="392.99153"
       x2="-150.65967"
       y2="346.77014" />
    <linearGradient
       inkscape:collect="always"
       xlink:href="#linearGradient1601"
       id="linearGradient104"
       gradientUnits="userSpaceOnUse"
       gradientTransform="matrix(1.763197e-3,0.371427,-0.475996,2.152011e-3,272.9158,114.4792)"
       x1="-2.8407425"
       y1="276.70308"
       x2="-117.35160"
       y2="391.21394" />
    <linearGradient
       inkscape:collect="always"
       xlink:href="#linearGradient1601"
       id="linearGradient103"
       gradientUnits="userSpaceOnUse"
       gradientTransform="matrix(-0.226455,-0.298138,0.382071,-0.276392,-159.6213,107.6789)"
       x1="-95.537172"
       y1="287.63866"
       x2="-214.04250"
       y2="411.96459" />
    <linearGradient
       inkscape:collect="always"
       xlink:href="#linearGradient1601"
       id="linearGradient102"
       gradientUnits="userSpaceOnUse"
       gradientTransform="matrix(0.222505,0.292936,-0.375406,0.271571,260.8323,-14.83148)"
       x1="-36.098958"
       y1="294.64521"
       x2="-116.46814"
       y2="391.66238" />
    <linearGradient
       inkscape:collect="always"
       xlink:href="#linearGradient1601"
       id="linearGradient101"
       gradientUnits="userSpaceOnUse"
       gradientTransform="matrix(0.280505,0.369294,-0.388182,0.280812,285.5433,-24.72836)"
       x1="-118.47699"
       y1="566.04219"
       x2="-32.234216"
       y2="396.03963" />
    <linearGradient
       id="linearGradient1753">
      <stop
         style="stop-color:#000000;stop-opacity:1.0000000;"
         offset="0.0000000"
         id="stop1754" />
      <stop
         style="stop-color:#000000;stop-opacity:0.0000000;"
         offset="1.0000000"
         id="stop1755" />
    </linearGradient>
    <linearGradient
       inkscape:collect="always"
       xlink:href="#linearGradient1753"
       id="linearGradient100"
       gradientUnits="userSpaceOnUse"
       gradientTransform="matrix(0.442094,-3.015165e-2,3.580514e-2,0.499992,155.7400,-169.5112)"
       x1="-326.93723"
       y1="621.11951"
       x2="-144.87398"
       y2="372.94662" />
    <linearGradient
       inkscape:collect="always"
       id="linearGradient1601">
      <stop
         style="stop-color:#ffffff;stop-opacity:1.0000000;"
         offset="0.0000000"
         id="stop1602" />
      <stop
         style="stop-color:#ffffff;stop-opacity:0.0000000;"
         offset="1.0000000"
         id="stop1603" />
    </linearGradient>
    <linearGradient
       inkscape:collect="always"
       xlink:href="#linearGradient1601"
       id="linearGradient99"
       gradientUnits="userSpaceOnUse"
       gradientTransform="matrix(0.428786,-2.924403e-2,3.073985e-2,0.429260,148.0792,-150.3121)"
       x1="-265.25351"
       y1="535.93958"
       x2="-145.86057"
       y2="383.04846" />
    <linearGradient
       inkscape:collect="always"
       xlink:href="#linearGradient2023"
       id="linearGradient98"
       gradientUnits="userSpaceOnUse"
       gradientTransform="matrix(-0.430713,2.937544e-2,-3.675125e-2,-0.513205,22.90210,291.8808)"
       x1="-219.76663"
       y1="537.68445"
       x2="-72.849289"
       y2="347.80743" />
    <linearGradient
       inkscape:collect="always"
       xlink:href="#linearGradient2023"
       id="linearGradient97"
       gradientUnits="userSpaceOnUse"
       gradientTransform="matrix(0.910641,0.000000,0.000000,0.888804,-3.847702,-6.943416)"
       x1="98.614998"
       y1="-205.98883"
       x2="98.614998"
       y2="87.374298" />
    <linearGradient
       inkscape:collect="always"
       id="linearGradient2023">
      <stop
         style="stop-color:#000000;stop-opacity:0.68686867;"
         offset="0.0000000"
         id="stop2024" />
      <stop
         style="stop-color:#000000;stop-opacity:0.0000000;"
         offset="1.0000000"
         id="stop2025" />
    </linearGradient>
    <linearGradient
       inkscape:collect="always"
       xlink:href="#linearGradient2023"
       id="linearGradient96"
       gradientUnits="userSpaceOnUse"
       gradientTransform="matrix(0.910642,0.000000,0.000000,0.888804,-3.847705,-6.943422)"
       x1="127.76123"
       y1="267.64246"
       x2="127.76123"
       y2="77.293716" />
    <linearGradient
       id="MaterialSoftShadow">
      <stop
         style="stop-color:#000000;stop-opacity:0.215;"
         offset="0"
         id="stop2619" />
      <stop
         style="stop-color:#000000;stop-opacity:0.098;"
         offset="0.50000000"
         id="stop2621" />
      <stop
         style="stop-color:#000000;stop-opacity:0;"
         offset="1"
         id="stop2620" />
    </linearGradient>
    <radialGradient
       inkscape:collect="always"
       xlink:href="#MaterialSoftShadow"
       id="radialGradient95"
       gradientUnits="userSpaceOnUse"
       cx="-289.09140"
       cy="598.36652"
       fx="-289.09140"
       fy="598.36652"
       r="125.20509" />
    <linearGradient
       id="linearGradient3057">
      <stop
         style="stop-color:#000000;stop-opacity:0.19191919;"
         offset="0.0000000"
         id="stop3058" />
      <stop
         style="stop-color:#000000;stop-opacity:0.14141414;"
         offset="0.34210527"
         id="stop3059" />
      <stop
         style="stop-color:#ffffff;stop-opacity:0.0000000;"
         offset="1.0000000"
         id="stop3060" />
    </linearGradient>
    <linearGradient
       id="linearGradient2337">
      <stop
         style="stop-color:#ffffff;stop-opacity:1.0000000;"
         offset="0.0000000"
         id="stop2338" />
      <stop
         style="stop-color:#ffffff;stop-opacity:0.0000000;"
         offset="1.0000000"
         id="stop2339" />
    </linearGradient>
    <linearGradient
       id="linearGradient2248">
      <stop
         style="stop-color:#ffffff;stop-opacity:1.0000000;"
         offset="0.0000000"
         id="stop2249" />
      <stop
         style="stop-color:#ffffff;stop-opacity:0.0000000;"
         offset="1.0000000"
         id="stop2251" />
    </linearGradient>
    <linearGradient
       id="linearGradient1806">
      <stop
         style="stop-color:#000000;stop-opacity:0.40677965;"
         offset="0.0000000"
         id="stop1807" />
      <stop
         style="stop-color:#000000;stop-opacity:0.073446326;"
         offset="0.64777780"
         id="stop3276" />
      <stop
         style="stop-color:#000000;stop-opacity:0.0000000;"
         offset="1.0000000"
         id="stop1808" />
    </linearGradient>
    <linearGradient
       id="3DShadowGradient">
      <stop
         style="stop-color:#565248;stop-opacity:1;"
         offset="0"
         id="stop3933" />
      <stop
         style="stop-color:#565248;stop-opacity:0;"
         offset="1"
         id="stop3934" />
    </linearGradient>
    <linearGradient
       id="Basic3DMediumGradient">
      <stop
         style="stop-color:#bab5ab;stop-opacity:1;"
         offset="0"
         id="stop3925" />
      <stop
         style="stop-color:#bab5ab;stop-opacity:0;"
         offset="1"
         id="stop3926" />
    </linearGradient>
    <linearGradient
       id="BlackTransparent">
      <stop
         style="stop-color:#000000;stop-opacity:1;"
         offset="0"
         id="stopBlackFull" />
      <stop
         style="stop-color:#000000;stop-opacity:0;"
         offset="1"
         id="stopBlackTransparent" />
    </linearGradient>
    <linearGradient
       inkscape:collect="always"
       xlink:href="#linearGradient2337"
       id="linearGradient6482"
       gradientUnits="userSpaceOnUse"
       gradientTransform="matrix(1.522700,0.000000,0.000000,0.430329,-2.599777,-7.242867)"
       x1="50.694548"
       y1="71.840523"
       x2="50.694552"
       y2="176.84570" />
    <linearGradient
       inkscape:collect="always"
       xlink:href="#Basic3DMediumGradient"
       id="linearGradient6484"
       gradientUnits="userSpaceOnUse"
       gradientTransform="matrix(0.323901,0.000000,0.000000,0.639902,-182.2703,-176.7296)"
       x1="897.69297"
       y1="285.88806"
       x2="833.41543"
       y2="339.35167" />
    <linearGradient
       inkscape:collect="always"
       xlink:href="#linearGradient2248"
       id="linearGradient6486"
       gradientUnits="userSpaceOnUse"
       gradientTransform="matrix(0.455263,0.000000,0.000000,0.455264,-182.2703,-176.7296)"
       x1="534.32039"
       y1="459.25367"
       x2="653.98563"
       y2="479.35369" />
    <linearGradient
       inkscape:collect="always"
       xlink:href="#BlackTransparent"
       id="linearGradient6488"
       gradientUnits="userSpaceOnUse"
       gradientTransform="matrix(0.323901,0.000000,0.000000,0.639902,-182.2703,-176.7296)"
       spreadMethod="pad"
       x1="676.88428"
       y1="402.10104"
       x2="680.76310"
       y2="319.36499" />
    <linearGradient
       inkscape:collect="always"
       xlink:href="#linearGradient2248"
       id="linearGradient6490"
       gradientUnits="userSpaceOnUse"
       gradientTransform="matrix(0.455263,0.000000,0.000000,0.455264,-182.2703,-176.7296)"
       x1="360.39867"
       y1="413.89748"
       x2="457.23366"
       y2="479.15446" />
    <linearGradient
       inkscape:collect="always"
       xlink:href="#linearGradient1806"
       id="linearGradient6492"
       gradientUnits="userSpaceOnUse"
       gradientTransform="matrix(1.684685,0.000000,0.000000,0.600660,0.000000,-0.283383)"
       x1="43.604229"
       y1="77.672508"
       x2="36.534386"
       y2="18.924252" />
    <linearGradient
       inkscape:collect="always"
       xlink:href="#3DShadowGradient"
       id="linearGradient6499"
       gradientUnits="userSpaceOnUse"
       gradientTransform="matrix(0.750167,0.000000,0.000000,0.856954,-515.6644,-133.5517)"
       x1="775.35773"
       y1="239.85512"
       x2="775.35773"
       y2="284.68008" />
    <linearGradient
       inkscape:collect="always"
       xlink:href="#3DShadowGradient"
       id="linearGradient6501"
       gradientUnits="userSpaceOnUse"
       gradientTransform="matrix(0.425955,0.000000,0.000000,0.486589,-181.1913,-176.6731)"
       x1="625.14871"
       y1="642.02137"
       x2="622.65621"
       y2="547.16211" />
    <linearGradient
       inkscape:collect="always"
       xlink:href="#3DShadowGradient"
       id="linearGradient6503"
       gradientUnits="userSpaceOnUse"
       gradientTransform="matrix(0.424574,0.000000,0.000000,0.486589,-180.3017,-176.7296)"
       spreadMethod="pad"
       x1="605.66035"
       y1="489.19534"
       x2="603.72492"
       y2="565.62407" />
    <radialGradient
       inkscape:collect="always"
       xlink:href="#linearGradient3057"
       id="radialGradient6508"
       gradientUnits="userSpaceOnUse"
       gradientTransform="scale(2.855494,0.350202)"
       cx="28.016161"
       cy="415.83121"
       fx="27.829060"
       fy="401.33081"
       r="23.200882" />
  </defs>
  <path
     style="fill:#565248;fill-opacity:1.0000000;fill-rule:evenodd;stroke:#000000;stroke-width:0.28453985;stroke-linecap:butt;stroke-linejoin:miter;stroke-miterlimit:4.0000000;stroke-opacity:0.27044025"
     d="M 92.303039,22.198394 L 115.06622,33.579990 L 126.54770,56.346559 L 126.44782,58.729020 L 103.68464,47.347423 L 92.303039,22.198394"
     id="path9625"
     sodipodi:nodetypes="cccccc" />
  <path
     style="fill:#565248;fill-opacity:1.0000000;fill-rule:evenodd;stroke:#000000;stroke-width:0.28453985;stroke-linecap:butt;stroke-linejoin:miter;stroke-miterlimit:4.0000000;stroke-opacity:0.27044025"
     d="M 35.395072,22.198394 L 12.631887,33.579990 L 1.3052211,56.309292 L 1.2502909,58.999967 L 24.013476,47.618370 L 35.811150,25.748068 L 35.395072,22.198394 z "
     id="path9626"
     sodipodi:nodetypes="ccccccc" />
  <path
     style="fill:#807d74;fill-opacity:1.0000000;fill-rule:evenodd;stroke:#000000;stroke-width:0.28407469;stroke-linecap:butt;stroke-linejoin:miter;stroke-miterlimit:4.0000000;stroke-opacity:0.27044025"
     d="M 25.315678,44.961694 L 36.660089,22.198473 L 93.382130,22.198473 L 104.72654,44.961694 L 104.72654,113.25128 L 25.315678,113.25128 L 25.315678,44.961694 z "
     id="path9627"
     sodipodi:nodetypes="ccccccc" />
  <path
     style="fill:none;fill-opacity:0.75000000;fill-rule:evenodd;stroke:#000000;stroke-width:0.28453985;stroke-linecap:butt;stroke-linejoin:miter;stroke-miterlimit:4.0000000;stroke-opacity:0.27044025"
     d="M 35.395072,22.198394 L 92.303039,22.198394 L 103.68464,44.961603 L 24.013476,44.961603 L 35.395072,22.198394 z "
     id="path9628"
     sodipodi:nodetypes="ccccc" />
  <path
     style="fill:url(#linearGradient6503);fill-opacity:1.0000000;fill-rule:evenodd;stroke:none;stroke-width:0.35488340;stroke-linecap:butt;stroke-linejoin:miter;stroke-miterlimit:4.0000000;stroke-opacity:0.27044025"
     d="M 25.313810,44.961694 L 36.658532,22.198473 L 93.382130,22.198473 L 104.72686,44.961694 L 104.72686,113.25128 L 25.313810,113.25128 L 25.313810,44.961694 z "
     id="path9629"
     sodipodi:nodetypes="ccccccc" />
  <path
     style="fill:url(#linearGradient6501);fill-opacity:1.0000000;fill-rule:evenodd;stroke:none;stroke-width:0.35488340;stroke-linecap:butt;stroke-linejoin:miter;stroke-miterlimit:4.0000000;stroke-opacity:0.27044025"
     d="M 25.092534,45.018175 L 36.474135,22.254955 L 93.382130,22.254955 L 104.76373,45.018175 L 104.76373,113.30776 L 25.092534,113.30776 L 25.092534,45.018175 z "
     id="path10729"
     sodipodi:nodetypes="ccccccc" />
  <path
     style="fill:url(#linearGradient6499);fill-opacity:1.0000000;fill-rule:evenodd;stroke:none;stroke-width:0.35488340;stroke-linecap:butt;stroke-linejoin:miter;stroke-miterlimit:4.0000000;stroke-opacity:0.27044025"
     d="M 24.013788,44.961690 L 103.68498,44.961690 L 104.98500,96.290684 C 94.682141,79.330082 35.122367,79.330082 25.313810,96.290684 L 24.013788,44.961690 z "
     id="path2040"
     sodipodi:nodetypes="ccccc" />
  <path
     style="fill:#807d74;fill-opacity:1.0000000;fill-rule:evenodd;stroke:#000000;stroke-width:0.28453985;stroke-linecap:butt;stroke-linejoin:miter;stroke-miterlimit:4.0000000;stroke-opacity:0.27044025"
     d="M 35.395072,44.961603 L 35.395072,22.198394 L 92.303039,22.198394 L 92.303039,44.961603 L 92.303039,44.961603 L 35.395072,44.961603 L 35.395072,44.961603 z "
     id="path9630"
     sodipodi:nodetypes="ccccccc" />
  <path
     style="fill:#565248;fill-opacity:1.0000000;fill-rule:evenodd;stroke:none;stroke-width:1.6754248;stroke-linecap:butt;stroke-linejoin:miter;stroke-miterlimit:4.0000000;stroke-opacity:1.0000000"
     d="M 24.298021,44.961603 L 12.973624,79.092594 L 12.916425,82.037578 L 115.35077,82.037578 L 115.09237,78.589594 L 103.96917,44.961603 L 24.298021,44.961603 z "
     id="path9631"
     sodipodi:nodetypes="ccccccc" />
  <path
     style="fill:url(#linearGradient6492);fill-opacity:1.0000000;fill-rule:evenodd;stroke:none;stroke-width:0.42709291;stroke-linecap:butt;stroke-linejoin:miter;stroke-miterlimit:4.0000000;stroke-opacity:0.27044025"
     d="M 35.437526,44.987544 L 35.437526,23.768784 L 92.241254,23.768784 L 92.241254,44.987544 L 92.241254,44.987544 L 35.437526,44.987544 L 35.437526,44.987544 z "
     id="path317"
     sodipodi:nodetypes="ccccccc" />
  <g
     id="g487"
     transform="matrix(0.473159,0.000000,0.000000,0.473159,32.98131,2.835236)">
    <path
       sodipodi:type="arc"
       style="opacity:0.31360945;fill:url(#radialGradient95);fill-opacity:1.0000000;fill-rule:evenodd;stroke:none;stroke-width:1.0000000pt;stroke-linecap:butt;stroke-linejoin:miter;stroke-opacity:1.0000000"
       id="path472"
       sodipodi:cx="-289.09140"
       sodipodi:cy="598.36652"
       sodipodi:rx="125.20509"
       sodipodi:ry="125.20509"
       d="M -163.88631 598.36652 A 125.20509 125.20509 0 1 1  -414.29649,598.36652 A 125.20509 125.20509 0 1 1  -163.88631 598.36652 z"
       transform="matrix(-0.449651,0.000000,0.000000,5.655982e-2,-64.34662,83.43449)" />
    <path
       style="fill:#ffffff;fill-opacity:1.0000000;fill-rule:evenodd;stroke:none;stroke-width:3.0230515;stroke-linecap:butt;stroke-linejoin:miter;stroke-miterlimit:4.0000000;stroke-opacity:0.58823532"
       d="M 65.613662,5.5739984 C 32.830521,5.5739984 6.2130575,31.536176 6.2130575,63.529383 C 6.2130575,95.522586 32.830521,121.49871 65.613662,121.49869 C 98.396804,121.49869 125.00000,95.522594 125.00000,63.529383 C 125.00000,31.536170 98.396804,5.5739984 65.613662,5.5739984 z M 65.613662,45.380895 C 75.878562,45.380899 84.210250,53.511823 84.210250,63.529383 C 84.210250,73.546951 75.878562,81.677878 65.613662,81.677878 C 55.348762,81.677868 47.017077,73.546946 47.017077,63.529383 C 47.017077,53.511829 55.348762,45.380895 65.613662,45.380895 z "
       id="path473" />
    <path
       style="fill:url(#linearGradient96);fill-opacity:1.0000000;fill-rule:evenodd;stroke:#444444;stroke-width:3.4343635;stroke-linecap:butt;stroke-linejoin:miter;stroke-miterlimit:4.0000000;stroke-opacity:1.0000000;stroke-dasharray:none"
       d="M 65.613543,6.5514333 C 33.383232,6.5514333 7.2146258,32.075803 7.2146258,63.529501 C 7.2146258,94.983195 33.383232,120.52127 65.613543,120.52126 C 97.843856,120.52126 123.99842,94.983203 123.99842,63.529501 C 123.99842,32.075798 97.843856,6.5514333 65.613543,6.5514333 z M 65.613543,45.687054 C 75.705342,45.687061 83.896531,53.680871 83.896531,63.529501 C 83.896531,73.378138 75.705342,81.371952 65.613543,81.371952 C 55.521743,81.371943 47.330557,73.378134 47.330557,63.529501 C 47.330557,53.680875 55.521743,45.687054 65.613543,45.687054 z "
       id="path474" />
    <path
       style="fill:url(#linearGradient97);fill-opacity:1.0000000;fill-rule:evenodd;stroke:none;stroke-width:0.61535406;stroke-linecap:butt;stroke-linejoin:miter;stroke-miterlimit:4.0000000;stroke-opacity:0.58490568"
       d="M 65.613543,6.5514333 C 33.383232,6.5514333 7.2146258,32.075803 7.2146258,63.529501 C 7.2146258,94.983195 33.383232,120.52127 65.613543,120.52126 C 97.843856,120.52126 123.99842,94.983203 123.99842,63.529501 C 123.99842,32.075798 97.843856,6.5514333 65.613543,6.5514333 z M 65.613543,45.687054 C 75.705342,45.687061 83.896531,53.680871 83.896531,63.529501 C 83.896531,73.378138 75.705342,81.371952 65.613543,81.371952 C 55.521743,81.371943 47.330557,73.378134 47.330557,63.529501 C 47.330557,53.680875 55.521743,45.687054 65.613543,45.687054 z "
       id="path475" />
    <path
       style="fill:url(#linearGradient98);fill-opacity:1.0000000;fill-rule:evenodd;stroke:none;stroke-width:1.0000000pt;stroke-linecap:butt;stroke-linejoin:miter;stroke-opacity:1.0000000"
       d="M 57.028191,83.057296 L 44.513627,120.40628 C 37.680077,117.12926 29.796791,113.84400 24.024147,108.35832 L 50.358658,78.523727 C 51.864114,79.857092 54.543242,81.851865 57.028191,83.057296 z "
       id="path476"
       sodipodi:nodetypes="ccccc" />
    <path
       style="fill:url(#linearGradient99);fill-opacity:1.0000000;fill-rule:evenodd;stroke:none;stroke-width:1.0000000pt;stroke-linecap:butt;stroke-linejoin:miter;stroke-opacity:1.0000000"
       d="M 68.170261,43.000000 L 73.040940,7.4141883 C 83.383681,8.8238366 103.95787,18.602579 110.08055,27.648230 L 80.677054,49.950516 C 80.377583,48.227000 72.152042,43.224390 68.170261,43.000000 z "
       id="path477"
       sodipodi:nodetypes="ccccc" />
    <path
       style="fill:url(#linearGradient100);fill-opacity:1.0000000;fill-rule:evenodd;stroke:none;stroke-width:1.0000000pt;stroke-linecap:butt;stroke-linejoin:miter;stroke-opacity:1.0000000"
       d="M 73.617750,43.624944 L 86.132314,6.2759649 C 92.965864,9.5529833 102.93114,14.339105 108.60939,20.046490 L 80.287286,48.158516 C 78.781827,46.825149 76.102701,44.830376 73.617750,43.624944 z "
       id="path478"
       sodipodi:nodetypes="ccccc" />
    <path
       style="fill:url(#linearGradient101);fill-opacity:0.75000000;fill-rule:evenodd;stroke:none;stroke-width:1.0000000pt;stroke-linecap:butt;stroke-linejoin:miter;stroke-opacity:1.0000000"
       d="M 85.000000,54.379163 L 121.55494,37.787702 C 126.31903,47.942514 129.19425,72.255263 124.24236,83.108181 L 85.795470,69.751823 C 87.250255,68.465636 87.135375,58.100918 85.000000,54.379163 z "
       id="path479"
       sodipodi:nodetypes="ccccc" />
    <path
       style="fill:url(#linearGradient102);fill-opacity:1.0000000;fill-rule:evenodd;stroke:none;stroke-width:1.0000000pt;stroke-linecap:butt;stroke-linejoin:miter;stroke-opacity:1.0000000"
       d="M 86.775227,58.988981 L 120.92722,50.404879 C 121.66847,56.872637 122.58898,63.563445 120.94724,70.344140 L 86.488597,65.930715 C 86.787840,64.217711 87.034347,61.347406 86.775227,58.988981 z "
       id="path480"
       sodipodi:nodetypes="ccccc" />
    <path
       style="fill:#000000;fill-opacity:0.013157786;fill-rule:evenodd;stroke:none;stroke-width:1.0000000pt;stroke-linecap:butt;stroke-linejoin:miter;stroke-opacity:1.0000000"
       d="M 45.646554,72.301710 L 9.0916131,88.893170 C 4.3275262,78.738357 1.4522997,54.425606 6.4041934,43.572690 L 44.851083,56.929047 C 43.396298,58.215236 43.511179,68.579953 45.646554,72.301710 z "
       id="path481"
       sodipodi:nodetypes="ccccc" />
    <path
       style="fill:url(#linearGradient103);fill-opacity:1.0000000;fill-rule:evenodd;stroke:none;stroke-width:1.0000000pt;stroke-linecap:butt;stroke-linejoin:miter;stroke-opacity:1.0000000"
       d="M 43.866204,65.673747 L 9.1078632,74.410250 C 8.3534544,67.827663 7.9148871,60.657595 9.5857930,53.756518 L 44.157917,58.608764 C 43.853362,60.352183 43.602478,63.273447 43.866204,65.673747 z "
       id="path482"
       sodipodi:nodetypes="ccccc" />
    <path
       style="fill:url(#linearGradient104);fill-opacity:1.0000000;fill-rule:evenodd;stroke:none;stroke-width:1.0000000pt;stroke-linecap:butt;stroke-linejoin:miter;stroke-opacity:1.0000000"
       d="M 84.397040,72.702235 L 117.74212,85.744206 C 114.35579,91.491042 110.35809,97.529296 104.82172,102.13124 L 79.873931,78.233596 C 81.177731,77.003053 83.153065,74.791211 84.397040,72.702235 z "
       id="path483"
       sodipodi:nodetypes="ccccc" />
    <path
       style="fill:url(#linearGradient105);fill-opacity:1.0000000;fill-rule:evenodd;stroke:none;stroke-width:1.0000000pt;stroke-linecap:butt;stroke-linejoin:miter;stroke-opacity:1.0000000"
       d="M 46.357999,53.979883 L 14.115011,41.693963 C 17.420192,36.084851 20.413203,29.747817 25.816883,25.256158 L 50.772709,48.581079 C 49.500156,49.782131 47.572162,51.940967 46.357999,53.979883 z "
       id="path484"
       sodipodi:nodetypes="ccccc" />
    <path
       style="fill:#cccccc;fill-opacity:0.39215687;fill-rule:evenodd;stroke:url(#linearGradient106);stroke-width:1.3850145;stroke-linecap:butt;stroke-linejoin:miter;stroke-miterlimit:4.0000000;stroke-opacity:1.0000000"
       d="M 65.614015,42.703930 C 53.835163,42.703930 44.274651,52.034079 44.274651,63.529109 C 44.274651,75.024144 53.835163,84.354282 65.614015,84.354290 C 77.392867,84.354290 86.953382,75.024149 86.953382,63.529109 C 86.953382,52.034074 77.392867,42.703934 65.614015,42.703930 z M 65.384736,53.635950 C 70.979686,53.635944 75.522162,58.068971 75.522162,63.529109 C 75.522162,68.989253 70.979686,73.422270 65.384736,73.422270 C 59.789782,73.422261 55.247312,68.989248 55.247312,63.529109 C 55.247312,58.068976 59.789782,53.635950 65.384736,53.635950 z "
       id="path485" />
    <path
       style="fill:none;fill-opacity:1.0000000;fill-rule:evenodd;stroke:none;stroke-width:3.0230515;stroke-linecap:butt;stroke-linejoin:miter;stroke-miterlimit:4.0000000;stroke-opacity:0.58823532"
       d="M 65.613703,4.6910468 C 32.630563,4.6910468 5.8507157,30.811612 5.8507157,63.000000 C 5.8507157,95.188388 32.630563,121.32296 65.613703,121.32295 C 98.596851,121.32295 125.36235,95.188397 125.36235,63.000000 C 125.36235,30.811607 98.596851,4.6910468 65.613703,4.6910468 z M 66.136119,53.917681 C 72.040997,53.917681 75.442688,58.246193 75.442688,63.000000 C 75.442688,67.498894 70.856184,72.337235 65.613703,72.337235 C 61.416061,72.337235 56.001115,68.227081 56.001115,63.000000 C 56.001115,57.735762 59.709303,53.917681 66.136119,53.917681 z "
       id="path486"
       sodipodi:nodetypes="cccccczzzz" />
  </g>
  <path
     style="fill:#bab5ab;fill-opacity:1.0000000;fill-rule:evenodd;stroke:none;stroke-width:1.8750000;stroke-linecap:butt;stroke-linejoin:miter;stroke-miterlimit:4.0000000;stroke-opacity:1.0000000"
     d="M 24.298021,44.961603 L 12.916425,79.106384 L 115.35077,79.106384 L 103.96917,44.961603 L 24.298021,44.961603 z "
     id="path9632"
     sodipodi:nodetypes="ccccc" />
  <path
     style="fill:#bab5ab;fill-opacity:1.0000000;fill-rule:evenodd;stroke:none;stroke-width:0.35488340;stroke-linecap:butt;stroke-linejoin:miter;stroke-miterlimit:4.0000000;stroke-opacity:0.27044025"
     d="M 92.303039,22.198394 L 115.06622,33.579990 L 126.44782,56.343191 L 103.68464,44.961603 L 92.303039,22.198394"
     id="path9634"
     sodipodi:nodetypes="ccccc" />
  <path
     style="stroke-opacity:0.27044025;stroke-miterlimit:4.0000000;stroke-linejoin:miter;stroke-linecap:butt;stroke-width:0.35488340;stroke:none;fill-rule:evenodd;fill-opacity:1.0000000;fill:#bab5ab"
     d="M 35.395072,22.198394 L 12.631887,33.579990 L 1.2502909,56.343191 L 24.013476,44.961603 L 35.404541,25.494736 L 35.395072,22.198394 z "
     id="path9635"
     sodipodi:nodetypes="cccccc" />
  <path
     style="fill:url(#linearGradient6490);fill-opacity:1.0000000;fill-rule:evenodd;stroke:none;stroke-width:1.0000000pt;stroke-linecap:butt;stroke-linejoin:miter;stroke-opacity:1.0000000"
     d="M 31.419354,27.182347 L 12.612821,38.602069 L 4.2177817,52.367473 L 19.999625,40.947752 L 31.419354,27.182347 z "
     id="path9638"
     sodipodi:nodetypes="ccccc" />
  <path
     style="fill:url(#linearGradient6488);fill-opacity:1.0000000;fill-rule:evenodd;stroke:none;stroke-width:0.35488340;stroke-linecap:butt;stroke-linejoin:miter;stroke-miterlimit:4.0000000;stroke-opacity:0.27044025"
     d="M 24.013476,44.961603 L 35.395072,22.198394 L 35.395072,44.961603 L 24.013476,44.961603 z "
     id="path9636"
     sodipodi:nodetypes="cccc" />
  <path
     style="fill:url(#linearGradient6486);fill-opacity:1.0000000;fill-rule:evenodd;stroke:none;stroke-width:1.0000000pt;stroke-linecap:butt;stroke-linejoin:miter;stroke-opacity:1.0000000"
     d="M 97.107697,27.003052 L 114.13682,36.525841 L 123.65962,51.538533 L 106.63049,42.015744 L 97.107697,27.003052"
     id="path9639"
     sodipodi:nodetypes="ccccc" />
  <path
     style="fill:url(#linearGradient6484);fill-opacity:1.0000000;fill-rule:evenodd;stroke:#000000;stroke-width:0.28453985;stroke-linecap:butt;stroke-linejoin:miter;stroke-miterlimit:4.0000000;stroke-opacity:0.27044025"
     d="M 92.303039,44.961603 L 92.303039,22.198394 L 103.68464,44.961603 L 92.303039,44.961603 z "
     id="path9640"
     sodipodi:nodetypes="cccc" />
  <path
     style="fill:url(#linearGradient6482);fill-opacity:1.0000000;fill-rule:evenodd;stroke:none;stroke-width:1.0000000pt;stroke-linecap:butt;stroke-linejoin:miter;stroke-opacity:1.0000000"
     d="M 17.758419,74.941446 L 25.901685,49.493714 C 51.010110,49.493714 76.365050,58.002254 101.22696,49.493714 L 111.40604,75.959353 L 17.758419,74.941446 z "
     id="path2656"
     sodipodi:nodetypes="ccccc" />
  <path
     sodipodi:type="arc"
     style="fill:url(#radialGradient6508);fill-opacity:1.0000000;stroke:none;stroke-width:3.7500000;stroke-linecap:round;stroke-linejoin:round;stroke-miterlimit:4.0000000;stroke-dashoffset:0.0000000;stroke-opacity:1.0000000"
     id="path2857"
     sodipodi:cx="80.000000"
     sodipodi:cy="145.62500"
     sodipodi:rx="66.250000"
     sodipodi:ry="8.1250000"
     d="M 146.25000 145.62500 A 66.250000 8.1250000 0 1 1  13.750000,145.62500 A 66.250000 8.1250000 0 1 1  146.25000 145.62500 z"
     transform="matrix(0.904996,0.000000,0.000000,0.904996,-7.013711,-18.70705)" />
  <path
     style="stroke-opacity:0.27044025;stroke-miterlimit:4.0000000;stroke-linejoin:miter;stroke-linecap:butt;stroke-width:0.42709291;stroke:none;fill-rule:evenodd;fill-opacity:1.0;fill:url(#linearGradient318)"
     d="M 35.437526,44.987544 L 35.437526,33.518784 L 92.241254,33.518784 L 92.241254,44.987544 L 92.241254,44.987544 L 35.437526,44.987544 L 35.437526,44.987544 z "
     id="path319"
     sodipodi:nodetypes="ccccccc" />
  <path
     style="fill:#c5c5c5;fill-opacity:1.0000000;fill-rule:evenodd;stroke:none;stroke-width:3.7500000;stroke-linecap:butt;stroke-linejoin:miter;stroke-miterlimit:4.0000000;stroke-opacity:1.0000000"
     d="M 17.905215,35.709748 L 30.432915,48.237447 L 28.049285,56.629158 L 19.657565,59.012795 L 7.4128550,46.768082 L 1.8238350,52.357104 L 15.907965,72.721431 L 32.680505,69.532364 L 80.206705,121.57514 C 89.226175,130.65591 101.36819,117.03973 92.941200,109.27600 L 41.387855,60.433183 L 45.208195,43.475626 L 23.918735,29.696225 L 17.905215,35.709748 z M 84.141335,113.08002 C 85.742415,111.47895 88.341535,111.47896 89.942605,113.08003 C 91.543690,114.68110 91.543680,117.28023 89.942615,118.88131 C 88.341535,120.48237 85.742415,120.48237 84.141345,118.88130 C 82.540265,117.28025 82.540265,114.68110 84.141335,113.08002 z "
     id="path586"
     sodipodi:nodetypes="ccccccccccccccccccc" />
  <path
     style="fill:url(#linearGradient3624);fill-opacity:1.0000000;fill-rule:evenodd;stroke:none;stroke-width:3.7500000;stroke-linecap:butt;stroke-linejoin:miter;stroke-miterlimit:4.0000000;stroke-opacity:1.0000000"
     d="M 17.905215,35.709748 L 30.432915,48.237447 L 28.049285,56.629158 L 19.657565,59.012795 L 7.4128550,46.768082 L 1.8238350,52.357104 L 15.924135,73.183275 L 32.680505,69.532364 L 80.560255,122.28225 C 88.654565,131.19975 102.10268,118.34547 93.294750,109.98311 L 41.387855,60.433183 L 45.208195,43.475626 L 23.918735,29.696225 L 17.905215,35.709748 z M 84.494885,113.78713 C 86.095965,112.18606 88.695085,112.18607 90.296150,113.78714 C 91.897240,115.38821 91.897230,117.98734 90.296160,119.58842 C 88.695085,121.18948 86.095965,121.18948 84.494895,119.58841 C 82.893815,117.98736 82.893815,115.38821 84.494885,113.78713 z "
     id="path585"
     sodipodi:nodetypes="ccccccccccccccccccc" />
  <path
     style="fill:url(#linearGradient3618);fill-opacity:1.0000000;fill-rule:evenodd;stroke:none;stroke-width:3.7500000;stroke-linecap:butt;stroke-linejoin:miter;stroke-miterlimit:4.0000000;stroke-opacity:1.0000000"
     d="M 20.188765,35.665370 L 33.587205,48.052348 L 29.255355,57.893146 L 20.478825,60.507673 L 8.0801950,48.262960 L 4.5691650,52.928426 L 17.271285,69.605171 L 33.886575,68.102653 L 81.784385,120.87028 C 88.938075,128.86583 100.55135,118.62055 91.906680,110.09492 L 40.208075,60.157916 L 43.720565,43.585173 L 24.739995,30.575399 L 20.188765,35.665370 z M 84.604195,113.93653 C 86.205265,112.33545 88.750795,111.74315 90.351880,113.34422 C 91.952960,114.94529 93.545800,117.66152 91.252060,120.72489 C 89.343135,122.63381 86.282235,122.55684 84.373315,120.49399 C 82.772235,118.89294 83.003125,115.53761 84.604195,113.93653 z "
     id="path584"
     sodipodi:nodetypes="ccccccccccccccczccc" />
  <path
     style="fill:url(#linearGradient3622);fill-opacity:1.0000000;fill-rule:evenodd;stroke:#444444;stroke-width:1.8750000;stroke-linecap:butt;stroke-linejoin:miter;stroke-miterlimit:4.0000000;stroke-opacity:1.0000000;stroke-dasharray:none"
     d="M 17.905215,35.709748 L 30.432915,48.237447 L 28.049285,56.629158 L 19.657565,59.012795 L 7.4128550,46.768082 L 1.8238350,52.357104 L 15.924135,73.183275 L 32.680505,69.532364 L 80.560255,121.92869 C 88.654565,130.84619 102.10268,117.99191 93.294750,109.62956 L 41.387855,60.433183 L 45.208195,43.475626 L 23.918735,29.696225 L 17.905215,35.709748 z M 84.494885,113.43358 C 86.095965,111.83251 88.695085,111.83252 90.296150,113.43359 C 91.897240,115.03465 91.897230,117.63378 90.296160,119.23486 C 88.695085,120.83592 86.095965,120.83592 84.494895,119.23485 C 82.893815,117.63380 82.893815,115.03465 84.494885,113.43358 z "
     id="path583"
     sodipodi:nodetypes="ccccccccccccccccccc" />
  <path
     style="fill:url(#linearGradient94);fill-opacity:1.0000000;fill-rule:evenodd;stroke:none;stroke-width:3.7500000;stroke-linecap:butt;stroke-linejoin:miter;stroke-miterlimit:4.0000000;stroke-opacity:1.0000000"
     d="M 19.013952,35.139749 L 32.412392,47.526727 L 28.080542,57.367525 L 19.304012,59.982051 L 6.9053816,47.737339 L 3.3943516,52.402805 L 16.163122,70.661116 L 32.711762,67.577032 L 81.423282,120.74414 C 88.576972,128.73969 100.19025,118.49441 91.545577,109.96880 L 40.964272,60.115048 L 44.315852,43.703224 L 23.565182,30.049778 L 19.013952,35.139749 z M 84.243092,113.41215 C 85.844162,111.81108 88.674162,111.50324 90.275247,113.10431 C 91.876327,114.70537 93.184697,117.53539 90.890957,120.59875 C 88.982032,122.50767 85.921132,122.43070 84.012212,120.36785 C 82.411132,118.76681 82.642022,115.01322 84.243092,113.41215 z "
     id="path582"
     sodipodi:nodetypes="ccccccccccccccczccc" />
</svg>
