<?xml version="1.0" encoding="UTF-8" standalone="no"?>
<!-- Created with Inkscape (http://www.inkscape.org/) -->
<!-- 
Created By Andrew Fitzsimon.
Much of this document has been manually cleaned and crafted in a text editor so that only the colour definitions and basic presentation related data remain in the XML. 
Changes to this document may compromise the structure of this palette.
-->
<svg
   xmlns:dc="http://purl.org/dc/elements/1.1/"
   xmlns:cc="http://web.resource.org/cc/"
   xmlns:rdf="http://www.w3.org/1999/02/22-rdf-syntax-ns#"
   xmlns:svg="http://www.w3.org/2000/svg"
   xmlns="http://www.w3.org/2000/svg"
   xmlns:xlink="&amp;#38;#38;#38;#38;#38;ns_xlink;"
   xmlns:sodipodi="http://inkscape.sourceforge.net/DTD/sodipodi-0.dtd"
   xmlns:inkscape="http://www.inkscape.org/namespaces/inkscape"
   sodipodi:docbase="/home/andy/Desktop/Etiquette/etiquette/scalable/apps"
   sodipodi:docname="wine.svg"
   inkscape:version="0.41+cvs"
   sodipodi:version="0.32"
   id="Etiquette"
   height="128"
   width="128"
   y="00"
   x="00"
   version="1.0">
  <metadata
     id="About">
    <rdf:RDF
       id="RDF232">
      <cc:Work
         id="Work233"
         rdf:about="">
        <dc:format
           id="format234">image/svg+xml</dc:format>
        <dc:type
           rdf:resource="http://purl.org/dc/dcmitype/StillImage"
           id="type236" />
        <dc:creator
           id="creator1291">
          <cc:Agent
             id="Agent1292">
            <dc:title
               id="title1293">Andrew Fitzsimon</dc:title>
          </cc:Agent>
        </dc:creator>
        <dc:date
           id="date1295">2004-12-25</dc:date>
        <dc:title
           id="title1297">Etiquette Icon</dc:title>
        <cc:license
           rdf:resource="http://creativecommons.org/licenses/by/2.0/"
           id="license1299" />
        <dc:rights
           id="rights1308">
          <cc:Agent
             id="Agent1309">
            <dc:title
               id="title1310">Andrew Fitzsimon</dc:title>
          </cc:Agent>
        </dc:rights>
      </cc:Work>
      <cc:License
         id="License1300"
         rdf:about="http://creativecommons.org/licenses/by/2.0/">
        <cc:permits
           id="permits1301"
           rdf:resource="http://web.resource.org/cc/Reproduction" />
        <cc:permits
           id="permits1302"
           rdf:resource="http://web.resource.org/cc/Distribution" />
        <cc:requires
           id="requires1303"
           rdf:resource="http://web.resource.org/cc/Notice" />
        <cc:requires
           id="requires1304"
           rdf:resource="http://web.resource.org/cc/Attribution" />
        <cc:prohibits
           id="prohibits1305"
           rdf:resource="http://web.resource.org/cc/CommercialUse" />
        <cc:permits
           id="permits1306"
           rdf:resource="http://web.resource.org/cc/DerivativeWorks" />
        <cc:requires
           id="requires1307"
           rdf:resource="http://web.resource.org/cc/ShareAlike" />
      </cc:License>
    </rdf:RDF>
  </metadata>
  <sodipodi:namedview
     gridempopacity="0.082352941"
     gridempcolor="#3f3fff"
     gridempspacing="2"
     gridopacity="0.082352941"
     gridcolor="#3f3fff"
     inkscape:grid-bbox="false"
     showborder="true"
     gridtolerance="40pt"
     inkscape:grid-points="false"
     gridoriginx="0pt"
     gridoriginy="0.0000000pt"
     gridspacingy="8.0000000pt"
     gridspacingx="8.0000000pt"
     showgrid="true"
     inkscape:current-layer="Etiquette"
     inkscape:window-y="30"
     inkscape:window-x="0"
     inkscape:window-height="535"
     inkscape:window-width="640"
     inkscape:cy="-5.1631470"
     inkscape:cx="97.502747"
     inkscape:zoom="1.0000000"
     inkscape:pageshadow="0"
     inkscape:pageopacity="0.0"
     borderopacity="1.0"
     bordercolor="#666666"
     pagecolor="#ffffff"
     id="base" />
  <defs
     id="Gradients">
    <linearGradient
       id="linearGradient13764"
       inkscape:collect="always">
      <stop
         id="stop13766"
         offset="0"
         style="stop-color:#000000;stop-opacity:1;" />
      <stop
         id="stop13768"
         offset="1"
         style="stop-color:#000000;stop-opacity:0;" />
    </linearGradient>
    <linearGradient
       y2="12.402272"
       x2="26.262699"
       y1="12.402272"
       x1="17.133599"
       gradientTransform="scale(1.598611,0.625543)"
       gradientUnits="userSpaceOnUse"
       id="linearGradient20874"
       xlink:href="#linearGradient1918"
       inkscape:collect="always" />
    <linearGradient
       id="linearGradient1908">
      <stop
         id="stop1909"
         offset="0.0000000"
         style="stop-color:#884631;stop-opacity:1.0000000;" />
      <stop
         id="stop3698"
         offset="0.62500000"
         style="stop-color:#df421e;stop-opacity:1.0000000;" />
      <stop
         id="stop3699"
         offset="0.81250000"
         style="stop-color:#efa08e;stop-opacity:1.0000000;" />
      <stop
         id="stop1910"
         offset="1"
         style="stop-color:#fff;stop-opacity:1;" />
    </linearGradient>
    <linearGradient
       id="linearGradient1610">
      <stop
         id="stop1611"
         offset="0.0000000"
         style="stop-color:#ffffff;stop-opacity:1.0000000;" />
      <stop
         id="stop1612"
         offset="1.0000000"
         style="stop-color:#ffffff;stop-opacity:0.0000000;" />
    </linearGradient>
    <linearGradient
       id="linearGradient1990">
      <stop
         id="stop1991"
         offset="0.0000000"
         style="stop-color:#000000;stop-opacity:0.0000000;" />
      <stop
         id="stop1992"
         offset="0.50000000"
         style="stop-color:#000000;stop-opacity:0.11299435;" />
      <stop
         id="stop1993"
         offset="1.0000000"
         style="stop-color:#000000;stop-opacity:0.0000000;" />
    </linearGradient>
    <linearGradient
       id="linearGradient1954">
      <stop
         id="stop1955"
         offset="0.0000000"
         style="stop-color:#ffffff;stop-opacity:0.78431374;" />
      <stop
         id="stop3697"
         offset="0.81000000"
         style="stop-color:#990000;stop-opacity:0.0000000;" />
      <stop
         id="stop1957"
         offset="1.0000000"
         style="stop-color:#ffffff;stop-opacity:0.0000000;" />
    </linearGradient>
    <radialGradient
       r="10.998282"
       fy="22.164028"
       fx="53.432021"
       cy="22.775043"
       cx="58.375500"
       gradientUnits="userSpaceOnUse"
       id="radialGradient20868"
       xlink:href="#linearGradient1954"
       inkscape:collect="always" />
    <linearGradient
       id="linearGradient1918">
      <stop
         id="stop7665"
         offset="0.0000000"
         style="stop-color:#000000;stop-opacity:0.31638417;" />
      <stop
         id="stop7666"
         offset="0.50000000"
         style="stop-color:#000000;stop-opacity:0.079096042;" />
      <stop
         id="stop1921"
         offset="1.0000000"
         style="stop-color:#000000;stop-opacity:0.0000000;" />
    </linearGradient>
    <radialGradient
       r="12.562782"
       fy="35.414299"
       fx="44.206131"
       cy="37.865574"
       cx="41.875938"
       gradientUnits="userSpaceOnUse"
       id="radialGradient20867"
       xlink:href="#linearGradient1918"
       inkscape:collect="always" />
    <radialGradient
       r="11.561350"
       fy="27.695703"
       fx="41.631526"
       cy="38.028727"
       cx="41.632788"
       gradientUnits="userSpaceOnUse"
       id="radialGradient20866"
       xlink:href="#linearGradient1806"
       inkscape:collect="always" />
    <linearGradient
       id="linearGradient1806">
      <stop
         id="stop1807"
         offset="0.0000000"
         style="stop-color:#000000;stop-opacity:0.40677965;" />
      <stop
         id="stop3276"
         offset="0.64777780"
         style="stop-color:#000000;stop-opacity:0.073446326;" />
      <stop
         id="stop1808"
         offset="1.0000000"
         style="stop-color:#000000;stop-opacity:0.0000000;" />
    </linearGradient>
    <radialGradient
       r="9.8527928"
       fy="39.239628"
       fx="37.805072"
       cy="39.007645"
       cx="42.007257"
       gradientUnits="userSpaceOnUse"
       id="radialGradient20865"
       xlink:href="#linearGradient1806"
       inkscape:collect="always" />
    <linearGradient
       id="linearGradient1982">
      <stop
         id="stop1983"
         offset="0.0000000"
         style="stop-color:#ffffff;stop-opacity:1.0000000;" />
      <stop
         id="stop1984"
         offset="0.60111111"
         style="stop-color:#ffffff;stop-opacity:0.078431375;" />
      <stop
         id="stop1985"
         offset="1.0000000"
         style="stop-color:#ffffff;stop-opacity:0.0000000;" />
    </linearGradient>
    <linearGradient
       y2="103.12432"
       x2="51.658587"
       y1="99.757841"
       x1="48.353673"
       gradientTransform="matrix(0.919540,0.000000,0.000000,1.092297,-7.289500,-23.77146)"
       gradientUnits="userSpaceOnUse"
       id="linearGradient15610"
       xlink:href="#linearGradient1982"
       inkscape:collect="always" />
    <linearGradient
       y2="352.44402"
       x2="83.709572"
       y1="378.20698"
       x1="101.15012"
       gradientTransform="matrix(1.166965,9.805785e-2,-7.181653e-2,0.854670,23.47559,-287.6705)"
       gradientUnits="userSpaceOnUse"
       id="linearGradient15613"
       xlink:href="#linearGradient1982"
       inkscape:collect="always" />
    <linearGradient
       y2="262.38469"
       x2="99.764216"
       y1="246.53215"
       x1="76.440939"
       gradientTransform="matrix(0.788529,6.625883e-2,-0.106283,1.264850,23.47559,-287.6705)"
       gradientUnits="userSpaceOnUse"
       id="linearGradient15616"
       xlink:href="#linearGradient1982"
       inkscape:collect="always" />
    <linearGradient
       y2="424.20239"
       x2="68.691985"
       y1="396.80029"
       x1="49.627894"
       gradientTransform="matrix(1.232115,0.103533,-6.801916e-2,0.809479,23.47559,-287.6705)"
       gradientUnits="userSpaceOnUse"
       id="linearGradient15619"
       xlink:href="#linearGradient1954"
       inkscape:collect="always" />
    <linearGradient
       y2="351.19707"
       x2="26.172458"
       y1="397.89075"
       x1="78.753585"
       gradientTransform="matrix(1.182960,9.940188e-2,-7.084552e-2,0.843114,23.47559,-287.6705)"
       gradientUnits="userSpaceOnUse"
       id="linearGradient15623"
       xlink:href="#linearGradient1908"
       inkscape:collect="always" />
    <linearGradient
       y2="277.92343"
       x2="28.429239"
       y1="321.39782"
       x1="104.84399"
       gradientTransform="matrix(0.945394,7.943988e-2,-8.864787e-2,1.054980,23.47559,-287.6705)"
       gradientUnits="userSpaceOnUse"
       id="linearGradient15626"
       xlink:href="#linearGradient1918"
       inkscape:collect="always" />
    <linearGradient
       y2="332.33321"
       x2="28.057237"
       y1="370.90508"
       x1="68.265486"
       gradientTransform="matrix(1.132444,9.515753e-2,-7.400578e-2,0.880724,23.47559,-287.6705)"
       gradientUnits="userSpaceOnUse"
       id="linearGradient15629"
       xlink:href="#linearGradient1908"
       inkscape:collect="always" />
    <linearGradient
       y2="100.64819"
       x2="37.302385"
       y1="148.89334"
       x1="39.426211"
       gradientTransform="matrix(0.990480,0.000000,0.000000,1.014067,-6.197779,-12.85425)"
       gradientUnits="userSpaceOnUse"
       id="linearGradient15632"
       xlink:href="#linearGradient1610"
       inkscape:collect="always" />
    <linearGradient
       y2="128.85731"
       x2="53.662830"
       y1="95.243884"
       x1="23.770393"
       gradientTransform="matrix(0.990480,0.000000,0.000000,1.014067,-7.289500,-23.77146)"
       gradientUnits="userSpaceOnUse"
       id="linearGradient15635"
       xlink:href="#linearGradient1990"
       inkscape:collect="always" />
    <linearGradient
       y2="116.28294"
       x2="181.64224"
       y1="20.534979"
       x1="45.023643"
       gradientTransform="matrix(0.963826,0.000000,0.000000,1.042111,-6.197779,-12.85425)"
       gradientUnits="userSpaceOnUse"
       id="linearGradient15642"
       xlink:href="#linearGradient1982"
       inkscape:collect="always" />
    <linearGradient
       y2="441.86894"
       x2="21.609067"
       y1="436.18505"
       x1="27.254147"
       gradientTransform="matrix(1.122041,-6.292139e-2,5.004127e-2,0.892359,-26.00811,-283.2180)"
       gradientUnits="userSpaceOnUse"
       id="linearGradient15645"
       xlink:href="#linearGradient1990"
       inkscape:collect="always" />
    <linearGradient
       y2="376.63461"
       x2="34.710554"
       y1="371.17838"
       x1="39.132905"
       gradientTransform="matrix(0.967623,-5.426198e-2,5.802711e-2,1.034765,-28.10014,-278.9869)"
       gradientUnits="userSpaceOnUse"
       id="linearGradient15648"
       xlink:href="#linearGradient1982"
       inkscape:collect="always" />
    <linearGradient
       y2="112.39618"
       x2="10.123396"
       y1="98.833900"
       x1="13.604524"
       gradientTransform="matrix(1.087261,-6.097092e-2,5.141524e-2,0.916859,0.000000,0.000000)"
       gradientUnits="userSpaceOnUse"
       id="linearGradient15651"
       xlink:href="#linearGradient1982"
       inkscape:collect="always" />
    <linearGradient
       inkscape:collect="always"
       xlink:href="#linearGradient1990"
       id="linearGradient9551"
       gradientUnits="userSpaceOnUse"
       gradientTransform="matrix(0.990480,0.000000,0.000000,1.014067,-7.602000,-23.30271)"
       x1="23.770393"
       y1="95.243884"
       x2="53.662830"
       y2="128.85731" />
    <linearGradient
       y2="31.332891"
       x2="96.151794"
       y1="43.013447"
       x1="106.54346"
       gradientTransform="matrix(0.943314,7.926519e-2,-8.845293e-2,1.052659,0.000000,0.000000)"
       gradientUnits="userSpaceOnUse"
       id="linearGradient13747"
       xlink:href="#linearGradient1982"
       inkscape:collect="always" />
    <linearGradient
       y2="81.540741"
       x2="43.827595"
       y1="78.666710"
       x1="41.004581"
       gradientTransform="scale(0.917519,1.089896)"
       gradientUnits="userSpaceOnUse"
       id="linearGradient13753"
       xlink:href="#linearGradient1982"
       inkscape:collect="always" />
    <linearGradient
       gradientUnits="userSpaceOnUse"
       y2="125.02730"
       x2="25.347616"
       y1="131.40514"
       x1="19.666162"
       gradientTransform="matrix(1.251037,0.000000,0.000000,0.901914,-3.765269,-6.412625)"
       id="linearGradient13770"
       xlink:href="#linearGradient13764"
       inkscape:collect="always" />
  </defs>
  <g
     id="g13867">
    <path
       style="stroke-miterlimit:4.0000000;stroke-dasharray:none;stroke-opacity:0.80473375;stroke-width:2.5000000;stroke:#000000;fill-rule:evenodd;fill:url(#linearGradient9551)"
       d="M 74.718750,7.2187500 C 72.477875,6.9462870 70.776403,7.3009230 70.000000,8.5312500 L 54.843750,32.500000 C 50.810574,38.891155 50.154220,67.387662 51.291973,68.583947 L 27.156250,98.000000 L 6.8437500,90.812500 C -0.054800000,88.368963 13.087406,104.67180 18.968750,109.12500 C 24.850088,113.57820 46.479394,124.49419 42.125000,117.53125 L 33.750000,104.12500 L 32.843750,100.46875 L 54.875000,71.875000 C 58.282452,72.247791 76.855639,67.046824 85.281250,60.625000 L 110.87500,41.125000 C 115.09458,37.908925 104.84371,23.843108 98.031250,18.406250 C 92.921910,14.328601 81.441380,8.0361390 74.718750,7.2187500 z "
       id="path9546"
       sodipodi:nodetypes="ccccccccccccccc" />
    <path
       sodipodi:nodetypes="czzzzzzz"
       id="path1056"
       d="M 69.918476,7.9366320 L 55.256898,32.207134 C 51.349237,38.675796 51.417714,67.536733 52.578597,68.710584 L 55.345583,71.508492 C 56.576225,72.752891 77.269265,66.686514 86.229890,59.743972 L 111.21014,40.389672 C 115.40410,37.140262 104.62656,22.800173 97.709288,17.497313 C 90.792011,12.194452 72.927441,2.9556531 69.918476,7.9366320 z "
       style="fill:url(#linearGradient15642);fill-opacity:0.75000000;fill-rule:evenodd;stroke-width:0.75000000" />
    <path
       transform="matrix(4.160846,0.000000,0.000000,1.296232,-120.0757,56.06254)"
       d="M 54.438721 37.865574 A 12.562782 12.562782 0 1 1  29.313156,37.865574 A 12.562782 12.562782 0 1 1  54.438721 37.865574 z"
       sodipodi:ry="12.562782"
       sodipodi:rx="12.562782"
       sodipodi:cy="37.865574"
       sodipodi:cx="41.875938"
       id="wineglassshadow"
       style="opacity:0.50943398;fill:url(#radialGradient20865);fill-opacity:0.75000000;fill-rule:evenodd;stroke-width:1.0000000pt"
       sodipodi:type="arc" />
    <path
       transform="matrix(3.493649,0.000000,0.000000,0.843970,-62.18976,80.38958)"
       d="M 54.438721 37.865574 A 12.562782 12.562782 0 1 1  29.313156,37.865574 A 12.562782 12.562782 0 1 1  54.438721 37.865574 z"
       sodipodi:ry="12.562782"
       sodipodi:rx="12.562782"
       sodipodi:cy="37.865574"
       sodipodi:cx="41.875938"
       id="path1934"
       style="opacity:0.47169808;fill:url(#radialGradient20866);fill-opacity:0.75000000;fill-rule:evenodd;stroke-width:1.0000000pt"
       sodipodi:type="arc" />
    <path
       transform="matrix(3.864990,0.000000,0.000000,0.856398,-75.29506,76.33074)"
       d="M 54.438721 37.865574 A 12.562782 12.562782 0 1 1  29.313156,37.865574 A 12.562782 12.562782 0 1 1  54.438721 37.865574 z"
       sodipodi:ry="12.562782"
       sodipodi:rx="12.562782"
       sodipodi:cy="37.865574"
       sodipodi:cx="41.875938"
       id="path1936"
       style="opacity:0.41509435;fill:url(#radialGradient20867);fill-opacity:1.0000000;fill-rule:evenodd;stroke-width:1.0000000pt"
       sodipodi:type="arc" />
    <path
       transform="matrix(3.720232,0.000000,0.000000,1.078769,-130.0866,83.43099)"
       d="M 69.373782 22.775043 A 10.998282 10.998282 0 1 1  47.377217,22.775043 A 10.998282 10.998282 0 1 1  69.373782 22.775043 z"
       sodipodi:ry="10.998282"
       sodipodi:rx="10.998282"
       sodipodi:cy="22.775043"
       sodipodi:cx="58.375500"
       id="path1952"
       style="fill:url(#radialGradient20868);fill-rule:evenodd;stroke-width:1.0000000pt"
       sodipodi:type="arc" />
    <path
       sodipodi:nodetypes="ccczzzccc"
       id="path3076"
       d="M 55.336948,71.179522 L 33.151837,100.00050 L 34.050971,103.65304 L 42.440688,117.06876 C 46.795083,124.03170 25.168994,113.09999 19.287656,108.64679 C 13.406313,104.19359 0.25409420,87.905979 7.1526442,90.349516 L 27.459529,97.542470 L 52.191615,68.000000 L 55.336948,71.179522 z "
       style="fill:url(#linearGradient15635);fill-rule:evenodd;stroke-width:1.0000000pt" />
    <path
       sodipodi:nodetypes="czzzzz"
       id="path3083"
       d="M 24.930433,97.470995 C 22.593130,96.216696 7.0691834,91.217450 7.3268524,92.894055 C 7.5845203,94.570661 12.418721,101.75931 16.523552,105.14304 C 20.984677,108.82048 28.763436,113.29375 31.065654,113.49196 C 33.367871,113.69016 34.101216,110.36328 33.535534,106.05546 C 32.973309,101.77396 27.267736,98.725295 24.930433,97.470995 z "
       style="stroke-width:1.0000000pt;fill-rule:evenodd;fill-opacity:1.0;fill:url(#linearGradient15651)" />
    <path
       sodipodi:nodetypes="ccczzzccc"
       id="path13721"
       d="M 55.291547,71.536465 L 33.106436,100.35742 L 34.005571,104.00999 L 42.395286,117.42568 C 46.749683,124.38864 25.123593,113.45693 19.242256,109.00374 C 13.360913,104.55052 0.20869400,88.262914 7.1072429,90.706460 L 27.414129,97.899395 L 52.146214,68.356935 L 55.291547,71.536465 z "
       style="fill:url(#linearGradient15632);fill-rule:evenodd;stroke-width:1.0000000pt" />
    <path
       sodipodi:nodetypes="czzccccc"
       id="path3075"
       d="M 53.869762,63.568329 L 54.559270,47.557273 C 54.762963,42.827325 55.489620,33.590358 60.576265,34.017778 C 66.102545,34.482148 72.920127,32.626434 80.735474,33.283152 C 88.550817,33.939859 99.057500,40.762574 99.057500,40.762574 L 79.329791,57.181296 C 79.329791,57.181296 60.516648,66.422429 57.314980,65.497524 C 54.113315,64.572609 53.869762,63.568329 53.869762,63.568329 z "
       style="fill:url(#linearGradient15629);fill-rule:evenodd;stroke-width:1.0000000pt" />
    <path
       sodipodi:nodetypes="czzzzzzz"
       id="path3077"
       d="M 70.303049,8.0493245 L 55.170530,32.029036 C 51.137352,38.420192 51.046482,67.049097 52.222182,68.208109 L 54.845641,70.794332 C 56.091993,72.022993 76.584786,67.036517 85.600152,60.165194 L 111.17778,40.670500 C 115.39736,37.454427 105.14242,23.383830 98.329960,17.946972 C 91.517509,12.510106 73.408662,3.1280156 70.303049,8.0493245 z "
       style="fill:url(#linearGradient15626);fill-rule:evenodd;stroke-width:0.75000000" />
    <path
       sodipodi:nodetypes="czzccccc"
       id="path3078"
       d="M 53.980340,65.706703 L 54.669849,49.695647 C 54.873543,44.965690 56.065252,32.480864 60.686845,36.156152 C 65.251461,39.786135 67.825667,41.515954 75.641013,42.172669 C 83.456356,42.829378 104.33442,36.610322 100.12783,42.517819 L 79.440369,59.319670 C 79.440369,59.319670 60.627226,68.560803 57.425558,67.635896 C 54.223893,66.710982 53.980340,65.706703 53.980340,65.706703 z "
       style="fill:url(#linearGradient15623);fill-rule:evenodd;stroke-width:1.0000000pt" />
    <path
       transform="matrix(2.412278,1.785242,-1.499653,1.679618,18.59976,-49.93372)"
       d="M 41.983827 7.7581573 A 7.2969375 2.8553233 0 1 1  27.389952,7.7581573 A 7.2969375 2.8553233 0 1 1  41.983827 7.7581573 z"
       sodipodi:ry="2.8553233"
       sodipodi:rx="7.2969375"
       sodipodi:cy="7.7581573"
       sodipodi:cx="34.686890"
       id="path3079"
       style="fill:url(#linearGradient20874);fill-rule:evenodd;stroke-width:1.4922816"
       sodipodi:type="arc" />
    <path
       id="path3080"
       d="M 56.271057,56.465516 L 57.431969,42.649809 C 57.431969,42.649809 58.240765,38.543797 62.691215,40.772861 C 67.141661,43.001926 72.664104,49.031276 79.421010,45.888834 C 86.177916,42.746411 82.791780,55.447585 75.229918,57.131049 C 67.668058,58.814522 56.271057,56.465516 56.271057,56.465516 z "
       style="fill:url(#linearGradient15619);fill-rule:evenodd;stroke-width:1.0000000pt" />
    <path
       id="path3081"
       d="M 68.693386,19.015996 C 68.693386,19.015996 61.588205,26.303142 59.088260,33.977247 C 56.588315,41.651369 54.041994,60.915965 55.767996,62.452326 C 57.493999,63.988687 88.488218,31.809932 84.804027,31.500355 C 81.119841,31.190779 68.693386,19.015996 68.693386,19.015996 z "
       style="fill:url(#linearGradient15616);fill-rule:evenodd;stroke-width:1.0000000pt" />
    <path
       sodipodi:nodetypes="czzz"
       id="path3082"
       d="M 98.101940,22.270188 C 100.74364,23.804734 113.67203,36.419621 108.92810,39.725539 C 104.42336,42.864757 88.192730,26.990693 87.344014,25.001017 C 86.495297,23.011324 95.460237,20.735641 98.101940,22.270188 z "
       style="fill:url(#linearGradient15613);fill-rule:evenodd;stroke-width:1.0000000pt" />
    <path
       sodipodi:nodetypes="cccc"
       id="path3086"
       d="M 11.739954,97.455507 C 11.739954,97.455507 25.852459,94.925772 29.899665,101.99981 C 33.946868,109.07388 38.718242,115.14855 36.109195,115.12101 C 33.500142,115.09350 13.129520,103.63558 11.739954,97.455507 z "
       style="fill:url(#linearGradient13770);fill-opacity:1.0000000;fill-rule:evenodd;stroke-width:1.0000000pt;opacity:0.28409091" />
    <path
       id="path3084"
       d="M 27.887212,100.50734 C 27.887212,100.50734 31.412563,101.46683 33.620504,107.82322 C 35.828448,114.17962 38.791040,117.48504 35.970763,116.71744 C 33.150481,115.94986 17.317667,110.12608 20.353553,106.48429 C 23.389437,102.84249 22.169026,97.587896 27.887212,100.50734 z "
       style="fill:url(#linearGradient15648);fill-opacity:0.75000000;fill-rule:evenodd;stroke-width:1.0000000pt;opacity:0.73295455" />
    <path
       sodipodi:nodetypes="ccccc"
       id="path3085"
       d="M 26.572884,98.148787 L 54.106631,67.961773 L 56.360149,70.001954 L 31.630020,101.74851 L 26.572884,98.148787 z "
       style="fill-opacity:1.0;fill:url(#linearGradient13753);fill-rule:evenodd;stroke-width:1.0000000pt;opacity:0.48295455" />
    <path
       sodipodi:nodetypes="czzzzzzz"
       id="path13745"
       d="M 69.280096,9.5689455 L 54.771879,32.559357 C 50.905093,38.686842 50.817972,66.134641 51.945167,67.245837 L 54.460394,69.725364 C 55.655327,70.903336 75.302675,66.122580 83.946106,59.534738 L 108.46851,40.844312 C 112.51401,37.760920 102.68214,24.270815 96.150737,19.058259 C 89.619338,13.845694 72.257584,4.8506686 69.280096,9.5689455 z "
       style="opacity:0.29545455;stroke-width:0.75000000;fill-rule:evenodd;fill-opacity:1.0;fill:url(#linearGradient13747)" />
  </g>
</svg>
