<?xml version="1.0" encoding="UTF-8" standalone="no"?>
<!-- Created with Inkscape (http://www.inkscape.org/) -->
<!-- 
Created By Andrew Fitzsimon.
Much of this document has been manually cleaned and crafted in a text editor so that only the colour definitions and basic presentation related data remain in the XML. 
Changes to this document may compromise the structure of this palette.
-->
<svg
   xmlns:dc="http://purl.org/dc/elements/1.1/"
   xmlns:cc="http://web.resource.org/cc/"
   xmlns:rdf="http://www.w3.org/1999/02/22-rdf-syntax-ns#"
   xmlns:svg="http://www.w3.org/2000/svg"
   xmlns="http://www.w3.org/2000/svg"
   xmlns:xlink="&amp;#38;#38;#38;#38;#38;#38;#38;#38;#38;#38;#38;ns_xlink;"
   xmlns:sodipodi="http://inkscape.sourceforge.net/DTD/sodipodi-0.dtd"
   xmlns:inkscape="http://www.inkscape.org/namespaces/inkscape"
   sodipodi:docbase="/home/andy/Desktop/Etiquette/human/scalable/apps"
   sodipodi:docname="gftp.svg"
   inkscape:version="0.41+cvs"
   sodipodi:version="0.32"
   id="Etiquette"
   height="128"
   width="128"
   y="00"
   x="00"
   version="1.0">
  <metadata
     id="About">
    <rdf:RDF
       id="RDF232">
      <cc:Work
         id="Work233"
         rdf:about="">
        <dc:format
           id="format234">image/svg+xml</dc:format>
        <dc:type
           rdf:resource="http://purl.org/dc/dcmitype/StillImage"
           id="type236" />
        <dc:creator
           id="creator1291">
          <cc:Agent
             id="Agent1292">
            <dc:title
               id="title1293">Andrew Fitzsimon</dc:title>
          </cc:Agent>
        </dc:creator>
        <dc:date
           id="date1295">2004-12-25</dc:date>
        <dc:title
           id="title1297">Etiquette Icon</dc:title>
        <cc:license
           rdf:resource="http://creativecommons.org/licenses/by/2.0/"
           id="license1299" />
        <dc:rights
           id="rights1308">
          <cc:Agent
             id="Agent1309">
            <dc:title
               id="title1310">Andrew Fitzsimon</dc:title>
          </cc:Agent>
        </dc:rights>
      </cc:Work>
      <cc:License
         id="License1300"
         rdf:about="http://creativecommons.org/licenses/by/2.0/">
        <cc:permits
           id="permits1301"
           rdf:resource="http://web.resource.org/cc/Reproduction" />
        <cc:permits
           id="permits1302"
           rdf:resource="http://web.resource.org/cc/Distribution" />
        <cc:requires
           id="requires1303"
           rdf:resource="http://web.resource.org/cc/Notice" />
        <cc:requires
           id="requires1304"
           rdf:resource="http://web.resource.org/cc/Attribution" />
        <cc:prohibits
           id="prohibits1305"
           rdf:resource="http://web.resource.org/cc/CommercialUse" />
        <cc:permits
           id="permits1306"
           rdf:resource="http://web.resource.org/cc/DerivativeWorks" />
        <cc:requires
           id="requires1307"
           rdf:resource="http://web.resource.org/cc/ShareAlike" />
      </cc:License>
    </rdf:RDF>
  </metadata>
  <sodipodi:namedview
     gridempopacity="0.0000000"
     gridempcolor="#3f3fff"
     gridempspacing="14"
     gridopacity="0.0000000"
     gridcolor="#ffffff"
     inkscape:grid-bbox="false"
     showborder="true"
     gridtolerance="40pt"
     inkscape:grid-points="false"
     gridoriginx="0pt"
     gridoriginy="0.0000000pt"
     gridspacingy="8.0000000pt"
     gridspacingx="8.0000000pt"
     showgrid="true"
     inkscape:current-layer="Etiquette"
     inkscape:window-y="10"
     inkscape:window-x="137"
     inkscape:window-height="536"
     inkscape:window-width="531"
     inkscape:cy="76.330048"
     inkscape:cx="108.77542"
     inkscape:zoom="0.50000000"
     inkscape:pageshadow="0"
     inkscape:pageopacity="0.0"
     borderopacity="1.0"
     bordercolor="#666666"
     pagecolor="#ffffff"
     id="base" />
  <defs
     id="Gradients">
    <radialGradient
       inkscape:collect="always"
       xlink:href="#MaterialSoftShadow"
       id="radialGradient26795"
       gradientUnits="userSpaceOnUse"
       cx="-289.09140"
       cy="598.36652"
       fx="-289.09140"
       fy="598.36652"
       r="125.20509" />
    <linearGradient
       id="linearGradient2381">
      <stop
         style="stop-color:#000000;stop-opacity:0.47058824;"
         offset="0.0000000"
         id="stop2382" />
      <stop
         style="stop-color:#000000;stop-opacity:0.19191919;"
         offset="0.31578946"
         id="stop2384" />
      <stop
         style="stop-color:#6f6f6f;stop-opacity:0.0000000;"
         offset="1.0000000"
         id="stop2383" />
    </linearGradient>
    <radialGradient
       inkscape:collect="always"
       xlink:href="#linearGradient2381"
       id="radialGradient26794"
       gradientUnits="userSpaceOnUse"
       cx="-289.09140"
       cy="598.36652"
       fx="-289.09140"
       fy="598.36652"
       r="125.20509" />
    <linearGradient
       id="linearGradient1694">
      <stop
         style="stop-color:#9db8d2;stop-opacity:1.0000000;"
         offset="0.0000000"
         id="stop1696" />
      <stop
         style="stop-color:#7590ae;stop-opacity:1.0000000;"
         offset="0.56999999"
         id="stop1698" />
      <stop
         style="stop-color:#314e6c;stop-opacity:1.0000000;"
         offset="1.0000000"
         id="stop1697" />
    </linearGradient>
    <radialGradient
       inkscape:collect="always"
       xlink:href="#linearGradient1694"
       id="radialGradient26790"
       gradientUnits="userSpaceOnUse"
       gradientTransform="matrix(0.557543,0.000000,0.000000,0.557543,-57.23101,-55.93319)"
       cx="244.43382"
       cy="248.48956"
       fx="242.12482"
       fy="203.93304"
       r="83.198463" />
    <linearGradient
       id="linearGradient1693">
      <stop
         style="stop-color:#ffffff;stop-opacity:1.0000000;"
         offset="0.00000000"
         id="stop1694" />
      <stop
         style="stop-color:#ffffff;stop-opacity:0.00000000;"
         offset="1.0000000"
         id="stop1695" />
    </linearGradient>
    <linearGradient
       inkscape:collect="always"
       xlink:href="#linearGradient1693"
       id="linearGradient26788"
       gradientUnits="userSpaceOnUse"
       gradientTransform="matrix(0.635449,0.000000,0.000000,0.553944,31.75067,37.05708)"
       x1="88.009292"
       y1="-11.108592"
       x2="72.715558"
       y2="162.85263" />
    <linearGradient
       inkscape:collect="always"
       xlink:href="#WhiteTransparent"
       id="linearGradient26786"
       gradientUnits="userSpaceOnUse"
       gradientTransform="matrix(0.557543,0.000000,0.000000,0.557543,-57.23101,-55.93319)"
       x1="246.58887"
       y1="330.42316"
       x2="246.58887"
       y2="276.50476" />
    <linearGradient
       inkscape:collect="always"
       xlink:href="#WhiteTransparent"
       id="linearGradient26784"
       gradientUnits="userSpaceOnUse"
       gradientTransform="matrix(0.896978,0.000000,0.000000,0.960648,31.63619,37.17611)"
       x1="78.170364"
       y1="-17.627333"
       x2="77.407570"
       y2="32.579056" />
    <linearGradient
       id="linearGradient92"
       inkscape:collect="always">
      <stop
         id="stop93"
         offset="0"
         style="stop-color:#000000;stop-opacity:1;" />
      <stop
         id="stop94"
         offset="1"
         style="stop-color:#000000;stop-opacity:0;" />
    </linearGradient>
    <linearGradient
       id="3DShadowGradient">
      <stop
         id="stop3933"
         offset="0"
         style="stop-color:#565248;stop-opacity:1;" />
      <stop
         id="stop3934"
         offset="1"
         style="stop-color:#565248;stop-opacity:0;" />
    </linearGradient>
    <radialGradient
       r="56.143108"
       fy="142.80988"
       fx="25.459438"
       cy="175.83524"
       cx="25.912205"
       gradientUnits="userSpaceOnUse"
       id="radialGradient2970"
       xlink:href="#MaterialSoftShadow"
       inkscape:collect="always" />
    <linearGradient
       id="Basic3DDarkGradient">
      <stop
         id="stop3929"
         offset="0"
         style="stop-color:#807d74;stop-opacity:1;" />
      <stop
         id="stop3930"
         offset="1"
         style="stop-color:#807d74;stop-opacity:0;" />
    </linearGradient>
    <linearGradient
       id="MaterialSoftShadow">
      <stop
         id="stop2619"
         offset="0"
         style="stop-color:#000000;stop-opacity:0.215;" />
      <stop
         id="stop2621"
         offset="0.50000000"
         style="stop-color:#000000;stop-opacity:0.098;" />
      <stop
         id="stop2620"
         offset="1"
         style="stop-color:#000000;stop-opacity:0;" />
    </linearGradient>
    <linearGradient
       id="WhiteTransparent">
      <stop
         id="stopWhiteFull"
         offset="0"
         style="stop-color:#ffffff;stop-opacity:1;" />
      <stop
         id="stopWhiteTransparent"
         offset="1"
         style="stop-color:#ffffff;stop-opacity:0;" />
    </linearGradient>
    <linearGradient
       y2="207.16502"
       x2="26.888615"
       y1="160.47531"
       x1="26.845953"
       gradientTransform="matrix(3.180358,0.000000,0.000000,0.346182,-3.048520,-4.711982)"
       gradientUnits="userSpaceOnUse"
       id="linearGradient10409"
       xlink:href="#WhiteTransparent"
       inkscape:collect="always" />
    <linearGradient
       y2="124.18470"
       x2="78.711426"
       y1="124.18470"
       x1="3.3979435"
       gradientTransform="matrix(1.531530,0.000000,0.000000,0.718878,-3.048520,-5.175702)"
       gradientUnits="userSpaceOnUse"
       id="linearGradient10415"
       xlink:href="#Basic3DDarkGradient"
       inkscape:collect="always" />
    <linearGradient
       y2="23.747829"
       x2="65.807098"
       y1="55.495945"
       x1="65.103996"
       gradientTransform="scale(1.150702,0.869035)"
       gradientUnits="userSpaceOnUse"
       id="linearGradient10421"
       xlink:href="#Basic3DDarkGradient"
       inkscape:collect="always" />
    <linearGradient
       gradientUnits="userSpaceOnUse"
       y2="148.93845"
       x2="41.340191"
       y1="235.00525"
       x1="38.306545"
       gradientTransform="matrix(1.912425,0.000000,0.000000,0.575700,-3.048520,-5.175702)"
       id="linearGradient194"
       xlink:href="#WhiteTransparent"
       inkscape:collect="always" />
    <linearGradient
       gradientUnits="userSpaceOnUse"
       y2="52.618374"
       x2="59.674019"
       y1="-6.4641781"
       x1="51.691013"
       gradientTransform="matrix(1.222691,0.000000,0.000000,0.900458,-3.048520,-5.175702)"
       id="linearGradient198"
       xlink:href="#3DShadowGradient"
       inkscape:collect="always" />
    <linearGradient
       gradientUnits="userSpaceOnUse"
       y2="85.134773"
       x2="34.190163"
       y1="109.36192"
       x1="34.190163"
       gradientTransform="scale(1.884921,0.530526)"
       id="linearGradient225"
       xlink:href="#linearGradient92"
       inkscape:collect="always" />
    <linearGradient
       y2="253.63820"
       x2="55.407467"
       y1="92.169785"
       x1="55.407467"
       gradientTransform="scale(1.459604,0.685117)"
       gradientUnits="userSpaceOnUse"
       id="linearGradient102"
       xlink:href="#Basic3DDarkGradient"
       inkscape:collect="always" />
    <linearGradient
       y2="125.36791"
       x2="33.548130"
       y1="237.15240"
       x1="38.521580"
       gradientTransform="scale(1.822611,0.548663)"
       gradientUnits="userSpaceOnUse"
       id="linearGradient866"
       xlink:href="#MaterialSoftShadow"
       inkscape:collect="always" />
  </defs>
  <path
     transform="matrix(1.061544,0.000000,0.000000,7.393471e-2,34.34913,106.7019)"
     d="M 82.055313 175.83524 A 56.143108 56.143108 0 1 1  -30.230904,175.83524 A 56.143108 56.143108 0 1 1  82.055313 175.83524 z"
     sodipodi:ry="56.143108"
     sodipodi:rx="56.143108"
     sodipodi:cy="175.83524"
     sodipodi:cx="25.912205"
     id="path10398"
     style="fill:url(#radialGradient2970);fill-opacity:1.0000000;fill-rule:evenodd;stroke-width:1.0000000pt"
     sodipodi:type="arc" />
  <path
     sodipodi:nodetypes="cczzzzzcc"
     id="path10399"
     d="M 13.527831,89.021069 L 13.527831,23.621047 C 13.527831,17.011674 16.786355,12.239726 23.632986,12.239726 L 57.099549,12.239726 C 63.946187,12.239726 64.776825,23.403470 71.623463,23.403470 L 109.74872,23.403470 C 112.83991,23.403470 115.19518,26.600999 115.19518,30.275073 L 115.19518,89.021069 L 13.527831,89.021069 z "
     style="stroke-opacity:1.0000000;stroke-miterlimit:4.0000000;stroke-width:3.1250000;stroke:#444444;fill-rule:evenodd;fill-opacity:1.0000000;fill:#bab5ab;stroke-dasharray:none" />
  <path
     sodipodi:nodetypes="cczzzzzcc"
     id="path10401"
     d="M 17.314787,85.634649 L 17.314787,26.447289 C 17.314787,20.465772 20.263779,16.147135 26.460007,16.147135 L 54.923970,16.147135 C 61.120207,16.147135 61.871939,26.250381 68.068184,26.250381 L 106.73964,26.250381 C 109.53718,26.250381 111.66872,29.144162 111.66872,32.469216 L 111.66872,85.634649 L 17.314787,85.634649 z "
     style="fill:url(#linearGradient198);fill-opacity:1.0000000;fill-rule:evenodd;stroke:none;stroke-width:1.2500000;stroke-opacity:0.33962265" />
  <path
     sodipodi:nodetypes="cczzzzzcc"
     id="path10400"
     d="M 13.527831,89.021069 L 13.527831,23.621047 C 13.527831,17.011674 16.786355,12.239726 23.632986,12.239726 L 57.099549,12.239726 C 63.946187,12.239726 64.776825,23.403470 71.623463,23.403470 L 109.74872,23.403470 C 112.83991,23.403470 115.19518,26.600999 115.19518,30.275073 L 115.19518,89.021069 L 13.527831,89.021069 z "
     style="stroke-opacity:0.33962265;stroke-width:1.2500000;stroke:none;fill-rule:evenodd;fill-opacity:1.0;fill:url(#linearGradient10421)" />
  <path
     sodipodi:nodetypes="ccccc"
     id="path10402"
     d="M 29.832632,32.680251 L 29.832632,109.26545 L 98.692404,109.26545 L 98.717504,32.745896 L 29.832632,32.680251 z "
     style="fill:#fafafa;fill-opacity:1.0000000;fill-rule:evenodd;stroke:#000000;stroke-width:1.9673948;stroke-linecap:round;stroke-linejoin:round;stroke-miterlimit:4.0000000;stroke-opacity:0.58823532" />
  <path
     sodipodi:nodetypes="ccccc"
     id="path10424"
     d="M 28.940122,37.015430 L 28.940122,56.689800 L 98.816229,56.689800 L 98.841698,37.032293 L 28.940122,37.015430 z "
     style="stroke-opacity:0.58823532;stroke-miterlimit:4.0000000;stroke-linejoin:round;stroke-linecap:round;stroke-width:1.4895619;stroke:none;fill-rule:evenodd;fill-opacity:1.0;fill:url(#linearGradient225)" />
  <path
     sodipodi:nodetypes="czzzzzzzz"
     id="path10403"
     d="M 3.5800406,67.752282 L 9.3924860,108.43403 C 9.9148550,112.09013 13.522236,116.26770 17.204085,116.26770 L 112.43256,116.26770 C 115.68675,116.26770 117.80666,111.66197 118.29127,108.43403 L 124.39889,67.752282 C 125.47737,60.568651 121.61305,53.386027 115.81257,53.386027 L 12.166386,53.386027 C 6.3658748,53.386027 2.5527687,60.562327 3.5800406,67.752282 z "
     style="stroke-opacity:1.0000000;stroke-miterlimit:4.0000000;stroke-width:3.1250000;stroke:#444444;fill-rule:evenodd;fill-opacity:1.0000000;fill:#eae8e3;stroke-dasharray:none" />
  <path
     sodipodi:nodetypes="czzzzzzzz"
     id="path10404"
     d="M 4.3152919,67.077140 L 10.532030,107.87857 C 11.029756,111.14522 14.611954,114.82222 18.248618,114.87654 L 111.38570,116.26770 C 114.59996,116.31572 116.73226,112.16028 117.17316,109.26973 L 123.66456,66.711464 C 124.64574,60.278708 120.91259,53.857352 115.18267,53.877816 L 12.797190,54.243492 C 7.0672744,54.263957 3.3364850,60.653076 4.3152919,67.077140 z "
     style="opacity:0.28301886;fill:url(#linearGradient10415);fill-opacity:1.0000000;fill-rule:evenodd;stroke:none;stroke-width:1.3937240;stroke-miterlimit:4.0000000;stroke-opacity:0.31372550" />
  <path
     sodipodi:nodetypes="czzzzzzzz"
     id="path101"
     d="M 4.3152919,67.077140 L 9.6481465,109.20440 C 10.063130,112.48258 13.727666,116.19984 17.364735,116.20237 L 111.38570,116.26770 C 114.60032,116.26993 116.73226,112.16028 117.17316,109.26973 L 123.66456,66.711464 C 124.64574,60.278708 120.91259,53.857352 115.18267,53.877816 L 12.797190,54.243492 C 7.0672744,54.263957 3.4992024,60.630384 4.3152919,67.077140 z "
     style="stroke-opacity:0.48026314;stroke-miterlimit:4.0000000;stroke-width:1.3937240;stroke:none;fill-rule:evenodd;fill-opacity:1.0;fill:url(#linearGradient102);opacity:0.48427673" />
  <path
     sodipodi:nodetypes="czzzzcc"
     id="path10405"
     d="M 10.033008,78.399512 L 14.020810,101.48840 C 14.701688,105.43060 14.205694,111.19236 19.940778,111.16118 L 106.40045,110.69105 C 113.40458,110.65296 112.79439,107.21951 113.80744,102.42459 L 118.86488,78.486788 L 10.033008,78.399512 z "
     style="fill:url(#linearGradient194);fill-opacity:1.0000000;fill-rule:evenodd;stroke-width:1.0000000pt;opacity:0.11320755" />
  <path
     sodipodi:nodetypes="czzzzzz"
     id="path10407"
     d="M 4.9682151,66.485404 C 4.7818079,67.291978 8.2654741,59.375578 14.171745,59.375578 L 111.83689,59.375578 C 119.10273,59.375578 122.28228,66.950432 122.46870,66.143857 C 122.65511,65.337290 124.48911,54.536131 113.18243,54.536131 L 14.596023,54.536131 C 3.1496173,54.536131 5.1546221,65.678836 4.9682151,66.485404 z "
     style="fill:url(#linearGradient10409);fill-opacity:1.0000000;fill-rule:evenodd;stroke-width:0.90415878pt" />
  <path
     sodipodi:nodetypes="czzzzzzzz"
     id="path99"
     d="M 3.5800406,67.752282 L 9.3924860,108.43403 C 9.9148550,112.09013 13.522236,116.26770 17.204085,116.26770 L 112.43256,116.26770 C 115.68675,116.26770 117.80666,111.66197 118.29127,108.43403 L 124.39889,67.752282 C 125.47737,60.568651 121.61305,53.386027 115.81257,53.386027 L 12.166386,53.386027 C 6.3658748,53.386027 2.5527687,60.562327 3.5800406,67.752282 z "
     style="fill:none;fill-opacity:1.0000000;fill-rule:evenodd;stroke:none;stroke-width:2.6231930;stroke-miterlimit:4.0000000;stroke-opacity:1.0000000" />
  <path
     sodipodi:nodetypes="ccccc"
     id="path864"
     d="M 8.8007750,67.899512 L 14.020810,101.48840 C 19.052329,79.460767 108.36546,78.976869 113.80744,102.42459 L 118.86488,67.986788 L 8.8007750,67.899512 z "
     style="fill:url(#linearGradient866);fill-opacity:1.0;fill-rule:evenodd;stroke-width:1.0000000pt" />
  <path
     sodipodi:type="arc"
     style="fill:url(#radialGradient26795);fill-opacity:1.0000000;fill-rule:evenodd;stroke:none;stroke-width:1.0000000pt;stroke-linecap:butt;stroke-linejoin:miter;stroke-opacity:1.0000000"
     id="path4284"
     sodipodi:cx="-289.09140"
     sodipodi:cy="598.36652"
     sodipodi:rx="125.20509"
     sodipodi:ry="125.20509"
     d="M -163.88631 598.36652 A 125.20509 125.20509 0 1 1  -414.29649,598.36652 A 125.20509 125.20509 0 1 1  -163.88631 598.36652 z"
     transform="matrix(-0.237698,0.000000,0.000000,6.612441e-2,8.416270,73.70450)" />
  <path
     sodipodi:type="arc"
     style="fill:url(#radialGradient26794);fill-opacity:1.0000000;fill-rule:evenodd;stroke:none;stroke-width:1.0000000pt;stroke-linecap:butt;stroke-linejoin:miter;stroke-opacity:1.0000000"
     id="path4285"
     sodipodi:cx="-289.09140"
     sodipodi:cy="598.36652"
     sodipodi:rx="125.20509"
     sodipodi:ry="125.20509"
     d="M -163.88631 598.36652 A 125.20509 125.20509 0 1 1  -414.29649,598.36652 A 125.20509 125.20509 0 1 1  -163.88631 598.36652 z"
     transform="matrix(-0.332239,0.000000,0.000000,0.203406,-14.58084,-19.67335)" />
  <path
     d="M 120.66572,82.682030 C 120.66572,59.767180 102.08952,41.191016 79.174670,41.191016 C 56.259810,41.191016 37.683684,59.767180 37.683684,82.682030 C 37.683684,105.59689 56.259810,124.17305 79.174670,124.17305 C 102.08952,124.17305 120.66572,105.59689 120.66572,82.682030 z "
     style="fill:#314e6c;fill-opacity:1.0000000;fill-rule:evenodd;stroke:none;stroke-width:8.7163954;stroke-linecap:butt;stroke-linejoin:miter;stroke-miterlimit:4.0000000;stroke-opacity:1.0000000"
     id="path4286" />
  <path
     d="M 120.54236,82.610550 C 120.54236,59.695700 101.96622,41.119541 79.051370,41.119541 C 56.136520,41.119541 37.560387,59.695700 37.560387,82.610550 C 37.560387,105.52540 56.136520,124.10156 79.051370,124.10156 C 101.96622,124.10156 120.54236,105.52540 120.54236,82.610550 z "
     style="fill:url(#radialGradient26790);fill-opacity:1.0000000;fill-rule:evenodd;stroke:#333333;stroke-width:1.8750000;stroke-linecap:butt;stroke-linejoin:miter;stroke-miterlimit:4.0000000;stroke-opacity:1.0000000;stroke-dasharray:none"
     id="path4287" />
  <path
     d="M 75.741830,43.524615 C 72.344280,44.266188 68.711810,44.450627 65.678240,46.311031 C 64.503260,46.407019 59.756480,48.269270 62.924520,48.592640 C 64.886790,48.035720 65.798720,45.995331 67.989530,46.166442 C 70.341520,45.466694 72.760560,44.634132 75.324630,44.144284 C 75.589290,44.021275 75.594700,43.729644 75.741830,43.524615 z M 80.743570,44.182966 C 79.046380,46.134894 75.132800,46.010795 74.898930,49.190240 C 75.698810,50.289600 79.634680,45.115284 80.792080,48.311690 C 81.020040,50.454740 79.591800,53.159830 77.117500,51.763320 C 75.916930,51.663100 74.421840,51.909880 74.471750,50.835500 C 73.848650,52.411620 68.884380,55.461600 70.628110,52.063260 C 71.533640,51.382720 69.361050,51.258980 70.853540,50.089930 C 72.174380,48.748720 67.982710,48.875140 69.569820,50.321910 C 68.650300,51.589740 68.235840,52.938250 66.428710,53.158870 C 67.971180,52.986750 69.574530,52.737270 68.391190,54.383710 C 69.284350,57.739290 63.677090,55.987230 62.989050,58.464170 C 60.950080,61.744960 66.042720,61.571470 67.496480,59.955000 C 67.251010,56.921110 70.373150,57.816570 72.011360,57.517060 C 73.732390,56.239560 75.549570,60.191540 76.401330,61.604260 C 77.517960,62.193510 78.743270,59.884400 77.042630,59.287260 C 77.244380,58.153150 73.592500,56.233760 75.903790,56.151060 C 77.448650,56.972670 78.317780,58.674820 78.609080,59.783200 C 81.688050,59.643740 77.343560,63.202100 80.298750,62.119810 C 82.171260,61.784620 80.097000,58.661590 82.582690,59.886330 C 85.724370,61.092730 81.503950,55.832550 85.090520,55.810310 C 86.756790,54.826380 85.862780,59.229780 86.888800,57.077350 C 87.471330,53.590460 92.135450,58.377770 90.009810,59.773890 C 87.307270,59.022290 84.585110,58.803030 83.414560,61.846330 C 83.251330,63.279440 87.350640,59.778680 86.872490,62.334880 C 87.736690,65.045730 83.480070,65.539440 81.874400,64.600220 C 80.398150,62.823150 79.023320,64.479300 77.924550,65.287880 C 76.211750,65.048500 70.513670,64.595840 72.922450,62.042930 C 73.559600,59.377560 69.595270,61.800310 68.152400,61.199840 C 66.330640,62.186770 63.523780,61.312750 62.067420,62.784430 C 61.859130,64.491020 59.129660,63.550110 58.682800,65.603770 C 57.651370,67.941570 54.233150,68.722300 54.147040,71.228190 C 54.048980,74.028900 52.729757,76.577450 54.194770,79.336710 C 54.547080,82.158820 57.220460,83.904750 59.955770,83.241850 C 61.539570,83.207790 63.025390,85.189500 64.139350,82.799780 C 65.934530,79.842460 67.770280,84.448130 70.020690,83.252250 C 71.873940,85.386860 68.470620,87.926160 71.375550,89.420610 C 73.811260,92.000970 73.087580,95.584900 72.023450,98.581050 C 72.039900,100.99371 75.207030,102.24964 75.149040,104.64092 C 74.907150,108.06340 77.987180,111.06605 81.347760,109.41204 C 83.525770,108.79804 84.407750,106.21148 86.640590,105.61419 C 88.335250,104.18383 87.598640,100.00518 90.692160,99.903490 C 94.913850,98.491660 91.885130,93.444650 93.035650,90.587200 C 94.723210,88.593820 95.439510,85.643600 98.024520,84.539520 C 100.02250,82.790030 98.703490,79.263890 100.73009,77.282380 C 99.013500,78.605660 96.124810,79.763340 94.245630,78.156020 C 91.337390,75.633120 88.945760,72.477300 87.462690,68.917740 C 86.768670,67.343950 86.812670,64.179020 88.533200,64.193840 C 88.804260,67.496570 91.140500,70.156950 92.770700,72.899020 C 94.330610,74.681150 95.418560,77.475320 98.313360,76.541230 C 100.75905,75.712140 104.11176,74.091490 104.16546,71.191810 C 103.93714,67.908170 98.081530,70.974740 96.926380,67.624170 C 94.615930,66.247650 98.498800,63.974100 99.198940,66.526360 C 100.69839,68.056090 103.38786,67.247600 104.49050,69.314610 C 106.72250,68.316890 108.50819,69.019100 109.42772,71.360720 C 111.39498,73.308810 111.92745,76.260930 111.85422,78.930510 C 114.43587,81.447320 113.64237,75.268440 114.32493,73.749150 C 114.42777,72.308170 114.57329,70.533450 115.18022,72.890330 C 117.06923,73.795610 115.75291,69.946870 115.32164,69.080400 C 112.00879,61.511860 110.94404,60.125280 107.31009,55.768150 C 101.31277,49.885900 96.439380,47.375643 89.799770,45.186535 C 89.317060,47.544420 86.368690,45.468859 84.962450,47.443429 C 83.486960,48.558650 83.479580,48.416350 84.514110,46.935409 C 83.762800,45.588177 82.056610,44.943948 80.743570,44.182966 z M 70.282400,46.816323 C 68.807760,46.118319 65.154470,48.422220 68.425710,48.266780 C 69.350710,48.459480 69.659380,47.258245 70.282400,46.816323 z M 68.195000,50.268600 C 67.017770,50.718770 64.221800,51.511440 66.693080,52.039380 C 67.400670,51.707120 67.861660,50.944640 68.195000,50.268600 z M 74.938920,60.304280 C 73.148730,61.202400 74.821740,62.987550 75.766640,61.289090 C 75.542260,60.916870 75.190440,60.654410 74.938920,60.304280 z M 115.32256,79.412230 C 112.69332,81.204290 118.43717,82.552940 115.32256,79.412230 z M 40.175347,83.988500 C 40.022808,87.273430 40.866062,90.736300 41.599516,94.279090 C 42.545963,95.955380 43.182482,99.388320 44.271626,99.873080 C 45.406533,97.270170 43.072400,94.358900 44.433515,91.665970 C 42.795017,90.377160 44.999739,87.520410 42.336205,86.741740 C 41.497941,85.922030 40.873513,84.922250 40.175347,83.988500 z M 97.820310,94.586180 C 97.548630,97.619060 93.419030,98.331340 94.189040,101.40528 C 94.924740,103.01675 93.828420,103.13568 93.659230,104.44185 C 95.177600,105.60670 96.468200,101.81478 97.631920,100.78533 C 97.903330,99.286660 101.44246,94.234970 97.820310,94.586180 z "
     style="fill:url(#linearGradient26788);fill-opacity:1.0000000;fill-rule:evenodd;stroke:none;stroke-width:1.0000000pt;stroke-linecap:butt;stroke-linejoin:miter;stroke-opacity:1.0000000"
     id="path4288" />
  <path
     d="M 117.49979,82.610550 C 117.49979,61.376090 100.28583,44.162159 79.051370,44.162159 C 57.816910,44.162159 40.602949,61.376090 40.602949,82.610550 C 40.602949,103.84501 57.816910,121.05894 79.051370,121.05894 C 100.28583,121.05894 117.49979,103.84501 117.49979,82.610550 z "
     style="fill:url(#linearGradient26786);fill-opacity:1.0000000;fill-rule:evenodd;stroke:none;stroke-width:1.2500000;stroke-linecap:butt;stroke-linejoin:miter;stroke-miterlimit:4.0000000;stroke-opacity:1.0000000"
     id="path4861" />
  <path
     d="M 115.35538,80.931590 C 115.35538,59.943410 99.468800,42.929122 79.871640,42.929122 C 60.274480,42.929122 44.387823,59.943410 44.387823,80.931590 C 44.387823,101.91978 60.274480,118.93406 79.871640,118.93406 C 99.468800,118.93406 115.35538,101.91978 115.35538,80.931590 z "
     style="fill:url(#linearGradient26784);fill-opacity:1.0000000;fill-rule:evenodd;stroke:none;stroke-width:2.3390312;stroke-linecap:butt;stroke-linejoin:miter;stroke-miterlimit:4.0000000;stroke-opacity:1.0000000"
     id="path4289" />
  <path
     d="M 75.741830,43.524615 C 72.344280,44.266188 68.711810,44.450627 65.678240,46.311031 C 64.503260,46.407019 59.756480,48.269270 62.924520,48.592640 C 64.886790,48.035720 65.798720,45.995331 67.989530,46.166442 C 70.341520,45.466694 72.760560,44.634132 75.324630,44.144284 C 75.589290,44.021275 75.594700,43.729644 75.741830,43.524615 z M 80.743570,44.182966 C 79.046380,46.134894 75.132800,46.010795 74.898930,49.190240 C 75.698810,50.289600 79.634680,45.115284 80.792080,48.311690 C 81.020040,50.454740 79.591800,53.159830 77.117500,51.763320 C 75.916930,51.663100 74.421840,51.909880 74.471750,50.835500 C 73.848650,52.411620 68.884380,55.461600 70.628110,52.063260 C 71.533640,51.382720 69.361050,51.258980 70.853540,50.089930 C 72.174380,48.748720 67.982710,48.875140 69.569820,50.321910 C 68.650300,51.589740 68.235840,52.938250 66.428710,53.158870 C 67.971180,52.986750 69.574530,52.737270 68.391190,54.383710 C 69.284350,57.739290 63.677090,55.987230 62.989050,58.464170 C 60.950080,61.744960 66.042720,61.571470 67.496480,59.955000 C 67.251010,56.921110 70.373150,57.816570 72.011360,57.517060 C 73.732390,56.239560 75.549570,60.191540 76.401330,61.604260 C 77.517960,62.193510 78.743270,59.884400 77.042630,59.287260 C 77.244380,58.153150 73.592500,56.233760 75.903790,56.151060 C 77.448650,56.972670 78.317780,58.674820 78.609080,59.783200 C 81.688050,59.643740 77.343560,63.202100 80.298750,62.119810 C 82.171260,61.784620 80.097000,58.661590 82.582690,59.886330 C 85.724370,61.092730 81.503950,55.832550 85.090520,55.810310 C 86.756790,54.826380 85.862780,59.229780 86.888800,57.077350 C 87.471330,53.590460 92.135450,58.377770 90.009810,59.773890 C 87.307270,59.022290 84.585110,58.803030 83.414560,61.846330 C 83.251330,63.279440 87.350640,59.778680 86.872490,62.334880 C 87.736690,65.045730 83.480070,65.539440 81.874400,64.600220 C 80.398150,62.823150 79.023320,64.479300 77.924550,65.287880 C 76.211750,65.048500 70.513670,64.595840 72.922450,62.042930 C 73.559600,59.377560 69.595270,61.800310 68.152400,61.199840 C 66.330640,62.186770 63.523780,61.312750 62.067420,62.784430 C 61.859130,64.491020 59.129660,63.550110 58.682800,65.603770 C 57.651370,67.941570 54.233150,68.722300 54.147040,71.228190 C 54.048980,74.028900 52.729757,76.577450 54.194770,79.336710 C 54.547080,82.158820 57.220460,83.904750 59.955770,83.241850 C 61.539570,83.207790 63.025390,85.189500 64.139350,82.799780 C 65.934530,79.842460 67.770280,84.448130 70.020690,83.252250 C 71.873940,85.386860 68.470620,87.926160 71.375550,89.420610 C 73.811260,92.000970 73.087580,95.584900 72.023450,98.581050 C 72.039900,100.99371 75.207030,102.24964 75.149040,104.64092 C 74.907150,108.06340 77.987180,111.06605 81.347760,109.41204 C 83.525770,108.79804 84.407750,106.21148 86.640590,105.61419 C 88.335250,104.18383 87.598640,100.00518 90.692160,99.903490 C 94.913850,98.491660 91.885130,93.444650 93.035650,90.587200 C 94.723210,88.593820 95.439510,85.643600 98.024520,84.539520 C 100.02250,82.790030 98.703490,79.263890 100.73009,77.282380 C 99.013500,78.605660 96.124810,79.763340 94.245630,78.156020 C 91.337390,75.633120 88.945760,72.477300 87.462690,68.917740 C 86.768670,67.343950 86.812670,64.179020 88.533200,64.193840 C 88.804260,67.496570 91.140500,70.156950 92.770700,72.899020 C 94.330610,74.681150 95.418560,77.475320 98.313360,76.541230 C 100.75905,75.712140 104.11176,74.091490 104.16546,71.191810 C 103.93714,67.908170 98.081530,70.974740 96.926380,67.624170 C 94.615930,66.247650 98.498800,63.974100 99.198940,66.526360 C 100.69839,68.056090 103.38786,67.247600 104.49050,69.314610 C 106.72250,68.316890 108.50819,69.019100 109.42772,71.360720 C 111.39498,73.308810 111.92745,76.260930 111.85422,78.930510 C 114.43587,81.447320 113.64237,75.268440 114.32493,73.749150 C 114.42777,72.308170 114.57329,70.533450 115.18022,72.890330 C 117.06923,73.795610 115.75291,69.946870 115.32164,69.080400 C 112.00879,61.511860 110.94404,60.125280 107.31009,55.768150 C 101.31277,49.885900 96.439380,47.375643 89.799770,45.186535 C 89.317060,47.544420 86.368690,45.468859 84.962450,47.443429 C 83.486960,48.558650 83.479580,48.416350 84.514110,46.935409 C 83.762800,45.588177 82.056610,44.943948 80.743570,44.182966 z M 70.282400,46.816323 C 68.807760,46.118319 65.154470,48.422220 68.425710,48.266780 C 69.350710,48.459480 69.659380,47.258245 70.282400,46.816323 z M 68.195000,50.268600 C 67.017770,50.718770 64.221800,51.511440 66.693080,52.039380 C 67.400670,51.707120 67.861660,50.944640 68.195000,50.268600 z M 74.938920,60.304280 C 73.148730,61.202400 74.821740,62.987550 75.766640,61.289090 C 75.542260,60.916870 75.190440,60.654410 74.938920,60.304280 z M 115.32256,79.412230 C 112.69332,81.204290 118.43717,82.552940 115.32256,79.412230 z M 40.175347,83.988500 C 40.022808,87.273430 40.866062,90.736300 41.599516,94.279090 C 42.545963,95.955380 43.182482,99.388320 44.271626,99.873080 C 45.406533,97.270170 43.072400,94.358900 44.433515,91.665970 C 42.795017,90.377160 44.999739,87.520410 42.336205,86.741740 C 41.497941,85.922030 40.873513,84.922250 40.175347,83.988500 z M 97.820310,94.586180 C 97.548630,97.619060 93.419030,98.331340 94.189040,101.40528 C 94.924740,103.01675 93.828420,103.13568 93.659230,104.44185 C 95.177600,105.60670 96.468200,101.81478 97.631920,100.78533 C 97.903330,99.286660 101.44246,94.234970 97.820310,94.586180 z "
     style="fill:#ffffff;fill-opacity:0.58854169;fill-rule:evenodd;stroke:none;stroke-width:1.0000000pt;stroke-linecap:butt;stroke-linejoin:miter;stroke-opacity:1.0000000"
     id="path4290" />
  <path
     d="M 120.66572,82.682030 C 120.66572,59.767180 102.08952,41.191016 79.174670,41.191016 C 56.259810,41.191016 37.683684,59.767180 37.683684,82.682030 C 37.683684,105.59689 56.259810,124.17305 79.174670,124.17305 C 102.08952,124.17305 120.66572,105.59689 120.66572,82.682030 z "
     style="fill:none;fill-opacity:1.0000000;fill-rule:evenodd;stroke:none;stroke-width:3.7500000;stroke-linecap:butt;stroke-linejoin:miter;stroke-miterlimit:4.0000000;stroke-opacity:1.0000000"
     id="path4291" />
  <path
     d="M 120.66572,82.682030 C 120.66572,59.767180 102.08952,41.191016 79.174670,41.191016 C 56.259810,41.191016 37.683684,59.767180 37.683684,82.682030 C 37.683684,105.59689 56.259810,124.17305 79.174670,124.17305 C 102.08952,124.17305 120.66572,105.59689 120.66572,82.682030 z "
     style="fill:none;fill-opacity:0.94117647;fill-rule:evenodd;stroke:none;stroke-width:5.8040280;stroke-linecap:butt;stroke-linejoin:miter;stroke-miterlimit:4.0000000;stroke-opacity:1.0000000"
     id="path4292" />
</svg>
