<?xml version="1.0" encoding="UTF-8" standalone="no"?>
<!-- Created with Inkscape (http://www.inkscape.org/) -->
<!-- 
Created By Andrew Fitzsimon.
Much of this document has been manually cleaned and crafted in a text editor so that only the colour definitions and basic presentation related data remain in the XML. 
Changes to this document may compromise the structure of this palette.
-->
<svg
   xmlns:dc="http://purl.org/dc/elements/1.1/"
   xmlns:cc="http://web.resource.org/cc/"
   xmlns:rdf="http://www.w3.org/1999/02/22-rdf-syntax-ns#"
   xmlns:svg="http://www.w3.org/2000/svg"
   xmlns="http://www.w3.org/2000/svg"
   xmlns:xlink="&amp;#38;#38;#38;#38;#38;#38;#38;#38;#38;#38;#38;#38;ns_xlink;"
   xmlns:sodipodi="http://inkscape.sourceforge.net/DTD/sodipodi-0.dtd"
   xmlns:inkscape="http://www.inkscape.org/namespaces/inkscape"
   version="1.0"
   x="00"
   y="00"
   width="128"
   height="128"
   id="Etiquette"
   sodipodi:version="0.32"
   inkscape:version="0.41+cvs"
   sodipodi:docname="gnome-util.svg"
   sodipodi:docbase="/home/andy/Desktop/Etiquette/human/scalable/apps">
  <metadata
     id="About">
    <rdf:RDF
       id="RDF232">
      <cc:Work
         rdf:about=""
         id="Work233">
        <dc:format
           id="format234">image/svg+xml</dc:format>
        <dc:type
           id="type236"
           rdf:resource="http://purl.org/dc/dcmitype/StillImage" />
        <dc:creator
           id="creator1291">
          <cc:Agent
             id="Agent1292">
            <dc:title
               id="title1293">Andrew Fitzsimon</dc:title>
          </cc:Agent>
        </dc:creator>
        <dc:date
           id="date1295">2004-12-25</dc:date>
        <dc:title
           id="title1297">Etiquette Icon</dc:title>
        <cc:license
           id="license1299"
           rdf:resource="http://creativecommons.org/licenses/by/2.0/" />
        <dc:rights
           id="rights1308">
          <cc:Agent
             id="Agent1309">
            <dc:title
               id="title1310">Andrew Fitzsimon</dc:title>
          </cc:Agent>
        </dc:rights>
      </cc:Work>
      <cc:License
         rdf:about="http://creativecommons.org/licenses/by/2.0/"
         id="License1300">
        <cc:permits
           rdf:resource="http://web.resource.org/cc/Reproduction"
           id="permits1301" />
        <cc:permits
           rdf:resource="http://web.resource.org/cc/Distribution"
           id="permits1302" />
        <cc:requires
           rdf:resource="http://web.resource.org/cc/Notice"
           id="requires1303" />
        <cc:requires
           rdf:resource="http://web.resource.org/cc/Attribution"
           id="requires1304" />
        <cc:prohibits
           rdf:resource="http://web.resource.org/cc/CommercialUse"
           id="prohibits1305" />
        <cc:permits
           rdf:resource="http://web.resource.org/cc/DerivativeWorks"
           id="permits1306" />
        <cc:requires
           rdf:resource="http://web.resource.org/cc/ShareAlike"
           id="requires1307" />
      </cc:License>
    </rdf:RDF>
  </metadata>
  <sodipodi:namedview
     id="base"
     pagecolor="#ffffff"
     bordercolor="#666666"
     borderopacity="1.0"
     inkscape:pageopacity="0.0"
     inkscape:pageshadow="0"
     inkscape:zoom="2.0000000"
     inkscape:cx="78.466187"
     inkscape:cy="80.383255"
     inkscape:window-width="633"
     inkscape:window-height="585"
     inkscape:window-x="267"
     inkscape:window-y="120"
     inkscape:current-layer="Etiquette"
     showgrid="false"
     gridspacingx="8.0000000pt"
     gridspacingy="8.0000000pt"
     gridoriginy="0.0000000pt"
     gridoriginx="0pt"
     inkscape:grid-points="true"
     gridtolerance="40pt"
     showborder="true"
     inkscape:grid-bbox="false"
     gridcolor="#3f3fff"
     gridopacity="0.082352941"
     gridempspacing="2"
     gridempcolor="#3f3fff"
     gridempopacity="0.082352941" />
  <defs
     id="Gradients">
    <linearGradient
       id="linearGradient3970">
      <stop
         style="stop-color:#ffffff;stop-opacity:1.0000000;"
         offset="0.0000000"
         id="stop3971" />
      <stop
         style="stop-color:#ffffff;stop-opacity:0.0000000;"
         offset="1.0000000"
         id="stop3972" />
    </linearGradient>
    <linearGradient
       id="linearGradient924">
      <stop
         style="stop-color:#ffffff;stop-opacity:0.00000000;"
         offset="0.00000000"
         id="stop925" />
      <stop
         style="stop-color:#ffffff;stop-opacity:1;"
         offset="1.00000000"
         id="stop926" />
    </linearGradient>
    <linearGradient
       id="linearGradient3658">
      <stop
         style="stop-color:#000000;stop-opacity:0.56774193;"
         offset="0.0000000"
         id="stop3659" />
      <stop
         style="stop-color:#000000;stop-opacity:0.0000000;"
         offset="1.0000000"
         id="stop3660" />
    </linearGradient>
    <linearGradient
       id="Basic3DHighlightGradient">
      <stop
         style="stop-color:#eae8e3;stop-opacity:1;"
         offset="0"
         id="stop3921" />
      <stop
         style="stop-color:#eae8e3;stop-opacity:0;"
         offset="1"
         id="stop3922" />
    </linearGradient>
    <linearGradient
       id="MaterialSteel">
      <stop
         style="stop-color:#807d74;stop-opacity:1;"
         offset="0"
         id="stop1499" />
      <stop
         style="stop-color:#f2f0eb;stop-opacity:1;"
         offset="0.38708624"
         id="stop1501" />
      <stop
         style="stop-color:#565248;stop-opacity:1;"
         offset="0.80849576"
         id="stop1502" />
      <stop
         style="stop-color:#eae8e3;stop-opacity:1;"
         offset="1"
         id="stop1500" />
    </linearGradient>
    <linearGradient
       id="TransparentBlack">
      <stop
         style="stop-color:#000000;stop-opacity:0;"
         offset="0"
         id="stopBlackTransparent1" />
      <stop
         style="stop-color:#000000;stop-opacity:1;"
         offset="1"
         id="stopBlackFull1" />
    </linearGradient>
    <linearGradient
       id="WhiteTransparent">
      <stop
         style="stop-color:#ffffff;stop-opacity:1;"
         offset="0"
         id="stopWhiteFull" />
      <stop
         style="stop-color:#ffffff;stop-opacity:0;"
         offset="1"
         id="stopWhiteTransparent" />
    </linearGradient>
    <linearGradient
       id="BlackTransparent">
      <stop
         style="stop-color:#000000;stop-opacity:1;"
         offset="0"
         id="stopBlackFull" />
      <stop
         style="stop-color:#000000;stop-opacity:0;"
         offset="1"
         id="stopBlackTransparent" />
    </linearGradient>
    <linearGradient
       inkscape:collect="always"
       xlink:href="#linearGradient924"
       id="linearGradient18328"
       gradientUnits="userSpaceOnUse"
       gradientTransform="matrix(0.466505,-0.466505,0.412733,0.412733,-175.6832,-340.4775)"
       x1="-159.08747"
       y1="859.05705"
       x2="-159.46551"
       y2="945.56316" />
    <linearGradient
       inkscape:collect="always"
       xlink:href="#linearGradient924"
       id="linearGradient18330"
       gradientUnits="userSpaceOnUse"
       gradientTransform="matrix(0.466505,-0.466505,0.412733,0.412733,-175.6832,-340.4775)"
       x1="-140.07748"
       y1="850.16606"
       x2="-68.033922"
       y2="770.24116" />
    <linearGradient
       inkscape:collect="always"
       xlink:href="#linearGradient924"
       id="linearGradient18333"
       gradientUnits="userSpaceOnUse"
       gradientTransform="matrix(0.356597,-0.356597,0.539943,0.539943,-175.6832,-340.4775)"
       x1="-252.09684"
       y1="604.78997"
       x2="-271.95753"
       y2="625.43321" />
    <linearGradient
       inkscape:collect="always"
       xlink:href="#linearGradient924"
       id="linearGradient18338"
       gradientUnits="userSpaceOnUse"
       gradientTransform="matrix(0.460679,-0.460679,0.417953,0.417953,-175.6832,-340.4775)"
       x1="-205.62921"
       y1="841.06058"
       x2="-197.61969"
       y2="935.02544" />
    <linearGradient
       inkscape:collect="always"
       xlink:href="#linearGradient924"
       id="linearGradient18340"
       gradientUnits="userSpaceOnUse"
       gradientTransform="matrix(0.460679,-0.460679,0.417953,0.417953,-175.6832,-340.4775)"
       x1="-206.25452"
       y1="844.92277"
       x2="-276.59079"
       y2="752.38951" />
    <linearGradient
       inkscape:collect="always"
       xlink:href="#linearGradient3658"
       id="linearGradient18344"
       gradientUnits="userSpaceOnUse"
       gradientTransform="matrix(0.370003,-0.370003,0.520380,0.520380,-175.6832,-340.4775)"
       x1="-212.42162"
       y1="613.77250"
       x2="-192.35384"
       y2="631.40373" />
    <linearGradient
       inkscape:collect="always"
       xlink:href="#Basic3DHighlightGradient"
       id="linearGradient18377"
       gradientUnits="userSpaceOnUse"
       gradientTransform="matrix(0.111469,9.033234e-2,-0.117731,0.132668,23.29924,-62.80840)"
       x1="494.23231"
       y1="630.91227"
       x2="719.47805"
       y2="630.30804" />
    <linearGradient
       inkscape:collect="always"
       xlink:href="#TransparentBlack"
       id="linearGradient18381"
       gradientUnits="userSpaceOnUse"
       gradientTransform="matrix(0.110862,8.984098e-2,-0.118373,0.133392,23.29924,-62.80840)"
       x1="656.15355"
       y1="646.98373"
       x2="861.65375"
       y2="668.75722" />
    <linearGradient
       inkscape:collect="always"
       xlink:href="#BlackTransparent"
       id="linearGradient18384"
       gradientUnits="userSpaceOnUse"
       gradientTransform="matrix(0.110862,8.984098e-2,-0.118373,0.133392,23.29924,-62.80840)"
       x1="352.15469"
       y1="639.38998"
       x2="617.12447"
       y2="567.66601" />
    <linearGradient
       inkscape:collect="always"
       xlink:href="#WhiteTransparent"
       id="linearGradient18387"
       gradientUnits="userSpaceOnUse"
       gradientTransform="matrix(0.110862,8.984098e-2,-0.118373,0.133392,23.29924,-62.80840)"
       x1="518.87411"
       y1="639.22778"
       x2="677.33004"
       y2="639.38998" />
    <linearGradient
       inkscape:collect="always"
       xlink:href="#MaterialSteel"
       id="linearGradient18391"
       gradientUnits="userSpaceOnUse"
       gradientTransform="matrix(1.130134,-6.390328e-16,-3.627808e-16,0.706232,-188.2970,-50.12724)"
       x1="210.07442"
       y1="38.092419"
       x2="244.70574"
       y2="38.092419" />
    <linearGradient
       inkscape:collect="always"
       xlink:href="#WhiteTransparent"
       id="linearGradient18394"
       gradientUnits="userSpaceOnUse"
       gradientTransform="matrix(0.447934,-2.532835e-16,-9.152943e-16,1.781820,-188.2970,-50.12724)"
       x1="534.58689"
       y1="34.252780"
       x2="608.71331"
       y2="34.831812" />
    <linearGradient
       inkscape:collect="always"
       xlink:href="#TransparentBlack"
       id="linearGradient18397"
       gradientUnits="userSpaceOnUse"
       gradientTransform="matrix(0.298576,-1.810138e-16,-1.198820e-15,2.674791,-174.7936,-56.44481)"
       x1="840.09133"
       y1="24.071343"
       x2="887.12704"
       y2="24.071343" />
    <linearGradient
       inkscape:collect="always"
       xlink:href="#WhiteTransparent"
       id="linearGradient18400"
       gradientUnits="userSpaceOnUse"
       gradientTransform="matrix(0.314728,-1.779633e-16,-1.302679e-15,2.535951,-188.2970,-50.12724)"
       x1="743.85612"
       y1="23.443399"
       x2="794.98128"
       y2="24.071052" />
    <linearGradient
       inkscape:collect="always"
       xlink:href="#linearGradient3970"
       id="linearGradient18404"
       gradientUnits="userSpaceOnUse"
       gradientTransform="matrix(0.502210,0.406983,-0.819533,0.923520,-113.0195,-156.0454)"
       x1="361.69760"
       y1="16.918520"
       x2="388.51957"
       y2="25.615282" />
  </defs>
  <path
     style="fill:#c1665a;fill-opacity:1.0000000;fill-rule:evenodd;stroke:none;stroke-width:1.8350182pt;stroke-linecap:butt;stroke-linejoin:miter;stroke-opacity:1.0000000"
     d="M 77.998152,6.9647950 C 74.525563,4.1506570 70.048485,3.7799380 67.959862,6.1335820 L 40.152829,37.469002 C 38.064206,39.822646 39.178374,43.982989 42.650965,46.797125 L 51.775370,54.191408 C 55.247960,57.005545 59.725038,57.376267 61.813660,55.022623 L 89.620694,23.687204 C 91.709316,21.333560 90.595149,17.173216 87.122557,14.359079 L 77.998152,6.9647950 z "
     id="path10591" />
  <path
     style="fill:url(#linearGradient18404);fill-opacity:1.0000000;fill-rule:evenodd;stroke:none;stroke-width:1.8350182pt;stroke-linecap:butt;stroke-linejoin:miter;stroke-opacity:1.0000000"
     d="M 82.047862,11.239472 C 76.716777,6.9192380 70.320484,5.8127350 67.706395,8.7585210 L 45.737342,33.515191 C 43.123252,36.460976 45.310580,42.310514 50.641665,46.630746 C 55.972744,50.950974 62.369036,52.057477 64.983125,49.111692 L 86.952179,24.355023 C 89.566267,21.409237 87.378942,15.559699 82.047862,11.239472 z "
     id="path10592" />
  <path
     style="fill:#d1940c;fill-opacity:1.0000000;fill-rule:evenodd;stroke:none;stroke-width:1.8350182pt;stroke-linecap:butt;stroke-linejoin:miter;stroke-opacity:1.0000000"
     d="M 60.260500,18.426955 L 14.913458,64.018741 L 35.065044,81.903467 L 80.412085,36.311680 L 60.260500,18.426955 z "
     id="path10593"
     sodipodi:nodetypes="ccccc" />
  <rect
     style="fill:url(#linearGradient18400);fill-opacity:1.0000000;fill-rule:evenodd;stroke:none;stroke-width:1.8350182pt;stroke-linecap:butt;stroke-linejoin:miter;stroke-opacity:1.0000000"
     id="rect10594"
     width="7.0800300"
     height="57.047596"
     x="54.827450"
     y="-17.608116"
     transform="matrix(0.776917,0.629603,-0.663741,0.747962,0.000000,0.000000)" />
  <rect
     style="fill:url(#linearGradient18397);fill-opacity:1.0000000;fill-rule:evenodd;stroke:none;stroke-width:1.8350182pt;stroke-linecap:butt;stroke-linejoin:miter;stroke-opacity:1.0000000"
     id="rect10595"
     width="6.7154093"
     height="60.159752"
     x="76.038055"
     y="-22.138977"
     transform="matrix(0.747921,0.663788,-0.705201,0.709007,0.000000,0.000000)" />
  <rect
     style="fill:url(#linearGradient18394);fill-opacity:1.0000000;fill-rule:evenodd;stroke:none;stroke-width:1.8350182pt;stroke-linecap:butt;stroke-linejoin:miter;stroke-opacity:1.0000000"
     id="rect10596"
     width="14.335936"
     height="57.026524"
     x="61.729923"
     y="-17.608116"
     transform="matrix(0.776917,0.629603,-0.663741,0.747962,0.000000,0.000000)" />
  <rect
     style="fill:url(#linearGradient18391);fill-opacity:1.0000000;fill-rule:evenodd;stroke:none;stroke-width:1.8350182pt;stroke-linecap:butt;stroke-linejoin:miter;stroke-opacity:1.0000000"
     id="rect10597"
     width="28.406395"
     height="17.751482"
     x="54.827450"
     y="-32.100845"
     transform="matrix(0.776917,0.629603,-0.663741,0.747962,0.000000,0.000000)" />
  <path
     style="fill:#bab5ab;fill-opacity:1.0000000;fill-rule:evenodd;stroke:none;stroke-width:1.8350182pt;stroke-linecap:butt;stroke-linejoin:miter;stroke-opacity:1.0000000"
     d="M 16.418382,64.018647 L 7.4303004,95.524384 L 38.487799,81.903451 L 36.460892,73.399026 L 25.323054,64.373051 L 16.418382,64.018647 z "
     id="path10598"
     sodipodi:nodetypes="cccccc" />
  <path
     style="fill:url(#linearGradient18387);fill-opacity:1.0000000;fill-rule:evenodd;stroke:none;stroke-width:1.8350182pt;stroke-linecap:butt;stroke-linejoin:miter;stroke-opacity:1.0000000"
     d="M 16.418382,64.018647 L 7.4303004,95.524384 L 38.487799,81.903451 L 36.460892,73.399026 L 25.323054,64.373051 L 16.418382,64.018647 z "
     id="path10599"
     sodipodi:nodetypes="cccccc" />
  <path
     style="fill:url(#linearGradient18384);fill-opacity:1.0000000;fill-rule:evenodd;stroke:none;stroke-width:1.8350182pt;stroke-linecap:butt;stroke-linejoin:miter;stroke-opacity:1.0000000"
     d="M 16.418382,64.018647 L 7.4303004,95.524384 L 38.487799,81.903451 L 36.460892,73.399026 L 25.323054,64.373051 L 16.418382,64.018647 z "
     id="path10600"
     sodipodi:nodetypes="cccccc" />
  <path
     style="fill:url(#linearGradient18381);fill-opacity:1.0000000;fill-rule:evenodd;stroke:none;stroke-width:1.8350182pt;stroke-linecap:butt;stroke-linejoin:miter;stroke-opacity:1.0000000"
     d="M 16.418382,64.018647 L 7.4303004,95.524384 L 38.487799,81.903451 L 36.460892,73.399026 L 25.323054,64.373051 L 16.418382,64.018647 z "
     id="path10601"
     sodipodi:nodetypes="cccccc" />
  <path
     style="fill:#565248;fill-opacity:1.0000000;fill-rule:evenodd;stroke:none;stroke-width:0.28139477pt;stroke-linecap:butt;stroke-linejoin:miter;stroke-opacity:1.0000000"
     d="M 9.9943049,86.687040 L 7.4651059,95.552589 L 16.204525,91.719732 L 9.9943049,86.687040 z "
     id="path10602"
     sodipodi:nodetypes="cccc" />
  <path
     style="fill:url(#linearGradient18377);fill-opacity:1.0000000;fill-rule:evenodd;stroke:none;stroke-width:1.8350182pt;stroke-linecap:butt;stroke-linejoin:miter;stroke-opacity:1.0000000"
     d="M 17.305434,65.336816 C 14.632730,74.702623 11.960021,84.068431 9.2873149,93.434237 C 18.507805,89.386568 27.728297,85.338901 36.948787,81.291231 C 36.305750,78.817449 35.964591,76.143985 34.853509,73.922479 C 31.446029,71.161095 28.038545,68.399709 24.631064,65.638325 C 22.189186,65.537823 19.747311,65.437319 17.305434,65.336816 z "
     id="path10603" />
  <path
     sodipodi:nodetypes="cccccccccccccccc"
     id="path2308"
     d="M 72.454816,4.5267780 C 70.640396,4.3765360 68.980462,4.8727150 67.936157,6.0495380 L 63.977137,10.500002 L 63.885255,10.428457 L 52.113856,23.718904 L 16.396319,63.934970 L 7.4461976,95.462278 L 16.217038,91.636407 L 38.471233,81.839483 L 44.390007,75.162727 L 74.182340,41.589765 L 86.557879,27.988225 L 89.637106,23.634224 C 91.725716,21.280581 90.583617,17.120192 87.111028,14.306055 L 77.989793,6.8888120 C 76.253498,5.4817420 74.269237,4.6770200 72.454816,4.5267780 z "
     style="fill:none;fill-opacity:1.0000000;fill-rule:evenodd;stroke:#333333;stroke-width:1.8350187pt;stroke-linecap:butt;stroke-linejoin:miter;stroke-opacity:0.94117647" />
  <path
     style="fill:#b1b1b1;fill-opacity:1.0000000;fill-rule:evenodd;stroke:#333333;stroke-width:2.0000007;stroke-linecap:butt;stroke-linejoin:miter;stroke-miterlimit:4.0000000;stroke-opacity:1.0000000"
     d="M 66.343750,18.156250 C 70.536696,44.250398 74.769401,70.341364 78.937500,96.437500 C 78.170421,98.180685 75.205815,97.551269 73.561375,98.227069 C 69.992659,99.108504 66.335293,101.41327 65.623316,105.29796 C 64.434058,107.77629 64.863788,110.62278 65.098225,113.23524 C 66.052407,115.80521 66.843042,118.48399 69.196800,120.14674 C 70.847603,121.89883 73.376273,122.68385 75.602085,123.43825 C 81.734244,125.01880 88.338313,121.51944 90.936242,115.83201 C 93.243582,111.43251 92.987631,105.62968 89.593750,101.84375 C 87.111325,98.068306 83.306420,94.485781 83.104893,89.752687 C 83.862394,87.265340 85.955029,84.985324 85.350352,82.138856 C 84.364493,70.116947 83.493773,58.066336 82.472847,46.059457 C 81.220612,38.655845 78.162192,31.736927 73.736635,25.704443 C 71.896599,22.273728 68.762495,19.883289 66.156250,17.062500 C 66.218750,17.427083 66.281250,17.791667 66.343750,18.156250 z M 80.250000,101.96875 C 83.240882,102.78636 85.664913,105.11825 86.348458,108.17522 C 87.296102,112.18824 84.657001,116.79694 80.522660,117.67130 C 76.436512,118.97275 71.657460,116.15950 70.714631,111.96778 C 69.437160,107.89413 72.200643,103.08416 76.407221,102.15213 C 77.586540,101.54381 78.979422,102.04522 80.250000,101.96875 z "
     id="path3996" />
  <path
     style="fill:url(#linearGradient18344);fill-opacity:0.75000000;fill-rule:evenodd;stroke:none;stroke-width:1.0000000pt;stroke-linecap:butt;stroke-linejoin:miter;stroke-opacity:1.0000000"
     d="M 78.364500,86.385736 L 68.619083,21.072420 C 68.619083,21.072420 81.172568,35.771805 81.494461,51.758721 C 81.816342,67.745640 84.404434,81.466355 84.404434,83.438944 L 78.364500,86.385736 z "
     id="path3997"
     sodipodi:nodetypes="ccccc" />
  <path
     style="fill:#424242;fill-opacity:1.0000000;fill-rule:evenodd;stroke:none;stroke-width:2.0000000;stroke-linecap:butt;stroke-linejoin:miter;stroke-miterlimit:4.0000000;stroke-opacity:1.0000000"
     d="M 85.070882,82.859598 C 85.459669,89.594857 77.161476,86.552869 89.302314,102.04897 C 94.951128,108.33456 91.409184,117.80926 85.513934,121.51764 C 78.762427,125.76464 70.253393,122.44955 67.225687,117.63638 C 63.399579,111.55398 64.816820,103.32282 69.511664,100.25750 C 74.377973,97.084331 79.775664,98.827431 79.278297,96.388252 L 77.292294,81.802004 L 85.070882,82.859598 z M 73.938545,102.70733 C 69.963366,105.20789 68.766352,110.46462 71.266910,114.43980 C 73.767481,118.41500 79.024221,119.61202 82.999388,117.11146 C 86.974572,114.61089 88.171612,109.35415 85.671046,105.37896 C 83.170474,101.40378 77.913730,100.20676 73.938545,102.70733 z "
     id="path3998"
     sodipodi:nodetypes="ccccccccccccc" />
  <path
     style="fill:url(#linearGradient18338);fill-opacity:1.0000000;fill-rule:evenodd;stroke:url(#linearGradient18340);stroke-width:0.77568901;stroke-linecap:butt;stroke-linejoin:miter;stroke-miterlimit:4.0000000;stroke-opacity:1.0000000"
     d="M 78.029238,83.543291 C 78.595992,87.839379 79.235243,92.139048 79.756997,96.432921 C 79.520179,98.720900 76.686772,98.291358 75.047673,98.832503 C 71.614203,99.297877 68.177220,101.18688 66.743801,104.46641 C 64.035983,110.27915 66.120492,118.23655 72.032617,121.20994 C 75.036944,122.89998 78.731522,123.17404 82.050070,122.43396 C 85.364810,121.67657 87.832668,119.12755 89.632974,116.37497 C 91.098855,113.56546 92.089345,110.38852 91.333620,107.21013 C 90.608378,103.89251 88.003913,101.44070 86.207267,98.661342 C 84.473229,96.296632 83.087669,93.702952 82.238937,90.906835 C 81.862871,88.132784 84.413109,86.201626 84.501479,83.515866 C 82.622313,82.645623 80.375257,82.908094 78.358335,82.418875 C 77.549533,82.470877 78.060502,83.038521 78.029238,83.543291 z M 72.228905,103.41252 C 76.005204,99.634578 83.106998,100.31667 85.914889,104.93921 C 88.987382,109.17567 87.157287,115.91548 82.325722,118.00000 C 77.729168,120.37254 71.183438,117.69785 70.000001,112.53173 C 68.940537,109.66827 69.743551,106.27301 71.765040,104.02308 C 71.922558,103.82232 72.064285,103.60708 72.228905,103.41252 z "
     id="path3999" />
  <path
     style="fill:#b7b7b7;fill-opacity:1.0000000;fill-rule:evenodd;stroke:#333333;stroke-width:2.0000000;stroke-linecap:butt;stroke-linejoin:miter;stroke-miterlimit:4.0000000;stroke-opacity:1.0000000"
     d="M 104.56250,66.031250 C 100.52910,68.160068 99.393736,72.942899 98.789091,77.101979 C 98.815764,79.826717 95.718209,78.080822 94.165670,78.094243 C 68.892314,74.017448 43.614030,69.970303 18.343750,65.875000 C 21.487433,68.991962 24.455326,72.309500 28.424322,74.395812 C 35.864165,79.746593 44.947196,82.627125 54.133697,82.777949 C 64.385613,83.498196 74.641171,84.587083 84.890890,85.083842 C 87.973053,85.271063 90.317973,81.481079 93.437081,83.254609 C 99.053437,85.054673 102.75822,90.487382 108.46875,92.000000 C 116.59709,93.511721 125.47404,86.688020 125.04110,78.201461 C 125.19182,75.103705 123.64956,72.203949 122.15262,69.628685 C 120.42290,67.779420 118.64098,66.007340 116.07686,65.443242 C 113.80989,64.240990 111.08545,64.603448 108.63334,64.674303 C 107.27639,65.126619 105.91945,65.578934 104.56250,66.031250 z M 115.56250,71.312500 C 118.71861,73.510011 120.31806,77.887152 118.51388,81.427005 C 117.05418,85.469039 111.76619,87.463124 107.94799,85.513883 C 104.38967,84.221243 102.39198,79.854413 103.37618,76.276508 C 104.23466,72.318620 108.26917,69.691528 112.23333,70.162565 C 113.36216,70.387282 114.45357,70.958237 115.56250,71.312500 z "
     id="path4000" />
  <path
     style="fill:#4a4a4a;fill-opacity:1.0000000;fill-rule:evenodd;stroke:none;stroke-width:2.0000000;stroke-linecap:butt;stroke-linejoin:miter;stroke-miterlimit:4.0000000;stroke-opacity:0.57232702"
     d="M 84.144338,84.799708 C 90.879597,85.188494 87.837609,76.890301 103.33371,89.031140 C 109.61930,94.679958 119.09399,91.138020 122.80238,85.242767 C 127.04937,78.491260 123.73428,69.982229 118.92111,66.954523 C 112.83871,63.128414 104.60755,64.545655 101.54223,69.240500 C 98.369068,74.106804 100.11217,79.504489 97.672992,79.007123 L 84.595104,76.883996 L 84.144338,84.799708 z M 103.99206,73.667381 C 106.49262,69.692201 111.74936,68.495186 115.72453,70.995746 C 119.69973,73.496315 120.89674,78.753058 118.39619,82.728219 C 115.89562,86.703406 110.63888,87.900442 106.66370,85.399871 C 102.68852,82.899301 101.49150,77.642559 103.99206,73.667381 z "
     id="path4001"
     sodipodi:nodetypes="ccccccccccccc" />
  <path
     style="fill:url(#linearGradient18333);fill-opacity:0.75000000;fill-rule:evenodd;stroke:none;stroke-width:1.0000000pt;stroke-linecap:butt;stroke-linejoin:miter;stroke-opacity:1.0000000"
     d="M 84.588782,77.417778 C 83.945015,76.988600 22.053161,67.209164 22.053161,67.209164 C 22.053161,67.209164 33.748289,79.977244 48.233084,80.942893 C 62.717874,81.908547 83.216565,84.093492 84.582204,83.941757 L 84.588782,77.417778 z "
     id="path4002"
     sodipodi:nodetypes="ccccc" />
  <path
     style="fill:url(#linearGradient18328);fill-opacity:1.0000000;fill-rule:evenodd;stroke:url(#linearGradient18330);stroke-width:0.77568901;stroke-linecap:butt;stroke-linejoin:miter;stroke-miterlimit:4.0000000;stroke-opacity:0.57232702"
     d="M 84.981412,83.940949 C 87.607694,83.707053 89.641688,81.254008 92.406238,81.883264 C 98.018386,83.098886 101.94147,87.810111 106.96419,90.187692 C 111.92277,92.376222 117.87782,89.991874 121.19820,85.976274 C 126.07218,80.310340 124.04554,70.614526 117.53724,67.106377 C 114.70862,65.698021 111.42012,65.275804 108.32489,65.921578 C 104.50641,66.549204 101.29063,69.719284 100.67031,73.560763 C 100.13828,75.325730 99.942585,77.298135 99.310843,78.963357 C 97.148144,80.515664 94.501810,79.006934 92.128599,78.875576 C 89.860476,78.511748 87.592349,78.147917 85.324221,77.784094 C 85.209950,79.836377 85.095683,81.888665 84.981412,83.940949 z M 104.49412,71.805499 C 108.20880,67.828693 115.49815,68.185303 118.60190,72.744879 C 121.87916,76.873656 120.37727,83.671544 115.79437,86.155308 C 111.42762,88.836284 105.10479,86.902813 102.95895,82.266118 C 101.32427,78.981168 101.92656,74.840095 104.30685,72.065422 C 104.41443,72.016800 104.41389,71.877155 104.49412,71.805499 z "
     id="path4006" />
</svg>
