<?xml version="1.0" encoding="UTF-8" standalone="no"?>
<svg
   xmlns:dc="http://purl.org/dc/elements/1.1/"
   xmlns:cc="http://web.resource.org/cc/"
   xmlns:rdf="http://www.w3.org/1999/02/22-rdf-syntax-ns#"
   xmlns:svg="http://www.w3.org/2000/svg"
   xmlns="http://www.w3.org/2000/svg"
   xmlns:sodipodi="http://inkscape.sourceforge.net/DTD/sodipodi-0.dtd"
   xmlns:inkscape="http://www.inkscape.org/namespaces/inkscape"
   viewBox="0 0 480.0 360.0"
   id="svg2415"
   sodipodi:version="0.32"
   inkscape:version="0.42"
   width="210mm"
   height="297mm"
   sodipodi:docname="3com812.svg"
   sodipodi:docbase="/home/vjrj/proyectos/tid/guadalinex2005/dev/adsl_assistant/bb-assist">
  <metadata
     id="metadata2850">
    <rdf:RDF>
      <cc:Work
         rdf:about="">
        <dc:format>image/svg+xml</dc:format>
        <dc:type
           rdf:resource="http://purl.org/dc/dcmitype/StillImage" />
      </cc:Work>
    </rdf:RDF>
  </metadata>
  <defs
     id="defs2848" />
  <sodipodi:namedview
     inkscape:cy="526.18109"
     inkscape:cx="372.04724"
     inkscape:zoom="0.54543959"
     inkscape:window-height="739"
     inkscape:window-width="918"
     inkscape:pageshadow="2"
     inkscape:pageopacity="0.0"
     borderopacity="1.0"
     bordercolor="#666666"
     pagecolor="#ffffff"
     id="base"
     inkscape:window-x="98"
     inkscape:window-y="0"
     inkscape:current-layer="svg2415" />
  <path
     stroke="none"
     fill="#a78f71"
     d="M65 127L65 128L80 131C79.7101 128.073 80.1053 126.611 77 126L77 125L82 122L83 122L84 125L89 124L92 127L93 124L90 121C93.6009 121 98.8548 119.581 98 123L103 120L100 119L100 118L105 121L106 121L111 115L115 116C117.232 112.022 119.526 111.146 124 111L122 114L128 117C126.956 112.303 126.652 110.115 132 109L132 108L130 105L137 108L136 104L145 104L146 98L158 99L156 102L164 103L163 97L166 95L169 97L170 93L193 90L199 85L199 89L200 89C202.252 84.7088 205.366 84.112 210 84L209 81C223.725 76.3307 237.972 78.9586 253 79C242.477 74.4606 227.272 77 216 77C202.105 77 187.527 75.842 174 79.6335C135.657 90.3803 102.966 116.067 65 127z"
     id="path2505"
     inkscape:export-filename="/home/vjrj/proyectos/tid/guadalinex2005/dev/adsl_assistant/bb-assist/3com812.png"
     inkscape:export-xdpi="20.273539"
     inkscape:export-ydpi="20.273539" />
  <path
     stroke="none"
     fill="#b7a07d"
     d="M217 84L217 85L220 85L220 86L213 87L208 85C203.168 90.0896 189.931 95.5298 183 96L183 97L185 98L178 99L178 102C173.23 102.208 168.553 102.615 166 107L165 107L165 104L159 107L154 106L153 111L153 107L149 109L151 112L147 112L143 117L133 113L131 116L134 117L135 123L133 121L128 123L125 116L124 121L123 121L113 120L112 122L112 123L119 122L117 127L109 125L110 128L101 128L99 132L105 135L105 131L108 132L106 134L106 135L113 136L113 135L110 134L123 132L119 141L122 140L121 142L122 142L133 142L133 139L129 139L131 137L130 135L136 135L142 123L144 123L145 127L146 127L151 121L163 121L162 116L169 117L178 110L171 113L171 112L181 110L181 108L187 109C188.975 100.599 197.15 96.014 205 97C207.528 92.8608 212.465 92.8153 217 93L217 88L222 88C224.26 91.5737 232.124 86.8643 234 84L237 87L236 84L239 85L245 78L220.25 78.3333z"
     id="path2507"
     inkscape:export-filename="/home/vjrj/proyectos/tid/guadalinex2005/dev/adsl_assistant/bb-assist/3com812.png"
     inkscape:export-xdpi="20.273539"
     inkscape:export-ydpi="20.273539" />
  <path
     stroke="none"
     fill="#b09a79"
     d="M210 84C205.336 84.0422 201.556 84.0744 200 89L199 89L199 85L193 90C183.673 84.9117 179.018 92.8607 170 93L169 97L166 95L163 97L164 103L156 102L158 99L146 98L145 104L136 104L137 108L130 105L132 108L132 109C122.306 109 129.069 116.767 126 116L128 123L135 123L134 117L131 117L131 116L133 113L143 117L147 112L151 112L149 109L153 107L153 111L154 106L159 107C161.362 105.141 163.026 104.518 165 107L166 107L178 102L178 99L183 97L183 96C189.202 95.902 204.76 90.6129 208 85L213 87L220 86L220 85L217 85L217 84L220 84L219 79C214.881 79.0882 209.914 78.9819 210 84z"
     id="path2509"
     inkscape:export-filename="/home/vjrj/proyectos/tid/guadalinex2005/dev/adsl_assistant/bb-assist/3com812.png"
     inkscape:export-xdpi="20.273539"
     inkscape:export-ydpi="20.273539" />
  <path
     stroke="none"
     fill="#bba582"
     d="M239 85L236 84L237 87L234 84L233 87L222 88L217 88L217 93C212.56 92.316 206.658 92.1766 205 97C197.8 95.6642 186.836 100.323 187 109L181 108L181 110L171 112L171 113L178 110L180 117C183.444 110.734 192.802 111.448 198.96 109.494C203.233 108.138 210.532 100.627 213 97L217 100L218 100L218 95L219 98C225.672 97.8402 235.419 98.1281 235 90L244 90L244 89L238 88L238 87L251 90L255 85L280 85L280 84L277 83L277 82L289 83C280.262 77.734 259.272 78.6902 249 79C245.073 79.1185 239.869 80.9258 239 85z"
     id="path2511"
     inkscape:export-filename="/home/vjrj/proyectos/tid/guadalinex2005/dev/adsl_assistant/bb-assist/3com812.png"
     inkscape:export-xdpi="20.273539"
     inkscape:export-ydpi="20.273539" />
  <path
     stroke="none"
     fill="#c1a887"
     d="M277 82L277 83L280 84L280 85L255 85L251 90L238 87L238 88L244 89L244 90L235 90C235.027 97.3156 222.88 99.6344 218 95L218 100L217 100L213 97C209.346 100.567 203.649 107.256 198.96 109.157C191.035 112.371 178.397 111.077 175 121L172 120C174.469 123.612 176.756 123.949 181 124L179 120L182 116L183 116L189 120L188 117L192 119L190 116L192 112L196 114L193 114L194 118L200 112L204 113L202 116L212 115L211 111L217 114L218 114L222 109L221 102L224 104L223 109L240 100L240 99L237 99L237 98L240 97L237 96L240 93L244 94L243 97L250 98L250 99L246 99C245.82 104.554 249.113 104.942 254 105L256 102L255 98L260 102L261 102L266 92L271 94L272 91L279 91L279 90L271 90L271 89L280 86L279 89C282.694 89.895 285.678 89.1115 288 86L291 87L291 83z"
     id="path2515"
     inkscape:export-filename="/home/vjrj/proyectos/tid/guadalinex2005/dev/adsl_assistant/bb-assist/3com812.png"
     inkscape:export-xdpi="20.273539"
     inkscape:export-ydpi="20.273539" />
  <path
     stroke="none"
     fill="#ccb28c"
     d="M291 87L288 86C285.264 88.6433 280.973 91.0912 280 86L271 89L271 90L279 90L279 91L272 91L271 94L266 92L261 102L260 102L255 98L256 102L254 105C250.489 105 246.854 104.013 246 108L239 108L239 109L242 109L242 110L239 111L240 114C234.4 114.175 227.971 115.852 225 121L222 120L208 128L212 127L211 130C206.548 128.983 204.048 129.199 203 134L202 134L198 133L200 139L205 140L208 136L207 140L216 141L216 140L213 140L214 137L205 134L205 133L211 134L232 130L240 129L240 126L245 125L245 120L240 122L242 117L267 111L271 109L269 106L281 103L280 101L283 104L279 104L280 108L269 110L270 113L256 112L255 115L248 116L247 123L253 121L254 128L255 128L263 122L261 126L261 127L268 126L269 120L276 122L275 119C277.9 117.261 278.095 116.149 277 113L282 112C282.114 105.843 291.007 101.644 296 99L296 100L294 101L297 103C301.951 100.432 310.349 105.705 310 96L317 95L317 90L317 89L316 87C310.811 86.455 292.388 80.5244 291 87z"
     id="path2517"
     inkscape:export-filename="/home/vjrj/proyectos/tid/guadalinex2005/dev/adsl_assistant/bb-assist/3com812.png"
     inkscape:export-xdpi="20.273539"
     inkscape:export-ydpi="20.273539" />
  <path
     stroke="none"
     fill="#cfb791"
     d="M315 88L315 89L317 90L317 95L310 96C308.174 105.735 301.76 99.2807 297 103L296 100L296 99C290.317 100.817 281.763 105.497 282 112L277 113L275 119L276 122L269 120L270 123L269 127L272 125C273.305 127.08 274.181 127.941 276 126L282 127L283 123L277 121L282 122L281 118L281 117L285 117L285 122C288.032 121.785 288.946 122.132 290 125L300 119L298 123L304 129L304 128L301 126L301 125L304 122L308 123L313 120L313 121L311 122L315 123L315 124L309 124L313 127L312 130L316 130L316 135L317 135L317 130L320 129L322 125L322 124L316 124L317 117C311.059 119.072 309.665 116.843 312 112L300 112L302 109L298 106L314 106L327 107L327 108L322 112L333 110L335 115L340 111L340 110L338 108L344 104L342 107L341 107L338 103L339 100L336 96L352 97L357 104L358 104C362.217 100.695 368.406 104.31 373 106L374 101C356.514 94.4822 333.717 88.1549 315 88z"
     id="path2529"
     inkscape:export-filename="/home/vjrj/proyectos/tid/guadalinex2005/dev/adsl_assistant/bb-assist/3com812.png"
     inkscape:export-xdpi="20.273539"
     inkscape:export-ydpi="20.273539" />
  <path
     stroke="none"
     fill="#c9af8c"
     d="M239 93L237 96L240 97L237 98L237 99L240 99L240 100C235.482 100.809 232.359 101.915 230 106C237.313 106.832 230.198 111.686 229 115L228 115L210 118L208 121L208 122L212 122L212 123L206 123L207 127L199 128L199 127L203 125L200 126L197 123L186 127L186 128L192 130L187 129L192 134L181 134L181 135L185 134L184 142L179 143L178 139L165 146L165 147L171 148C167.126 155.624 188.079 158.23 193 157C197.064 162.331 205.227 160.248 211 160L211 159L199 156L208 155L206 153L206 152L213 152L213 151L205 150L205 152L196 151L196 152L202 152L202 153L183 155L182 153L182 152L189 152L189 151L181 150C182.928 146.859 185.686 145.655 188 149L189 149L185 142L198 143L197 137L200 136L198 133L202 134L203 134L212 127L208 128L222 120L225 121C229.113 116.648 234.066 114.489 240 114L239 111L242 110L242 109L239 109L239 108L246 108L246 99L250 99L250 98C246.595 97.7411 244.916 97.4052 244 94z"
     id="path2531"
     inkscape:export-filename="/home/vjrj/proyectos/tid/guadalinex2005/dev/adsl_assistant/bb-assist/3com812.png"
     inkscape:export-xdpi="20.273539"
     inkscape:export-ydpi="20.273539" />
  <path
     stroke="none"
     fill="#d1b893"
     d="M336 96L338 103L341 107L342 107L344 104L338 108L340 110L340 111L335 115L333 110L322 112L327 108L327 107L314 106L298 106L302 109L300 112L312 112L309 114C310.396 118.305 313.074 118.745 317 117L316 124L322 124L322 125L319 127C322.099 126.706 323.956 126.885 325 130L330 134L337 132L335 129L340 127C342.058 129.826 343.663 129.706 347 129C345.433 125.417 343.917 123.658 340 123L342 118L347 118L347 117L344 116C346.427 111.596 350.34 111.727 355 112L354 108L373 107L373 106C368.892 103.977 361.285 99.5203 358 104L357 104L352 97z"
     id="path2533"
     inkscape:export-filename="/home/vjrj/proyectos/tid/guadalinex2005/dev/adsl_assistant/bb-assist/3com812.png"
     inkscape:export-xdpi="20.273539"
     inkscape:export-ydpi="20.273539" />
  <path
     stroke="none"
     fill="#d2b790"
     d="M280 101L281 103L280 103L269 106L271 109L267 111L242 117L240 122L245 120L245 125L240 126L241 128L240 129L232 128L232 133L236 129L236 134L240 132L236 139L235 139L235 134L234 134L230 141L236 144L233 150L225 149L241 160L239 155L240 154L244 155L241 150L247 151L247 152L244 152L244 153L251 153L249 150L253 149L254 152L259 149L258 144L251 144L252 139L249 132L245 131L245 129L252 129L252 128L250 122L247 123L248 116L255 115L256 112L270 113L269 110L280 108L279 104L283 104z"
     id="path2535"
     inkscape:export-filename="/home/vjrj/proyectos/tid/guadalinex2005/dev/adsl_assistant/bb-assist/3com812.png"
     inkscape:export-xdpi="20.273539"
     inkscape:export-ydpi="20.273539" />
  <path
     stroke="none"
     fill="#d1bb90"
     d="M372 102L373 107L362 108L362 109L366 109L366 110C361.356 112.628 361.011 115.219 363 120L363 126L364 126L367 123L364 122L364 121L370 119L371 123L377 118L374 117L374 116C377.617 117.43 379.917 118.915 380 123L376 122L376 127L381 128L379 124L383 126L384 133L390 134L391 134L392 134L394 130L384 130L386 128L388 116L400 116L398 119L402 120L401 117L413 116L413 115L407 113L407 112L409 112C399.657 106.921 382.629 100.82 372 102z"
     id="path2537"
     inkscape:export-filename="/home/vjrj/proyectos/tid/guadalinex2005/dev/adsl_assistant/bb-assist/3com812.png"
     inkscape:export-xdpi="20.273539"
     inkscape:export-ydpi="20.273539" />
  <path
     stroke="none"
     fill="#c5ab88"
     d="M221 102L222 109L218 114L217 114L211 111L212 115L202 116L204 113L200 112L194 118L193 114L196 114L192 112L190 116L192 119L188 117L189 120L183 116L182 116L179 120L181 124C175.308 124.068 166.379 130.061 174 135L172 140L178 139L179 143L184 142L185 134L181 135L181 134L192 134L187 129L192 130L186 128L186 127L200 126L203 125L199 127L199 128L207 127L206 123L212 123L212 122L208 122L208 121L210 118L228 115L229 115C230.194 113.003 233.736 111.124 234.079 108.846C235.106 102.045 224.884 106.963 223 109L224 104z"
     id="path2539"
     inkscape:export-filename="/home/vjrj/proyectos/tid/guadalinex2005/dev/adsl_assistant/bb-assist/3com812.png"
     inkscape:export-xdpi="20.273539"
     inkscape:export-ydpi="20.273539" />
  <path
     stroke="none"
     fill="#d2bb94"
     d="M354 108L355 112C350.506 111.285 345.612 111.138 344 116L347 117L347 118L342 118L340 123L344 125L350 124L352 119L353 122L353 130L356 129L356 134C353.007 134.064 351.654 133.946 351 137L354 136L360 139L356 141L356 142L365 141L365 140L362 141L363 135L362 131L363 131L367 137L373 137L373 138C367.452 138.184 365.599 140.461 366 146L372 146L372 147L367 147L367 148L380 148L380 153L393 147L392 144L397 149L393 149L394 152L398 150L400 144L392 140C392 143.56 387.014 143.042 386 140L390 140L390 137L390 136L384 135L383 126L379 124L381 128L376 127L376 122L380 123C380.168 118.581 378.159 117.014 374 116L374 117L377 118L371 123L370 119L364 121L364 122L367 123L364 126L363 126L363 120C361.616 115.139 362.039 113.229 366 110L366 109z"
     id="path2541"
     inkscape:export-filename="/home/vjrj/proyectos/tid/guadalinex2005/dev/adsl_assistant/bb-assist/3com812.png"
     inkscape:export-xdpi="20.273539"
     inkscape:export-ydpi="20.273539" />
  <path
     stroke="none"
     fill="#b59f7b"
     d="M115 116L111 115L106 121L105 121L100 118L100 119L103 120L98 123L93 120L96 125L92 127L89 124L84 125L83 122L82 122L77 125L77 126L80 126L80 131L65 128L64 133L91 138.704L101 139L96 136L115 138L119 141L123 132L110 134L113 135L113 136L106 135L106 134L108 132L107 131L106 131L105 131L105 135L99 132L101 128L110 128L109 125L117 127L119 122L112 123L112 122L113 120L123 121L124 121L126 115L122 114L124 111C119.395 111.055 116.69 111.404 115 116z"
     id="path2543"
     inkscape:export-filename="/home/vjrj/proyectos/tid/guadalinex2005/dev/adsl_assistant/bb-assist/3com812.png"
     inkscape:export-xdpi="20.273539"
     inkscape:export-ydpi="20.273539" />
  <path
     stroke="none"
     fill="#d0b993"
     d="M407 112L407 113L413 115L413 116L406 117L406 118L417 118L415 122C420.412 122.281 423.306 124.188 427 128L424 129C423.025 125.67 421.248 125.371 418 126L417 123L412 124L408 128L410 131L406 137L410 138C409.46 141.675 410.464 142.927 414 144L414 143L411 138L418 137L415 141L422 139L418 146L404 145L406 155L408 156L409 156C411.286 152.786 414.461 154.581 418 155L418 156C412.763 156.603 410.756 160.114 416 163L414 158L420 159L418 167L409 166C410.078 171.03 422.934 168.441 427 167L426 164L430.417 155L437.972 143.778L446 125C436.356 118.902 418.376 112.521 407 112z"
     id="path2545"
     inkscape:export-filename="/home/vjrj/proyectos/tid/guadalinex2005/dev/adsl_assistant/bb-assist/3com812.png"
     inkscape:export-xdpi="20.273539"
     inkscape:export-ydpi="20.273539" />
  <path
     stroke="none"
     fill="#bea786"
     d="M175 113L169 117L162 116L163 121L151 121L146 127L145 127L144 123L142 123L136 135L130 135L131 137L129 139L133 139L133 142L121 142L122 140L121 140L115 138L96 136C100.414 142.801 111.02 141.975 118 144.384C139.3 151.736 163.594 158.968 186 162L186 161L148.001 150.824L134 148L132 146L132 145L147 147C144.66 143.186 142.194 142.806 138 144L137 143C138.159 140.927 139.849 133.961 142 138L146 137L145 140L148 139L143 135L143 134L152 137L156 136L154 132L150 133L151 129L156 131L163 128L163 129L159 130L165 133L164 129L170 122L174 123L172 120L175 121L178 117L177 113z"
     id="path2547"
     inkscape:export-filename="/home/vjrj/proyectos/tid/guadalinex2005/dev/adsl_assistant/bb-assist/3com812.png"
     inkscape:export-xdpi="20.273539"
     inkscape:export-ydpi="20.273539" />
  <path
     stroke="none"
     fill="#d1ba95"
     d="M388 116L386 128L384 130L394 130L392 134L391 134L390 134C387.809 131.587 385.74 132.53 384 135L390 136L390 137L388 138L390 140L386 140C386.839 143.893 389.703 142.346 393 142L392 135L404 142C404.668 146.832 414.092 145.263 418 146L422 139L415 141L418 137L411 138L414 143L414 144L410 138L406 137L410 131L408 128L412 124L417 123L418 126L424 129L427 128C423.784 123.425 420.531 122.13 415 122L417 118L401 117L402 120L398 119L400 116z"
     id="path2551"
     inkscape:export-filename="/home/vjrj/proyectos/tid/guadalinex2005/dev/adsl_assistant/bb-assist/3com812.png"
     inkscape:export-xdpi="20.273539"
     inkscape:export-ydpi="20.273539" />
  <path
     stroke="none"
     fill="#d2b893"
     d="M281 117L281 118L282 122L277 121L283 123L282 127L276 126L272 125L261 127L261 126L263 122L255 128L254 128L253 121L249 121L252 128L252 129L245 129L245 131L249 132L248 135L252 139L251 144L258 143L258 142L254 140L263 141L263 142L261 143L267 144C266.204 150.13 269.816 150.285 275 150L275 152L271 155C274.3 154.39 284.008 149.716 276 148L277 143L296 139L295 144L301 138L303 140L309 138L312 139L313 127L309 124L315 124L315 123L311 122L313 121L313 120L308 123L304 122L301 125L301 126L304 128L304 129L298 123L300 119L290 125C289.144 121.97 288.081 121.717 285 122L285 117z"
     id="path2553"
     inkscape:export-filename="/home/vjrj/proyectos/tid/guadalinex2005/dev/adsl_assistant/bb-assist/3com812.png"
     inkscape:export-xdpi="20.273539"
     inkscape:export-ydpi="20.273539" />
  <path
     stroke="none"
     fill="#d4bb95"
     d="M349 119L350 124L345 125L345 126L347 129L344 130L344 131L348 131L348 132L346 135L333 138L339 149L345 149L348 145L348 147C353.58 145.315 361.291 146.268 362 153L361 150L353 155L353 156L358 158L364 158L361 155L370 160L373 157L372 161L378 163L380 160L380 159L380 148L367 148L367 147L372 147L372 146L366 146C366.049 140.754 367.621 138.371 373 138L373 137L367 137L363 131L362 131L363 135L362 141L365 140L365 141L356 142L356 141L360 139L354 136L351 137L356 134L356 129L353 130L353 122L352 119z"
     id="path2555"
     inkscape:export-filename="/home/vjrj/proyectos/tid/guadalinex2005/dev/adsl_assistant/bb-assist/3com812.png"
     inkscape:export-xdpi="20.273539"
     inkscape:export-ydpi="20.273539" />
  <path
     stroke="none"
     fill="#5c4231"
     d="M90 121L96 125z"
     id="path2557"
     inkscape:export-filename="/home/vjrj/proyectos/tid/guadalinex2005/dev/adsl_assistant/bb-assist/3com812.png"
     inkscape:export-xdpi="20.273539"
     inkscape:export-ydpi="20.273539" />
  <path
     stroke="none"
     fill="#c2a887"
     d="M170 122L164 129L165 133L159 130L163 129L163 128C160.039 128.191 156.462 127.751 156 131L151 129L150 133L154 132L156 136L152 137L143 134L143 135C145.604 136.344 147.439 137.615 145 140L146 137L142 138L141 135L140 135L137 143L138 144C142.22 143.129 144.115 143.807 147 147L132 145L132 146L134 148L149.004 151.388L170 153L171 148L165 147L165 146L174 141L172 139L172 138L174 135C169.887 130.925 173.038 127.847 174 123z"
     id="path2559"
     inkscape:export-filename="/home/vjrj/proyectos/tid/guadalinex2005/dev/adsl_assistant/bb-assist/3com812.png"
     inkscape:export-xdpi="20.273539"
     inkscape:export-ydpi="20.273539" />
  <path
     stroke="none"
     fill="#d3bb96"
     d="M444 125L431.04 153L426 164L427 167C422.103 168.043 411.981 170.546 409 166L418 167L420 159L414 158L416 163C412.02 159.597 413.026 157.041 418 156L418 155C414.447 154.448 410.037 151.159 409 156L408 156L406 155L405 144L403 144L404 142L392 135C391.488 140.143 395.638 142.251 400 144L398 150L394 152L393 149L397 149L392 144L393 147L386 151L387 154L380 156L394 163L394 164L391 167L391 168L395 168L393 171L397 173L401 173L412 174C414.199 175.94 415.642 174.176 417 172L422 177L415 176L415 177C418.156 177.924 422.874 181.509 425.956 181.38C431.751 181.137 435.127 163.487 436 159C431.982 159 435.984 153.287 437 151C440.494 143.138 446.23 134.405 448 126z"
     id="path2561"
     inkscape:export-filename="/home/vjrj/proyectos/tid/guadalinex2005/dev/adsl_assistant/bb-assist/3com812.png"
     inkscape:export-xdpi="20.273539"
     inkscape:export-ydpi="20.273539" />
  <path
     stroke="none"
     fill="#d4ba95"
     d="M319 127L320 129L317 130L317 135L316 135L316 130L311 130L312 139L309 138L301 138L295 144L296 139L277 143L276 148C280.328 150.886 276.502 153.597 273 155L273 156L281 163L282 163L286 158L282 159L288 156L285 161L285 162C291.526 162 302.228 164.144 304 156L298 154L294 157L296 146L302 145L301 148L301 149L304 150L303 154L310 153L310 152L306 152L306 151L311 150L311 149L308 149L308 148L312 147L316 148L312 144L315 145L315 143L318 145L319 145L322 140L332 146L335 142L333 138L346 135L348 132L348 131L340 127L335 129L337 132L330 134L325 130C324.279 126.423 322.379 126.242 319 127z"
     id="path2563"
     inkscape:export-filename="/home/vjrj/proyectos/tid/guadalinex2005/dev/adsl_assistant/bb-assist/3com812.png"
     inkscape:export-xdpi="20.273539"
     inkscape:export-ydpi="20.273539" />
  <path
     stroke="none"
     fill="#d3bb94"
     d="M448 126C444.293 134.381 440.179 142.584 436.523 151C435.512 153.328 432.507 158.404 436 159C434.123 166.177 431.825 178.117 425 182L422 190L423 183L414 182L415 176L422 177L417 172L412 174L401 173C399.444 171.187 398.556 171.187 397 173L393 171L395 168L391 168L391 167L394 167L394 164L394 163L385 161L377 171L377 172L383 171L388 175L385 184L390 182L391 182L391 187L395 187L395 188L393 190L386 185L380 185L375 188L377 183C373.688 184.113 372.996 185.552 373 189L368 190L372 196L371 191L377 194L376 191C381.612 190.738 383.045 192.454 387 196L391 191L392 192L391 197L387 197L386 201L395 198L396 203L401 203L405 206L405 207L392 208L392 209L395 212L415 212L418 200L412 222L417 213L419 215L433.258 176L441 155L440 155L440 157L439 157C441.148 149.147 453.262 132.991 448 126z"
     id="path2565"
     inkscape:export-filename="/home/vjrj/proyectos/tid/guadalinex2005/dev/adsl_assistant/bb-assist/3com812.png"
     inkscape:export-xdpi="20.273539"
     inkscape:export-ydpi="20.273539" />
  <path
     stroke="none"
     fill="#a78e72"
     d="M64 128C61.1897 138.554 84.2741 138.429 91.4244 141.46C101.02 145.527 112.009 145.791 122 148.595C142.831 154.442 166.324 164.067 188 165L188 164C147.144 155.567 106.156 134.838 64 133z"
     id="path2567"
     inkscape:export-filename="/home/vjrj/proyectos/tid/guadalinex2005/dev/adsl_assistant/bb-assist/3com812.png"
     inkscape:export-xdpi="20.273539"
     inkscape:export-ydpi="20.273539" />
  <path
     stroke="none"
     fill="#cbb38f"
     d="M211 134L205 133L205 134L216 140L216 141L207 140L208 136L205 140L200 139L200 136L198 136L197 137L198 143L185 142L189 149L188 149L188 146C184.53 146.248 182.039 146.449 181 150L189 151L189 152L182 152L183 155L202 153L202 152L196 152L196 151L205 152L205 150L216 152L216 146L218 144L222 145L220 138L225 136L225 142L228 139L234 134L235 134L235 139L236 139L240 132L236 134L236 129L232 133L233 129z"
     id="path2569"
     inkscape:export-filename="/home/vjrj/proyectos/tid/guadalinex2005/dev/adsl_assistant/bb-assist/3com812.png"
     inkscape:export-xdpi="20.273539"
     inkscape:export-ydpi="20.273539" />
  <path
     stroke="none"
     fill="#765c3f"
     d="M63 134L66 139L66 140L62 140L64 147L67 153C65.206 155.45 67.77 156.845 70 158L67 147L68 147C69.3331 152.139 70.1376 159.371 76.0154 161.378C81.4077 163.219 94.992 154.57 94 149C104.297 147.117 114.055 152.107 124 154.335C150.149 160.193 179.272 164.697 201 180L195 172C197.309 172.77 202.519 173.673 204 176C205.997 179.138 208.084 186.771 205 186L207 199L211 200L205 175C241.784 184.521 279.408 197.469 317 203L317 202L187 168.525z"
     id="path2573"
     inkscape:export-filename="/home/vjrj/proyectos/tid/guadalinex2005/dev/adsl_assistant/bb-assist/3com812.png"
     inkscape:export-xdpi="20.273539"
     inkscape:export-ydpi="20.273539" />
  <path
     stroke="none"
     fill="#ceb28e"
     d="M220 138L222 145L218 144L216 146L216 152L206 152L206 153L208 155L199 156C201.665 159.701 206.772 158.947 211 159L211 160C204.818 160.127 197.959 161.587 193 157L157 152L157 153C181.213 154.737 203.26 171.727 228 172L228 171L221 168L221 167L246 170L252 172C250.825 166.518 241.348 166.411 237 168L230 166L231 163L231 162L220 158L215 156L220 157L221 152L228 152L226 157L223 156C225.475 158.712 228.117 156.289 231 155L225 149L233 150L236 144L228 139L225 142L225 136z"
     id="path2575"
     inkscape:export-filename="/home/vjrj/proyectos/tid/guadalinex2005/dev/adsl_assistant/bb-assist/3com812.png"
     inkscape:export-xdpi="20.273539"
     inkscape:export-ydpi="20.273539" />
  <path
     stroke="none"
     fill="#c7a47e"
     d="M447 136L439 157L440 157L440 155L441 155L432 182L433 182C440.281 168.343 447.776 151.506 449 136z"
     id="path2577"
     inkscape:export-filename="/home/vjrj/proyectos/tid/guadalinex2005/dev/adsl_assistant/bb-assist/3com812.png"
     inkscape:export-xdpi="20.273539"
     inkscape:export-ydpi="20.273539" />
  <path
     stroke="none"
     fill="#9b7b5f"
     d="M78 138C81.4721 142.148 89.881 143.524 95 145C109.858 149.283 125.013 152.777 140 156.63C179.328 166.74 218.611 177.048 258 186.895C279.365 192.236 300.994 200.454 323 200L323 199C299.875 197.992 275.404 186.268 253 180.899C221.426 173.332 189.297 167.277 158.039 158.461C131.781 151.056 104.827 143.055 78 138z"
     id="path2579"
     inkscape:export-filename="/home/vjrj/proyectos/tid/guadalinex2005/dev/adsl_assistant/bb-assist/3com812.png"
     inkscape:export-xdpi="20.273539"
     inkscape:export-ydpi="20.273539" />
  <path
     stroke="none"
     fill="#d3b995"
     d="M254 140L258 142L258 143L254 143L254 144L258 144L259 149L254 152L253 149L249 152L253 151C254.643 155.073 257.018 154.699 261 154L260 150L264 149L267 151L267 152L263 152L264 155L258 158L263 157L271 166L269 167L269 168L272 170L287 167L285 174L292 174L290 176L290 177L292 179L281 177L281 176L285 176L285 175L282 175L283 171L278 170L273 172L273 173L281 173L279 179L297 181L294 182L294 183L325 191L325 192L314 193L314 194C320.303 193.857 327.633 192.583 331 199L339 200C341.453 207.047 360.033 211.558 367 213L354 206L354 205L358 204C358.291 194.388 355.246 196.74 349 192L335 193L335 192L339 189L335 190L326 188L326 187L329 187L329 186L322 185L322 186L325 186L325 187L306 183L306 182L310 182L310 181L299 179L303 174L305 170L301 166L313 161L311 166L318 156L313 154L316 155L315 152L317 143L312 144L316 148L312 147L308 148L308 149L311 149L311 150L306 151L306 152L310 152L310 153L303 154C302.745 151.026 304.435 149.416 301 149L301 148L302 145L296 146L294 157L298 154L304 156C301.176 163.704 291.81 162 285 162L285 161L288 156L282 159L286 158L282 163L281 163C279.257 158.796 277.73 156.376 273 156L273 155L275 155L275 154L271 155L275 152L275 150C269.83 150.099 267.047 149.825 267 144L261 143L263 142L263 141z"
     id="path2581"
     inkscape:export-filename="/home/vjrj/proyectos/tid/guadalinex2005/dev/adsl_assistant/bb-assist/3com812.png"
     inkscape:export-xdpi="20.273539"
     inkscape:export-ydpi="20.273539" />
  <path
     stroke="none"
     fill="#d4ba94"
     d="M322 140L317 144L315 152L316 155L313 154L314 157L318 156L313 164L337 158L336 161L347 161L347 162L344 160L343 160L340 166L340 167L342 169L339 168L339 177L342 176L343 174L341 171L355 173L357 170L357 169L353 169L355 167L346 167L346 165L352 165L353 165L358 160L358 159L353 156L353 155L362 153C362.674 146.047 353.069 144.617 348 147L348 145L345 149L339 149C338.217 144.494 335.875 144.122 332 146C329.824 141.672 326.643 140.642 322 140z"
     id="path2583"
     inkscape:export-filename="/home/vjrj/proyectos/tid/guadalinex2005/dev/adsl_assistant/bb-assist/3com812.png"
     inkscape:export-xdpi="20.273539"
     inkscape:export-ydpi="20.273539" />
  <path
     stroke="none"
     fill="#937a59"
     d="M67 147C68.4184 164.342 87.925 168.686 103 170L103 169C94.4358 166.57 79.5589 165.394 73.2245 158.856C69.9004 155.424 69.8268 150.588 67 147z"
     id="path2589"
     inkscape:export-filename="/home/vjrj/proyectos/tid/guadalinex2005/dev/adsl_assistant/bb-assist/3com812.png"
     inkscape:export-xdpi="20.273539"
     inkscape:export-ydpi="20.273539" />
  <path
     stroke="none"
     fill="#7d644a"
     d="M94 149C94.0021 154.885 83.8006 159.205 79 162L79 163L103 169L103 170L68 160C70.0195 165.509 74.8773 165.744 80 167.341C91.1149 170.807 103.394 175.987 115 177L115 176L104 171L104 170C110.533 171.041 116.473 165.124 109 161L112 157C108.899 148.608 102.683 146.938 94 149z"
     id="path2591"
     inkscape:export-filename="/home/vjrj/proyectos/tid/guadalinex2005/dev/adsl_assistant/bb-assist/3com812.png"
     inkscape:export-xdpi="20.273539"
     inkscape:export-ydpi="20.273539" />
  <path
     stroke="none"
     fill="#d2b993"
     d="M260 150L261 154C257.113 154.369 255.163 154.442 253 151L251 151C248.667 153.672 247.393 153.994 244 153L244 152L247 152L247 151L241 150L244 155L240 154L239 155L241 160L228 155L223 156L226 157L228 152L221 152L220 157L215 156L220 158L231 162L231 163L229 164L230 166L237 168C242.189 166.782 248.901 167.146 252 172L246 170L221 167L221 168C229.785 173.638 253.044 183.518 261 173L265 177L278 179L278 175L264 173L264 172L273 171L269 168L269 167L271 166L263 157L258 158L264 155L263 152L267 152L267 151L264 149z"
     id="path2593"
     inkscape:export-filename="/home/vjrj/proyectos/tid/guadalinex2005/dev/adsl_assistant/bb-assist/3com812.png"
     inkscape:export-xdpi="20.273539"
     inkscape:export-ydpi="20.273539" />
  <path
     stroke="none"
     fill="#85694a"
     d="M110 151L112 157L109 161C112.228 163.723 113.096 165.83 110 169L110 171L141 180.167L150 180L150 176L157 177L156 173L166 175L170 172L169 165z"
     id="path2597"
     inkscape:export-filename="/home/vjrj/proyectos/tid/guadalinex2005/dev/adsl_assistant/bb-assist/3com812.png"
     inkscape:export-xdpi="20.273539"
     inkscape:export-ydpi="20.273539" />
  <path
     stroke="none"
     fill="#d4bb96"
     d="M380 159L380 160L377 160L378 163L372 161L373 157L370 160C367.167 156.675 365.57 154.356 361 155L364 158L358 156C356.61 158.316 354.872 158.374 358 159L358 160L353 165L352 165L346 165L346 167L355 167L353 169L357 169L357 170L355 173L341 171L343 174L342 176L339 177L332 172L333 175L325 177L326 183L334 183L335 180L343 184L339 187L339 188C343.302 188.301 346.591 189.081 349 185L344 186L344 185L354 184L348 182L345 179L350 176L352 179L360 178C359.918 183.349 364.584 184.338 369 186L369 187L365 187L373 189L377 183L375 188L380 185L386 185L393 190L395 188L395 187L391 187L391 182L390 182L385 184L388 175L383 171L377 172L377 171L386 160L380 156L387 154C383.017 152.333 373.842 154.851 380 159z"
     id="path2599"
     inkscape:export-filename="/home/vjrj/proyectos/tid/guadalinex2005/dev/adsl_assistant/bb-assist/3com812.png"
     inkscape:export-xdpi="20.273539"
     inkscape:export-ydpi="20.273539" />
  <path
     stroke="none"
     fill="#d5bc99"
     d="M311 166L313 161L301 166L305 170C303.053 171.116 301.039 172.165 303 174L299 179L310 181L310 182L306 182L306 183L325 187L325 186L322 186L322 185L329 186L329 187L326 187L326 188L335 190L339 189L335 192L335 193L349 192C354.156 197.909 356.637 194.631 358 204L354 205L354 206L373 217L410 221C410.335 204.776 407.119 212.127 395 212L392 209L392 208L405 207L405 206L401 203L396 203L394 201L395 198L386 201L387 197L391 197L392 192L391 191L387 196C383.425 191.518 381.81 190.332 376 191L377 194L371 191L372 196L365 187L369 187L369 186C364.824 183.855 361.158 182.912 360 178L352 179L350 176L345 179L348 182L354 184L344 185L344 186L349 185L339 188L339 187L343 184L335 180L334 183L326 183L325 177L333 175L332 173L332 172L339 175L339 168L342 169L340 167L340 166L343 160L344 160L347 162L347 161L336 161L337 158z"
     id="path2601"
     inkscape:export-filename="/home/vjrj/proyectos/tid/guadalinex2005/dev/adsl_assistant/bb-assist/3com812.png"
     inkscape:export-xdpi="20.273539"
     inkscape:export-ydpi="20.273539" />
  <path
     stroke="none"
     fill="#29180e"
     d="M261 230L261 228L218 216L218 212L214 214L215 212L191 208L184 205L176 201C166.094 201.581 151.601 191.721 143 196L138 192L139 189C125.629 192.064 106.078 180.928 93 177.768C89.1521 176.838 80.0596 172.137 77 175L73 174L73 173C75.7639 171.937 74.2109 171.26 72 171L72 170L75 167L74 165L67 158C54.863 160.478 63.7721 171.464 71.0394 174.289C115.298 191.496 163.321 203.906 209 216.909C220.714 220.243 232.307 224.004 244 227.424C249.673 229.084 255.1 231.621 261 230z"
     id="path2603"
     inkscape:export-filename="/home/vjrj/proyectos/tid/guadalinex2005/dev/adsl_assistant/bb-assist/3com812.png"
     inkscape:export-xdpi="20.273539"
     inkscape:export-ydpi="20.273539" />
  <path
     stroke="none"
     fill="#bda27e"
     d="M174 159L174 160C187.589 166.822 202.586 168.562 217 172.63C247.179 181.147 277.798 187.312 308 195.909C328.953 201.873 349.1 216.878 371 218L371 217L355 213C350.852 206.476 332.286 198.293 324.83 196.203C318.188 194.341 312.609 196.235 308 190C291.295 193.262 270.683 183.214 255 178.38C244.526 175.152 233.592 174.203 223 171.556C206.761 167.497 190.499 161.804 174 159z"
     id="path2605"
     inkscape:export-filename="/home/vjrj/proyectos/tid/guadalinex2005/dev/adsl_assistant/bb-assist/3com812.png"
     inkscape:export-xdpi="20.273539"
     inkscape:export-ydpi="20.273539" />
  <path
     stroke="none"
     fill="#0e0b0a"
     d="M73 166L73 167L75 168L72 170L72 171L73 173L73 174L77 175C81.3862 173.545 87.5794 176.618 91.9961 177.832C101.791 180.523 111.273 182.767 121 186.247C125.556 187.877 134.196 192.348 138 188L152 191L151 194L155 195C155 191.692 161.383 194.404 164 195.167C172.44 197.628 180.049 199.488 189 200L156 189.28L102 173.579z"
     id="path2609"
     inkscape:export-filename="/home/vjrj/proyectos/tid/guadalinex2005/dev/adsl_assistant/bb-assist/3com812.png"
     inkscape:export-xdpi="20.273539"
     inkscape:export-ydpi="20.273539" />
  <path
     stroke="none"
     fill="#8e6f50"
     d="M168 166L170 172L166 175L156 173L157 177L150 176L150 180L148 178L146 182L207 199L205 186C207.68 185.528 206.274 182.268 205.509 180C203.688 174.594 200.213 173.337 195 172L201 180C191.812 170.819 180.996 167.062 168 166z"
     id="path2611"
     inkscape:export-filename="/home/vjrj/proyectos/tid/guadalinex2005/dev/adsl_assistant/bb-assist/3com812.png"
     inkscape:export-xdpi="20.273539"
     inkscape:export-ydpi="20.273539" />
  <path
     stroke="none"
     fill="#d2b997"
     d="M273 171L264 172L264 173L278 175L278 179L265 177L261 173C259.601 174.269 255.888 176.196 257.176 178.548C258.919 181.73 265.827 182.681 268.985 183.646C279.825 186.957 296.83 193.079 308 190C311.376 194.773 319.754 192.003 325 192L325 191L294 183L294 182L297 181L279 179L281 173L273 173L273 172L278 170L283 171C282.423 173.711 282.233 174.395 285 175L285 176L281 176L281 177L292 179L290 177L290 176L292 174L285 174L287 167C282.951 166.354 275.742 167.838 273 171z"
     id="path2613"
     inkscape:export-filename="/home/vjrj/proyectos/tid/guadalinex2005/dev/adsl_assistant/bb-assist/3com812.png"
     inkscape:export-xdpi="20.273539"
     inkscape:export-ydpi="20.273539" />
  <path
     stroke="none"
     fill="#a88967"
     d="M104 170L104 171L182 193.152L223 204L182 191.576z"
     id="path2617"
     inkscape:export-filename="/home/vjrj/proyectos/tid/guadalinex2005/dev/adsl_assistant/bb-assist/3com812.png"
     inkscape:export-xdpi="20.273539"
     inkscape:export-ydpi="20.273539" />
  <path
     stroke="none"
     fill="#57411c"
     d="M154 170L157 172z"
     id="path2619"
     inkscape:export-filename="/home/vjrj/proyectos/tid/guadalinex2005/dev/adsl_assistant/bb-assist/3com812.png"
     inkscape:export-xdpi="20.273539"
     inkscape:export-ydpi="20.273539" />
  <path
     stroke="none"
     fill="#9b7a58"
     d="M113 174C115.979 178.854 121.819 179.678 127 181.14C137.699 184.16 148.313 187.371 159 190.421C194.969 200.688 231.304 210.103 267 221.175C279.749 225.13 301.979 235.813 315 232L298 225.576L260 215L155 185.522z"
     id="path2621"
     inkscape:export-filename="/home/vjrj/proyectos/tid/guadalinex2005/dev/adsl_assistant/bb-assist/3com812.png"
     inkscape:export-xdpi="20.273539"
     inkscape:export-ydpi="20.273539" />
  <path
     stroke="none"
     fill="#957351"
     d="M205 175C207.19 181.487 207.279 194.411 211.843 199.297C215.255 202.949 223.349 203.656 228 204.884C241.347 208.41 260.309 218.222 274 215L276 212L276 211L274 210L277 209L277 208L263 207L264 202L257 202L259 205L254 199L262 198L259 199L260 196L256 197L255 195L257 194L257 193L256 190L263 190L263 189z"
     id="path2623"
     inkscape:export-filename="/home/vjrj/proyectos/tid/guadalinex2005/dev/adsl_assistant/bb-assist/3com812.png"
     inkscape:export-xdpi="20.273539"
     inkscape:export-ydpi="20.273539" />
  <path
     stroke="none"
     fill="#ac9475"
     d="M415 177L414 182L423 183L422 188L425 189C426.84 181.447 421.634 178.393 415 177z"
     id="path2627"
     inkscape:export-filename="/home/vjrj/proyectos/tid/guadalinex2005/dev/adsl_assistant/bb-assist/3com812.png"
     inkscape:export-xdpi="20.273539"
     inkscape:export-ydpi="20.273539" />
  <path
     stroke="none"
     fill="#0f0d0a"
     d="M138 188L138 192L143 196L176 201C174.857 203.856 181.256 205.312 185 205C188.59 204.701 187.029 206.217 190 208C195.12 211.072 214.848 210.61 214 214L218 212L218 216C252.317 228.257 290.285 232.725 323.015 248.886C331.493 253.072 349.913 267.32 356 254L351 259L349 259C346.394 253.719 342.46 253.23 337 253C339.252 249.623 342.987 248.052 342 252L349 252C346.601 248.533 339.914 247.272 336 245.588C325.598 241.113 317.12 235.029 306 232.125C271.144 223.021 236.593 212.421 202 202.412C190.022 198.946 177.397 200.001 165.866 195.75C163.253 194.787 155.554 191.582 155 195L151 194L152 191z"
     id="path2639"
     inkscape:export-filename="/home/vjrj/proyectos/tid/guadalinex2005/dev/adsl_assistant/bb-assist/3com812.png"
     inkscape:export-xdpi="20.273539"
     inkscape:export-ydpi="20.273539" />
  <path
     stroke="none"
     fill="#885f38"
     d="M422 188L422 190L424 190L424 188z"
     id="path2641"
     inkscape:export-filename="/home/vjrj/proyectos/tid/guadalinex2005/dev/adsl_assistant/bb-assist/3com812.png"
     inkscape:export-xdpi="20.273539"
     inkscape:export-ydpi="20.273539" />
  <path
     stroke="none"
     fill="#917151"
     d="M256 190L257 193L257 194L255 195L256 197L260 196L259 199L262 198L254 199L259 205L257 202L264 202L263 207L277 208L277 209L274 210L276 215L270 216L270 217L315 231L315 232L311 233L311 234C317.558 233.785 317.247 230.286 321 226L320 202L330 204L330 203L317 202L317 203z"
     id="path2645"
     inkscape:export-filename="/home/vjrj/proyectos/tid/guadalinex2005/dev/adsl_assistant/bb-assist/3com812.png"
     inkscape:export-xdpi="20.273539"
     inkscape:export-ydpi="20.273539" />
  <path
     stroke="none"
     fill="#c8b391"
     d="M310 193L310 194C324.33 198.53 344.097 201.118 355 213L374.09 219.443L397.995 221.978L407 227L407 228C399.311 229.758 393.689 230.161 386 228L407 235C400.751 239.495 392.27 238.35 385 237C387.196 239.513 390.769 239.15 394 239.576C409.145 241.572 419.356 228.354 418 213L417 213L412 222L418 200L415 201L415 212L408 207L410 221L373 217C366.332 207.193 345.323 210.935 339 200L331 199C328.677 191.645 316.427 193.49 310 193z"
     id="path2649"
     inkscape:export-filename="/home/vjrj/proyectos/tid/guadalinex2005/dev/adsl_assistant/bb-assist/3com812.png"
     inkscape:export-xdpi="20.273539"
     inkscape:export-ydpi="20.273539" />
  <path
     stroke="none"
     fill="#9f8658"
     d="M422 193L422 194L424 194L424 195L421 195L421 196C424.081 196.283 425.144 196.03 426 193z"
     id="path2651"
     inkscape:export-filename="/home/vjrj/proyectos/tid/guadalinex2005/dev/adsl_assistant/bb-assist/3com812.png"
     inkscape:export-xdpi="20.273539"
     inkscape:export-ydpi="20.273539" />
  <path
     stroke="none"
     fill="#684c30"
     d="M420 196L420 198L423 198L423 196z"
     id="path2653"
     inkscape:export-filename="/home/vjrj/proyectos/tid/guadalinex2005/dev/adsl_assistant/bb-assist/3com812.png"
     inkscape:export-xdpi="20.273539"
     inkscape:export-ydpi="20.273539" />
  <path
     stroke="none"
     fill="#584533"
     d="M224 197L223 200L253 209L253 205L237 204L238 201z"
     id="path2655"
     inkscape:export-filename="/home/vjrj/proyectos/tid/guadalinex2005/dev/adsl_assistant/bb-assist/3com812.png"
     inkscape:export-xdpi="20.273539"
     inkscape:export-ydpi="20.273539" />
  <path
     stroke="none"
     fill="#55351f"
     d="M187.667 198.333L188.333 198.667L187.667 198.333z"
     id="path2657"
     inkscape:export-filename="/home/vjrj/proyectos/tid/guadalinex2005/dev/adsl_assistant/bb-assist/3com812.png"
     inkscape:export-xdpi="20.273539"
     inkscape:export-ydpi="20.273539" />
  <path
     stroke="none"
     fill="#7a5834"
     d="M320 202L321 226L314 234L314 235L342 248L342 247L339 246L331 237L332 237L333 239L334 234L328 232L328 231L334 232L340 214L353 219L336 211L337 208z"
     id="path2663"
     inkscape:export-filename="/home/vjrj/proyectos/tid/guadalinex2005/dev/adsl_assistant/bb-assist/3com812.png"
     inkscape:export-xdpi="20.273539"
     inkscape:export-ydpi="20.273539" />
  <path
     stroke="none"
     fill="#b89d7a"
     d="M223 204L223 205L280 220L257 212.849z"
     id="path2665"
     inkscape:export-filename="/home/vjrj/proyectos/tid/guadalinex2005/dev/adsl_assistant/bb-assist/3com812.png"
     inkscape:export-xdpi="20.273539"
     inkscape:export-ydpi="20.273539" />
  <path
     stroke="none"
     fill="#a88a65"
     d="M330 204L337 208L336 211C351.05 216.839 366.573 223.661 383 224C382.957 229.174 382.851 241.733 378.436 245.227C372.55 249.885 352.358 241.068 346 239C347.013 243.754 355.66 245.29 360 246.194C374.786 249.275 388.886 252.174 404 252L405 248L384 247L384 243C392.05 243.022 404.703 247.839 409 239L385 239C389.05 232.397 398.414 235.947 405 234L386 231C388.826 223.315 397.514 226.946 404 227C401.861 219.952 393.06 221.374 387 220.576C374.318 218.906 361.093 217.163 349 212.529C342.164 209.91 337.698 204.511 330 204z"
     id="path2667"
     inkscape:export-filename="/home/vjrj/proyectos/tid/guadalinex2005/dev/adsl_assistant/bb-assist/3com812.png"
     inkscape:export-xdpi="20.273539"
     inkscape:export-ydpi="20.273539" />
  <path
     stroke="none"
     fill="#6b2921"
     d="M255 206L255 210L272 213z"
     id="path2671"
     inkscape:export-filename="/home/vjrj/proyectos/tid/guadalinex2005/dev/adsl_assistant/bb-assist/3com812.png"
     inkscape:export-xdpi="20.273539"
     inkscape:export-ydpi="20.273539" />
  <path
     stroke="none"
     fill="#641f1a"
     d="M273 212L276 215z"
     id="path2679"
     inkscape:export-filename="/home/vjrj/proyectos/tid/guadalinex2005/dev/adsl_assistant/bb-assist/3com812.png"
     inkscape:export-xdpi="20.273539"
     inkscape:export-ydpi="20.273539" />
  <path
     stroke="none"
     fill="#7c4631"
     d="M277 212L277 216L282 213L280 215L279 215z"
     id="path2681"
     inkscape:export-filename="/home/vjrj/proyectos/tid/guadalinex2005/dev/adsl_assistant/bb-assist/3com812.png"
     inkscape:export-xdpi="20.273539"
     inkscape:export-ydpi="20.273539" />
  <path
     stroke="none"
     fill="#692619"
     d="M283 217L289 219L290 215z"
     id="path2683"
     inkscape:export-filename="/home/vjrj/proyectos/tid/guadalinex2005/dev/adsl_assistant/bb-assist/3com812.png"
     inkscape:export-xdpi="20.273539"
     inkscape:export-ydpi="20.273539" />
  <path
     stroke="none"
     fill="#8f7250"
     d="M340 214L334 232L328 231L328 232L346 241L338 236L338 235L358 240L358 239L350 234L354 232L351 232L351 230L361 238L361 237L358 237L358 233L362 235L357 232L357 220z"
     id="path2685"
     inkscape:export-filename="/home/vjrj/proyectos/tid/guadalinex2005/dev/adsl_assistant/bb-assist/3com812.png"
     inkscape:export-xdpi="20.273539"
     inkscape:export-ydpi="20.273539" />
  <path
     stroke="none"
     fill="#643f22"
     d="M247.667 215.333L248.333 215.667L247.667 215.333z"
     id="path2687"
     inkscape:export-filename="/home/vjrj/proyectos/tid/guadalinex2005/dev/adsl_assistant/bb-assist/3com812.png"
     inkscape:export-xdpi="20.273539"
     inkscape:export-ydpi="20.273539" />
  <path
     stroke="none"
     fill="#764134"
     d="M291 216L290 219L296 221L295 217L293 216z"
     id="path2689"
     inkscape:export-filename="/home/vjrj/proyectos/tid/guadalinex2005/dev/adsl_assistant/bb-assist/3com812.png"
     inkscape:export-xdpi="20.273539"
     inkscape:export-ydpi="20.273539" />
  <path
     stroke="none"
     fill="#672c20"
     d="M297 219L297 221L313 225C310.229 220.819 301.843 218.09 297 219z"
     id="path2695"
     inkscape:export-filename="/home/vjrj/proyectos/tid/guadalinex2005/dev/adsl_assistant/bb-assist/3com812.png"
     inkscape:export-xdpi="20.273539"
     inkscape:export-ydpi="20.273539" />
  <path
     stroke="none"
     fill="#623b25"
     d="M353 218L353 219L357 220L357 224L358 224L358 221L378.821 227.303L378 246L380 246L383 224z"
     id="path2697"
     inkscape:export-filename="/home/vjrj/proyectos/tid/guadalinex2005/dev/adsl_assistant/bb-assist/3com812.png"
     inkscape:export-xdpi="20.273539"
     inkscape:export-ydpi="20.273539" />
  <path
     stroke="none"
     fill="#b2937a"
     d="M280 220L280 221L291 223z"
     id="path2699"
     inkscape:export-filename="/home/vjrj/proyectos/tid/guadalinex2005/dev/adsl_assistant/bb-assist/3com812.png"
     inkscape:export-xdpi="20.273539"
     inkscape:export-ydpi="20.273539" />
  <path
     stroke="none"
     fill="#20233d"
     d="M358 221L357 232L362 235L358 233L361 237L361 238L351 230L354 232L353 235L350 234C356.015 240.892 366.305 241.928 375 242L375 238L374 238C372.281 239.708 372.04 240.223 371 238L370 238C366.422 240.014 364.176 238.797 363 235L377 237L379 225z"
     id="path2701"
     inkscape:export-filename="/home/vjrj/proyectos/tid/guadalinex2005/dev/adsl_assistant/bb-assist/3com812.png"
     inkscape:export-xdpi="20.273539"
     inkscape:export-ydpi="20.273539" />
  <path
     stroke="none"
     fill="#b6966e"
     d="M291 223L291 224L310 229z"
     id="path2709"
     inkscape:export-filename="/home/vjrj/proyectos/tid/guadalinex2005/dev/adsl_assistant/bb-assist/3com812.png"
     inkscape:export-xdpi="20.273539"
     inkscape:export-ydpi="20.273539" />
  <path
     stroke="none"
     fill="#714e2c"
     d="M387 226L387 229L407 228z"
     id="path2711"
     inkscape:export-filename="/home/vjrj/proyectos/tid/guadalinex2005/dev/adsl_assistant/bb-assist/3com812.png"
     inkscape:export-xdpi="20.273539"
     inkscape:export-ydpi="20.273539" />
  <path
     stroke="none"
     fill="#ab8d66"
     d="M378 227L377 237L372 237L372 241L373 241L374 238L376 243L355 240L355 241L378 245L380 227z"
     id="path2713"
     inkscape:export-filename="/home/vjrj/proyectos/tid/guadalinex2005/dev/adsl_assistant/bb-assist/3com812.png"
     inkscape:export-xdpi="20.273539"
     inkscape:export-ydpi="20.273539" />
  <path
     stroke="none"
     fill="#2a150f"
     d="M260 230L260 232C274.776 236.195 290.773 239.826 305 245.612C320.185 251.788 332.745 260.828 349 265.116C360.895 268.253 378.751 274.597 381 258L342 252C341.446 248.057 338.321 250.764 337 253C342.304 253.571 345.713 254.624 349 259L351 259L356 254C348.879 264.68 336.726 255.884 328 251.003C314.034 243.191 299.941 240.701 285 235.572C277.432 232.974 268.08 227.801 260 230z"
     id="path2715"
     inkscape:export-filename="/home/vjrj/proyectos/tid/guadalinex2005/dev/adsl_assistant/bb-assist/3com812.png"
     inkscape:export-xdpi="20.273539"
     inkscape:export-ydpi="20.273539" />
  <path
     stroke="none"
     fill="#583a27"
     d="M296.667 229.333L297.333 229.667L296.667 229.333z"
     id="path2717"
     inkscape:export-filename="/home/vjrj/proyectos/tid/guadalinex2005/dev/adsl_assistant/bb-assist/3com812.png"
     inkscape:export-xdpi="20.273539"
     inkscape:export-ydpi="20.273539" />
  <path
     stroke="none"
     fill="#988774"
     d="M391 229L391 230L402 230z"
     id="path2719"
     inkscape:export-filename="/home/vjrj/proyectos/tid/guadalinex2005/dev/adsl_assistant/bb-assist/3com812.png"
     inkscape:export-xdpi="20.273539"
     inkscape:export-ydpi="20.273539" />
  <path
     stroke="none"
     fill="#c5a687"
     d="M338 235L338 236C350.758 241.967 365.071 245.23 379 247L366 242.87z"
     id="path2727"
     inkscape:export-filename="/home/vjrj/proyectos/tid/guadalinex2005/dev/adsl_assistant/bb-assist/3com812.png"
     inkscape:export-xdpi="20.273539"
     inkscape:export-ydpi="20.273539" />
  <path
     stroke="none"
     fill="#82785f"
     d="M363 235C363.283 238.877 367.692 242.401 370 238L371 238L371 241L372 241L373 236z"
     id="path2729"
     inkscape:export-filename="/home/vjrj/proyectos/tid/guadalinex2005/dev/adsl_assistant/bb-assist/3com812.png"
     inkscape:export-xdpi="20.273539"
     inkscape:export-ydpi="20.273539" />
  <path
     stroke="none"
     fill="#73583d"
     d="M386 235L386 237L407 236z"
     id="path2731"
     inkscape:export-filename="/home/vjrj/proyectos/tid/guadalinex2005/dev/adsl_assistant/bb-assist/3com812.png"
     inkscape:export-xdpi="20.273539"
     inkscape:export-ydpi="20.273539" />
  <path
     stroke="none"
     fill="#afa083"
     d="M331 237L337 242L337 241z"
     id="path2733"
     inkscape:export-filename="/home/vjrj/proyectos/tid/guadalinex2005/dev/adsl_assistant/bb-assist/3com812.png"
     inkscape:export-xdpi="20.273539"
     inkscape:export-ydpi="20.273539" />
  <path
     stroke="none"
     fill="#654426"
     d="M333 237C334.805 242.269 342.093 243.666 347 245.255C360.557 249.645 374.75 252 389 252L359 245.762z"
     id="path2735"
     inkscape:export-filename="/home/vjrj/proyectos/tid/guadalinex2005/dev/adsl_assistant/bb-assist/3com812.png"
     inkscape:export-xdpi="20.273539"
     inkscape:export-ydpi="20.273539" />
  <path
     stroke="none"
     fill="#282528"
     d="M364.667 237.333L365.333 237.667L364.667 237.333z"
     id="path2737"
     inkscape:export-filename="/home/vjrj/proyectos/tid/guadalinex2005/dev/adsl_assistant/bb-assist/3com812.png"
     inkscape:export-xdpi="20.273539"
     inkscape:export-ydpi="20.273539" />
  <path
     stroke="none"
     fill="#82775e"
     d="M387 237L387 238L405 238z"
     id="path2739"
     inkscape:export-filename="/home/vjrj/proyectos/tid/guadalinex2005/dev/adsl_assistant/bb-assist/3com812.png"
     inkscape:export-xdpi="20.273539"
     inkscape:export-ydpi="20.273539" />
  <path
     stroke="none"
     fill="#626355"
     d="M375 241L373 242L373 243z"
     id="path2743"
     inkscape:export-filename="/home/vjrj/proyectos/tid/guadalinex2005/dev/adsl_assistant/bb-assist/3com812.png"
     inkscape:export-xdpi="20.273539"
     inkscape:export-ydpi="20.273539" />
  <path
     stroke="none"
     fill="#c0a887"
     d="M337 242L337 243C352.534 248.992 368.474 253.591 385 255.17C391.58 255.798 399.343 257.968 403 251C383.35 261.809 356.744 244.957 337 242z"
     id="path2745"
     inkscape:export-filename="/home/vjrj/proyectos/tid/guadalinex2005/dev/adsl_assistant/bb-assist/3com812.png"
     inkscape:export-xdpi="20.273539"
     inkscape:export-ydpi="20.273539" />
  <path
     stroke="none"
     fill="#c6b79e"
     d="M407 242C400.544 247.153 391.812 246.86 384 245C387.752 249.36 408.796 250.805 407 242z"
     id="path2747"
     inkscape:export-filename="/home/vjrj/proyectos/tid/guadalinex2005/dev/adsl_assistant/bb-assist/3com812.png"
     inkscape:export-xdpi="20.273539"
     inkscape:export-ydpi="20.273539" />
  <path
     stroke="none"
     fill="#796450"
     d="M384 243C387.307 248.102 398.762 246.548 404 245z"
     id="path2751"
     inkscape:export-filename="/home/vjrj/proyectos/tid/guadalinex2005/dev/adsl_assistant/bb-assist/3com812.png"
     inkscape:export-xdpi="20.273539"
     inkscape:export-ydpi="20.273539" />
  <path
     stroke="none"
     fill="#a48360"
     d="M339 245C348.593 255.656 370.588 256.793 384 258.576C389.65 259.327 397.478 260.31 401 255C387.228 257.557 372.319 253.766 359 250.244C352.488 248.522 345.798 244.563 339 245z"
     id="path2757"
     inkscape:export-filename="/home/vjrj/proyectos/tid/guadalinex2005/dev/adsl_assistant/bb-assist/3com812.png"
     inkscape:export-xdpi="20.273539"
     inkscape:export-ydpi="20.273539" />
  <path
     stroke="none"
     fill="#705642"
     d="M366 250L366 251L400 254L400 252z"
     id="path2761"
     inkscape:export-filename="/home/vjrj/proyectos/tid/guadalinex2005/dev/adsl_assistant/bb-assist/3com812.png"
     inkscape:export-xdpi="20.273539"
     inkscape:export-ydpi="20.273539" />
  <path
     stroke="none"
     fill="#572a0b"
     d="M381 258C379.967 262.92 378.803 266.809 374 269L374 270C382.67 269.994 388.32 268.412 390 259z"
     id="path2765"
     inkscape:export-filename="/home/vjrj/proyectos/tid/guadalinex2005/dev/adsl_assistant/bb-assist/3com812.png"
     inkscape:export-xdpi="20.273539"
     inkscape:export-ydpi="20.273539" />
  <rect
     style="fill:none;fill-opacity:0.75000000;fill-rule:evenodd;stroke:none;stroke-width:1.0089005pt;stroke-linecap:butt;stroke-linejoin:miter;stroke-opacity:1.0000000"
     id="rect8222"
     width="400.91669"
     height="400.91669"
     x="54.731186"
     y="-34.489872"
     inkscape:export-filename="/home/vjrj/proyectos/tid/guadalinex2005/dev/adsl_assistant/bb-assist/3com812.png"
     inkscape:export-xdpi="20.273539"
     inkscape:export-ydpi="20.273539" />
</svg>
