<?xml version="1.0" encoding="UTF-8" standalone="no"?>
<!-- Created with Inkscape (http://www.inkscape.org/) -->
<!-- 
Created By Andrew Fitzsimon.
Much of this document has been manually cleaned and crafted in a text editor so that only the colour definitions and basic presentation related data remain in the XML. 
Changes to this document may compromise the structure of this palette.
-->
<svg
   xmlns:dc="http://purl.org/dc/elements/1.1/"
   xmlns:cc="http://web.resource.org/cc/"
   xmlns:rdf="http://www.w3.org/1999/02/22-rdf-syntax-ns#"
   xmlns:svg="http://www.w3.org/2000/svg"
   xmlns="http://www.w3.org/2000/svg"
   xmlns:xlink="&amp;#38;#38;#38;#38;#38;#38;#38;#38;#38;#38;#38;#38;#38;#38;ns_xlink;"
   xmlns:sodipodi="http://inkscape.sourceforge.net/DTD/sodipodi-0.dtd"
   xmlns:inkscape="http://www.inkscape.org/namespaces/inkscape"
   sodipodi:docbase="/home/andy/Desktop/Etiquette/etiquette/scalable/apps"
   sodipodi:docname="evolution.svg"
   inkscape:version="0.41+cvs"
   sodipodi:version="0.32"
   id="Etiquette"
   height="128"
   width="128"
   y="00"
   x="00"
   version="1.0">
  <metadata
     id="About">
    <rdf:RDF
       id="RDF232">
      <cc:Work
         id="Work233"
         rdf:about="">
        <dc:format
           id="format234">image/svg+xml</dc:format>
        <dc:type
           rdf:resource="http://purl.org/dc/dcmitype/StillImage"
           id="type236" />
        <dc:creator
           id="creator1291">
          <cc:Agent
             id="Agent1292">
            <dc:title
               id="title1293">Andrew Fitzsimon</dc:title>
          </cc:Agent>
        </dc:creator>
        <dc:date
           id="date1295">2004-12-25</dc:date>
        <dc:title
           id="title1297">Etiquette Icon</dc:title>
        <cc:license
           rdf:resource="http://creativecommons.org/licenses/by/2.0/"
           id="license1299" />
        <dc:rights
           id="rights1308">
          <cc:Agent
             id="Agent1309">
            <dc:title
               id="title1310">Andrew Fitzsimon</dc:title>
          </cc:Agent>
        </dc:rights>
      </cc:Work>
      <cc:License
         id="License1300"
         rdf:about="http://creativecommons.org/licenses/by/2.0/">
        <cc:permits
           id="permits1301"
           rdf:resource="http://web.resource.org/cc/Reproduction" />
        <cc:permits
           id="permits1302"
           rdf:resource="http://web.resource.org/cc/Distribution" />
        <cc:requires
           id="requires1303"
           rdf:resource="http://web.resource.org/cc/Notice" />
        <cc:requires
           id="requires1304"
           rdf:resource="http://web.resource.org/cc/Attribution" />
        <cc:prohibits
           id="prohibits1305"
           rdf:resource="http://web.resource.org/cc/CommercialUse" />
        <cc:permits
           id="permits1306"
           rdf:resource="http://web.resource.org/cc/DerivativeWorks" />
        <cc:requires
           id="requires1307"
           rdf:resource="http://web.resource.org/cc/ShareAlike" />
      </cc:License>
    </rdf:RDF>
  </metadata>
  <sodipodi:namedview
     inkscape:guide-bbox="true"
     showguides="true"
     gridempopacity="0.082352941"
     gridempcolor="#3f3fff"
     gridempspacing="2"
     gridopacity="0.082352941"
     gridcolor="#3f3fff"
     inkscape:grid-bbox="false"
     showborder="false"
     gridtolerance="40pt"
     inkscape:grid-points="false"
     gridoriginx="0pt"
     gridoriginy="0.0000000pt"
     gridspacingy="8.0000000pt"
     gridspacingx="8.0000000pt"
     showgrid="false"
     inkscape:current-layer="Etiquette"
     inkscape:window-y="81"
     inkscape:window-x="502"
     inkscape:window-height="681"
     inkscape:window-width="491"
     inkscape:cy="86.923431"
     inkscape:cx="79.171459"
     inkscape:zoom="2.0000000"
     inkscape:pageshadow="0"
     inkscape:pageopacity="0.0000000"
     borderopacity="1.0"
     bordercolor="#666666"
     pagecolor="#838383"
     id="base" />
  <defs
     id="Gradients">
    <linearGradient
       id="linearGradient867"
       inkscape:collect="always">
      <stop
         id="stop868"
         offset="0"
         style="stop-color:#000000;stop-opacity:1;" />
      <stop
         id="stop869"
         offset="1"
         style="stop-color:#000000;stop-opacity:0;" />
    </linearGradient>
    <linearGradient
       id="linearGradient117">
      <stop
         id="stop118"
         offset="0.0000000"
         style="stop-color:#ffffff;stop-opacity:1.0000000;" />
      <stop
         id="stop119"
         offset="1"
         style="stop-color:#ffffff;stop-opacity:0;" />
    </linearGradient>
    <linearGradient
       id="linearGradient2381">
      <stop
         id="stop2382"
         offset="0.0000000"
         style="stop-color:#000000;stop-opacity:0.47058824;" />
      <stop
         id="stop2384"
         offset="0.31578946"
         style="stop-color:#000000;stop-opacity:0.19191919;" />
      <stop
         id="stop2383"
         offset="1.0000000"
         style="stop-color:#6f6f6f;stop-opacity:0.0000000;" />
    </linearGradient>
    <linearGradient
       id="linearGradient1694">
      <stop
         id="stop1696"
         offset="0.0000000"
         style="stop-color:#9db8d2;stop-opacity:1.0000000;" />
      <stop
         id="stop1698"
         offset="0.56999999"
         style="stop-color:#7590ae;stop-opacity:1.0000000;" />
      <stop
         id="stop1697"
         offset="1.0000000"
         style="stop-color:#314e6c;stop-opacity:1.0000000;" />
    </linearGradient>
    <linearGradient
       id="linearGradient1693">
      <stop
         id="stop1694"
         offset="0.00000000"
         style="stop-color:#ffffff;stop-opacity:1.0000000;" />
      <stop
         id="stop1695"
         offset="1.0000000"
         style="stop-color:#ffffff;stop-opacity:0.00000000;" />
    </linearGradient>
    <linearGradient
       id="linearGradient6163">
      <stop
         id="stop6164"
         offset="0.0000000"
         style="stop-color:#ffffff;stop-opacity:1.0000000;" />
      <stop
         id="stop6165"
         offset="1.0000000"
         style="stop-color:#ffffff;stop-opacity:0.0000000;" />
    </linearGradient>
    <linearGradient
       id="MaterialSoftShadow">
      <stop
         id="stop2619"
         offset="0"
         style="stop-color:#000000;stop-opacity:0.215;" />
      <stop
         id="stop2621"
         offset="0.50000000"
         style="stop-color:#000000;stop-opacity:0.098;" />
      <stop
         id="stop2620"
         offset="1"
         style="stop-color:#000000;stop-opacity:0;" />
    </linearGradient>
    <linearGradient
       id="TransparentBlack">
      <stop
         id="stopBlackTransparent1"
         offset="0"
         style="stop-color:#000000;stop-opacity:0;" />
      <stop
         id="stopBlackFull1"
         offset="1"
         style="stop-color:#000000;stop-opacity:1;" />
    </linearGradient>
    <linearGradient
       id="WhiteTransparent">
      <stop
         id="stopWhiteFull"
         offset="0"
         style="stop-color:#ffffff;stop-opacity:1;" />
      <stop
         id="stopWhiteTransparent"
         offset="1"
         style="stop-color:#ffffff;stop-opacity:0;" />
    </linearGradient>
    <linearGradient
       y2="32.579056"
       x2="77.407570"
       y1="-17.627333"
       x1="78.170364"
       gradientTransform="matrix(1.216937,0.000000,0.000000,1.303318,-4.865934,-3.221991)"
       gradientUnits="userSpaceOnUse"
       id="linearGradient26784"
       xlink:href="#WhiteTransparent"
       inkscape:collect="always" />
    <linearGradient
       y2="276.50476"
       x2="246.58887"
       y1="330.42316"
       x1="246.58887"
       gradientTransform="matrix(0.756423,0.000000,0.000000,0.756423,-125.4328,-129.5441)"
       gradientUnits="userSpaceOnUse"
       id="linearGradient26786"
       xlink:href="#WhiteTransparent"
       inkscape:collect="always" />
    <linearGradient
       y2="162.85263"
       x2="72.715558"
       y1="-11.108592"
       x1="88.009292"
       gradientTransform="matrix(0.862119,0.000000,0.000000,0.751540,-4.710613,-3.383483)"
       gradientUnits="userSpaceOnUse"
       id="linearGradient26788"
       xlink:href="#linearGradient1693"
       inkscape:collect="always" />
    <radialGradient
       r="83.198463"
       fy="203.93304"
       fx="242.12482"
       cy="248.48956"
       cx="244.43382"
       gradientTransform="matrix(0.756423,0.000000,0.000000,0.756423,-125.4328,-129.5441)"
       gradientUnits="userSpaceOnUse"
       id="radialGradient26790"
       xlink:href="#linearGradient1694"
       inkscape:collect="always" />
    <radialGradient
       r="125.20509"
       fy="598.36652"
       fx="-289.09140"
       cy="598.36652"
       cx="-289.09140"
       gradientUnits="userSpaceOnUse"
       id="radialGradient26794"
       xlink:href="#linearGradient2381"
       inkscape:collect="always" />
    <radialGradient
       r="125.20509"
       fy="598.36652"
       fx="-289.09140"
       cy="598.36652"
       cx="-289.09140"
       gradientUnits="userSpaceOnUse"
       id="radialGradient26795"
       xlink:href="#MaterialSoftShadow"
       inkscape:collect="always" />
    <linearGradient
       y2="186.39098"
       x2="97.919456"
       y1="78.300354"
       x1="99.688118"
       gradientTransform="matrix(1.034863,0.000000,0.000000,0.966311,1.250000,-2.754284)"
       gradientUnits="userSpaceOnUse"
       id="linearGradient266"
       xlink:href="#TransparentBlack"
       inkscape:collect="always" />
    <linearGradient
       y2="143.83127"
       x2="43.899635"
       y1="171.10580"
       x1="43.899635"
       gradientTransform="matrix(1.433419,-2.801170e-7,6.968773e-8,0.356607,16.70095,20.05351)"
       gradientUnits="userSpaceOnUse"
       id="linearGradient267"
       xlink:href="#linearGradient6163"
       inkscape:collect="always" />
    <linearGradient
       y2="101.42684"
       x2="66.366432"
       y1="22.893991"
       x1="66.366432"
       gradientTransform="matrix(1.201328,0.000000,0.000000,0.561569,0.596121,16.64240)"
       gradientUnits="userSpaceOnUse"
       id="linearGradient268"
       xlink:href="#WhiteTransparent"
       inkscape:collect="always" />
    <linearGradient
       y2="104.85813"
       x2="48.953148"
       y1="65.609421"
       x1="48.733406"
       gradientTransform="matrix(1.586201,0.000000,0.000000,0.630437,1.250000,-4.160534)"
       gradientUnits="userSpaceOnUse"
       id="linearGradient269"
       xlink:href="#MaterialSoftShadow"
       inkscape:collect="always" />
    <linearGradient
       y2="220.83104"
       x2="44.787067"
       y1="173.81540"
       x1="44.787067"
       gradientTransform="matrix(1.961161,0.000000,0.000000,0.509902,1.250000,-4.160534)"
       gradientUnits="userSpaceOnUse"
       id="linearGradient270"
       xlink:href="#MaterialSoftShadow"
       inkscape:collect="always" />
    <linearGradient
       y2="-14.693495"
       x2="47.906109"
       y1="182.05821"
       x1="48.379337"
       gradientTransform="matrix(1.603220,0.000000,0.000000,0.432086,-1.009641,15.45317)"
       gradientUnits="userSpaceOnUse"
       id="linearGradient271"
       xlink:href="#TransparentBlack"
       inkscape:collect="always" />
    <linearGradient
       y2="134.36835"
       x2="54.654118"
       y1="157.50468"
       x1="26.374384"
       gradientTransform="matrix(1.362771,0.000000,0.000000,0.733799,1.250000,-4.160534)"
       gradientUnits="userSpaceOnUse"
       id="linearGradient272"
       xlink:href="#MaterialSoftShadow"
       inkscape:collect="always" />
    <linearGradient
       y2="147.51402"
       x2="67.888725"
       y1="171.70207"
       x1="86.836159"
       gradientTransform="matrix(1.362771,0.000000,0.000000,0.733799,1.250000,-4.160534)"
       gradientUnits="userSpaceOnUse"
       id="linearGradient273"
       xlink:href="#MaterialSoftShadow"
       inkscape:collect="always" />
    <linearGradient
       y2="443.13931"
       x2="353.24777"
       y1="-47.032909"
       x1="5.0357265"
       gradientTransform="matrix(0.849993,0.000000,0.000000,0.793687,0.596121,16.64240)"
       gradientUnits="userSpaceOnUse"
       id="linearGradient274"
       xlink:href="#TransparentBlack"
       inkscape:collect="always" />
    <linearGradient
       y2="37.136780"
       x2="56.214989"
       y1="37.136780"
       x1="12.374367"
       gradientUnits="userSpaceOnUse"
       id="linearGradient95"
       xlink:href="#WhiteTransparent"
       inkscape:collect="always" />
    <linearGradient
       y2="412.47470"
       x2="402.35895"
       y1="772.36639"
       x1="409.55676"
       gradientUnits="userSpaceOnUse"
       id="linearGradient96"
       xlink:href="#linearGradient867"
       inkscape:collect="always" />
    <linearGradient
       y2="959.51013"
       x2="784.45319"
       y1="509.64545"
       x1="359.22729"
       gradientUnits="userSpaceOnUse"
       id="linearGradient97"
       xlink:href="#linearGradient117"
       inkscape:collect="always" />
    <linearGradient
       y2="959.51013"
       x2="784.45319"
       y1="509.64545"
       x1="359.22729"
       gradientUnits="userSpaceOnUse"
       id="linearGradient61128"
       xlink:href="#linearGradient117"
       inkscape:collect="always" />
    <linearGradient
       y2="412.47470"
       x2="402.35895"
       y1="772.36639"
       x1="409.55676"
       gradientUnits="userSpaceOnUse"
       id="linearGradient61130"
       xlink:href="#linearGradient867"
       inkscape:collect="always" />
    <linearGradient
       y2="37.136780"
       x2="56.214989"
       y1="37.136780"
       x1="12.374367"
       gradientUnits="userSpaceOnUse"
       id="linearGradient61132"
       xlink:href="#WhiteTransparent"
       inkscape:collect="always" />
  </defs>
  <g
     id="g2823">
    <path
       transform="matrix(-0.322487,0.000000,0.000000,8.971150e-2,-36.36858,46.33634)"
       d="M -163.88631 598.36652 A 125.20509 125.20509 0 1 1  -414.29649,598.36652 A 125.20509 125.20509 0 1 1  -163.88631 598.36652 z"
       sodipodi:ry="125.20509"
       sodipodi:rx="125.20509"
       sodipodi:cy="598.36652"
       sodipodi:cx="-289.09140"
       id="path4284"
       style="fill:url(#radialGradient26795);fill-opacity:1.0000000;fill-rule:evenodd;stroke:none;stroke-width:1.0000000pt;stroke-linecap:butt;stroke-linejoin:miter;stroke-opacity:1.0000000"
       sodipodi:type="arc" />
    <path
       transform="matrix(-0.450751,0.000000,0.000000,0.275963,-67.56894,-80.35010)"
       d="M -163.88631 598.36652 A 125.20509 125.20509 0 1 1  -414.29649,598.36652 A 125.20509 125.20509 0 1 1  -163.88631 598.36652 z"
       sodipodi:ry="125.20509"
       sodipodi:rx="125.20509"
       sodipodi:cy="598.36652"
       sodipodi:cx="-289.09140"
       id="path4285"
       style="fill:url(#radialGradient26794);fill-opacity:1.0000000;fill-rule:evenodd;stroke:none;stroke-width:1.0000000pt;stroke-linecap:butt;stroke-linejoin:miter;stroke-opacity:1.0000000;"
       sodipodi:type="arc" />
    <path
       id="path4286"
       style="fill:#314e6c;fill-opacity:1.0000000;fill-rule:evenodd;stroke:none;stroke-width:8.7163954;stroke-linecap:butt;stroke-linejoin:miter;stroke-miterlimit:4.0000000;stroke-opacity:1.0000000"
       d="M 115.92112,58.516240 C 115.92112,27.427488 90.718648,2.2250592 59.629886,2.2250592 C 28.541123,2.2250592 3.3387439,27.427488 3.3387439,58.516240 C 3.3387439,89.605010 28.541123,114.80744 59.629886,114.80744 C 90.718648,114.80744 115.92112,89.605010 115.92112,58.516240 z " />
    <path
       id="path4287"
       style="fill:url(#radialGradient26790);fill-opacity:1.0000000;fill-rule:evenodd;stroke:none;stroke-width:2.5000000;stroke-linecap:butt;stroke-linejoin:miter;stroke-miterlimit:4.0000000;stroke-opacity:0.41447368"
       d="M 115.75376,58.419268 C 115.75376,27.330506 90.551369,2.1280878 59.462607,2.1280878 C 28.373847,2.1280878 3.1714659,27.330506 3.1714659,58.419268 C 3.1714659,89.508021 28.373847,114.71045 59.462607,114.71045 C 90.551369,114.71045 115.75376,89.508021 115.75376,58.419268 z " />
    <path
       id="path4288"
       style="fill:url(#linearGradient26788);fill-opacity:1.0000000;fill-rule:evenodd;stroke:none;stroke-width:1.0000000pt;stroke-linecap:butt;stroke-linejoin:miter;stroke-opacity:1.0000000"
       d="M 54.972527,5.3910712 C 50.363044,6.3971693 45.434838,6.6473992 41.319176,9.1714235 C 39.725078,9.3016506 33.285077,11.828182 37.583180,12.266899 C 40.245412,11.511318 41.482637,8.7431098 44.454917,8.9752577 C 47.645879,8.0259042 50.927821,6.8963607 54.406511,6.2317798 C 54.765576,6.0648932 54.772919,5.6692346 54.972527,5.3910712 z M 61.758432,6.2842615 C 59.455836,8.9324562 54.146248,8.7640914 53.828955,13.077663 C 54.914161,14.569181 60.253982,7.5491444 61.824238,11.885738 C 62.133520,14.793232 60.195808,18.463241 56.838904,16.568589 C 55.210093,16.432620 53.181682,16.767425 53.249395,15.309800 C 52.404041,17.448141 45.668969,21.586069 48.034699,16.975518 C 49.263246,16.052221 46.315668,15.884342 48.340548,14.298284 C 50.132537,12.478649 44.445668,12.650171 46.598914,14.613013 C 45.351390,16.333095 44.789092,18.162628 42.337338,18.461945 C 44.430027,18.228424 46.605303,17.889958 44.999857,20.123688 C 46.211619,24.676236 38.604204,22.299204 37.670729,25.659683 C 34.904448,30.110757 41.813665,29.875377 43.785999,27.682304 C 43.452968,23.566195 47.688795,24.781074 49.911375,24.374726 C 52.246301,22.641532 54.711692,28.003213 55.867282,29.919866 C 57.382223,30.719309 59.044604,27.586526 56.737337,26.776371 C 57.011046,25.237713 52.056517,22.633674 55.192260,22.521471 C 57.288189,23.636157 58.467335,25.945477 58.862545,27.449221 C 63.039815,27.260018 57.145612,32.087668 61.154936,30.619315 C 63.695383,30.164565 60.881226,25.927528 64.253578,27.589137 C 68.515918,29.225866 62.790043,22.089344 67.655974,22.059169 C 69.916606,20.724267 68.703700,26.698390 70.095710,23.778171 C 70.886035,19.047485 77.213881,25.542466 74.330010,27.436596 C 70.663444,26.416888 66.970268,26.119422 65.382180,30.248291 C 65.160731,32.192602 70.722287,27.443090 70.073584,30.911108 C 71.246053,34.588936 65.471064,35.258755 63.292638,33.984515 C 61.289788,31.573551 59.424555,33.820461 57.933840,34.917466 C 55.610073,34.592694 47.879438,33.978565 51.147456,30.515011 C 52.011883,26.898883 46.633437,30.185852 44.675889,29.371189 C 42.204298,30.710163 38.396204,29.524372 36.420343,31.521012 C 36.137763,33.836360 32.434671,32.559822 31.828408,35.346035 C 30.429055,38.517742 25.791532,39.576971 25.674704,42.976731 C 25.541664,46.776472 23.751869,50.234113 25.739460,53.977615 C 26.217451,57.806395 29.844441,60.175122 33.555450,59.275751 C 35.704216,59.229554 37.720034,61.918137 39.231353,58.676002 C 41.666892,54.663779 44.157460,60.912317 47.210613,59.289855 C 49.724929,62.185905 45.107625,65.630998 49.048760,67.658528 C 52.353306,71.159315 51.371479,76.021660 49.927778,80.086567 C 49.950095,83.359840 54.246958,85.063774 54.168279,88.308037 C 53.840113,92.951347 58.018812,97.025066 62.578133,94.781063 C 65.533053,93.948042 66.729651,90.438825 69.758961,89.628491 C 72.058124,87.687907 71.058749,82.018699 75.255760,81.880729 C 80.983353,79.965294 76.874273,73.117971 78.435181,69.241249 C 80.724711,66.536814 81.696525,62.534233 85.203633,61.036315 C 87.914315,58.662764 86.124805,53.878832 88.874301,51.190488 C 86.545385,52.985795 82.626280,54.556432 80.076772,52.375774 C 76.131154,48.952933 72.886406,44.671395 70.874306,39.842125 C 69.932724,37.706949 69.992424,33.413062 72.326683,33.433175 C 72.694427,37.914007 75.864026,41.523371 78.075734,45.243555 C 80.192072,47.661385 81.668103,51.452258 85.595505,50.184969 C 88.913593,49.060137 93.462232,46.861389 93.535093,42.927369 C 93.225334,38.472431 85.280980,42.632870 83.713774,38.087121 C 80.579177,36.219589 85.847091,33.135051 86.796968,36.597720 C 88.831290,38.673118 92.480119,37.576228 93.976082,40.380561 C 97.004246,39.026947 99.426913,39.979637 100.67444,43.156532 C 103.34344,45.799519 104.06585,49.804675 103.96649,53.426534 C 107.46903,56.841098 106.39249,48.458166 107.31853,46.396941 C 107.45805,44.441937 107.65547,42.034168 108.47890,45.231768 C 111.04174,46.459970 109.25587,41.238348 108.67077,40.062800 C 104.17620,29.794505 102.73165,27.913326 97.801439,22.001977 C 89.664818,14.021475 83.053057,10.615790 74.045047,7.6458105 C 73.390146,10.844772 69.390072,8.0288424 67.482211,10.707756 C 65.480410,12.220790 65.470396,12.027723 66.873944,10.018521 C 65.854639,8.1907215 63.539834,7.3166913 61.758432,6.2842615 z M 47.565673,9.8569574 C 45.565018,8.9099687 40.608579,12.035697 45.046684,11.824797 C 46.301649,12.086242 46.720414,10.456515 47.565673,9.8569574 z M 44.733683,14.540685 C 43.136533,15.151440 39.343219,16.226862 42.696023,16.943123 C 43.656008,16.492341 44.281440,15.457880 44.733683,14.540685 z M 53.883219,28.156176 C 51.454450,29.374660 53.724239,31.796590 55.006193,29.492280 C 54.701774,28.987279 54.224451,28.631199 53.883219,28.156176 z M 108.67201,54.080081 C 105.10491,56.511376 112.89763,58.341102 108.67201,54.080081 z M 6.7192028,60.288743 C 6.5122516,64.745427 7.6563014,69.443527 8.6513842,74.250071 C 9.9354363,76.524304 10.799006,81.181787 12.276657,81.839472 C 13.816394,78.308092 10.649657,74.358335 12.496292,70.704824 C 10.273329,68.956284 13.264493,65.080507 9.6508555,64.024081 C 8.5135762,62.911981 7.6664102,61.555562 6.7192028,60.288743 z M 84.926585,74.666702 C 84.557983,78.781428 78.955324,79.747776 80.000000,83.918226 C 80.998135,86.104520 79.510755,86.265865 79.281202,88.037961 C 81.341178,89.618334 83.092159,84.473800 84.670995,83.077127 C 85.039217,81.043883 89.840775,74.190199 84.926585,74.666702 z " />
    <path
       id="path4861"
       style="fill:url(#linearGradient26786);fill-opacity:1.0000000;fill-rule:evenodd;stroke:none;stroke-width:1.2500000;stroke-linecap:butt;stroke-linejoin:miter;stroke-miterlimit:4.0000000;stroke-opacity:1.0000000"
       d="M 111.62588,58.419268 C 111.62588,29.610308 88.271568,6.2560322 59.462607,6.2560322 C 30.653650,6.2560322 7.2993340,29.610308 7.2993340,58.419268 C 7.2993340,87.228228 30.653650,110.58250 59.462607,110.58250 C 88.271568,110.58250 111.62588,87.228228 111.62588,58.419268 z " />
    <path
       id="path4289"
       style="fill:url(#linearGradient26784);fill-opacity:1.0000000;fill-rule:evenodd;stroke:none;stroke-width:2.3390312;stroke-linecap:butt;stroke-linejoin:miter;stroke-miterlimit:4.0000000;stroke-opacity:1.0000000"
       d="M 108.71654,56.141412 C 108.71654,27.666579 87.163092,4.5831603 60.575472,4.5831603 C 33.987853,4.5831603 12.434302,27.666579 12.434302,56.141412 C 12.434302,84.616253 33.987853,107.69966 60.575472,107.69966 C 87.163092,107.69966 108.71654,84.616253 108.71654,56.141412 z " />
    <path
       id="path4290"
       style="fill:#ffffff;fill-opacity:0.58854169;fill-rule:evenodd;stroke:none;stroke-width:1.0000000pt;stroke-linecap:butt;stroke-linejoin:miter;stroke-opacity:1.0000000"
       d="M 54.972527,5.3910712 C 50.363044,6.3971693 45.434838,6.6473992 41.319176,9.1714235 C 39.725078,9.3016506 33.285077,11.828182 37.583180,12.266899 C 40.245412,11.511318 41.482637,8.7431098 44.454917,8.9752577 C 47.645879,8.0259042 50.927821,6.8963607 54.406511,6.2317798 C 54.765576,6.0648932 54.772919,5.6692346 54.972527,5.3910712 z M 61.758432,6.2842615 C 59.455836,8.9324562 54.146248,8.7640914 53.828955,13.077663 C 54.914161,14.569181 60.253982,7.5491444 61.824238,11.885738 C 62.133520,14.793232 60.195808,18.463241 56.838904,16.568589 C 55.210093,16.432620 53.181682,16.767425 53.249395,15.309800 C 52.404041,17.448141 45.668969,21.586069 48.034699,16.975518 C 49.263246,16.052221 46.315668,15.884342 48.340548,14.298284 C 50.132537,12.478649 44.445668,12.650171 46.598914,14.613013 C 45.351390,16.333095 44.789092,18.162628 42.337338,18.461945 C 44.430027,18.228424 46.605303,17.889958 44.999857,20.123688 C 46.211619,24.676236 38.604204,22.299204 37.670729,25.659683 C 34.904448,30.110757 41.813665,29.875377 43.785999,27.682304 C 43.452968,23.566195 47.688795,24.781074 49.911375,24.374726 C 52.246301,22.641532 54.711692,28.003213 55.867282,29.919866 C 57.382223,30.719309 59.044604,27.586526 56.737337,26.776371 C 57.011046,25.237713 52.056517,22.633674 55.192260,22.521471 C 57.288189,23.636157 58.467335,25.945477 58.862545,27.449221 C 63.039815,27.260018 57.145612,32.087668 61.154936,30.619315 C 63.695383,30.164565 60.881226,25.927528 64.253578,27.589137 C 68.515918,29.225866 62.790043,22.089344 67.655974,22.059169 C 69.916606,20.724267 68.703700,26.698390 70.095710,23.778171 C 70.886035,19.047485 77.213881,25.542466 74.330010,27.436596 C 70.663444,26.416888 66.970268,26.119422 65.382180,30.248291 C 65.160731,32.192602 70.722287,27.443090 70.073584,30.911108 C 71.246053,34.588936 65.471064,35.258755 63.292638,33.984515 C 61.289788,31.573551 59.424555,33.820461 57.933840,34.917466 C 55.610073,34.592694 47.879438,33.978565 51.147456,30.515011 C 52.011883,26.898883 46.633437,30.185852 44.675889,29.371189 C 42.204298,30.710163 38.396204,29.524372 36.420343,31.521012 C 36.137763,33.836360 32.434671,32.559822 31.828408,35.346035 C 30.429055,38.517742 25.791532,39.576971 25.674704,42.976731 C 25.541664,46.776472 23.751869,50.234113 25.739460,53.977615 C 26.217451,57.806395 29.844441,60.175122 33.555450,59.275751 C 35.704216,59.229554 37.720034,61.918137 39.231353,58.676002 C 41.666892,54.663779 44.157460,60.912317 47.210613,59.289855 C 49.724929,62.185905 45.107625,65.630998 49.048760,67.658528 C 52.353306,71.159315 51.371479,76.021660 49.927778,80.086567 C 49.950095,83.359840 54.246958,85.063774 54.168279,88.308037 C 53.840113,92.951347 58.018812,97.025066 62.578133,94.781063 C 65.533053,93.948042 66.729651,90.438825 69.758961,89.628491 C 72.058124,87.687907 71.058749,82.018699 75.255760,81.880729 C 80.983353,79.965294 76.874273,73.117971 78.435181,69.241249 C 80.724711,66.536814 81.696525,62.534233 85.203633,61.036315 C 87.914315,58.662764 86.124805,53.878832 88.874301,51.190488 C 86.545385,52.985795 82.626280,54.556432 80.076772,52.375774 C 76.131154,48.952933 72.886406,44.671395 70.874306,39.842125 C 69.932724,37.706949 69.992424,33.413062 72.326683,33.433175 C 72.694427,37.914007 75.864026,41.523371 78.075734,45.243555 C 80.192072,47.661385 81.668103,51.452258 85.595505,50.184969 C 88.913593,49.060137 93.462232,46.861389 93.535093,42.927369 C 93.225334,38.472431 85.280980,42.632870 83.713774,38.087121 C 80.579177,36.219589 85.847091,33.135051 86.796968,36.597720 C 88.831290,38.673118 92.480119,37.576228 93.976082,40.380561 C 97.004246,39.026947 99.426913,39.979637 100.67444,43.156532 C 103.34344,45.799519 104.06585,49.804675 103.96649,53.426534 C 107.46903,56.841098 106.39249,48.458166 107.31853,46.396941 C 107.45805,44.441937 107.65547,42.034168 108.47890,45.231768 C 111.04174,46.459970 109.25587,41.238348 108.67077,40.062800 C 104.17620,29.794505 102.73165,27.913326 97.801439,22.001977 C 89.664818,14.021475 83.053057,10.615790 74.045047,7.6458105 C 73.390146,10.844772 69.390072,8.0288424 67.482211,10.707756 C 65.480410,12.220790 65.470396,12.027723 66.873944,10.018521 C 65.854639,8.1907215 63.539834,7.3166913 61.758432,6.2842615 z M 47.565673,9.8569574 C 45.565018,8.9099687 40.608579,12.035697 45.046684,11.824797 C 46.301649,12.086242 46.720414,10.456515 47.565673,9.8569574 z M 44.733683,14.540685 C 43.136533,15.151440 39.343219,16.226862 42.696023,16.943123 C 43.656008,16.492341 44.281440,15.457880 44.733683,14.540685 z M 53.883219,28.156176 C 51.454450,29.374660 53.724239,31.796590 55.006193,29.492280 C 54.701774,28.987279 54.224451,28.631199 53.883219,28.156176 z M 108.67201,54.080081 C 105.10491,56.511376 112.89763,58.341102 108.67201,54.080081 z M 6.7192028,60.288743 C 6.5122516,64.745427 7.6563014,69.443527 8.6513842,74.250071 C 9.9354363,76.524304 10.799006,81.181787 12.276657,81.839472 C 13.816394,78.308092 10.649657,74.358335 12.496292,70.704824 C 10.273329,68.956284 13.264493,65.080507 9.6508555,64.024081 C 8.5135762,62.911981 7.6664102,61.555562 6.7192028,60.288743 z M 84.926585,74.666702 C 84.557983,78.781428 78.955324,79.747776 80.000000,83.918226 C 80.998135,86.104520 79.510755,86.265865 79.281202,88.037961 C 81.341178,89.618334 83.092159,84.473800 84.670995,83.077127 C 85.039217,81.043883 89.840775,74.190199 84.926585,74.666702 z " />
    <path
       id="path4291"
       style="fill:none;fill-opacity:1.0000000;fill-rule:evenodd;stroke:none;stroke-width:3.7500000;stroke-linecap:butt;stroke-linejoin:miter;stroke-miterlimit:4.0000000;stroke-opacity:1.0000000"
       d="M 115.92112,58.516240 C 115.92112,27.427488 90.718648,2.2250592 59.629886,2.2250592 C 28.541123,2.2250592 3.3387439,27.427488 3.3387439,58.516240 C 3.3387439,89.605010 28.541123,114.80744 59.629886,114.80744 C 90.718648,114.80744 115.92112,89.605010 115.92112,58.516240 z " />
    <g
       transform="matrix(1.429996,0.000000,0.000000,1.429996,-0.538495,-6.004380)"
       id="g61111">
      <path
         transform="matrix(0.117492,0.000000,0.000000,0.117492,-12.88170,-25.03800)"
         d="M 593.10155 574.42596 A 230.33070 230.33070 0 1 1  132.44014,574.42596 A 230.33070 230.33070 0 1 1  593.10155 574.42596 z"
         sodipodi:ry="230.33070"
         sodipodi:rx="230.33070"
         sodipodi:cy="574.42596"
         sodipodi:cx="362.77084"
         id="path188"
         style="stroke-dasharray:none;stroke-opacity:1.0000000;stroke-dashoffset:0.0000000;stroke-miterlimit:4.0000000;stroke-linejoin:round;stroke-linecap:round;stroke-width:14.879793;stroke:#575757;fill-rule:nonzero;fill-opacity:1.0000000;fill:#cccccc"
         sodipodi:type="arc" />
      <path
         transform="matrix(0.113110,0.000000,0.000000,0.113110,-11.29177,-22.52050)"
         d="M 593.10155 574.42596 A 230.33070 230.33070 0 1 1  132.44014,574.42596 A 230.33070 230.33070 0 1 1  593.10155 574.42596 z"
         sodipodi:ry="230.33070"
         sodipodi:rx="230.33070"
         sodipodi:cy="574.42596"
         sodipodi:cx="362.77084"
         id="path167"
         style="fill:url(#linearGradient61128);fill-opacity:1.0000000;fill-rule:nonzero;stroke:none;stroke-width:25.774260;stroke-linecap:round;stroke-linejoin:round;stroke-miterlimit:4.0000000;stroke-dashoffset:0.0000000;stroke-opacity:1.0000000"
         sodipodi:type="arc" />
      <path
         transform="matrix(0.101326,0.000000,0.000000,-0.101326,-7.017260,100.6567)"
         d="M 593.10155 574.42596 A 230.33070 230.33070 0 1 1  132.44014,574.42596 A 230.33070 230.33070 0 1 1  593.10155 574.42596 z"
         sodipodi:ry="230.33070"
         sodipodi:rx="230.33070"
         sodipodi:cy="574.42596"
         sodipodi:cx="362.77084"
         id="path172"
         style="opacity:0.23899366;fill:url(#linearGradient61130);fill-opacity:1.0000000;fill-rule:nonzero;stroke:none;stroke-width:25.774260;stroke-linecap:round;stroke-linejoin:round;stroke-miterlimit:4.0000000;stroke-dashoffset:0.0000000;stroke-opacity:1.0000000"
         sodipodi:type="arc" />
      <path
         transform="matrix(1.044395,0.000000,0.000000,1.044395,-6.446684,3.484832)"
         d="M 56.214989 37.136780 A 21.920311 21.920311 0 1 1  12.374367,37.136780 A 21.920311 21.920311 0 1 1  56.214989 37.136780 z"
         sodipodi:ry="21.920311"
         sodipodi:rx="21.920311"
         sodipodi:cy="37.136780"
         sodipodi:cx="34.294678"
         id="path11"
         style="fill:url(#linearGradient61132);fill-opacity:1.0000000;fill-rule:evenodd;stroke:none;stroke-width:7.5000000;stroke-linecap:butt;stroke-linejoin:miter;stroke-miterlimit:4.0000000;stroke-dashoffset:0.0000000;stroke-opacity:1.0000000"
         sodipodi:type="arc" />
      <path
         sodipodi:nodetypes="cccccccccccccccc"
         id="path189"
         d="M 27.630539,17.960140 L 29.736142,29.633063 L 31.841752,17.960140 L 27.630539,17.960140 z M 5.2585264,40.345308 L 5.2585264,44.556505 L 16.931457,42.450903 L 5.2585264,40.345308 z M 42.553989,42.450903 L 54.226921,44.556505 L 54.226921,40.345308 L 42.553989,42.450903 z M 27.630539,66.941674 L 31.841752,66.941674 L 29.736142,55.268743 L 27.630539,66.941674 z "
         style="fill:#000000;fill-opacity:1.0000000;fill-rule:evenodd;stroke:none;stroke-width:10.000000;stroke-linecap:square;stroke-linejoin:miter;stroke-miterlimit:4.0000000;stroke-opacity:1.0000000" />
      <path
         id="path190"
         d="M 19.096995,21.949924 L 17.308668,22.986645 L 17.827021,23.880807 L 19.006268,25.928309 C 19.580202,25.554698 20.207459,25.256869 20.820524,24.943435 L 19.615347,22.844087 L 19.096995,21.949924 z M 40.375503,21.949924 L 39.857135,22.844087 L 38.651965,24.943435 C 39.268843,25.258536 39.888947,25.565274 40.466206,25.941275 L 41.658434,23.880807 L 42.176794,22.986645 L 40.375503,21.949924 z M 10.271982,30.010358 L 9.2352700,31.811657 L 10.129440,32.330002 L 12.241746,33.548137 C 12.557136,32.930521 12.850171,32.298859 13.226597,31.720938 L 11.166153,30.528725 L 10.271982,30.010358 z M 49.213473,30.010358 L 48.306344,30.528725 L 46.258849,31.707987 C 46.635603,32.285673 46.927968,32.917776 47.243716,33.535172 L 49.343064,32.330002 L 50.250185,31.811657 L 49.213473,30.010358 z M 12.228781,51.366634 L 10.129440,52.571812 L 9.2352700,53.090157 L 10.271982,54.891449 L 11.166153,54.373081 L 13.226597,53.180861 C 12.850019,52.602665 12.544268,51.984562 12.228781,51.366634 z M 47.256674,51.366634 C 46.939466,51.987971 46.637833,52.612671 46.258849,53.193826 L 48.306344,54.373081 L 49.213473,54.891449 L 50.250185,53.090157 L 49.343064,52.571812 L 47.256674,51.366634 z M 40.466206,58.960539 C 39.888947,59.336524 39.268843,59.643278 38.651965,59.958378 L 39.857135,62.057719 L 40.375503,62.951875 L 42.176794,61.915169 L 41.658434,61.021007 L 40.466206,58.960539 z M 19.006268,58.973504 L 17.827021,61.021007 L 17.308668,61.915169 L 19.096995,62.951875 L 19.615347,62.057719 L 20.820524,59.958378 C 20.207459,59.644937 19.580202,59.347115 19.006268,58.973504 z "
         style="fill:#000000;fill-opacity:0.48026314;fill-rule:evenodd;stroke:none;stroke-width:5.0000000;stroke-linecap:square;stroke-linejoin:miter;stroke-miterlimit:4.0000000;stroke-opacity:1.0000000" />
      <path
         transform="matrix(1.043784e-2,0.000000,0.000000,1.043784e-2,25.95443,33.52179)"
         d="M 593.10155 574.42596 A 230.33070 230.33070 0 1 1  132.44014,574.42596 A 230.33070 230.33070 0 1 1  593.10155 574.42596 z"
         sodipodi:ry="230.33070"
         sodipodi:rx="230.33070"
         sodipodi:cy="574.42596"
         sodipodi:cx="362.77084"
         id="path191"
         style="fill:#000000;fill-opacity:1.0000000;fill-rule:nonzero;stroke:none;stroke-width:96.708092;stroke-linecap:round;stroke-linejoin:round;stroke-miterlimit:4.0000000;stroke-dashoffset:0.0000000;stroke-opacity:1.0000000"
         sodipodi:type="arc" />
      <path
         sodipodi:nodetypes="cc"
         id="path192"
         d="M 33.719666,40.083718 L 17.044096,36.041304"
         style="fill:none;fill-opacity:0.75000000;fill-rule:evenodd;stroke:#000000;stroke-width:2.0188472;stroke-linecap:round;stroke-linejoin:miter;stroke-miterlimit:4.0000000;stroke-opacity:1.0000000" />
      <path
         sodipodi:nodetypes="cc"
         id="path193"
         d="M 29.386463,39.956433 L 34.219639,32.058723"
         style="fill:none;fill-opacity:0.75000000;fill-rule:evenodd;stroke:#000000;stroke-width:2.5235586;stroke-linecap:round;stroke-linejoin:miter;stroke-miterlimit:4.0000000;stroke-opacity:1.0000000" />
    </g>
    <path
       id="path4292"
       style="fill:none;fill-opacity:0.94117647;fill-rule:evenodd;stroke:none;stroke-width:5.8040280;stroke-linecap:butt;stroke-linejoin:miter;stroke-miterlimit:4.0000000;stroke-opacity:1.0000000"
       d="M 115.92112,58.516240 C 115.92112,27.427488 90.718648,2.2250592 59.629886,2.2250592 C 28.541123,2.2250592 3.3387439,27.427488 3.3387439,58.516240 C 3.3387439,89.605010 28.541123,114.80744 59.629886,114.80744 C 90.718648,114.80744 115.92112,89.605010 115.92112,58.516240 z " />
    <path
       sodipodi:nodetypes="czzcccc"
       id="path7228"
       d="M 25.129327,67.043395 L 60.407120,35.293333 C 71.532077,25.280863 77.504413,25.280863 88.629452,35.293333 L 123.90724,67.043370 L 123.90724,119.96013 L 25.129327,119.96015 L 25.129327,67.043395 z "
       style="fill:#f5f5f5;fill-opacity:1.0000000;fill-rule:evenodd;stroke:url(#linearGradient274);stroke-width:0.70555668pt;stroke-linecap:butt;stroke-linejoin:miter;stroke-opacity:1.0000000" />
    <path
       id="path1204"
       d="M 29.687500,67.043395 C 28.251028,67.043395 27.094639,68.199817 27.094639,69.636281 L 27.094639,113.83947 C 27.094639,115.27593 28.251028,116.43236 29.687500,116.43236 L 116.22407,116.43235 C 117.66054,116.43234 118.81702,115.27592 118.81702,113.83945 L 118.81693,69.636264 C 118.81693,68.199800 117.66054,67.043370 116.22407,67.043379 L 29.687500,67.043395 z "
       style="fill:url(#linearGradient273);fill-opacity:1.0000000;stroke:none;stroke-width:6.2500000;stroke-linecap:round;stroke-linejoin:round;stroke-miterlimit:4.0000000;stroke-dashoffset:0.0000000;stroke-opacity:1.0000000" />
    <path
       id="path7229"
       d="M 31.691942,67.043395 C 30.255470,67.043395 29.099081,68.199817 29.099081,69.636281 L 29.099081,113.83947 C 29.099081,115.27593 30.255470,116.43236 31.691942,116.43236 L 118.22851,116.43235 C 119.66498,116.43234 120.82146,115.27592 120.82146,113.83945 L 120.82137,69.636264 C 120.82137,68.199800 119.66498,67.043370 118.22851,67.043379 L 31.691942,67.043395 z "
       style="fill:url(#linearGradient272);fill-opacity:1.0000000;stroke:none;stroke-width:6.2500000;stroke-linecap:round;stroke-linejoin:round;stroke-miterlimit:4.0000000;stroke-dashoffset:0.0000000;stroke-opacity:1.0000000" />
    <path
       sodipodi:nodetypes="czzzzzz"
       id="path7230"
       d="M 27.425348,70.100658 L 59.598462,87.974646 C 68.973281,93.182869 78.822096,93.182861 88.196915,87.974638 L 120.37003,70.100642 C 121.84321,69.282247 120.37003,66.525839 116.79528,66.525849 L 31.000092,66.525864 C 27.425348,66.525864 25.952169,69.282271 27.425348,70.100658 z "
       style="fill:url(#linearGradient271);fill-opacity:1.0000000;fill-rule:evenodd;stroke:none;stroke-width:1.0000000pt;stroke-linecap:butt;stroke-linejoin:miter;stroke-opacity:1.0000000" />
    <path
       sodipodi:nodetypes="czzcc"
       id="path7231"
       d="M 32.184869,116.43236 L 60.407120,98.793436 C 71.696102,91.737866 80.868282,91.737866 92.157182,98.793436 L 120.37952,116.43234 L 32.184869,116.43236 z "
       style="fill:url(#linearGradient270);fill-opacity:1.0000000;fill-rule:evenodd;stroke:none;stroke-width:1.0000000pt;stroke-linecap:butt;stroke-linejoin:miter;stroke-opacity:1.0000000" />
    <path
       sodipodi:nodetypes="czzcc"
       id="path7232"
       d="M 25.129327,67.043395 L 60.407120,35.293333 C 71.532077,25.280863 77.504413,25.280863 88.629452,35.293333 L 123.90724,67.043370 L 25.129327,67.043395 z "
       style="fill:url(#linearGradient269);fill-opacity:1.0000000;fill-rule:evenodd;stroke:none;stroke-width:1.0000000pt;stroke-linecap:butt;stroke-linejoin:miter;stroke-opacity:1.0000000" />
    <path
       sodipodi:nodetypes="ccccccccccc"
       id="path7233"
       d="M 74.518286,28.721644 C 70.255523,28.721644 66.157115,31.505700 62.369507,35.293333 L 25.818034,67.413737 L 28.948967,70.544644 L 65.500357,38.424240 C 68.768291,35.156305 71.725425,33.131372 74.518286,33.131372 C 77.311065,33.131372 80.268281,35.156305 83.536215,38.424240 L 119.93508,70.695248 L 123.06601,67.564340 L 86.667065,35.293333 C 82.879457,31.505700 78.781049,28.721644 74.518286,28.721644 z "
       style="fill:url(#linearGradient268);fill-opacity:1.0000000;fill-rule:evenodd;stroke:none;stroke-width:6.2500000;stroke-linecap:butt;stroke-linejoin:miter;stroke-miterlimit:4.0000000;stroke-opacity:1.0000000" />
    <path
       id="path7234"
       d="M 28.140297,69.452728 L 26.710315,72.022114 L 58.883513,89.896102 C 68.638778,95.315696 79.156598,95.315696 88.911864,89.896094 L 121.08506,72.022097 L 119.65508,69.452710 L 87.481966,87.326706 C 78.487593,92.323566 69.307783,92.323566 60.313493,87.326715 L 28.140297,69.452728 z "
       style="fill:url(#linearGradient267);fill-opacity:1.0000000;fill-rule:evenodd;stroke:none;stroke-width:4.0948701;stroke-linecap:butt;stroke-linejoin:miter;stroke-miterlimit:4.0000000;stroke-opacity:1.0000000" />
    <path
       sodipodi:nodetypes="czzcccc"
       id="path26823"
       d="M 25.129327,66.995778 L 60.407120,35.245716 C 71.532077,25.233246 77.504413,25.233246 88.629452,35.245716 L 123.90724,66.995753 L 123.90724,119.91251 L 25.129327,119.91253 L 25.129327,66.995778 z "
       style="fill:none;fill-opacity:1.0000000;fill-rule:evenodd;stroke:url(#linearGradient266);stroke-width:2.5000000;stroke-linecap:butt;stroke-linejoin:miter;stroke-miterlimit:4.0000000;stroke-opacity:1.0000000" />
    <path
       sodipodi:nodetypes="cccccccc"
       id="path26796"
       d="M 71.373278,27.637767 C 63.312228,30.560707 57.711738,37.489877 51.269518,42.846237 C 42.204082,51.010717 33.125562,59.161417 24.068280,67.334497 C 24.068280,85.469137 24.068280,102.35379 24.068280,120.48843 C 57.843918,120.48843 91.619558,120.48843 125.39520,120.48843 C 125.33135,102.33522 125.52278,85.326257 125.29970,67.238997 C 112.07678,55.486637 99.143398,43.399617 85.730678,31.866657 C 81.671178,28.754987 76.628518,26.132427 71.373278,27.637767 z "
       style="fill:none;fill-opacity:1.0000000;fill-rule:evenodd;stroke:#444444;stroke-width:2.5000000;stroke-linecap:butt;stroke-linejoin:miter;stroke-miterlimit:4.0000000;stroke-opacity:1.0000000" />
  </g>
</svg>
