<?xml version="1.0" encoding="UTF-8" standalone="no"?>
<!-- Created with Inkscape (http://www.inkscape.org/) -->
<!-- 
Created By Andrew Fitzsimon.
Much of this document has been manually cleaned and crafted in a text editor so that only the colour definitions and basic presentation related data remain in the XML. 
Changes to this document may compromise the structure of this palette.
-->
<svg
   xmlns:dc="http://purl.org/dc/elements/1.1/"
   xmlns:cc="http://web.resource.org/cc/"
   xmlns:rdf="http://www.w3.org/1999/02/22-rdf-syntax-ns#"
   xmlns:svg="http://www.w3.org/2000/svg"
   xmlns="http://www.w3.org/2000/svg"
   xmlns:xlink="http://www.w3.org/1999/xlink"
   xmlns:sodipodi="http://inkscape.sourceforge.net/DTD/sodipodi-0.dtd"
   xmlns:inkscape="http://www.inkscape.org/namespaces/inkscape"
   sodipodi:docbase="/home/andy/Desktop/Etiquette/etiquette/scalable/apps"
   sodipodi:docname="galeon.svg"
   inkscape:version="0.40+cvs"
   sodipodi:version="0.32"
   id="Etiquette"
   height="128"
   width="128"
   y="00"
   x="00"
   version="1.0">
  <metadata
     id="About">
    <rdf:RDF
       id="RDF232">
      <cc:Work
         id="Work233"
         rdf:about="">
        <dc:format
           id="format234">image/svg+xml</dc:format>
        <dc:type
           rdf:resource="http://purl.org/dc/dcmitype/StillImage"
           id="type236" />
        <dc:creator
           id="creator1291">
          <cc:Agent
             id="Agent1292">
            <dc:title
               id="title1293">Andrew Fitzsimon</dc:title>
          </cc:Agent>
        </dc:creator>
        <dc:date
           id="date1295">2004-12-25</dc:date>
        <dc:title
           id="title1297">Etiquette Icon</dc:title>
        <cc:license
           rdf:resource="http://creativecommons.org/licenses/by/2.0/"
           id="license1299" />
        <dc:rights
           id="rights1308">
          <cc:Agent
             id="Agent1309">
            <dc:title
               id="title1310">Andrew Fitzsimon</dc:title>
          </cc:Agent>
        </dc:rights>
      </cc:Work>
      <cc:License
         id="License1300"
         rdf:about="http://creativecommons.org/licenses/by/2.0/">
        <cc:permits
           id="permits1301"
           rdf:resource="http://web.resource.org/cc/Reproduction" />
        <cc:permits
           id="permits1302"
           rdf:resource="http://web.resource.org/cc/Distribution" />
        <cc:requires
           id="requires1303"
           rdf:resource="http://web.resource.org/cc/Notice" />
        <cc:requires
           id="requires1304"
           rdf:resource="http://web.resource.org/cc/Attribution" />
        <cc:prohibits
           id="prohibits1305"
           rdf:resource="http://web.resource.org/cc/CommercialUse" />
        <cc:permits
           id="permits1306"
           rdf:resource="http://web.resource.org/cc/DerivativeWorks" />
        <cc:requires
           id="requires1307"
           rdf:resource="http://web.resource.org/cc/ShareAlike" />
      </cc:License>
    </rdf:RDF>
  </metadata>
  <sodipodi:namedview
     inkscape:guide-bbox="true"
     showguides="true"
     gridempopacity="0.082352941"
     gridempcolor="#3f3fff"
     gridempspacing="2"
     gridopacity="0.082352941"
     gridcolor="#3f3fff"
     inkscape:grid-bbox="false"
     showborder="true"
     gridtolerance="40pt"
     inkscape:grid-points="false"
     gridoriginx="0pt"
     gridoriginy="0.0000000pt"
     gridspacingy="8.0000000pt"
     gridspacingx="8.0000000pt"
     showgrid="false"
     inkscape:current-layer="Etiquette"
     inkscape:window-y="20"
     inkscape:window-x="222"
     inkscape:window-height="681"
     inkscape:window-width="491"
     inkscape:cy="19.867737"
     inkscape:cx="48.450531"
     inkscape:zoom="0.50000000"
     inkscape:pageshadow="0"
     inkscape:pageopacity="0.0000000"
     borderopacity="1.0"
     bordercolor="#666666"
     pagecolor="#838383"
     id="base" />
  <defs
     id="Gradients">
    <linearGradient
       gradientUnits="userSpaceOnUse"
       gradientTransform="scale(0.966440,1.034726)"
       y2="63.478682"
       x2="47.883642"
       y1="122.52772"
       x1="50.483072"
       id="linearGradient126"
       xlink:href="#linearGradient1610"
       inkscape:collect="always" />
    <linearGradient
       gradientUnits="userSpaceOnUse"
       gradientTransform="scale(0.719200,1.390433)"
       y2="6.1396285"
       x2="36.297356"
       y1="15.542773"
       x1="40.706754"
       id="linearGradient1643"
       xlink:href="#linearGradient1637"
       inkscape:collect="always" />
    <linearGradient
       id="linearGradient1610">
      <stop
         id="stop1611"
         offset="0.0000000"
         style="stop-color:#ffffff;stop-opacity:1.0000000;" />
      <stop
         id="stop1612"
         offset="1.0000000"
         style="stop-color:#ffffff;stop-opacity:0.0000000;" />
    </linearGradient>
    <linearGradient
       gradientUnits="userSpaceOnUse"
       gradientTransform="scale(0.765629,1.306116)"
       y2="30.648182"
       x2="16.346368"
       y1="23.820696"
       x1="16.872073"
       id="linearGradient125"
       xlink:href="#linearGradient1610"
       inkscape:collect="always" />
    <linearGradient
       gradientUnits="userSpaceOnUse"
       gradientTransform="scale(0.726987,1.375541)"
       y2="3.5434388"
       x2="62.230888"
       y1="10.089661"
       x1="64.581284"
       id="linearGradient1641"
       xlink:href="#linearGradient1637"
       inkscape:collect="always" />
    <linearGradient
       gradientUnits="userSpaceOnUse"
       gradientTransform="scale(0.964913,1.036363)"
       y2="-4.4724741"
       x2="73.044064"
       y1="15.094221"
       x1="85.670241"
       id="linearGradient1640"
       xlink:href="#linearGradient1637"
       inkscape:collect="always" />
    <linearGradient
       y2="53.386021"
       x2="107.11817"
       y1="53.386021"
       x1="-0.55672579"
       gradientTransform="scale(0.902858,1.107593)"
       gradientUnits="userSpaceOnUse"
       id="linearGradient124"
       xlink:href="#linearGradient4059"
       inkscape:collect="always" />
    <radialGradient
       r="60.482594"
       fy="58.433282"
       fx="53.793465"
       cy="58.433282"
       cx="53.793465"
       gradientTransform="scale(0.902858,1.107593)"
       gradientUnits="userSpaceOnUse"
       id="radialGradient123"
       xlink:href="#linearGradient4059"
       inkscape:collect="always" />
    <linearGradient
       y2="53.386021"
       x2="107.11817"
       y1="53.386021"
       x1="-0.55672579"
       gradientTransform="scale(0.902858,1.107593)"
       gradientUnits="userSpaceOnUse"
       id="linearGradient122"
       xlink:href="#linearGradient4059"
       inkscape:collect="always" />
    <radialGradient
       r="60.482594"
       fy="58.433282"
       fx="53.793465"
       cy="58.433282"
       cx="53.793465"
       gradientTransform="scale(0.902858,1.107593)"
       gradientUnits="userSpaceOnUse"
       id="radialGradient121"
       xlink:href="#linearGradient4059"
       inkscape:collect="always" />
    <linearGradient
       y2="53.386021"
       x2="107.11817"
       y1="53.386021"
       x1="-0.55672579"
       gradientTransform="scale(0.902858,1.107593)"
       gradientUnits="userSpaceOnUse"
       id="linearGradient120"
       xlink:href="#linearGradient4059"
       inkscape:collect="always" />
    <radialGradient
       r="60.482594"
       fy="58.433282"
       fx="53.793465"
       cy="58.433282"
       cx="53.793465"
       gradientTransform="scale(0.902858,1.107593)"
       gradientUnits="userSpaceOnUse"
       id="radialGradient119"
       xlink:href="#linearGradient4059"
       inkscape:collect="always" />
    <linearGradient
       y2="53.386021"
       x2="107.11817"
       y1="53.386021"
       x1="-0.55672579"
       gradientTransform="scale(0.902858,1.107593)"
       gradientUnits="userSpaceOnUse"
       id="linearGradient118"
       xlink:href="#linearGradient4059"
       inkscape:collect="always" />
    <radialGradient
       r="60.482594"
       fy="58.433282"
       fx="53.793465"
       cy="58.433282"
       cx="53.793465"
       gradientTransform="scale(0.902858,1.107593)"
       gradientUnits="userSpaceOnUse"
       id="radialGradient117"
       xlink:href="#linearGradient4059"
       inkscape:collect="always" />
    <linearGradient
       y2="53.386021"
       x2="107.11817"
       y1="53.386021"
       x1="-0.55672579"
       gradientTransform="scale(0.902858,1.107593)"
       gradientUnits="userSpaceOnUse"
       id="linearGradient116"
       xlink:href="#linearGradient4059"
       inkscape:collect="always" />
    <radialGradient
       r="60.482594"
       fy="58.433282"
       fx="53.793465"
       cy="58.433282"
       cx="53.793465"
       gradientTransform="scale(0.902858,1.107593)"
       gradientUnits="userSpaceOnUse"
       id="radialGradient115"
       xlink:href="#linearGradient4059"
       inkscape:collect="always" />
    <linearGradient
       id="linearGradient4059"
       inkscape:collect="always">
      <stop
         id="stop4060"
         offset="0.0000000"
         style="stop-color:#314e6c;stop-opacity:1.0000000;" />
      <stop
         id="stop4062"
         offset="1.0000000"
         style="stop-color:#4b6983;stop-opacity:1.0000000;" />
    </linearGradient>
    <linearGradient
       id="linearGradient1637"
       inkscape:collect="always">
      <stop
         id="stop1638"
         offset="0.0000000"
         style="stop-color:#9db8d2;stop-opacity:0.0000000;" />
      <stop
         id="stop1639"
         offset="1.0000000"
         style="stop-color:#9db8d2;stop-opacity:1.0000000;" />
    </linearGradient>
    <linearGradient
       gradientUnits="userSpaceOnUse"
       gradientTransform="scale(0.967354,1.033747)"
       y2="150.13358"
       x2="93.128272"
       y1="77.293905"
       x1="44.083505"
       id="linearGradient3766"
       xlink:href="#linearGradient1637"
       inkscape:collect="always" />
    <linearGradient
       id="linearGradient3769"
       inkscape:collect="always">
      <stop
         id="stop3770"
         offset="0.0000000"
         style="stop-color:#000000;stop-opacity:0.68235296;" />
      <stop
         id="stop3772"
         offset="0.49423531"
         style="stop-color:#000000;stop-opacity:0.30196080;" />
      <stop
         id="stop3771"
         offset="1.0000000"
         style="stop-color:#767676;stop-opacity:0.0000000;" />
    </linearGradient>
    <radialGradient
       gradientUnits="userSpaceOnUse"
       fy="185.58226"
       fx="33.517362"
       r="32.980854"
       cy="163.86316"
       cx="33.388023"
       id="radialGradient3768"
       xlink:href="#linearGradient3769"
       inkscape:collect="always" />
    <linearGradient
       id="linearGradient2381">
      <stop
         id="stop2382"
         offset="0.0000000"
         style="stop-color:#000000;stop-opacity:0.47058824;" />
      <stop
         id="stop2384"
         offset="0.31578946"
         style="stop-color:#000000;stop-opacity:0.19191919;" />
      <stop
         id="stop2383"
         offset="1.0000000"
         style="stop-color:#6f6f6f;stop-opacity:0.0000000;" />
    </linearGradient>
    <linearGradient
       id="linearGradient1694">
      <stop
         id="stop1696"
         offset="0.0000000"
         style="stop-color:#9db8d2;stop-opacity:1.0000000;" />
      <stop
         id="stop1698"
         offset="0.56999999"
         style="stop-color:#7590ae;stop-opacity:1.0000000;" />
      <stop
         id="stop1697"
         offset="1.0000000"
         style="stop-color:#314e6c;stop-opacity:1.0000000;" />
    </linearGradient>
    <linearGradient
       id="linearGradient1693">
      <stop
         id="stop1694"
         offset="0.00000000"
         style="stop-color:#ffffff;stop-opacity:1.0000000;" />
      <stop
         id="stop1695"
         offset="1.0000000"
         style="stop-color:#ffffff;stop-opacity:0.00000000;" />
    </linearGradient>
    <linearGradient
       id="MaterialSoftShadow">
      <stop
         id="stop2619"
         offset="0"
         style="stop-color:#000000;stop-opacity:0.215;" />
      <stop
         id="stop2621"
         offset="0.50000000"
         style="stop-color:#000000;stop-opacity:0.098;" />
      <stop
         id="stop2620"
         offset="1"
         style="stop-color:#000000;stop-opacity:0;" />
    </linearGradient>
    <linearGradient
       id="WhiteTransparent">
      <stop
         id="stopWhiteFull"
         offset="0"
         style="stop-color:#ffffff;stop-opacity:1;" />
      <stop
         id="stopWhiteTransparent"
         offset="1"
         style="stop-color:#ffffff;stop-opacity:0;" />
    </linearGradient>
    <linearGradient
       y2="276.50476"
       x2="246.58887"
       y1="330.42316"
       x1="246.58887"
       gradientTransform="matrix(0.756423,0.000000,0.000000,0.756423,-121.4328,-123.5441)"
       gradientUnits="userSpaceOnUse"
       id="linearGradient26786"
       xlink:href="#WhiteTransparent"
       inkscape:collect="always" />
    <linearGradient
       y2="162.85263"
       x2="72.715558"
       y1="-11.108592"
       x1="88.009292"
       gradientTransform="matrix(0.862119,0.000000,0.000000,0.751540,-0.710613,2.616517)"
       gradientUnits="userSpaceOnUse"
       id="linearGradient26788"
       xlink:href="#linearGradient1693"
       inkscape:collect="always" />
    <radialGradient
       r="83.198463"
       fy="203.93304"
       fx="242.12482"
       cy="248.48956"
       cx="244.43382"
       gradientTransform="matrix(0.756423,0.000000,0.000000,0.756423,-121.4328,-123.5441)"
       gradientUnits="userSpaceOnUse"
       id="radialGradient26790"
       xlink:href="#linearGradient1694"
       inkscape:collect="always" />
    <radialGradient
       r="125.20509"
       fy="598.36652"
       fx="-289.09140"
       cy="598.36652"
       cx="-289.09140"
       gradientUnits="userSpaceOnUse"
       id="radialGradient26794"
       xlink:href="#linearGradient2381"
       inkscape:collect="always" />
    <radialGradient
       r="125.20509"
       fy="598.36652"
       fx="-289.09140"
       cy="598.36652"
       cx="-289.09140"
       gradientUnits="userSpaceOnUse"
       id="radialGradient26795"
       xlink:href="#MaterialSoftShadow"
       inkscape:collect="always" />
    <linearGradient
       y2="63.478682"
       x2="47.883642"
       y1="122.52772"
       x1="50.483072"
       gradientTransform="matrix(0.633190,0.000000,0.000000,0.677930,33.93124,30.80595)"
       gradientUnits="userSpaceOnUse"
       id="linearGradient296"
       xlink:href="#linearGradient1610"
       inkscape:collect="always" />
  </defs>
  <path
     transform="matrix(-0.322487,0.000000,0.000000,8.971150e-2,-32.36858,52.33634)"
     d="M -163.88631 598.36652 A 125.20509 125.20509 0 1 1  -414.29649,598.36652 A 125.20509 125.20509 0 1 1  -163.88631 598.36652 z"
     sodipodi:ry="125.20509"
     sodipodi:rx="125.20509"
     sodipodi:cy="598.36652"
     sodipodi:cx="-289.09140"
     id="path4284"
     style="fill:url(#radialGradient26795);fill-opacity:1.0000000;fill-rule:evenodd;stroke:none;stroke-width:1.0000000pt;stroke-linecap:butt;stroke-linejoin:miter;stroke-opacity:1.0000000"
     sodipodi:type="arc" />
  <path
     transform="matrix(-0.450751,0.000000,0.000000,0.275963,-63.56894,-74.35010)"
     d="M -163.88631 598.36652 A 125.20509 125.20509 0 1 1  -414.29649,598.36652 A 125.20509 125.20509 0 1 1  -163.88631 598.36652 z"
     sodipodi:ry="125.20509"
     sodipodi:rx="125.20509"
     sodipodi:cy="598.36652"
     sodipodi:cx="-289.09140"
     id="path4285"
     style="fill:url(#radialGradient26794);fill-opacity:1.0000000;fill-rule:evenodd;stroke:none;stroke-width:1.0000000pt;stroke-linecap:butt;stroke-linejoin:miter;stroke-opacity:1.0000000"
     sodipodi:type="arc" />
  <path
     id="path4286"
     style="fill:#314e6c;fill-opacity:1.0000000;fill-rule:evenodd;stroke:none;stroke-width:8.7163954;stroke-linecap:butt;stroke-linejoin:miter;stroke-miterlimit:4.0000000;stroke-opacity:1.0000000"
     d="M 119.92112,64.516240 C 119.92112,33.427488 94.718648,8.2250592 63.629886,8.2250592 C 32.541123,8.2250592 7.3387439,33.427488 7.3387439,64.516240 C 7.3387439,95.605010 32.541123,120.80744 63.629886,120.80744 C 94.718648,120.80744 119.92112,95.605010 119.92112,64.516240 z " />
  <path
     id="path4287"
     style="fill:url(#radialGradient26790);fill-opacity:1.0000000;fill-rule:evenodd;stroke:none;stroke-width:2.5000000;stroke-linecap:butt;stroke-linejoin:miter;stroke-miterlimit:4.0000000;stroke-opacity:0.41447368"
     d="M 119.75376,64.419268 C 119.75376,33.330506 94.551369,8.1280878 63.462607,8.1280878 C 32.373847,8.1280878 7.1714659,33.330506 7.1714659,64.419268 C 7.1714659,95.508021 32.373847,120.71045 63.462607,120.71045 C 94.551369,120.71045 119.75376,95.508021 119.75376,64.419268 z " />
  <path
     id="path4288"
     style="fill:url(#linearGradient26788);fill-opacity:1.0000000;fill-rule:evenodd;stroke:none;stroke-width:1.0000000pt;stroke-linecap:butt;stroke-linejoin:miter;stroke-opacity:1.0000000"
     d="M 58.972527,11.391071 C 54.363044,12.397169 49.434838,12.647399 45.319176,15.171423 C 43.725078,15.301651 37.285077,17.828182 41.583180,18.266899 C 44.245412,17.511318 45.482637,14.743110 48.454917,14.975258 C 51.645879,14.025904 54.927821,12.896361 58.406511,12.231780 C 58.765576,12.064893 58.772919,11.669235 58.972527,11.391071 z M 65.758432,12.284261 C 63.455836,14.932456 58.146248,14.764091 57.828955,19.077663 C 58.914161,20.569181 64.253982,13.549144 65.824238,17.885738 C 66.133520,20.793232 64.195808,24.463241 60.838904,22.568589 C 59.210093,22.432620 57.181682,22.767425 57.249395,21.309800 C 56.404041,23.448141 49.668969,27.586069 52.034699,22.975518 C 53.263246,22.052221 50.315668,21.884342 52.340548,20.298284 C 54.132537,18.478649 48.445668,18.650171 50.598914,20.613013 C 49.351390,22.333095 48.789092,24.162628 46.337338,24.461945 C 48.430027,24.228424 50.605303,23.889958 48.999857,26.123688 C 50.211619,30.676236 42.604204,28.299204 41.670729,31.659683 C 38.904448,36.110757 45.813665,35.875377 47.785999,33.682304 C 47.452968,29.566195 51.688795,30.781074 53.911375,30.374726 C 56.246301,28.641532 58.711692,34.003213 59.867282,35.919866 C 61.382223,36.719309 63.044604,33.586526 60.737337,32.776371 C 61.011046,31.237713 56.056517,28.633674 59.192260,28.521471 C 61.288189,29.636157 62.467335,31.945477 62.862545,33.449221 C 67.039815,33.260018 61.145612,38.087668 65.154936,36.619315 C 67.695383,36.164565 64.881226,31.927528 68.253578,33.589137 C 72.515918,35.225866 66.790043,28.089344 71.655974,28.059169 C 73.916606,26.724267 72.703700,32.698390 74.095710,29.778171 C 74.886035,25.047485 81.213881,31.542466 78.330010,33.436596 C 74.663444,32.416888 70.970268,32.119422 69.382180,36.248291 C 69.160731,38.192602 74.722287,33.443090 74.073584,36.911108 C 75.246053,40.588936 69.471064,41.258755 67.292638,39.984515 C 65.289788,37.573551 63.424555,39.820461 61.933840,40.917466 C 59.610073,40.592694 51.879438,39.978565 55.147456,36.515011 C 56.011883,32.898883 50.633437,36.185852 48.675889,35.371189 C 46.204298,36.710163 42.396204,35.524372 40.420343,37.521012 C 40.137763,39.836360 36.434671,38.559822 35.828408,41.346035 C 34.429055,44.517742 29.791532,45.576971 29.674704,48.976731 C 29.541664,52.776472 27.751869,56.234113 29.739460,59.977615 C 30.217451,63.806395 33.844441,66.175122 37.555450,65.275751 C 39.704216,65.229554 41.720034,67.918137 43.231353,64.676002 C 45.666892,60.663779 48.157460,66.912317 51.210613,65.289855 C 53.724929,68.185905 49.107625,71.630998 53.048760,73.658528 C 56.353306,77.159315 55.371479,82.021660 53.927778,86.086567 C 53.950095,89.359840 58.246958,91.063774 58.168279,94.308037 C 57.840113,98.951347 62.018812,103.02507 66.578133,100.78106 C 69.533053,99.948042 70.729651,96.438825 73.758961,95.628491 C 76.058124,93.687907 75.058749,88.018699 79.255760,87.880729 C 84.983353,85.965294 80.874273,79.117971 82.435181,75.241249 C 84.724711,72.536814 85.696525,68.534233 89.203633,67.036315 C 91.914315,64.662764 90.124805,59.878832 92.874301,57.190488 C 90.545385,58.985795 86.626280,60.556432 84.076772,58.375774 C 80.131154,54.952933 76.886406,50.671395 74.874306,45.842125 C 73.932724,43.706949 73.992424,39.413062 76.326683,39.433175 C 76.694427,43.914007 79.864026,47.523371 82.075734,51.243555 C 84.192072,53.661385 85.668103,57.452258 89.595505,56.184969 C 92.913593,55.060137 97.462232,52.861389 97.535093,48.927369 C 97.225334,44.472431 89.280980,48.632870 87.713774,44.087121 C 84.579177,42.219589 89.847091,39.135051 90.796968,42.597720 C 92.831290,44.673118 96.480119,43.576228 97.976082,46.380561 C 101.00425,45.026947 103.42691,45.979637 104.67444,49.156532 C 107.34344,51.799519 108.06585,55.804675 107.96649,59.426534 C 111.46903,62.841098 110.39249,54.458166 111.31853,52.396941 C 111.45805,50.441937 111.65547,48.034168 112.47890,51.231768 C 115.04174,52.459970 113.25587,47.238348 112.67077,46.062800 C 108.17620,35.794505 106.73165,33.913326 101.80144,28.001977 C 93.664818,20.021475 87.053057,16.615790 78.045047,13.645810 C 77.390146,16.844772 73.390072,14.028842 71.482211,16.707756 C 69.480410,18.220790 69.470396,18.027723 70.873944,16.018521 C 69.854639,14.190722 67.539834,13.316691 65.758432,12.284261 z M 51.565673,15.856957 C 49.565018,14.909969 44.608579,18.035697 49.046684,17.824797 C 50.301649,18.086242 50.720414,16.456515 51.565673,15.856957 z M 48.733683,20.540685 C 47.136533,21.151440 43.343219,22.226862 46.696023,22.943123 C 47.656008,22.492341 48.281440,21.457880 48.733683,20.540685 z M 57.883219,34.156176 C 55.454450,35.374660 57.724239,37.796590 59.006193,35.492280 C 58.701774,34.987279 58.224451,34.631199 57.883219,34.156176 z M 112.67201,60.080081 C 109.10491,62.511376 116.89763,64.341102 112.67201,60.080081 z M 10.719203,66.288743 C 10.512252,70.745427 11.656301,75.443527 12.651384,80.250071 C 13.935436,82.524304 14.799006,87.181787 16.276657,87.839472 C 17.816394,84.308092 14.649657,80.358335 16.496292,76.704824 C 14.273329,74.956284 17.264493,71.080507 13.650856,70.024081 C 12.513576,68.911981 11.666410,67.555562 10.719203,66.288743 z M 88.926585,80.666702 C 88.557983,84.781428 82.955324,85.747776 84.000000,89.918226 C 84.998135,92.104520 83.510755,92.265865 83.281202,94.037961 C 85.341178,95.618334 87.092159,90.473800 88.670995,89.077127 C 89.039217,87.043883 93.840775,80.190199 88.926585,80.666702 z " />
  <path
     id="path4861"
     style="fill:url(#linearGradient26786);fill-opacity:1.0000000;fill-rule:evenodd;stroke:none;stroke-width:1.2500000;stroke-linecap:butt;stroke-linejoin:miter;stroke-miterlimit:4.0000000;stroke-opacity:1.0000000;opacity:0.19526627"
     d="M 115.62588,64.419268 C 115.62588,35.610308 92.271568,12.256032 63.462607,12.256032 C 34.653650,12.256032 11.299334,35.610308 11.299334,64.419268 C 11.299334,93.228228 34.653650,116.58250 63.462607,116.58250 C 92.271568,116.58250 115.62588,93.228228 115.62588,64.419268 z " />
  <path
     id="path4290"
     style="fill:#ffffff;fill-opacity:0.58854169;fill-rule:evenodd;stroke:none;stroke-width:1.0000000pt;stroke-linecap:butt;stroke-linejoin:miter;stroke-opacity:1.0000000"
     d="M 58.972527,11.391071 C 54.363044,12.397169 49.434838,12.647399 45.319176,15.171423 C 43.725078,15.301651 37.285077,17.828182 41.583180,18.266899 C 44.245412,17.511318 45.482637,14.743110 48.454917,14.975258 C 51.645879,14.025904 54.927821,12.896361 58.406511,12.231780 C 58.765576,12.064893 58.772919,11.669235 58.972527,11.391071 z M 65.758432,12.284261 C 63.455836,14.932456 58.146248,14.764091 57.828955,19.077663 C 58.914161,20.569181 64.253982,13.549144 65.824238,17.885738 C 66.133520,20.793232 64.195808,24.463241 60.838904,22.568589 C 59.210093,22.432620 57.181682,22.767425 57.249395,21.309800 C 56.404041,23.448141 49.668969,27.586069 52.034699,22.975518 C 53.263246,22.052221 50.315668,21.884342 52.340548,20.298284 C 54.132537,18.478649 48.445668,18.650171 50.598914,20.613013 C 49.351390,22.333095 48.789092,24.162628 46.337338,24.461945 C 48.430027,24.228424 50.605303,23.889958 48.999857,26.123688 C 50.211619,30.676236 42.604204,28.299204 41.670729,31.659683 C 38.904448,36.110757 45.813665,35.875377 47.785999,33.682304 C 47.452968,29.566195 51.688795,30.781074 53.911375,30.374726 C 56.246301,28.641532 58.711692,34.003213 59.867282,35.919866 C 61.382223,36.719309 63.044604,33.586526 60.737337,32.776371 C 61.011046,31.237713 56.056517,28.633674 59.192260,28.521471 C 61.288189,29.636157 62.467335,31.945477 62.862545,33.449221 C 67.039815,33.260018 61.145612,38.087668 65.154936,36.619315 C 67.695383,36.164565 64.881226,31.927528 68.253578,33.589137 C 72.515918,35.225866 66.790043,28.089344 71.655974,28.059169 C 73.916606,26.724267 72.703700,32.698390 74.095710,29.778171 C 74.886035,25.047485 81.213881,31.542466 78.330010,33.436596 C 74.663444,32.416888 70.970268,32.119422 69.382180,36.248291 C 69.160731,38.192602 74.722287,33.443090 74.073584,36.911108 C 75.246053,40.588936 69.471064,41.258755 67.292638,39.984515 C 65.289788,37.573551 63.424555,39.820461 61.933840,40.917466 C 59.610073,40.592694 51.879438,39.978565 55.147456,36.515011 C 56.011883,32.898883 50.633437,36.185852 48.675889,35.371189 C 46.204298,36.710163 42.396204,35.524372 40.420343,37.521012 C 40.137763,39.836360 36.434671,38.559822 35.828408,41.346035 C 34.429055,44.517742 29.791532,45.576971 29.674704,48.976731 C 29.541664,52.776472 27.751869,56.234113 29.739460,59.977615 C 30.217451,63.806395 33.844441,66.175122 37.555450,65.275751 C 39.704216,65.229554 41.720034,67.918137 43.231353,64.676002 C 45.666892,60.663779 48.157460,66.912317 51.210613,65.289855 C 53.724929,68.185905 49.107625,71.630998 53.048760,73.658528 C 56.353306,77.159315 55.371479,82.021660 53.927778,86.086567 C 53.950095,89.359840 58.246958,91.063774 58.168279,94.308037 C 57.840113,98.951347 62.018812,103.02507 66.578133,100.78106 C 69.533053,99.948042 70.729651,96.438825 73.758961,95.628491 C 76.058124,93.687907 75.058749,88.018699 79.255760,87.880729 C 84.983353,85.965294 80.874273,79.117971 82.435181,75.241249 C 84.724711,72.536814 85.696525,68.534233 89.203633,67.036315 C 91.914315,64.662764 90.124805,59.878832 92.874301,57.190488 C 90.545385,58.985795 86.626280,60.556432 84.076772,58.375774 C 80.131154,54.952933 76.886406,50.671395 74.874306,45.842125 C 73.932724,43.706949 73.992424,39.413062 76.326683,39.433175 C 76.694427,43.914007 79.864026,47.523371 82.075734,51.243555 C 84.192072,53.661385 85.668103,57.452258 89.595505,56.184969 C 92.913593,55.060137 97.462232,52.861389 97.535093,48.927369 C 97.225334,44.472431 89.280980,48.632870 87.713774,44.087121 C 84.579177,42.219589 89.847091,39.135051 90.796968,42.597720 C 92.831290,44.673118 96.480119,43.576228 97.976082,46.380561 C 101.00425,45.026947 103.42691,45.979637 104.67444,49.156532 C 107.34344,51.799519 108.06585,55.804675 107.96649,59.426534 C 111.46903,62.841098 110.39249,54.458166 111.31853,52.396941 C 111.45805,50.441937 111.65547,48.034168 112.47890,51.231768 C 115.04174,52.459970 113.25587,47.238348 112.67077,46.062800 C 108.17620,35.794505 106.73165,33.913326 101.80144,28.001977 C 93.664818,20.021475 87.053057,16.615790 78.045047,13.645810 C 77.390146,16.844772 73.390072,14.028842 71.482211,16.707756 C 69.480410,18.220790 69.470396,18.027723 70.873944,16.018521 C 69.854639,14.190722 67.539834,13.316691 65.758432,12.284261 z M 51.565673,15.856957 C 49.565018,14.909969 44.608579,18.035697 49.046684,17.824797 C 50.301649,18.086242 50.720414,16.456515 51.565673,15.856957 z M 48.733683,20.540685 C 47.136533,21.151440 43.343219,22.226862 46.696023,22.943123 C 47.656008,22.492341 48.281440,21.457880 48.733683,20.540685 z M 57.883219,34.156176 C 55.454450,35.374660 57.724239,37.796590 59.006193,35.492280 C 58.701774,34.987279 58.224451,34.631199 57.883219,34.156176 z M 112.67201,60.080081 C 109.10491,62.511376 116.89763,64.341102 112.67201,60.080081 z M 10.719203,66.288743 C 10.512252,70.745427 11.656301,75.443527 12.651384,80.250071 C 13.935436,82.524304 14.799006,87.181787 16.276657,87.839472 C 17.816394,84.308092 14.649657,80.358335 16.496292,76.704824 C 14.273329,74.956284 17.264493,71.080507 13.650856,70.024081 C 12.513576,68.911981 11.666410,67.555562 10.719203,66.288743 z M 88.926585,80.666702 C 88.557983,84.781428 82.955324,85.747776 84.000000,89.918226 C 84.998135,92.104520 83.510755,92.265865 83.281202,94.037961 C 85.341178,95.618334 87.092159,90.473800 88.670995,89.077127 C 89.039217,87.043883 93.840775,80.190199 88.926585,80.666702 z " />
  <path
     id="path4291"
     style="fill:none;fill-opacity:1.0000000;fill-rule:evenodd;stroke:none;stroke-width:3.7500000;stroke-linecap:butt;stroke-linejoin:miter;stroke-miterlimit:4.0000000;stroke-opacity:1.0000000"
     d="M 119.92112,64.516240 C 119.92112,33.427488 94.718648,8.2250592 63.629886,8.2250592 C 32.541123,8.2250592 7.3387439,33.427488 7.3387439,64.516240 C 7.3387439,95.605010 32.541123,120.80744 63.629886,120.80744 C 94.718648,120.80744 119.92112,95.605010 119.92112,64.516240 z " />
  <path
     id="path4292"
     style="fill:none;fill-opacity:0.94117647;fill-rule:evenodd;stroke:none;stroke-width:5.8040280;stroke-linecap:butt;stroke-linejoin:miter;stroke-miterlimit:4.0000000;stroke-opacity:1.0000000"
     d="M 119.92112,64.516240 C 119.92112,33.427488 94.718648,8.2250592 63.629886,8.2250592 C 32.541123,8.2250592 7.3387439,33.427488 7.3387439,64.516240 C 7.3387439,95.605010 32.541123,120.80744 63.629886,120.80744 C 94.718648,120.80744 119.92112,95.605010 119.92112,64.516240 z " />
  <g
     transform="matrix(0.636172,0.000000,0.000000,0.636172,34.44039,26.74354)"
     id="g284"
     style="fill:#000000;fill-opacity:1.0000000;fill-rule:nonzero;stroke:none;stroke-miterlimit:4.0000000">
    <g
       id="g285">
      <path
         id="path286"
         d="M 86.068000,0.0000000 C 61.466000,0.0000000 56.851000,35.041000 70.691000,35.041000 C 84.529000,35.041000 110.67100,0.0000000 86.068000,0.0000000 z " />
      <path
         id="path287"
         d="M 45.217000,30.699000 C 52.586000,31.149000 60.671000,2.5770000 46.821000,4.3740000 C 32.976000,6.1710000 37.845000,30.249000 45.217000,30.699000 z " />
      <path
         id="path288"
         d="M 11.445000,48.453000 C 16.686000,46.146000 12.120000,23.581000 3.2080000,29.735000 C -5.7000000,35.890000 6.2040000,50.759000 11.445000,48.453000 z " />
      <path
         id="path289"
         d="M 26.212000,36.642000 C 32.451000,35.370000 32.793000,9.7780000 21.667000,14.369000 C 10.539000,18.961000 19.978000,37.916000 26.212000,36.642000 L 26.212000,36.642000 z " />
      <path
         d="M 58.791000,93.913000 C 59.898000,102.36700 52.589000,106.54200 45.431000,101.09200 C 22.644000,83.743000 83.160000,75.089000 79.171000,51.386000 C 75.860000,31.712000 15.495000,37.769000 8.6210000,68.552000 C 3.9680000,89.374000 27.774000,118.26000 52.614000,118.26000 C 64.834000,118.26000 78.929000,107.22600 81.566000,93.248000 C 83.580000,82.589000 57.867000,86.860000 58.791000,93.913000 L 58.791000,93.913000 z "
         id="path290" />
    </g>
  </g>
  <path
     id="path295"
     d="M 67.803256,56.798149 C 58.603425,57.756886 47.918668,61.724610 44.725906,71.250663 C 42.295857,80.656054 49.126273,89.511549 56.243502,94.853525 C 62.539654,99.571622 72.329283,100.66063 78.180023,94.618073 C 81.118817,92.246431 83.217789,88.758457 83.453232,84.942854 C 80.645173,82.698704 75.820777,83.831667 73.617520,86.159281 C 73.336858,89.292166 71.959609,93.502005 68.059612,93.161780 C 62.853040,93.538191 57.613714,86.925112 61.330520,82.346545 C 67.177047,75.937022 76.628239,73.686900 81.397816,66.227796 C 83.901396,62.327703 80.402134,57.884502 76.288272,57.464487 C 73.569662,56.624906 70.616878,56.784942 67.803256,56.798149 z "
     style="fill:url(#linearGradient296);fill-rule:nonzero;stroke:none;stroke-miterlimit:4.0000000" />
</svg>
