<?xml version="1.0" encoding="UTF-8" standalone="no"?>
<!-- Created with Inkscape (http://www.inkscape.org/) -->
<!-- 
Created By Andrew Fitzsimon.
Much of this document has been manually cleaned and crafted in a text editor so that only the colour definitions and basic presentation related data remain in the XML. 
Changes to this document may compromise the structure of this palette.
-->
<svg
   xmlns:dc="http://purl.org/dc/elements/1.1/"
   xmlns:cc="http://web.resource.org/cc/"
   xmlns:rdf="http://www.w3.org/1999/02/22-rdf-syntax-ns#"
   xmlns:svg="http://www.w3.org/2000/svg"
   xmlns="http://www.w3.org/2000/svg"
   xmlns:xlink="&amp;#38;#38;#38;#38;#38;#38;#38;#38;#38;#38;ns_xlink;"
   xmlns:sodipodi="http://inkscape.sourceforge.net/DTD/sodipodi-0.dtd"
   xmlns:inkscape="http://www.inkscape.org/namespaces/inkscape"
   version="1.0"
   x="00"
   y="00"
   width="128"
   height="128"
   id="Etiquette"
   sodipodi:version="0.32"
   inkscape:version="0.41+cvs"
   sodipodi:docname="gnome-system-config.svg"
   sodipodi:docbase="/home/andy/Desktop/Etiquette/etiquette/scalable/apps">
  <metadata
     id="About">
    <rdf:RDF
       id="RDF232">
      <cc:Work
         rdf:about=""
         id="Work233">
        <dc:format
           id="format234">image/svg+xml</dc:format>
        <dc:type
           id="type236"
           rdf:resource="http://purl.org/dc/dcmitype/StillImage" />
        <dc:creator
           id="creator1291">
          <cc:Agent
             id="Agent1292">
            <dc:title
               id="title1293">Andrew Fitzsimon</dc:title>
          </cc:Agent>
        </dc:creator>
        <dc:date
           id="date1295">2004-12-25</dc:date>
        <dc:title
           id="title1297">Etiquette Icon</dc:title>
        <cc:license
           id="license1299"
           rdf:resource="http://creativecommons.org/licenses/by/2.0/" />
        <dc:rights
           id="rights1308">
          <cc:Agent
             id="Agent1309">
            <dc:title
               id="title1310">Andrew Fitzsimon</dc:title>
          </cc:Agent>
        </dc:rights>
      </cc:Work>
      <cc:License
         rdf:about="http://creativecommons.org/licenses/by/2.0/"
         id="License1300">
        <cc:permits
           rdf:resource="http://web.resource.org/cc/Reproduction"
           id="permits1301" />
        <cc:permits
           rdf:resource="http://web.resource.org/cc/Distribution"
           id="permits1302" />
        <cc:requires
           rdf:resource="http://web.resource.org/cc/Notice"
           id="requires1303" />
        <cc:requires
           rdf:resource="http://web.resource.org/cc/Attribution"
           id="requires1304" />
        <cc:prohibits
           rdf:resource="http://web.resource.org/cc/CommercialUse"
           id="prohibits1305" />
        <cc:permits
           rdf:resource="http://web.resource.org/cc/DerivativeWorks"
           id="permits1306" />
        <cc:requires
           rdf:resource="http://web.resource.org/cc/ShareAlike"
           id="requires1307" />
      </cc:License>
    </rdf:RDF>
  </metadata>
  <sodipodi:namedview
     id="base"
     pagecolor="#ffffff"
     bordercolor="#666666"
     borderopacity="1.0"
     inkscape:pageopacity="0.0"
     inkscape:pageshadow="0"
     inkscape:zoom="1.4142136"
     inkscape:cx="82.599127"
     inkscape:cy="44.683352"
     inkscape:window-width="434"
     inkscape:window-height="538"
     inkscape:window-x="22"
     inkscape:window-y="93"
     inkscape:current-layer="Etiquette"
     showgrid="false"
     gridspacingx="8.0000000pt"
     gridspacingy="8.0000000pt"
     gridoriginy="0.0000000pt"
     gridoriginx="0pt"
     inkscape:grid-points="false"
     gridtolerance="40pt"
     showborder="false"
     inkscape:grid-bbox="false"
     gridcolor="#3f3fff"
     gridopacity="0.082352941"
     gridempspacing="2"
     gridempcolor="#3f3fff"
     gridempopacity="0.082352941" />
  <defs
     id="Gradients">
    <linearGradient
       inkscape:collect="always"
       xlink:href="#linearGradient1759"
       id="linearGradient3596"
       gradientUnits="userSpaceOnUse"
       gradientTransform="matrix(0.145372,0.000000,5.396321e-18,0.352469,29.17801,-89.92630)"
       x1="637.03113"
       y1="69.986862"
       x2="638.29358"
       y2="118.30303" />
    <linearGradient
       inkscape:collect="always"
       xlink:href="#linearGradient1759"
       id="linearGradient3598"
       gradientUnits="userSpaceOnUse"
       gradientTransform="matrix(0.145372,0.000000,5.396321e-18,0.352469,29.17801,-89.92630)"
       x1="629.35144"
       y1="184.42598"
       x2="629.35144"
       y2="133.69067" />
    <linearGradient
       inkscape:collect="always"
       xlink:href="#linearGradient1759"
       id="linearGradient3626"
       gradientUnits="userSpaceOnUse"
       gradientTransform="scale(1.061337,0.942208)"
       x1="353.14960"
       y1="303.61761"
       x2="152.73404"
       y2="320.13889" />
    <linearGradient
       inkscape:collect="always"
       xlink:href="#linearGradient1759"
       id="linearGradient3601"
       gradientUnits="userSpaceOnUse"
       gradientTransform="matrix(7.706791e-2,7.397238e-2,-0.332149,0.346048,82.59332,-44.00220)"
       x1="386.54407"
       y1="256.43335"
       x2="598.82477"
       y2="256.43335" />
    <linearGradient
       inkscape:collect="always"
       xlink:href="#linearGradient1773"
       id="linearGradient3603"
       gradientUnits="userSpaceOnUse"
       gradientTransform="matrix(9.528031e-2,9.528031e-2,-0.268886,0.268886,84.21944,-42.95552)"
       spreadMethod="pad"
       x1="582.53784"
       y1="287.77014"
       x2="489.30524"
       y2="286.56384" />
    <linearGradient
       y2="277.50345"
       x2="139.92892"
       y1="569.42645"
       x1="144.94856"
       gradientTransform="matrix(0.298037,0.298037,-8.596076e-2,8.596076e-2,84.21944,-42.95552)"
       gradientUnits="userSpaceOnUse"
       id="linearGradient18222"
       xlink:href="#linearGradient1759"
       inkscape:collect="always" />
    <linearGradient
       inkscape:collect="always"
       xlink:href="#linearGradient1759"
       id="linearGradient3609"
       gradientUnits="userSpaceOnUse"
       gradientTransform="matrix(0.298037,0.298037,-8.596076e-2,8.596076e-2,84.21944,-42.95552)"
       x1="146.77434"
       y1="260.56787"
       x2="142.88757"
       y2="328.43097" />
    <linearGradient
       inkscape:collect="always"
       xlink:href="#linearGradient1759"
       id="linearGradient3613"
       gradientUnits="userSpaceOnUse"
       gradientTransform="matrix(7.399972e-2,7.399972e-2,-0.346211,0.346211,84.21944,-42.95552)"
       spreadMethod="pad"
       x1="550.78760"
       y1="124.00206"
       x2="594.72760"
       y2="124.63098" />
    <linearGradient
       inkscape:collect="always"
       xlink:href="#linearGradient1773"
       id="linearGradient3615"
       gradientUnits="userSpaceOnUse"
       gradientTransform="matrix(8.766909e-2,8.766909e-2,-0.292230,0.292230,84.21944,-42.95552)"
       spreadMethod="reflect"
       x1="589.10828"
       y1="150.71188"
       x2="506.64288"
       y2="150.71188" />
    <linearGradient
       id="linearGradient1759">
      <stop
         style="stop-color:#ffffff;stop-opacity:1.0000000;"
         offset="0.0000000"
         id="stop3001" />
      <stop
         style="stop-color:#ffffff;stop-opacity:0.0000000;"
         offset="1.0000000"
         id="stop1761" />
    </linearGradient>
    <linearGradient
       inkscape:collect="always"
       xlink:href="#linearGradient1759"
       id="linearGradient3618"
       gradientUnits="userSpaceOnUse"
       gradientTransform="matrix(0.245378,0.000000,5.366801e-18,0.247187,-104.0941,96.55097)"
       x1="738.66742"
       y1="-293.07953"
       x2="674.44055"
       y2="-169.73376" />
    <linearGradient
       inkscape:collect="always"
       id="linearGradient1994">
      <stop
         style="stop-color:#eae8e3;stop-opacity:1;"
         offset="0"
         id="stop1995" />
      <stop
         style="stop-color:#eae8e3;stop-opacity:0;"
         offset="1"
         id="stop1996" />
    </linearGradient>
    <linearGradient
       inkscape:collect="always"
       xlink:href="#linearGradient1994"
       id="linearGradient3620"
       gradientUnits="userSpaceOnUse"
       gradientTransform="matrix(0.245378,0.000000,5.366801e-18,0.247187,-104.9154,95.67180)"
       x1="581.01965"
       y1="-11.146357"
       x2="675.33197"
       y2="-260.96234" />
    <linearGradient
       inkscape:collect="always"
       xlink:href="#linearGradient1773"
       id="linearGradient3622"
       gradientUnits="userSpaceOnUse"
       gradientTransform="matrix(9.751466e-2,-9.751466e-2,0.311001,0.311001,-104.9154,95.67180)"
       x1="704.37604"
       y1="255.77260"
       x2="1174.9385"
       y2="59.151508" />
    <linearGradient
       id="linearGradient1773">
      <stop
         style="stop-color:#000000;stop-opacity:1.0000000;"
         offset="0.0000000"
         id="stop1774" />
      <stop
         style="stop-color:#000000;stop-opacity:0.0000000;"
         offset="1.0000000"
         id="stop1775" />
    </linearGradient>
    <linearGradient
       inkscape:collect="always"
       xlink:href="#linearGradient1773"
       id="linearGradient3624"
       gradientUnits="userSpaceOnUse"
       gradientTransform="matrix(9.751466e-2,-9.751466e-2,0.311001,0.311001,-104.9154,95.67180)"
       x1="1225.5968"
       y1="146.32704"
       x2="955.32343"
       y2="157.45752" />
    <radialGradient
       inkscape:collect="always"
       xlink:href="#linearGradient2079"
       id="radialGradient3627"
       gradientUnits="userSpaceOnUse"
       gradientTransform="scale(1.732051,0.577350)"
       cx="124.13029"
       cy="1151.5748"
       fx="113.13036"
       fy="1058.7870"
       r="194.85568" />
    <radialGradient
       inkscape:collect="always"
       xlink:href="#linearGradient2079"
       id="radialGradient3628"
       gradientUnits="userSpaceOnUse"
       gradientTransform="scale(1.732051,0.577350)"
       cx="124.13029"
       cy="1151.5748"
       fx="113.13036"
       fy="1058.7870"
       r="194.85568" />
    <linearGradient
       inkscape:collect="always"
       id="linearGradient2079">
      <stop
         style="stop-color:#9e9e9e;stop-opacity:1;"
         offset="0"
         id="stop2080" />
      <stop
         style="stop-color:#9e9e9e;stop-opacity:0;"
         offset="1"
         id="stop2081" />
    </linearGradient>
    <radialGradient
       inkscape:collect="always"
       xlink:href="#linearGradient2079"
       id="radialGradient3629"
       gradientUnits="userSpaceOnUse"
       gradientTransform="scale(1.732051,0.577350)"
       cx="124.13029"
       cy="1151.5748"
       fx="113.13036"
       fy="1058.7870"
       r="194.85568" />
    <linearGradient
       id="linearGradient2341">
      <stop
         style="stop-color:#ffffff;stop-opacity:0.15686275;"
         offset="0.0000000"
         id="stop2342" />
      <stop
         style="stop-color:#ffffff;stop-opacity:1.0000000;"
         offset="1.0000000"
         id="stop2343" />
    </linearGradient>
    <linearGradient
       id="linearGradient2347">
      <stop
         style="stop-color:#ffffff;stop-opacity:0.0000000;"
         offset="0.0000000"
         id="stop2348" />
      <stop
         style="stop-color:#ffffff;stop-opacity:0.47058824;"
         offset="1.0000000"
         id="stop2349" />
    </linearGradient>
    <linearGradient
       inkscape:collect="always"
       xlink:href="#linearGradient2347"
       id="linearGradient3415"
       gradientUnits="userSpaceOnUse"
       gradientTransform="matrix(1.043391,0.000000,0.000000,0.718032,-4.655542,-8.616859)"
       x1="89.696322"
       y1="145.41280"
       x2="89.696322"
       y2="29.382998" />
    <linearGradient
       id="linearGradient2372">
      <stop
         style="stop-color:#000000;stop-opacity:0.47058824;"
         offset="0.0000000"
         id="stop2373" />
      <stop
         style="stop-color:#000000;stop-opacity:0.0000000;"
         offset="1.0000000"
         id="stop2374" />
    </linearGradient>
    <linearGradient
       inkscape:collect="always"
       xlink:href="#linearGradient2372"
       id="linearGradient3413"
       gradientUnits="userSpaceOnUse"
       gradientTransform="matrix(2.138091,0.000000,0.000000,0.549583,0.000000,-17.43192)"
       x1="23.875151"
       y1="219.55704"
       x2="37.456448"
       y2="226.49693" />
    <linearGradient
       id="linearGradient2363">
      <stop
         style="stop-color:#ffffff;stop-opacity:0.0000000;"
         offset="0.0000000"
         id="stop2364" />
      <stop
         style="stop-color:#ffffff;stop-opacity:1.0000000;"
         offset="1.0000000"
         id="stop2365" />
    </linearGradient>
    <linearGradient
       inkscape:collect="always"
       xlink:href="#linearGradient2363"
       id="linearGradient3412"
       gradientUnits="userSpaceOnUse"
       gradientTransform="matrix(4.740851,0.000000,0.000000,0.158028,-4.655542,-8.616859)"
       x1="7.7594029"
       y1="801.04424"
       x2="21.452467"
       y2="801.04424" />
    <linearGradient
       id="linearGradient3057">
      <stop
         style="stop-color:#000000;stop-opacity:0.19191919;"
         offset="0.0000000"
         id="stop3058" />
      <stop
         style="stop-color:#000000;stop-opacity:0.14141414;"
         offset="0.34210527"
         id="stop3059" />
      <stop
         style="stop-color:#ffffff;stop-opacity:0.0000000;"
         offset="1.0000000"
         id="stop3060" />
    </linearGradient>
    <radialGradient
       inkscape:collect="always"
       xlink:href="#linearGradient3057"
       id="radialGradient3411"
       gradientUnits="userSpaceOnUse"
       gradientTransform="scale(2.855494,0.350202)"
       cx="28.016157"
       cy="415.83115"
       fx="28.016165"
       fy="409.64447"
       r="23.200878" />
    <linearGradient
       id="TransparentWhite">
      <stop
         style="stop-color:#ffffff;stop-opacity:0;"
         offset="0"
         id="stopwhitefull" />
      <stop
         style="stop-color:#ffffff;stop-opacity:1;"
         offset="1"
         id="stopwhitetransparent" />
    </linearGradient>
    <linearGradient
       id="WhiteTransparent">
      <stop
         style="stop-color:#ffffff;stop-opacity:1;"
         offset="0"
         id="stopWhiteFull" />
      <stop
         style="stop-color:#ffffff;stop-opacity:0;"
         offset="1"
         id="stopWhiteTransparent" />
    </linearGradient>
    <linearGradient
       inkscape:collect="always"
       xlink:href="#linearGradient2341"
       id="linearGradient1297"
       gradientUnits="userSpaceOnUse"
       gradientTransform="matrix(1.939954,0.000000,0.000000,0.489183,-0.115530,5.616789)"
       x1="36.732960"
       y1="173.60512"
       x2="37.126789"
       y2="232.27026" />
    <linearGradient
       inkscape:collect="always"
       xlink:href="#TransparentWhite"
       id="linearGradient1935"
       gradientTransform="scale(1.343102,0.744545)"
       x1="13.424465"
       y1="48.322319"
       x2="145.21112"
       y2="42.414890"
       gradientUnits="userSpaceOnUse" />
    <linearGradient
       inkscape:collect="always"
       xlink:href="#WhiteTransparent"
       id="linearGradient1943"
       gradientTransform="matrix(1.224554,0.000000,0.000000,0.845503,-1.357986,-0.914568)"
       x1="70.459831"
       y1="87.961166"
       x2="-17.924658"
       y2="-56.903572"
       gradientUnits="userSpaceOnUse" />
    <linearGradient
       inkscape:collect="always"
       xlink:href="#TransparentWhite"
       id="linearGradient1954"
       gradientTransform="matrix(1.138160,0.000000,0.000000,0.736843,3.949296,3.830589)"
       x1="75.969444"
       y1="67.614769"
       x2="75.969444"
       y2="114.96928"
       gradientUnits="userSpaceOnUse" />
    <linearGradient
       inkscape:collect="always"
       xlink:href="#linearGradient2363"
       id="linearGradient1926"
       gradientUnits="userSpaceOnUse"
       gradientTransform="scale(1.130960,0.884205)"
       x1="45.608681"
       y1="30.109610"
       x2="30.970743"
       y2="16.618420" />
    <linearGradient
       inkscape:collect="always"
       xlink:href="#WhiteTransparent"
       id="linearGradient96"
       gradientTransform="scale(1.133893,0.881917)"
       x1="97.112358"
       y1="78.205666"
       x2="60.090755"
       y2="28.835091"
       gradientUnits="userSpaceOnUse" />
    <linearGradient
       y2="118.30303"
       x2="638.29358"
       y1="69.986862"
       x1="637.03113"
       gradientTransform="matrix(0.137025,0.000000,1.033146e-17,0.332231,81.54415,-261.9355)"
       gradientUnits="userSpaceOnUse"
       id="linearGradient53960"
       xlink:href="#linearGradient1759"
       inkscape:collect="always" />
    <linearGradient
       y2="133.69067"
       x2="629.35144"
       y1="184.42598"
       x1="629.35144"
       gradientTransform="matrix(0.137025,0.000000,1.033146e-17,0.332231,81.54415,-261.9355)"
       gradientUnits="userSpaceOnUse"
       id="linearGradient53963"
       xlink:href="#linearGradient1759"
       inkscape:collect="always" />
    <linearGradient
       y2="256.43335"
       x2="598.82477"
       y1="256.43335"
       x1="386.54407"
       gradientTransform="matrix(7.264290e-2,6.972511e-2,-0.313078,0.326179,241.3440,-128.5425)"
       gradientUnits="userSpaceOnUse"
       id="linearGradient53967"
       xlink:href="#linearGradient1759"
       inkscape:collect="always" />
    <linearGradient
       y2="286.56384"
       x2="489.30524"
       y1="287.77014"
       x1="582.53784"
       spreadMethod="pad"
       gradientTransform="matrix(8.980960e-2,8.980960e-2,-0.253447,0.253447,242.8767,-127.5559)"
       gradientUnits="userSpaceOnUse"
       id="linearGradient53970"
       xlink:href="#linearGradient1773"
       inkscape:collect="always" />
    <linearGradient
       y2="277.50345"
       x2="139.92892"
       y1="569.42645"
       x1="144.94856"
       gradientTransform="matrix(0.280925,0.280925,-8.102515e-2,8.102515e-2,242.8767,-127.5559)"
       gradientUnits="userSpaceOnUse"
       id="linearGradient53975"
       xlink:href="#linearGradient1759"
       inkscape:collect="always" />
    <linearGradient
       y2="328.43097"
       x2="142.88757"
       y1="260.56787"
       x1="146.77434"
       gradientTransform="matrix(0.280925,0.280925,-8.102515e-2,8.102515e-2,242.8767,-127.5559)"
       gradientUnits="userSpaceOnUse"
       id="linearGradient53978"
       xlink:href="#linearGradient1759"
       inkscape:collect="always" />
    <linearGradient
       y2="124.63098"
       x2="594.72760"
       y1="124.00206"
       x1="550.78760"
       spreadMethod="pad"
       gradientTransform="matrix(6.975088e-2,6.975088e-2,-0.326333,0.326333,242.8767,-127.5559)"
       gradientUnits="userSpaceOnUse"
       id="linearGradient53983"
       xlink:href="#linearGradient1759"
       inkscape:collect="always" />
    <linearGradient
       y2="150.71188"
       x2="506.64288"
       y1="150.71188"
       x1="589.10828"
       spreadMethod="reflect"
       gradientTransform="matrix(8.263539e-2,8.263539e-2,-0.275451,0.275451,242.8767,-127.5559)"
       gradientUnits="userSpaceOnUse"
       id="linearGradient53986"
       xlink:href="#linearGradient1773"
       inkscape:collect="always" />
    <linearGradient
       y2="-169.73376"
       x2="674.44055"
       y1="-293.07953"
       x1="738.66742"
       gradientTransform="matrix(0.231289,0.000000,5.058655e-18,0.232994,65.37557,3.940543)"
       gradientUnits="userSpaceOnUse"
       id="linearGradient53990"
       xlink:href="#linearGradient1759"
       inkscape:collect="always" />
    <linearGradient
       y2="-260.96234"
       x2="675.33197"
       y1="-11.146357"
       x1="581.01965"
       gradientTransform="matrix(0.231289,0.000000,5.058655e-18,0.232994,64.60143,3.111852)"
       gradientUnits="userSpaceOnUse"
       id="linearGradient53994"
       xlink:href="#linearGradient1994"
       inkscape:collect="always" />
    <linearGradient
       y2="59.151508"
       x2="1174.9385"
       y1="255.77260"
       x1="704.37604"
       gradientTransform="matrix(9.191566e-2,-9.191566e-2,0.293144,0.293144,64.60143,3.111852)"
       gradientUnits="userSpaceOnUse"
       id="linearGradient53997"
       xlink:href="#linearGradient1773"
       inkscape:collect="always" />
    <linearGradient
       y2="157.45752"
       x2="955.32343"
       y1="146.32704"
       x1="1225.5968"
       gradientTransform="matrix(9.191566e-2,-9.191566e-2,0.293144,0.293144,64.60143,3.111852)"
       gradientUnits="userSpaceOnUse"
       id="linearGradient54000"
       xlink:href="#linearGradient1773"
       inkscape:collect="always" />
    <linearGradient
       y2="157.45752"
       x2="955.32343"
       y1="146.32704"
       x1="1225.5968"
       gradientTransform="matrix(9.191566e-2,-9.191566e-2,0.293144,0.293144,64.60143,3.111852)"
       gradientUnits="userSpaceOnUse"
       id="linearGradient54015"
       xlink:href="#linearGradient1773"
       inkscape:collect="always" />
    <linearGradient
       y2="59.151508"
       x2="1174.9385"
       y1="255.77260"
       x1="704.37604"
       gradientTransform="matrix(9.191566e-2,-9.191566e-2,0.293144,0.293144,64.60143,3.111852)"
       gradientUnits="userSpaceOnUse"
       id="linearGradient54017"
       xlink:href="#linearGradient1773"
       inkscape:collect="always" />
    <linearGradient
       y2="-39.523552"
       x2="210.40189"
       y1="-19.444714"
       x1="199.87045"
       gradientTransform="scale(0.996334,1.003679)"
       gradientUnits="userSpaceOnUse"
       id="linearGradient54019"
       xlink:href="#linearGradient1994"
       inkscape:collect="always" />
    <linearGradient
       y2="-19.336153"
       x2="215.89977"
       y1="-55.908325"
       x1="236.59940"
       gradientTransform="scale(0.996334,1.003679)"
       gradientUnits="userSpaceOnUse"
       id="linearGradient54021"
       xlink:href="#linearGradient1759"
       inkscape:collect="always" />
    <linearGradient
       y2="-29.842688"
       x2="212.21762"
       y1="-18.369066"
       x1="209.67557"
       gradientTransform="scale(0.996334,1.003679)"
       gradientUnits="userSpaceOnUse"
       id="linearGradient54025"
       xlink:href="#linearGradient1994"
       inkscape:collect="always" />
    <linearGradient
       y2="-8.3296461"
       x2="218.75432"
       y1="2.7854259"
       x1="216.21227"
       gradientTransform="scale(0.996334,1.003679)"
       gradientUnits="userSpaceOnUse"
       id="linearGradient54029"
       xlink:href="#linearGradient1994"
       inkscape:collect="always" />
    <linearGradient
       y2="-16.109201"
       x2="238.05200"
       y1="-8.2210855"
       x1="230.78897"
       gradientTransform="scale(0.996334,1.003679)"
       gradientUnits="userSpaceOnUse"
       id="linearGradient54033"
       xlink:href="#linearGradient1759"
       inkscape:collect="always" />
  </defs>
  <path
     sodipodi:type="arc"
     style="fill:url(#radialGradient3411);fill-opacity:1.0000000;stroke:none;stroke-width:3.7500000;stroke-linecap:round;stroke-linejoin:round;stroke-miterlimit:4.0000000;stroke-dashoffset:0.0000000;stroke-opacity:1.0000000"
     id="path3396"
     sodipodi:cx="80.000000"
     sodipodi:cy="145.62500"
     sodipodi:rx="66.250000"
     sodipodi:ry="8.1250000"
     d="M 146.25000 145.62500 A 66.250000 8.1250000 0 1 1  13.750000,145.62500 A 66.250000 8.1250000 0 1 1  146.25000 145.62500 z"
     transform="matrix(0.968712,0.000000,0.000000,1.253843,-13.31977,-62.77843)" />
  <path
     style="fill:url(#linearGradient3412);fill-opacity:1.0000000;fill-rule:evenodd;stroke:none;stroke-width:1.0000000pt;stroke-linecap:butt;stroke-linejoin:miter;stroke-opacity:1.0000000"
     d="M 32.130630,116.88891 L 32.130630,119.05280 L 97.047405,119.05280 L 97.047405,116.88891 L 32.130630,116.88891 z "
     id="path3397"
     sodipodi:nodetypes="ccccc" />
  <path
     style="stroke-dasharray:none;stroke-miterlimit:4.0000000;stroke-opacity:0.46745560;stroke-linejoin:miter;stroke-linecap:butt;stroke-width:2.5000000;stroke:#000000;fill-rule:evenodd;fill-opacity:1.0000000;fill:#666666"
     d="M 47.277878,99.577770 L 47.277878,108.23334 C 47.277878,114.04862 32.130630,111.07362 32.130630,116.88891 L 32.130630,119.05280 L 97.047405,119.05280 L 97.047405,116.88891 C 97.047405,111.07362 81.900158,114.04862 81.900158,108.23334 L 81.900158,99.577770 L 47.277878,99.577770 z "
     id="path3398"
     sodipodi:nodetypes="czzcczzcc" />
  <path
     style="fill:url(#linearGradient1297);fill-opacity:1.0000000;fill-rule:evenodd;stroke:none;stroke-width:1.0000000pt;stroke-linecap:butt;stroke-linejoin:miter;stroke-opacity:1.0000000"
     d="M 47.246913,99.946829 L 47.246913,108.14625 C 47.246913,113.65507 32.072572,110.83684 32.072572,116.34567 L 97.105463,116.34567 C 97.105463,110.83684 81.931123,113.65507 81.931123,108.14625 L 81.931123,99.946829 L 47.246913,99.946829 z "
     id="path3410"
     sodipodi:nodetypes="czzzzcc" />
  <path
     style="fill:url(#linearGradient3413);fill-opacity:1.0000000;fill-rule:evenodd;stroke:none;stroke-width:1.0000000pt;stroke-linecap:butt;stroke-linejoin:miter;stroke-opacity:1.0000000;opacity:0.67924528;"
     d="M 47.277878,99.577770 L 47.277878,108.47722 C 54.851501,102.12047 73.244588,102.12047 81.900158,105.93452 L 81.900158,99.577770 L 47.277878,99.577770 z "
     id="path3399"
     sodipodi:nodetypes="ccccc" />
  <path
     style="fill:none;fill-opacity:1.0000000;fill-rule:evenodd;stroke:none;stroke-width:0.86555700pt;stroke-linecap:butt;stroke-linejoin:miter;stroke-opacity:1.0000000;"
     d="M 79.465778,97.402630 C 68.934832,97.402630 58.403894,97.402630 47.872948,97.402630 C 47.664608,100.40082 48.289532,106.31052 47.565727,109.22129 C 46.698941,112.01594 43.211707,112.06967 40.850000,112.89047 C 38.397626,113.60475 35.641978,114.01545 33.530651,115.43479 C 32.247887,116.59797 32.986259,117.24701 34.671447,117.08086 L 96.452335,116.80549 C 96.886524,114.26608 94.642334,114.10828 92.303348,113.92746 C 89.247871,113.09080 85.996553,112.47511 83.158175,111.13478 C 80.386186,109.37266 81.563941,105.68900 81.299115,102.95976 C 81.278203,102.23322 81.385593,98.598860 81.215355,98.000050 C 81.045108,97.401245 80.597235,97.067780 79.465778,97.402630 z "
     id="path3400"
     sodipodi:nodetypes="ccccccccccsc" />
  <path
     style="fill:none;fill-opacity:1.0000000;fill-rule:evenodd;stroke:#ffffff;stroke-width:0.86555700pt;stroke-linecap:butt;stroke-linejoin:miter;stroke-opacity:0.18421049"
     d="M 15.901436,16.267905 L 113.27660,16.267905 L 113.27660,82.266626 L 15.901436,82.266626 L 15.901436,16.267905 z "
     id="path3401"
     sodipodi:nodetypes="ccccc" />
  <path
     style="fill:#dddddd;fill-opacity:1.0000000;fill-rule:evenodd;stroke:#000000;stroke-width:2.5000000;stroke-linecap:butt;stroke-linejoin:miter;stroke-opacity:0.45562127;stroke-miterlimit:4.0000000;stroke-dasharray:none"
     d="M 4.0000275,8.6942810 C 4.0000275,6.6541430 6.2876773,4.3664958 8.3278125,4.3664958 L 120.85022,4.3664958 C 122.89036,4.3664958 125.17801,6.6541430 125.17801,8.6942810 L 125.17801,95.249981 C 125.17801,97.290116 122.89036,99.577770 120.85022,99.577770 L 8.3278125,99.577770 C 6.2876773,99.577770 4.0000275,97.290116 4.0000275,95.249981 L 4.0000275,8.6942810 z "
     id="path3402"
     sodipodi:nodetypes="czzzzzzzz" />
  <path
     style="fill:none;fill-opacity:1.0000000;fill-rule:evenodd;stroke:#000000;stroke-width:2.4243219;stroke-linecap:butt;stroke-linejoin:miter;stroke-miterlimit:4.0000000;stroke-opacity:0.74074072"
     d="M 16.088383,16.379615 L 113.08966,16.379615 L 113.08966,82.154915 L 16.088383,82.154915 L 16.088383,16.379615 z "
     id="path3406"
     sodipodi:nodetypes="ccccc" />
  <path
     style="fill:url(#linearGradient3415);fill-opacity:1.0000000;fill-rule:evenodd;stroke:none;stroke-width:0.86555700pt;stroke-linecap:butt;stroke-linejoin:miter;stroke-opacity:0.33552632"
     d="M 14.819490,15.185958 L 114.35855,15.185958 L 114.35855,83.348572 L 14.819490,83.348572 L 14.819490,15.185958 z "
     id="path3403"
     sodipodi:nodetypes="ccccc" />
  <path
     style="fill:none;fill-opacity:0.75000000;fill-rule:evenodd;stroke:url(#linearGradient1926);stroke-width:2.1499896;stroke-linecap:butt;stroke-linejoin:miter;stroke-miterlimit:4.0000000;stroke-opacity:1.0000000"
     d="M 6.5392995,11.122329 C 6.5392995,7.8973443 7.6142943,6.8223501 10.839278,6.8223501 L 118.33875,6.8223501 C 121.56374,6.8223501 122.63874,7.8973443 122.63874,11.122329 L 122.63874,92.821932 C 122.63874,96.046917 121.56374,97.121911 118.33875,97.121911 L 10.839278,97.121911 C 7.6142943,97.121911 6.5392995,96.046917 6.5392995,92.821932 L 6.5392995,11.122329 z "
     id="path1925"
     sodipodi:nodetypes="czzzzzzzz" />
  <path
     style="fill:#314e6c;fill-opacity:0.83552629;fill-rule:evenodd;stroke:none;stroke-width:0.86555700pt;stroke-linecap:butt;stroke-linejoin:miter;stroke-opacity:1.0000000"
     d="M 14.819490,15.185958 L 114.35855,15.185958 L 114.35855,83.348572 L 14.819490,83.348572 L 14.819490,15.185958 z "
     id="path3405"
     sodipodi:nodetypes="ccccc" />
  <path
     style="fill:none;fill-opacity:1.0000000;fill-rule:evenodd;stroke:url(#linearGradient1943);stroke-width:2.4485693;stroke-linecap:butt;stroke-linejoin:round;stroke-miterlimit:4.0000000;stroke-opacity:1.0000000"
     d="M 13.238904,13.845834 L 115.58558,13.845834 L 115.58558,84.511919 L 13.238904,84.511919 L 13.238904,13.845834 z "
     id="path3407"
     sodipodi:nodetypes="ccccc" />
  <path
     style="fill:none;fill-opacity:0.75000000;fill-rule:evenodd;stroke:url(#linearGradient96);stroke-width:2.1499896;stroke-linecap:butt;stroke-linejoin:miter;stroke-miterlimit:4.0000000;stroke-opacity:1.0000000"
     d="M 6.5392995,11.122329 C 6.5392995,7.8973443 7.6142943,6.8223501 10.839278,6.8223501 L 118.33875,6.8223501 C 121.56374,6.8223501 122.63874,7.8973443 122.63874,11.122329 L 122.63874,92.821932 C 122.63874,96.046917 121.56374,97.121911 118.33875,97.121911 L 10.839278,97.121911 C 7.6142943,97.121911 6.5392995,96.046917 6.5392995,92.821932 L 6.5392995,11.122329 z "
     id="path3408"
     sodipodi:nodetypes="czzzzzzzz" />
  <path
     style="fill:url(#linearGradient1935);fill-opacity:1.0;fill-rule:evenodd;stroke:none;stroke-width:1.0000000pt;stroke-linecap:butt;stroke-linejoin:miter;stroke-opacity:1.0000000;"
     d="M 14.819490,15.185958 L 114.35855,15.185958 L 114.35855,30.333206 C 68.916803,31.415152 35.376469,50.890185 15.901436,70.365217 L 14.819490,15.185958 z "
     id="path3409"
     sodipodi:nodetypes="ccccc" />
  <path
     style="fill:url(#linearGradient1954);fill-opacity:1.0000000;fill-rule:evenodd;stroke:none;stroke-width:1.0000000pt;stroke-linecap:butt;stroke-linejoin:miter;stroke-opacity:1.0000000;opacity:0.51479290"
     d="M 18.465230,18.848956 L 41.402127,18.848956 L 87.275922,18.848956 L 110.21282,18.848956 L 110.21282,33.698276 L 110.21282,63.396914 L 110.21282,78.246234 L 87.275922,78.246234 L 41.402127,78.246234 L 18.465230,78.246234 L 18.465230,63.396914 L 18.465230,33.698276 L 18.465230,18.848956 z "
     id="path1946"
     sodipodi:nodetypes="ccccccccccccc" />
  <path
     style="fill:none;fill-opacity:0.75000000;fill-rule:evenodd;stroke:none;stroke-width:3.7500000;stroke-linecap:butt;stroke-linejoin:miter;stroke-miterlimit:4.0000000;stroke-opacity:1.0000000"
     d="M 104.30192,50.021103 L 31.961181,12.420897 C 28.412778,10.576560 26.463347,11.260561 26.987715,13.136367 C 27.512084,15.012174 40.597553,36.470574 40.484467,50.220762 C 40.371384,63.970952 26.694401,91.600104 26.222268,93.460595 C 25.750130,95.321091 27.436179,95.764833 31.556811,93.627159 L 104.25345,55.914042 C 108.12416,53.906021 108.26582,52.081399 104.30192,50.021103 z "
     id="path2493"
     sodipodi:nodetypes="czzzzzzz" />
  <path
     style="fill:none;fill-opacity:0.75000000;fill-rule:evenodd;stroke:none;stroke-width:1.2500000;stroke-linecap:butt;stroke-linejoin:miter;stroke-miterlimit:4.0000000;stroke-opacity:1.0000000"
     d="M 104.30192,50.021103 L 31.961181,12.420897 C 28.412778,10.576560 26.463347,11.260561 26.987715,13.136367 C 27.512084,15.012174 40.597553,36.470574 40.484467,50.220762 C 40.371384,63.970952 26.694401,91.600104 26.222268,93.460595 C 25.750130,95.321091 27.436179,95.764833 31.556811,93.627159 L 104.25345,55.914042 C 108.12416,53.906021 108.26582,52.081399 104.30192,50.021103 z "
     id="path2496"
     sodipodi:nodetypes="czzzzzzz" />
  <g
     transform="translate(-141.4214,98.28784)"
     id="g54007">
    <path
       sodipodi:nodetypes="ccccccccccccccccccc"
       id="path1695"
       d="M 179.91853,-72.506798 L 191.72693,-60.698402 L 189.48016,-52.788518 L 181.57027,-50.541742 L 170.02862,-62.083401 L 164.76050,-56.815283 L 178.03596,-37.620215 L 193.84547,-40.626175 L 249.30697,18.426064 C 257.80857,26.985444 269.25343,14.151064 261.31029,6.8331134 L 202.05287,-49.202909 L 205.65386,-65.186814 L 185.58678,-78.175042 L 179.91853,-72.506798 z M 253.01569,10.418718 C 254.52484,8.9095766 256.97472,8.9095860 258.48386,10.418727 C 259.99302,11.927859 259.99301,14.377755 258.48387,15.886906 C 256.97472,17.396038 254.52484,17.396038 253.01570,15.886896 C 251.50655,14.377774 251.50655,11.927859 253.01569,10.418718 z "
       style="fill:#c5c5c5;fill-opacity:1.0000000;fill-rule:evenodd;stroke:none;stroke-width:3.7500000;stroke-linecap:butt;stroke-linejoin:miter;stroke-miterlimit:4.0000000;stroke-opacity:1.0000000" />
    <path
       sodipodi:nodetypes="ccccccccccccccccccc"
       id="path2037"
       d="M 179.91853,-72.506798 L 191.72693,-60.698402 L 189.48016,-52.788518 L 181.57027,-50.541742 L 170.02862,-62.083401 L 164.76050,-56.815283 L 178.05120,-37.184889 L 193.84547,-40.626175 L 249.30697,18.426064 C 256.93653,26.831548 269.61249,14.715322 261.31029,6.8331134 L 202.05287,-49.202909 L 205.65386,-65.186814 L 185.58678,-78.175042 L 179.91853,-72.506798 z M 253.01569,10.418718 C 254.52484,8.9095766 256.97472,8.9095860 258.48386,10.418727 C 259.99302,11.927859 259.99301,14.377755 258.48387,15.886906 C 256.97472,17.396038 254.52484,17.396038 253.01570,15.886896 C 251.50655,14.377774 251.50655,11.927859 253.01569,10.418718 z "
       style="fill:url(#linearGradient54015);fill-opacity:1.0000000;fill-rule:evenodd;stroke:none;stroke-width:3.7500000;stroke-linecap:butt;stroke-linejoin:miter;stroke-miterlimit:4.0000000;stroke-opacity:1.0000000" />
    <path
       sodipodi:nodetypes="ccccccccccccccccccc"
       id="path2123"
       d="M 179.91853,-72.506798 L 191.72693,-60.698402 L 189.48016,-52.788518 L 181.57027,-50.541742 L 170.02862,-62.083401 L 164.76050,-56.815283 L 178.05120,-37.184889 L 193.84547,-40.626175 L 249.30697,18.426064 C 256.93653,26.831548 269.61249,14.715322 261.31029,6.8331134 L 202.05287,-49.202909 L 205.65386,-65.186814 L 185.58678,-78.175042 L 179.91853,-72.506798 z M 253.01569,10.418718 C 254.52484,8.9095766 256.97472,8.9095860 258.48386,10.418727 C 259.99302,11.927859 259.99301,14.377755 258.48387,15.886906 C 256.97472,17.396038 254.52484,17.396038 253.01570,15.886896 C 251.50655,14.377774 251.50655,11.927859 253.01569,10.418718 z "
       style="fill:url(#linearGradient54017);fill-opacity:1.0000000;fill-rule:evenodd;stroke:none;stroke-width:3.7500000;stroke-linecap:butt;stroke-linejoin:miter;stroke-miterlimit:4.0000000;stroke-opacity:1.0000000" />
    <path
       sodipodi:nodetypes="ccccccccccccccccc"
       id="path18208"
       d="M 180.22375,-73.163661 C 184.10679,-69.221998 188.03060,-65.315516 191.88821,-61.351918 C 190.96492,-58.662264 190.26836,-55.727086 189.17829,-53.192683 C 186.53630,-52.609352 183.82541,-51.681988 181.22524,-51.307517 C 177.49419,-55.018938 173.76313,-58.730359 170.03207,-62.441779 C 168.36291,-60.772622 166.69375,-59.103464 165.02460,-57.434307 C 169.37423,-50.954049 173.72385,-44.473791 178.07348,-37.993533 C 183.33644,-39.151168 188.59779,-40.316444 193.86175,-41.469307 C 212.51154,-21.595019 231.21579,-1.7665209 249.88652,18.090156 C 252.42776,19.878226 255.95206,20.957032 258.81651,19.324450 C 260.37464,18.102881 261.95548,16.924548 262.71001,15.024405 C 264.32851,12.778239 263.50098,9.5041957 261.90546,7.4669156 C 250.01288,-4.6043509 237.44774,-15.950106 225.21964,-27.688511 C 217.42864,-35.071398 209.63132,-42.447799 201.84425,-49.834732 C 203.05323,-55.128774 204.28067,-60.418847 205.49675,-65.711364 C 198.86922,-69.992262 192.24168,-74.273159 185.61414,-78.554057 C 183.81735,-76.757258 182.02055,-74.960460 180.22375,-73.163661 z "
       style="fill:none;fill-opacity:1.0000000;fill-rule:evenodd;stroke:#444444;stroke-width:2.3564575;stroke-linecap:butt;stroke-linejoin:miter;stroke-miterlimit:4.0000000;stroke-opacity:1.0000000" />
    <path
       sodipodi:nodetypes="ccccccccccccccczccc"
       id="path1993"
       d="M 181.29687,-73.377323 L 193.92600,-61.701568 L 189.84288,-52.425799 L 181.57027,-49.961391 L 169.88353,-61.503048 L 166.57410,-57.105460 L 178.60972,-39.895486 L 194.20819,-42.802491 L 250.01996,16.266465 C 256.76290,23.802935 267.70938,14.145908 259.56106,6.1098101 L 201.98687,-49.836030 L 205.14600,-65.305537 L 185.58678,-78.175042 L 181.29687,-73.377323 z M 252.67786,9.3554561 C 254.18701,7.8463147 256.85451,7.5561500 258.36367,9.0652913 C 259.87282,10.574423 261.10607,13.241952 258.94403,16.129423 C 257.14470,17.928739 254.25956,17.856188 252.46024,15.911781 C 250.95109,14.402668 251.16872,10.864597 252.67786,9.3554561 z "
       style="fill:url(#linearGradient54019);fill-opacity:1.0;fill-rule:evenodd;stroke:none;stroke-width:3.7500000;stroke-linecap:butt;stroke-linejoin:miter;stroke-miterlimit:4.0000000;stroke-opacity:1.0000000" />
    <path
       sodipodi:nodetypes="ccccccccccccccczccc"
       id="path2076"
       d="M 182.07097,-72.548628 L 194.70011,-60.872873 L 190.61698,-51.597104 L 182.34438,-49.132696 L 170.65764,-60.674354 L 167.34820,-56.276765 L 179.32100,-40.557549 L 194.98229,-41.973797 L 250.79407,17.095165 C 257.53701,24.631635 268.48349,14.974608 260.33517,6.9385045 L 200.94083,-49.462371 L 204.25165,-65.083556 L 186.36088,-77.346348 L 182.07097,-72.548628 z M 253.45197,10.559530 C 254.96112,9.0503891 257.36049,8.4920972 258.86964,10.001239 C 260.37879,11.510370 261.88018,14.070643 259.71814,16.958123 C 257.91881,18.757439 255.03366,18.684888 253.23435,16.740481 C 251.72519,15.231358 251.94283,12.068681 253.45197,10.559530 z "
       style="fill:url(#linearGradient54021);fill-opacity:1.0;fill-rule:evenodd;stroke:none;stroke-width:3.7500000;stroke-linecap:butt;stroke-linejoin:miter;stroke-miterlimit:4.0000000;stroke-opacity:1.0000000" />
  </g>
</svg>
