<?xml version="1.0" encoding="UTF-8" standalone="no"?>
<!-- Created with Inkscape (http://www.inkscape.org/) -->
<!-- 
Created By Andrew Fitzsimon.
Much of this document has been manually cleaned and crafted in a text editor so that only the colour definitions and basic presentation related data remain in the XML. 
Changes to this document may compromise the structure of this palette.
-->
<svg
   xmlns:dc="http://purl.org/dc/elements/1.1/"
   xmlns:cc="http://web.resource.org/cc/"
   xmlns:rdf="http://www.w3.org/1999/02/22-rdf-syntax-ns#"
   xmlns:svg="http://www.w3.org/2000/svg"
   xmlns="http://www.w3.org/2000/svg"
   xmlns:xlink="&amp;#38;#38;#38;#38;#38;#38;#38;#38;#38;#38;#38;#38;#38;#38;#38;ns_xlink;"
   xmlns:sodipodi="http://inkscape.sourceforge.net/DTD/sodipodi-0.dtd"
   xmlns:inkscape="http://www.inkscape.org/namespaces/inkscape"
   sodipodi:docbase="/home/andy/Desktop/Etiquette/human/scalable/apps"
   sodipodi:docname="gnome-joystick.svg"
   inkscape:version="0.41+cvs"
   sodipodi:version="0.32"
   id="Etiquette"
   height="128"
   width="128"
   y="00"
   x="00"
   version="1.0">
  <metadata
     id="About">
    <rdf:RDF
       id="RDF232">
      <cc:Work
         id="Work233"
         rdf:about="">
        <dc:format
           id="format234">image/svg+xml</dc:format>
        <dc:type
           rdf:resource="http://purl.org/dc/dcmitype/StillImage"
           id="type236" />
        <dc:creator
           id="creator1291">
          <cc:Agent
             id="Agent1292">
            <dc:title
               id="title1293">Andrew Fitzsimon</dc:title>
          </cc:Agent>
        </dc:creator>
        <dc:date
           id="date1295">2004-12-25</dc:date>
        <dc:title
           id="title1297">Etiquette Icon</dc:title>
        <cc:license
           rdf:resource="http://creativecommons.org/licenses/by/2.0/"
           id="license1299" />
        <dc:rights
           id="rights1308">
          <cc:Agent
             id="Agent1309">
            <dc:title
               id="title1310">Andrew Fitzsimon</dc:title>
          </cc:Agent>
        </dc:rights>
      </cc:Work>
      <cc:License
         id="License1300"
         rdf:about="http://creativecommons.org/licenses/by/2.0/">
        <cc:permits
           id="permits1301"
           rdf:resource="http://web.resource.org/cc/Reproduction" />
        <cc:permits
           id="permits1302"
           rdf:resource="http://web.resource.org/cc/Distribution" />
        <cc:requires
           id="requires1303"
           rdf:resource="http://web.resource.org/cc/Notice" />
        <cc:requires
           id="requires1304"
           rdf:resource="http://web.resource.org/cc/Attribution" />
        <cc:prohibits
           id="prohibits1305"
           rdf:resource="http://web.resource.org/cc/CommercialUse" />
        <cc:permits
           id="permits1306"
           rdf:resource="http://web.resource.org/cc/DerivativeWorks" />
        <cc:requires
           id="requires1307"
           rdf:resource="http://web.resource.org/cc/ShareAlike" />
      </cc:License>
    </rdf:RDF>
  </metadata>
  <sodipodi:namedview
     gridempopacity="0.082352941"
     gridempcolor="#3f3fff"
     gridempspacing="2"
     gridopacity="0.082352941"
     gridcolor="#3f3fff"
     inkscape:grid-bbox="false"
     showborder="true"
     gridtolerance="40pt"
     inkscape:grid-points="true"
     gridoriginx="0pt"
     gridoriginy="0.0000000pt"
     gridspacingy="8.0000000pt"
     gridspacingx="8.0000000pt"
     showgrid="true"
     inkscape:current-layer="Etiquette"
     inkscape:window-y="30"
     inkscape:window-x="0"
     inkscape:window-height="536"
     inkscape:window-width="640"
     inkscape:cy="78.965302"
     inkscape:cx="48.685669"
     inkscape:zoom="1.0000000"
     inkscape:pageshadow="0"
     inkscape:pageopacity="0.0"
     borderopacity="1.0"
     bordercolor="#666666"
     pagecolor="#ffffff"
     id="base" />
  <defs
     id="Gradients">
    <linearGradient
       id="linearGradient1610">
      <stop
         id="stop1611"
         offset="0.0000000"
         style="stop-color:#ffffff;stop-opacity:1.0000000;" />
      <stop
         id="stop1612"
         offset="1.0000000"
         style="stop-color:#ffffff;stop-opacity:0.0000000;" />
    </linearGradient>
    <linearGradient
       id="linearGradient853">
      <stop
         id="stop854"
         offset="0.00000000"
         style="stop-color:#000000;stop-opacity:0.29752067;" />
      <stop
         id="stop855"
         offset="1.0000000"
         style="stop-color:#000000;stop-opacity:0.00000000;" />
    </linearGradient>
    <linearGradient
       id="linearGradient1693">
      <stop
         id="stop1694"
         offset="0.00000000"
         style="stop-color:#ffffff;stop-opacity:1.0000000;" />
      <stop
         id="stop1695"
         offset="1.0000000"
         style="stop-color:#ffffff;stop-opacity:0.00000000;" />
    </linearGradient>
    <linearGradient
       id="linearGradient2431">
      <stop
         style="stop-color:#333333;stop-opacity:1.0000000;"
         offset="0.0000000"
         id="stop2433" />
      <stop
         style="stop-color:#8e8e8e;stop-opacity:0;"
         offset="1"
         id="stop2435" />
    </linearGradient>
    <linearGradient
       id="MaterialSoftShadow">
      <stop
         id="stop2619"
         offset="0"
         style="stop-color:#000000;stop-opacity:0.215;" />
      <stop
         id="stop2621"
         offset="0.50000000"
         style="stop-color:#000000;stop-opacity:0.098;" />
      <stop
         id="stop2620"
         offset="1"
         style="stop-color:#000000;stop-opacity:0;" />
    </linearGradient>
    <linearGradient
       id="WhiteTransparent">
      <stop
         id="stopWhiteFull"
         offset="0"
         style="stop-color:#ffffff;stop-opacity:1;" />
      <stop
         id="stopWhiteTransparent"
         offset="1"
         style="stop-color:#ffffff;stop-opacity:0;" />
    </linearGradient>
    <linearGradient
       y2="144.71037"
       x2="43.315685"
       y1="137.14061"
       x1="43.315685"
       gradientTransform="matrix(1.388374,3.235852e-2,-1.088402e-2,0.466998,1.576984,-14.25295)"
       gradientUnits="userSpaceOnUse"
       id="linearGradient2813"
       xlink:href="#linearGradient1693"
       inkscape:collect="always" />
    <linearGradient
       y2="144.71037"
       x2="43.315685"
       y1="137.14061"
       x1="43.315685"
       gradientTransform="matrix(1.388374,3.235852e-2,-1.088402e-2,0.466998,1.576984,-14.25295)"
       gradientUnits="userSpaceOnUse"
       id="linearGradient2816"
       xlink:href="#linearGradient1693"
       inkscape:collect="always" />
    <linearGradient
       y2="98.221199"
       x2="44.161793"
       y1="87.995667"
       x1="40.425892"
       gradientTransform="matrix(0.497419,-0.271931,0.548921,1.004092,3.086768,-14.21776)"
       gradientUnits="userSpaceOnUse"
       id="linearGradient2819"
       xlink:href="#linearGradient1610"
       inkscape:collect="always" />
    <linearGradient
       y2="77.497145"
       x2="123.31265"
       y1="61.893430"
       x1="123.49447"
       gradientTransform="matrix(0.250478,-0.136932,0.276419,0.505625,19.77646,39.71780)"
       gradientUnits="userSpaceOnUse"
       id="linearGradient2822"
       xlink:href="#linearGradient1610"
       inkscape:collect="always" />
    <linearGradient
       y2="108.42533"
       x2="84.832191"
       y1="94.366791"
       x1="84.730843"
       gradientTransform="matrix(0.497419,-0.271931,0.548921,1.004092,3.086768,-14.21776)"
       gradientUnits="userSpaceOnUse"
       id="linearGradient2825"
       xlink:href="#linearGradient1610"
       inkscape:collect="always" />
    <linearGradient
       y2="120.29955"
       x2="-7.9962702"
       y1="109.58014"
       x1="-6.6447268"
       gradientTransform="matrix(0.423283,-0.404002,0.765467,0.801997,3.086768,-14.21776)"
       gradientUnits="userSpaceOnUse"
       id="linearGradient2828"
       xlink:href="#linearGradient1610"
       inkscape:collect="always" />
    <linearGradient
       y2="117.71085"
       x2="120.60398"
       y1="70.466789"
       x1="67.397987"
       gradientTransform="matrix(0.805214,1.876716e-2,-1.876716e-2,0.805214,3.086768,-14.21776)"
       gradientUnits="userSpaceOnUse"
       id="linearGradient2836"
       xlink:href="#linearGradient853"
       inkscape:collect="always" />
    <linearGradient
       y2="-52.864146"
       x2="70.262786"
       y1="-41.366060"
       x1="76.728184"
       gradientTransform="matrix(1.145846,2.670687e-2,-1.818624e-2,0.780250,-20.92397,52.20250)"
       gradientUnits="userSpaceOnUse"
       id="linearGradient2843"
       xlink:href="#linearGradient1693"
       inkscape:collect="always" />
    <linearGradient
       y2="117.51479"
       x2="54.793240"
       y1="181.35345"
       x1="80.849837"
       gradientTransform="matrix(0.755361,1.760411e-2,-1.020569e-2,0.437880,-6.734079,24.92028)"
       gradientUnits="userSpaceOnUse"
       id="linearGradient2846"
       xlink:href="#WhiteTransparent"
       inkscape:collect="always" />
    <linearGradient
       y2="-45.899769"
       x2="93.460945"
       y1="-31.416159"
       x1="94.646965"
       gradientTransform="matrix(1.049486,0.605922,-0.412596,0.714635,0.000000,0.000000)"
       gradientUnits="userSpaceOnUse"
       id="linearGradient2853"
       xlink:href="#linearGradient2431"
       inkscape:collect="always" />
    <linearGradient
       inkscape:collect="always"
       xlink:href="#linearGradient2431"
       id="linearGradient15810"
       gradientUnits="userSpaceOnUse"
       gradientTransform="matrix(1.049486,0.605922,-0.412596,0.714635,0.000000,0.000000)"
       x1="94.646965"
       y1="-31.416159"
       x2="93.460945"
       y2="-45.899769" />
    <linearGradient
       inkscape:collect="always"
       xlink:href="#linearGradient2431"
       id="linearGradient15814"
       gradientUnits="userSpaceOnUse"
       gradientTransform="matrix(1.211513,2.823741e-2,-1.922849e-2,0.824966,1.066594,2.763335)"
       x1="57.980948"
       y1="33.883954"
       x2="61.518945"
       y2="16.324401" />
  </defs>
  <path
     style="fill:url(#linearGradient15814);fill-opacity:1.0000000;fill-rule:evenodd;stroke:none;stroke-width:1.5972439;stroke-linecap:round;stroke-linejoin:round;stroke-miterlimit:4.0000000;stroke-opacity:1.0000000"
     d="M 66.006219,-5.0559273 C 63.420433,-2.4409768 64.075858,1.9430151 66.694744,4.2967328 C 68.814240,6.4581590 71.046421,8.5206634 73.208507,10.644745 C 69.297748,10.948577 65.688398,8.7258013 61.862239,8.1247405 C 58.336947,6.8767650 53.712261,7.0387894 51.400781,10.372953 C 50.002773,13.210766 51.222600,16.775375 54.046049,18.177244 C 58.193757,20.888183 62.418628,23.448419 66.743229,25.867754 C 62.788656,27.098829 58.501687,25.940076 54.412228,26.413043 C 51.403706,26.359651 47.394726,26.550107 46.216898,29.914283 C 45.189029,32.298551 46.353850,35.176912 47.665171,37.224597 C 50.917656,41.748445 56.255620,44.876544 61.810545,45.372959 C 64.374822,44.956670 65.185080,41.532046 63.348887,39.865492 C 60.227144,38.531869 56.607053,37.763046 54.199903,35.096184 C 51.951928,33.130994 52.715952,32.176504 55.506980,32.742395 C 60.431371,32.637715 65.579202,33.294015 70.305921,31.730872 C 73.726965,30.638284 75.875562,25.721521 72.964331,23.031122 C 69.970286,19.257118 65.056071,17.781662 61.129095,15.168687 C 58.017049,13.693396 59.653808,13.763670 62.045972,14.623790 C 66.151021,15.604257 70.239610,17.495578 74.526054,16.998208 C 77.134562,16.312590 79.516734,14.348248 79.734065,11.512631 C 80.080378,7.1002622 75.758551,4.5508850 73.127675,1.6549232 C 71.236606,-0.14570001 75.347431,2.7235788 75.977600,3.3677406 C 80.026838,6.2263245 83.413133,10.683563 88.508883,11.556438 C 92.522464,11.845195 95.209365,8.1134543 96.281709,4.6667700 C 97.119400,2.5021333 97.957101,0.33749589 98.794793,-1.8271407 C 100.46545,2.5485051 101.13439,7.5279594 104.06711,11.259974 C 106.92685,13.969841 111.17810,11.991081 113.40443,9.4394577 C 115.36916,7.6289812 117.33390,5.8185085 119.29864,4.0080311 C 120.01335,8.2001963 120.58155,12.443983 121.40053,16.602237 C 122.40443,19.313177 127.07362,18.623612 126.89546,15.678628 C 126.77633,10.335621 126.34362,4.7946681 124.30537,-0.16288431 C 123.34138,-2.3231868 120.90711,-3.5103816 118.62929,-2.7772297 C 114.43795,-1.2050623 111.90675,3.0005962 108.33862,5.5870648 C 106.71758,4.6839852 106.90606,1.7568999 106.01708,0.034981088 C 104.96481,-2.9110665 104.15974,-6.4824393 101.53134,-8.3806553 C 98.484731,-10.557500 94.295229,-8.0608473 93.451435,-4.7141362 C 92.083269,-1.6713184 90.817807,1.4151204 89.556508,4.5033187 C 87.551934,5.5613833 85.920310,2.9583426 84.300385,2.0013422 C 80.269033,-1.2317591 76.420137,-5.2443529 71.303341,-6.5788523 C 69.235166,-6.8503543 67.688618,-6.2055543 66.006219,-5.0559273 z "
     id="path10159" />
  <path
     id="path10056"
     d="M 5.8915691,66.252721 C 1.3771482,74.778916 3.2825061,85.612587 5.2883937,92.132901 C 7.2942818,98.653210 13.663797,103.11736 17.926895,105.37458 C 22.189994,107.63178 25.425016,107.70718 30.866983,105.67616 C 36.308951,103.64514 42.980053,95.169214 50.578705,93.188446 C 58.177353,91.207693 68.960761,91.459020 76.458883,93.791636 C 83.957002,96.124238 90.225985,104.90174 95.567426,107.18409 C 100.90886,109.46642 104.14389,109.54183 108.50752,107.48569 C 112.87114,105.42951 119.44171,101.26697 121.74921,94.847187 C 124.05667,88.427393 126.46466,77.694265 122.35238,68.967004 C 118.24006,60.239751 105.60157,46.998072 90.605321,42.332862 C 75.609080,37.667647 54.042263,37.165001 38.844964,41.126514 C 23.647665,45.088023 10.405991,57.726524 5.8915691,66.252721 z "
     style="fill:#aaaaaa;fill-opacity:1.0000000;fill-rule:evenodd;stroke:none;stroke-width:3.5002289;stroke-linecap:butt;stroke-linejoin:miter;stroke-miterlimit:4.0000000;stroke-opacity:0.31976745" />
  <path
     id="path10071"
     d="M 5.2677670,65.479946 C 0.75334350,74.006145 2.6587027,84.839823 4.6645918,91.360139 C 6.6704811,97.880454 13.040001,102.34460 17.303101,104.60181 C 21.566201,106.85904 24.801225,106.93444 30.243196,104.90339 C 35.685166,102.87239 42.356273,94.396455 49.954928,92.415685 C 57.553581,90.434931 68.336993,90.686258 75.835121,93.018874 C 83.333246,95.351478 89.602235,104.12899 94.943669,106.41134 C 100.28512,108.69369 103.52015,108.76910 107.88378,106.71293 C 112.24740,104.65677 118.81798,100.49421 121.12545,94.074430 C 123.43294,87.654633 125.84094,76.921495 121.72864,68.194229 C 117.61632,59.466969 104.97782,46.225283 89.981565,41.560072 C 74.985315,36.894854 53.418489,36.392207 38.221180,40.353724 C 23.023873,44.315234 9.7821904,56.953743 5.2677670,65.479946 z "
     style="fill:url(#linearGradient2846);fill-opacity:1.0000000;fill-rule:evenodd;stroke:#333333;stroke-width:2.5000014;stroke-linecap:butt;stroke-linejoin:miter;stroke-miterlimit:4.0000000;stroke-opacity:1.0000000" />
  <path
     style="fill:url(#linearGradient2843);fill-opacity:1.0000000;fill-rule:evenodd;stroke:none;stroke-width:1.5972439;stroke-linecap:round;stroke-linejoin:round;stroke-miterlimit:4.0000000;stroke-opacity:1.0000000"
     d="M 97.737187,-7.1526723 C 93.394846,-3.8700000 93.565513,2.3831455 90.324049,6.3557877 C 87.593279,8.0309538 85.098657,4.6034541 82.934946,3.3116693 C 78.811754,0.10317209 74.805272,-4.2278262 69.399503,-4.8071563 C 65.986337,-3.9946269 65.189304,1.1638051 68.200725,3.0346242 C 70.507132,5.7573965 74.033686,7.8071301 75.440271,11.058597 C 73.059711,14.381434 68.571988,11.559516 65.501878,11.009844 C 61.637605,10.123234 56.522722,7.6752905 53.263792,11.047614 C 51.604552,14.142559 54.773299,17.088082 57.465697,18.184994 C 61.555817,20.664618 65.853948,22.998486 69.625532,25.878427 C 67.213625,29.570544 62.171822,27.848813 58.469270,28.169602 C 55.135267,28.237214 50.895071,27.480506 48.374113,29.978821 C 46.482507,33.878596 50.014540,37.975731 53.236267,39.944752 C 55.900533,41.700919 58.784240,43.909062 62.174661,43.101798 C 62.938685,40.387998 58.870348,40.627933 57.328055,39.471094 C 54.072160,37.980704 49.693651,33.777955 50.358607,31.572464 C 52.680686,28.745959 64.637510,32.507624 71.084815,29.160219 C 73.796901,26.794386 71.589981,22.922698 68.726002,21.910005 C 64.354573,19.023449 59.426421,16.861208 55.437766,13.488164 C 57.200221,10.184697 61.333004,12.814754 63.940626,13.279192 C 68.067609,14.233310 73.011266,16.719058 76.857276,13.735624 C 79.059991,10.492400 76.443632,6.9014087 73.777271,4.9341754 C 71.929418,3.1351719 69.957218,1.3195866 68.535514,-0.80898901 C 70.724155,-3.6928421 74.055626,-0.38181741 76.109413,1.0034272 C 80.218388,4.1870232 83.992809,8.5449192 89.206305,9.6700627 C 93.645469,8.8495020 94.603067,3.4836249 96.057167,-0.084992912 C 96.630243,-1.4818847 97.654905,-5.1895048 99.398679,-4.1267072 C 102.98635,0.056628988 101.67736,6.9936120 106.29051,10.418534 C 110.12218,11.177719 112.68720,7.2567323 115.33201,5.1465352 C 116.80215,4.2787472 119.50072,0.41612939 120.58100,2.6920367 C 122.44811,6.8630206 121.90465,11.569903 123.18219,15.897898 C 126.17050,16.994310 125.05679,12.817364 124.80595,11.171516 C 124.14724,7.0534631 124.21533,2.0426118 121.04519,-0.94650281 C 117.23135,-1.5583700 114.95980,2.6283017 112.27516,4.5864723 C 110.78808,5.8684561 109.12793,7.9680176 107.05783,7.7425261 C 104.20417,3.2759762 104.26589,-2.4617188 100.82108,-6.6024363 C 99.830886,-7.1575103 98.859291,-7.3449453 97.737187,-7.1526723 z "
     id="path2439"
     sodipodi:nodetypes="ccccccccccccccccccccccccccccccccccccc" />
  <path
     id="path10067"
     d="M 8.9200189,63.446165 C 4.7772512,71.021984 6.5358772,80.653426 8.3838641,86.450771 C 10.231848,92.248118 16.088562,96.220803 20.007934,98.230232 C 23.927303,100.23967 26.900337,100.30896 31.900079,98.507391 C 36.899820,96.705837 43.024612,89.176208 50.006375,87.420835 C 56.988144,85.665474 66.898261,85.896439 73.790672,87.975166 C 80.683081,90.053892 86.450440,97.860679 91.360814,99.893215 C 96.271192,101.92573 99.244237,101.99505 103.25296,100.17038 C 107.26170,98.345702 113.29712,94.650192 115.41320,88.945233 C 117.52926,83.240277 119.73467,73.701221 115.94934,65.940644 C 112.16400,58.180052 100.53995,46.400582 86.755124,42.243133 C 72.970317,38.085669 53.150070,37.623730 39.186542,41.134471 C 25.223010,44.645217 13.062788,55.870355 8.9200189,63.446165 z "
     style="fill:#eeeeee;fill-opacity:1.0000000;fill-rule:evenodd;stroke:none;stroke-width:0.90382690pt;stroke-linecap:butt;stroke-linejoin:miter;stroke-opacity:1.0000000" />
  <path
     id="path10062"
     d="M 46.240356,73.617253 C 46.035635,82.401133 38.740539,89.363931 29.956665,89.159204 C 21.172786,88.954489 14.209991,81.659387 14.414712,72.875516 C 14.619433,64.091636 21.914527,57.128842 30.698404,57.333562 C 39.482283,57.538282 46.445076,64.833377 46.240356,73.617253 z "
     style="stroke-opacity:0.37209299;stroke-linejoin:miter;stroke-linecap:butt;stroke-width:0.74797082pt;stroke:none;fill-rule:evenodd;fill-opacity:1.0000000;fill:#333333" />
  <path
     id="rect10064"
     d="M 45.847678,50.904304 C 44.642015,50.876204 43.648768,51.824207 43.620669,53.029870 C 43.592569,54.235535 44.540572,55.228781 45.746235,55.256881 L 54.333753,55.457025 C 55.539420,55.485124 56.532662,54.537121 56.560763,53.331456 C 56.588862,52.125793 55.640861,51.132548 54.435196,51.104447 L 45.847678,50.904304 z "
     style="fill:#333333;fill-opacity:1.0000000;fill-rule:evenodd;stroke:#000000;stroke-width:0.49887815pt;stroke-linecap:butt;stroke-linejoin:miter;stroke-opacity:0.41358021" />
  <path
     id="rect10066"
     d="M 61.788707,51.275840 C 60.583047,51.247739 59.589796,52.195741 59.561696,53.401404 C 59.533596,54.607070 60.481604,55.600316 61.687264,55.628416 L 70.274783,55.828559 C 71.480448,55.856658 72.473692,54.908655 72.501794,53.702991 C 72.529892,52.497329 71.581892,51.504083 70.376225,51.475983 L 61.788707,51.275840 z "
     style="fill:#333333;fill-opacity:1.0000000;fill-rule:evenodd;stroke:#000000;stroke-width:0.49887815pt;stroke-linecap:butt;stroke-linejoin:miter;stroke-opacity:0.35802469" />
  <path
     id="path10068"
     d="M 105.91497,68.583904 C 105.71023,77.367779 98.415155,84.330567 89.631270,84.125843 C 80.847401,83.921127 73.884611,76.626028 74.089331,67.842160 C 74.294051,59.058286 81.589144,52.095497 90.373014,52.300219 C 99.156891,52.504940 106.11969,59.800026 105.91497,68.583904 z "
     style="fill:url(#linearGradient2836);fill-opacity:1.0000000;fill-rule:evenodd;stroke:none;stroke-width:1.0000000pt;stroke-linecap:butt;stroke-linejoin:miter;stroke-opacity:1.0000000" />
  <path
     id="path10069"
     d="M 40.487995,83.764513 C 36.604658,87.470969 35.707781,78.125082 30.340989,78.000000 C 24.974199,77.874918 23.642896,87.168872 19.936446,83.285529 C 16.229999,79.402189 25.575879,78.505314 25.700959,73.138523 C 25.826038,67.771734 16.532089,66.440430 20.415428,62.733981 C 24.298767,59.027534 25.195644,68.373413 30.562435,68.498496 C 35.929227,68.623578 37.260531,59.329624 40.966980,63.212968 C 44.673427,67.096306 35.327546,67.993183 35.202464,73.359973 C 35.077383,78.726766 44.371336,80.058068 40.487995,83.764513 z "
     style="fill:#666666;fill-opacity:1.0000000;fill-rule:evenodd;stroke:none;stroke-width:1.0000000pt;stroke-linecap:butt;stroke-linejoin:miter;stroke-opacity:1.0000000" />
  <path
     d="M 180.00000 92.500000 A 11.250000 11.250000 0 1 1  157.50000,92.500000 A 11.250000 11.250000 0 1 1  180.00000 92.500000 z"
     sodipodi:ry="11.250000"
     sodipodi:rx="11.250000"
     sodipodi:cy="92.500000"
     sodipodi:cx="168.75000"
     id="path10057"
     style="fill:#990000;fill-opacity:1.0000000;fill-rule:evenodd;stroke:none;stroke-width:1.0000000pt;stroke-linecap:butt;stroke-linejoin:miter;stroke-opacity:1.0000000"
     sodipodi:type="arc"
     transform="matrix(0.575114,1.340342e-2,-1.340342e-2,0.575114,-6.110244,25.69308)" />
  <path
     transform="matrix(0.575114,1.340342e-2,-1.340342e-2,0.575114,6.763608,13.40565)"
     d="M 180.00000 92.500000 A 11.250000 11.250000 0 1 1  157.50000,92.500000 A 11.250000 11.250000 0 1 1  180.00000 92.500000 z"
     sodipodi:ry="11.250000"
     sodipodi:rx="11.250000"
     sodipodi:cy="92.500000"
     sodipodi:cx="168.75000"
     id="path10058"
     style="fill:#990000;fill-opacity:1.0000000;fill-rule:evenodd;stroke:none;stroke-width:1.0000000pt;stroke-linecap:butt;stroke-linejoin:miter;stroke-opacity:1.0000000"
     sodipodi:type="arc" />
  <path
     transform="matrix(0.575114,1.340342e-2,-1.340342e-2,0.575114,-5.874883,0.163966)"
     d="M 180.00000 92.500000 A 11.250000 11.250000 0 1 1  157.50000,92.500000 A 11.250000 11.250000 0 1 1  180.00000 92.500000 z"
     sodipodi:ry="11.250000"
     sodipodi:rx="11.250000"
     sodipodi:cy="92.500000"
     sodipodi:cx="168.75000"
     id="path10059"
     style="fill:#990000;fill-opacity:1.0000000;fill-rule:evenodd;stroke:none;stroke-width:1.0000000pt;stroke-linecap:butt;stroke-linejoin:miter;stroke-opacity:1.0000000"
     sodipodi:type="arc" />
  <path
     transform="matrix(0.575114,1.340342e-2,-1.340342e-2,0.575114,-19.11658,12.80246)"
     d="M 180.00000 92.500000 A 11.250000 11.250000 0 1 1  157.50000,92.500000 A 11.250000 11.250000 0 1 1  180.00000 92.500000 z"
     sodipodi:ry="11.250000"
     sodipodi:rx="11.250000"
     sodipodi:cy="92.500000"
     sodipodi:cx="168.75000"
     id="path10060"
     style="fill:#990000;fill-opacity:1.0000000;fill-rule:evenodd;stroke:none;stroke-width:1.0000000pt;stroke-linecap:butt;stroke-linejoin:miter;stroke-opacity:1.0000000"
     sodipodi:type="arc" />
  <path
     id="path10079"
     d="M 92.041397,78.918842 C 94.378127,81.367093 95.225905,84.355001 93.933753,85.588291 C 92.641610,86.821589 89.696424,85.835535 87.359696,83.387283 C 85.022966,80.939037 84.175193,77.951124 85.467345,76.717833 C 86.759492,75.484542 89.704680,76.470598 92.041397,78.918842 z "
     style="opacity:0.55621302;fill:url(#linearGradient2828);fill-opacity:1.0000000;fill-rule:evenodd;stroke:none;stroke-width:1.0000000pt;stroke-linecap:butt;stroke-linejoin:miter;stroke-opacity:1.0000000" />
  <path
     id="path10080"
     d="M 105.72922,67.141047 C 107.26249,69.945684 107.09352,72.994583 105.35209,73.946592 C 103.61066,74.898614 100.95294,73.395043 99.419670,70.590405 C 97.886405,67.785758 98.055348,64.736875 99.796805,63.784846 C 101.53823,62.832835 104.19597,64.336400 105.72922,67.141047 z "
     style="fill:url(#linearGradient2825);fill-opacity:1.0000000;fill-rule:evenodd;stroke:none;stroke-width:1.0000000pt;stroke-linecap:butt;stroke-linejoin:miter;stroke-opacity:1.0000000" />
  <path
     id="path10081"
     d="M 93.090585,53.899470 C 94.623858,56.704109 94.454910,59.752985 92.713497,60.704993 C 90.972102,61.656996 88.314391,60.153410 86.781128,57.348766 C 85.247868,54.544123 85.416806,51.495251 87.158203,50.543246 C 88.899616,49.591238 91.557328,51.094823 93.090585,53.899470 z "
     style="fill:url(#linearGradient2822);fill-opacity:1.0000000;fill-rule:evenodd;stroke:none;stroke-width:1.0000000pt;stroke-linecap:butt;stroke-linejoin:miter;stroke-opacity:1.0000000" />
  <path
     id="path10082"
     d="M 79.849021,66.537878 C 81.382283,69.342517 81.213328,72.391409 79.471892,73.343425 C 77.730456,74.295448 75.072729,72.791872 73.539468,69.987235 C 72.006208,67.182590 72.175162,64.133700 73.916599,63.181679 C 75.658035,62.229659 78.315758,63.733235 79.849021,66.537878 z "
     style="opacity:0.47337279;fill:url(#linearGradient2819);fill-opacity:1.0000000;fill-rule:evenodd;stroke:none;stroke-width:1.0000000pt;stroke-linecap:butt;stroke-linejoin:miter;stroke-opacity:1.0000000" />
  <path
     id="path22863"
     d="M 44.452481,51.651619 C 43.688639,52.591913 43.712294,54.221578 44.939108,54.690682 C 46.622987,55.473988 48.603743,54.938033 50.412996,55.164203 C 52.197028,55.067714 54.102868,55.661236 55.735862,54.709201 C 56.477631,53.774156 56.453777,52.135542 55.249236,51.670137 C 53.565354,50.886833 51.584601,51.422788 49.775347,51.196616 C 47.991285,51.294138 46.079605,50.698149 44.452481,51.651619 z "
     style="opacity:0.41340783;fill:url(#linearGradient2816);fill-opacity:1.0000000;fill-rule:evenodd;stroke:none;stroke-width:0.58581848pt;stroke-linecap:butt;stroke-linejoin:miter;stroke-opacity:1.0000000" />
  <path
     id="path22865"
     d="M 60.380613,52.022854 C 59.655567,52.962639 59.646790,54.599961 60.867242,55.061917 C 62.551123,55.845222 64.531878,55.309267 66.341129,55.535438 C 68.133418,55.438409 70.047914,56.033624 71.689160,55.081021 C 72.430931,54.145979 72.407073,52.507363 71.202531,52.041958 C 69.518650,51.258655 67.537895,51.794608 65.728643,51.568437 C 63.936636,51.666449 62.015645,51.068878 60.380613,52.022854 z "
     style="opacity:0.41340783;fill:url(#linearGradient2813);fill-opacity:1.0000000;fill-rule:evenodd;stroke:none;stroke-width:0.58581848pt;stroke-linecap:butt;stroke-linejoin:miter;stroke-opacity:1.0000000" />
</svg>
