<?xml version="1.0" encoding="UTF-8" standalone="no"?>
<!-- Created with Inkscape (http://www.inkscape.org/) -->
<!-- 
Created By Andrew Fitzsimon.
Much of this document has been manually cleaned and crafted in a text editor so that only the colour definitions and basic presentation related data remain in the XML. 
Changes to this document may compromise the structure of this palette.
-->
<svg
   xmlns:dc="http://purl.org/dc/elements/1.1/"
   xmlns:cc="http://web.resource.org/cc/"
   xmlns:rdf="http://www.w3.org/1999/02/22-rdf-syntax-ns#"
   xmlns:svg="http://www.w3.org/2000/svg"
   xmlns="http://www.w3.org/2000/svg"
   xmlns:xlink="http://www.w3.org/1999/xlink"
   xmlns:sodipodi="http://inkscape.sourceforge.net/DTD/sodipodi-0.dtd"
   xmlns:inkscape="http://www.inkscape.org/namespaces/inkscape"
   version="1.0"
   x="00"
   y="00"
   width="128"
   height="128"
   id="Etiquette"
   sodipodi:version="0.32"
   inkscape:version="0.41pre2"
   sodipodi:docname="inkscape.svg"
   sodipodi:docbase="/home/andy/Desktop/Etiquette/etiquette/scalable/apps">
  <metadata
     id="About">
    <rdf:RDF
       id="RDF232">
      <cc:Work
         rdf:about=""
         id="Work233">
        <dc:format
           id="format234">image/svg+xml</dc:format>
        <dc:type
           id="type236"
           rdf:resource="http://purl.org/dc/dcmitype/StillImage" />
        <dc:creator
           id="creator1291">
          <cc:Agent
             id="Agent1292">
            <dc:title
               id="title1293">Andrew Fitzsimon</dc:title>
          </cc:Agent>
        </dc:creator>
        <dc:date
           id="date1295">2004-12-25</dc:date>
        <dc:title
           id="title1297">Etiquette Icon</dc:title>
        <cc:license
           id="license1299"
           rdf:resource="http://creativecommons.org/licenses/by/2.0/" />
        <dc:rights
           id="rights1308">
          <cc:Agent
             id="Agent1309">
            <dc:title
               id="title1310">Andrew Fitzsimon</dc:title>
          </cc:Agent>
        </dc:rights>
      </cc:Work>
      <cc:License
         rdf:about="http://creativecommons.org/licenses/by/2.0/"
         id="License1300">
        <cc:permits
           rdf:resource="http://web.resource.org/cc/Reproduction"
           id="permits1301" />
        <cc:permits
           rdf:resource="http://web.resource.org/cc/Distribution"
           id="permits1302" />
        <cc:requires
           rdf:resource="http://web.resource.org/cc/Notice"
           id="requires1303" />
        <cc:requires
           rdf:resource="http://web.resource.org/cc/Attribution"
           id="requires1304" />
        <cc:prohibits
           rdf:resource="http://web.resource.org/cc/CommercialUse"
           id="prohibits1305" />
        <cc:permits
           rdf:resource="http://web.resource.org/cc/DerivativeWorks"
           id="permits1306" />
        <cc:requires
           rdf:resource="http://web.resource.org/cc/ShareAlike"
           id="requires1307" />
      </cc:License>
    </rdf:RDF>
  </metadata>
  <sodipodi:namedview
     id="base"
     pagecolor="#ffffff"
     bordercolor="#666666"
     borderopacity="1.0"
     inkscape:pageopacity="0.0"
     inkscape:pageshadow="0"
     inkscape:zoom="4.0000000"
     inkscape:cx="49.220383"
     inkscape:cy="54.877991"
     inkscape:window-width="640"
     inkscape:window-height="534"
     inkscape:window-x="0"
     inkscape:window-y="25"
     inkscape:current-layer="Etiquette"
     showgrid="true"
     gridspacingx="8.0000000pt"
     gridspacingy="8.0000000pt"
     gridoriginy="0.0000000pt"
     gridoriginx="0pt"
     inkscape:grid-points="true"
     gridtolerance="40pt"
     showborder="true"
     inkscape:grid-bbox="false"
     gridcolor="#3f3fff"
     gridopacity="0.082352941"
     gridempspacing="2"
     gridempcolor="#3f3fff"
     gridempopacity="0.082352941" />
  <defs
     id="Gradients">
    <linearGradient
       inkscape:collect="always"
       id="linearGradient1851">
      <stop
         style="stop-color:#000000;stop-opacity:0.20000000;"
         offset="0.0000000"
         id="stop1852" />
      <stop
         style="stop-color:#000000;stop-opacity:0.064516127;"
         offset="0.50000000"
         id="stop1854" />
      <stop
         style="stop-color:#adadad;stop-opacity:0.0000000;"
         offset="1.0000000"
         id="stop1853" />
    </linearGradient>
    <linearGradient
       id="linearGradient2317">
      <stop
         style="stop-color:#d6d6d6;stop-opacity:1.0000000;"
         offset="0.0000000"
         id="stop2318" />
      <stop
         style="stop-color:#eaeaea;stop-opacity:1.0000000;"
         offset="0.25769231"
         id="stop2322" />
      <stop
         style="stop-color:#919191;stop-opacity:1.0000000;"
         offset="0.70594490"
         id="stop2320" />
      <stop
         style="stop-color:#d2d2d2;stop-opacity:1.0000000;"
         offset="0.73347497"
         id="stop2321" />
      <stop
         style="stop-color:#a6a6a6;stop-opacity:1.0000000;"
         offset="1.0000000"
         id="stop2319" />
    </linearGradient>
    <linearGradient
       id="linearGradient1513">
      <stop
         style="stop-color:#ffffff;stop-opacity:1.0000000;"
         offset="0.0000000"
         id="stop1514" />
      <stop
         style="stop-color:#ffffff;stop-opacity:0.0000000;"
         offset="1.0000000"
         id="stop1515" />
    </linearGradient>
    <linearGradient
       id="linearGradient1273">
      <stop
         style="stop-color:#ffffff;stop-opacity:1.0000000;"
         offset="0.00000000"
         id="stop1274" />
      <stop
         style="stop-color:#ffffff;stop-opacity:0.00000000;"
         offset="1.0000000"
         id="stop1275" />
    </linearGradient>
    <linearGradient
       id="linearGradient1323">
      <stop
         style="stop-color:#000000;stop-opacity:0.77685952;"
         offset="0.00000000"
         id="stop1324" />
      <stop
         style="stop-color:#000000;stop-opacity:0.00000000;"
         offset="1.0000000"
         id="stop1325" />
    </linearGradient>
    <linearGradient
       id="linearGradient1218">
      <stop
         style="stop-color:#000000;stop-opacity:1.0000000;"
         offset="0.00000000"
         id="stop1219" />
      <stop
         style="stop-color:#323232;stop-opacity:1.0000000;"
         offset="0.073255815"
         id="stop1321" />
      <stop
         style="stop-color:#000000;stop-opacity:1.0000000;"
         offset="0.65260679"
         id="stop1320" />
      <stop
         style="stop-color:#fff;stop-opacity:1;"
         offset="1"
         id="stop1220" />
    </linearGradient>
    <linearGradient
       id="linearGradient1222">
      <stop
         style="stop-color:#000000;stop-opacity:0.32231405;"
         offset="0.00000000"
         id="stop1223" />
      <stop
         style="stop-color:#000000;stop-opacity:0.00000000;"
         offset="1.0000000"
         id="stop1224" />
    </linearGradient>
    <linearGradient
       inkscape:collect="always"
       xlink:href="#linearGradient1222"
       id="linearGradient2"
       x1="186.51329"
       y1="-12.338205"
       x2="121.28291"
       y2="117.74332"
       gradientTransform="scale(1.021116,0.979320)"
       gradientUnits="userSpaceOnUse" />
    <linearGradient
       id="linearGradient826">
      <stop
         style="stop-color:#000000;stop-opacity:0.95294118;"
         offset="0.0000000"
         id="stop827" />
      <stop
         style="stop-color:#000000;stop-opacity:0.55862069;"
         offset="0.36585677"
         id="stop830" />
      <stop
         style="stop-color:#000000;stop-opacity:0.52413791;"
         offset="0.52758628"
         id="stop7006" />
      <stop
         style="stop-color:#ffffff;stop-opacity:0.00000000;"
         offset="1.0000000"
         id="stop828" />
    </linearGradient>
    <linearGradient
       inkscape:collect="always"
       xlink:href="#linearGradient1273"
       id="linearGradient82"
       gradientUnits="userSpaceOnUse"
       gradientTransform="matrix(1.015236,0.000000,0.000000,0.567588,0.230229,7.539115)"
       x1="61.307930"
       y1="33.191123"
       x2="25.160360"
       y2="71.282917" />
    <linearGradient
       inkscape:collect="always"
       xlink:href="#linearGradient1273"
       id="linearGradient83"
       gradientUnits="userSpaceOnUse"
       gradientTransform="matrix(0.915757,0.000000,0.000000,0.629245,0.230229,7.539115)"
       x1="-18.099062"
       y1="164.85740"
       x2="44.345162"
       y2="103.69473" />
    <linearGradient
       inkscape:collect="always"
       xlink:href="#linearGradient1273"
       id="linearGradient84"
       gradientUnits="userSpaceOnUse"
       gradientTransform="matrix(0.848724,0.000000,0.000000,0.678944,0.230229,7.539115)"
       x1="138.80883"
       y1="55.521047"
       x2="99.692527"
       y2="78.666847" />
    <linearGradient
       inkscape:collect="always"
       xlink:href="#linearGradient1323"
       id="linearGradient85"
       gradientUnits="userSpaceOnUse"
       gradientTransform="matrix(1.058427,0.000000,0.000000,0.544426,0.230229,7.539115)"
       x1="4.5444010"
       y1="157.10939"
       x2="110.67952"
       y2="157.10939" />
    <linearGradient
       inkscape:collect="always"
       xlink:href="#linearGradient1218"
       id="linearGradient86"
       gradientUnits="userSpaceOnUse"
       gradientTransform="matrix(0.771406,0.000000,0.000000,0.746994,0.230229,7.539115)"
       x1="79.725364"
       y1="21.724524"
       x2="45.861862"
       y2="151.13265" />
    <linearGradient
       inkscape:collect="always"
       xlink:href="#linearGradient1513"
       id="linearGradient87"
       gradientUnits="userSpaceOnUse"
       gradientTransform="scale(1.006719,0.993326)"
       x1="13.739685"
       y1="3.3074582"
       x2="15.501424"
       y2="4.9298501" />
    <linearGradient
       inkscape:collect="always"
       xlink:href="#linearGradient1513"
       id="linearGradient88"
       gradientUnits="userSpaceOnUse"
       gradientTransform="scale(1.232378,0.811439)"
       x1="6.3887252"
       y1="25.159436"
       x2="3.4933994"
       y2="20.659481" />
    <linearGradient
       inkscape:collect="always"
       xlink:href="#linearGradient2317"
       id="linearGradient89"
       gradientUnits="userSpaceOnUse"
       gradientTransform="scale(1.035177,0.966019)"
       x1="8.2686740"
       y1="11.002030"
       x2="10.515973"
       y2="13.066299" />
    <linearGradient
       inkscape:collect="always"
       xlink:href="#linearGradient1513"
       id="linearGradient90"
       gradientUnits="userSpaceOnUse"
       gradientTransform="scale(1.232378,0.811439)"
       x1="-0.33778927"
       y1="17.273375"
       x2="3.4641537"
       y2="19.768400" />
    <linearGradient
       inkscape:collect="always"
       xlink:href="#linearGradient1513"
       id="linearGradient91"
       gradientUnits="userSpaceOnUse"
       gradientTransform="scale(1.369616,0.730132)"
       x1="0.50065144"
       y1="18.795197"
       x2="2.7819664"
       y2="23.002226" />
    <radialGradient
       inkscape:collect="always"
       xlink:href="#linearGradient1851"
       id="radialGradient92"
       gradientUnits="userSpaceOnUse"
       cx="-289.09140"
       cy="598.36652"
       fx="-197.27433"
       fy="572.00755"
       r="125.20509" />
    <linearGradient
       inkscape:collect="always"
       xlink:href="#linearGradient1222"
       id="linearGradient93"
       gradientUnits="userSpaceOnUse"
       gradientTransform="scale(1.016208,0.984050)"
       x1="184.98161"
       y1="-9.7631931"
       x2="122.84774"
       y2="114.14330" />
    <linearGradient
       inkscape:collect="always"
       xlink:href="#linearGradient1222"
       id="linearGradient94"
       gradientUnits="userSpaceOnUse"
       gradientTransform="scale(1.021116,0.979320)"
       x1="186.51329"
       y1="-12.338205"
       x2="121.28291"
       y2="117.74332" />
    <linearGradient
       inkscape:collect="always"
       xlink:href="#linearGradient1222"
       id="linearGradient95"
       gradientUnits="userSpaceOnUse"
       gradientTransform="scale(1.021116,0.979320)"
       x1="186.51329"
       y1="-12.338205"
       x2="121.28291"
       y2="117.74332" />
    <linearGradient
       inkscape:collect="always"
       xlink:href="#linearGradient1222"
       id="linearGradient96"
       gradientUnits="userSpaceOnUse"
       gradientTransform="scale(1.021116,0.979320)"
       x1="186.51329"
       y1="-12.338205"
       x2="121.28291"
       y2="117.74332" />
    <linearGradient
       inkscape:collect="always"
       xlink:href="#linearGradient1222"
       id="linearGradient97"
       gradientUnits="userSpaceOnUse"
       gradientTransform="scale(1.021116,0.979320)"
       x1="186.51329"
       y1="-12.338205"
       x2="121.28291"
       y2="117.74332" />
    <linearGradient
       inkscape:collect="always"
       xlink:href="#linearGradient1222"
       id="linearGradient98"
       gradientUnits="userSpaceOnUse"
       gradientTransform="scale(1.021116,0.979320)"
       x1="186.51329"
       y1="-12.338205"
       x2="121.28291"
       y2="117.74332" />
    <radialGradient
       inkscape:collect="always"
       xlink:href="#linearGradient826"
       id="radialGradient99"
       gradientUnits="userSpaceOnUse"
       cx="296.29630"
       cy="281.25000"
       fx="303.70370"
       fy="93.750000"
       r="248.40302" />
    <radialGradient
       inkscape:collect="always"
       xlink:href="#linearGradient826"
       id="radialGradient100"
       gradientUnits="userSpaceOnUse"
       cx="296.29630"
       cy="281.25000"
       fx="303.70370"
       fy="93.750000"
       r="248.40302" />
  </defs>
  <path
     sodipodi:type="arc"
     id="path898"
     sodipodi:cx="300.00000"
     sodipodi:cy="300.00000"
     sodipodi:rx="300.00000"
     sodipodi:ry="300.00000"
     d="M 600.00000 300.00000 A 300.00000 300.00000 0 1 1  0.0000000,300.00000 A 300.00000 300.00000 0 1 1  600.00000 300.00000 z"
     style="opacity:0.69398910;fill:url(#radialGradient100);stroke-width:4.4309568;stroke-dasharray:17.723827 17.723827 ;stroke-dashoffset:0.0000000"
     transform="matrix(0.200001,0.000000,0.000000,4.484544e-2,9.999800,68.00000)" />
  <path
     sodipodi:type="arc"
     id="ball1"
     sodipodi:cx="300.00000"
     sodipodi:cy="300.00000"
     sodipodi:rx="300.00000"
     sodipodi:ry="300.00000"
     d="M 600.00000 300.00000 A 300.00000 300.00000 0 1 1  0.0000000,300.00000 A 300.00000 300.00000 0 1 1  600.00000 300.00000 z"
     style="fill:url(#radialGradient99);stroke-width:4.4309568;stroke-dasharray:17.723827 17.723827 ;stroke-dashoffset:0.0000000"
     transform="matrix(0.182561,0.000000,0.000000,7.938765e-2,4.459104,52.62257)" />
  <g
     id="g1310"
     transform="matrix(1.562249,0.000000,0.000000,1.425547,-156.4086,6.027733)"
     style="fill:url(#linearGradient2)">
    <path
       style="fill:url(#linearGradient93);fill-opacity:0.074380167;fill-rule:evenodd;stroke-width:1.0000000pt"
       d="M 139.27138,11.077118 C 137.22042,11.077119 135.15548,11.849270 133.58388,13.420868 L 105.67763,41.358368 C 104.13725,42.898711 103.33325,44.910828 103.30263,46.920868 C 103.30220,46.954601 103.30263,47.012134 103.30263,47.045868 L 103.36513,47.045868 C 103.89976,49.079999 117.69889,51.660911 119.24013,53.202118 C 121.56768,55.529685 110.31886,57.249538 112.64638,59.577118 C 114.97392,61.904658 126.72486,64.062038 129.05263,66.389620 C 131.38019,68.717170 124.28755,71.187070 126.61513,73.514620 C 128.94268,75.842201 136.74995,72.943440 135.33388,79.014621 C 138.47707,82.157811 145.03666,80.657811 149.42763,77.514621 C 151.75518,75.187070 144.97506,75.404670 147.30263,73.077120 C 149.63018,70.749540 155.50836,70.738600 160.45888,65.170868 C 158.46624,62.071818 151.94381,60.748438 154.27138,58.420868 C 156.59893,56.093323 161.10115,57.261288 170.86513,52.827118 C 175.63150,50.662408 175.25838,49.039285 175.24013,47.045868 C 175.23975,47.003922 175.24013,46.963136 175.24013,46.920868 L 175.20888,46.920868 C 175.17827,44.910830 174.40547,42.898714 172.86513,41.358368 L 144.92763,13.420868 C 143.35604,11.849272 141.32234,11.077118 139.27138,11.077118 z M 139.02138,14.702118 C 139.93315,14.725869 140.67125,15.422422 142.11513,16.358368 L 155.30263,26.139618 C 155.44708,26.233292 155.58252,26.320552 155.70888,26.420868 C 155.83525,26.521171 155.97562,26.627132 156.08388,26.733368 C 156.19214,26.839410 156.27479,26.966073 156.36513,27.077118 C 156.45527,27.188145 156.54310,27.305955 156.61513,27.420868 C 156.68737,27.535969 156.74853,27.646585 156.80263,27.764618 C 156.85677,27.882866 156.89163,27.987920 156.92763,28.108368 C 156.96385,28.228632 157.00329,28.361823 157.02138,28.483368 C 157.03948,28.605130 157.05263,28.736271 157.05263,28.858368 L 149.24013,25.077118 L 148.45888,30.983368 L 144.14638,28.952118 L 137.52138,33.389618 L 134.95888,24.639618 L 131.70888,32.295868 L 122.55263,33.202118 L 122.64638,29.139618 C 122.64638,28.162533 127.93872,21.330614 131.14638,19.702118 L 137.02138,15.483368 C 137.88771,14.921800 138.47431,14.687867 139.02138,14.702118 z M 126.89638,54.639618 C 131.05584,55.718333 135.68346,57.114312 139.39638,57.139618 L 139.55263,58.827118 C 136.37321,58.499388 129.63884,56.949888 128.05263,56.139618 L 126.89638,54.639618 z M 170.24013,62.045868 C 169.60518,62.025518 169.00430,62.089178 168.55263,62.202118 C 167.70107,62.414898 163.56419,62.512928 163.89638,65.170868 C 167.55118,66.499190 173.20097,67.516500 173.86513,64.858368 C 174.36366,62.865308 172.14497,62.106908 170.24013,62.045868 z M 122.45888,67.452120 C 121.88389,67.385110 121.32136,67.455980 120.77138,67.733370 C 118.57203,68.842760 117.09168,71.307720 119.14638,72.327120 C 121.20129,73.346520 122.65747,72.185800 124.45888,70.920870 C 126.26050,69.656140 126.21414,69.408800 126.08388,68.920870 C 125.83449,68.987380 124.18386,67.653150 122.45888,67.452120 z M 162.64638,67.889620 C 160.98514,68.553960 161.00465,70.861860 162.33388,71.858370 C 163.66277,72.855080 165.32597,72.210400 165.99013,71.545870 C 166.65484,70.881530 165.96848,68.553970 162.64638,67.889620 z "
       id="path1278" />
    <path
       style="fill:url(#linearGradient94);fill-opacity:0.074380167;fill-rule:evenodd;stroke-width:1.0000000pt"
       d="M 137.96875,10.718750 C 134.70402,11.060845 132.45341,13.855395 130.15790,15.940974 C 121.77155,24.503910 113.19525,32.911552 104.88478,41.529122 C 103.53165,43.257666 102.98133,45.293623 102.71875,47.437500 C 107.43946,50.886242 113.69835,50.905815 118.71875,53.781250 C 117.30484,56.014138 113.86394,55.927723 112.30534,58.153586 C 110.95047,59.066432 112.87438,60.562599 113.88390,60.907202 C 118.07998,63.025863 122.80956,63.838835 126.97834,66.068813 C 129.14039,66.223477 128.99465,68.397410 127.55968,69.465540 C 126.42313,70.610466 124.66557,72.512182 126.40386,73.938766 C 128.52893,75.415674 131.34635,75.011355 133.71875,75.875000 C 135.38587,76.789177 134.20286,78.442002 135.34375,79.593750 C 138.20878,81.840481 142.17613,81.444087 145.36980,80.162063 C 147.01184,79.679133 148.50293,78.612108 149.93750,77.781250 C 151.32137,76.168445 149.16317,75.014407 147.93750,74.343750 C 147.13207,73.007556 149.81258,72.471472 150.72621,71.835396 C 154.22932,70.415525 157.63139,68.772275 160.32323,66.076023 C 162.00146,65.040055 159.53684,63.566475 158.75000,62.750000 C 157.29555,61.671425 155.38495,61.005736 154.46875,59.343750 C 156.83166,56.736844 160.77991,57.222943 163.82692,55.886662 C 167.48614,54.956060 170.96688,53.327613 174.19128,51.441061 C 176.31894,49.855420 175.75931,47.094289 175.34438,44.858149 C 173.82714,40.146659 169.32671,37.346121 166.14614,33.782162 C 159.00255,26.737555 151.96598,19.558149 144.75603,12.597114 C 142.83187,11.117125 140.40461,10.324926 137.96875,10.718750 z M 140.15625,15.718750 C 145.33185,19.512142 150.51925,23.291773 155.68750,27.093750 C 155.79568,28.128330 152.96647,25.994412 151.88519,25.704486 C 150.56126,25.310550 148.23232,22.990502 148.60160,25.735802 C 148.03383,26.854222 148.89364,30.614243 147.25375,29.748789 C 145.77079,28.952048 143.79956,27.767016 142.39696,29.393778 C 140.87922,30.408352 139.36149,31.422926 137.84375,32.437500 C 136.92659,29.270978 136.01364,26.103230 135.09375,22.937500 C 133.83186,25.869891 132.59553,28.813265 131.34375,31.750000 C 128.60417,32.020833 125.86458,32.291667 123.12500,32.562500 C 122.93577,30.531586 123.37937,28.492090 124.78964,27.051727 C 127.83705,22.165897 132.91432,19.181067 137.48762,15.928279 C 138.38080,15.399443 139.18306,15.465846 140.15625,15.718750 z M 132.06250,56.562500 C 134.25968,57.131800 136.54653,57.244809 138.78125,57.625000 C 137.93164,58.641801 135.83490,57.320885 134.50134,57.277133 C 132.75919,56.896272 131.01731,56.527068 129.37500,55.812500 C 130.27083,56.062500 131.16667,56.312500 132.06250,56.562500 z M 168.50000,61.625000 C 166.47980,62.095190 163.59992,62.369201 163.34375,64.968750 C 164.00781,65.934196 166.11962,66.292948 167.47626,66.551501 C 169.60910,66.891924 172.52463,67.659468 174.01886,65.672524 C 175.29513,63.892929 173.38643,61.628153 171.40540,61.754929 C 170.44376,61.426788 169.48969,61.503021 168.50000,61.625000 z M 120.65625,67.156250 C 119.17864,68.173454 117.17273,69.706513 117.81250,71.750000 C 119.32360,73.943032 122.44871,73.328157 124.17581,71.744685 C 125.31806,71.095411 127.22708,69.849349 126.34375,68.406250 C 124.53029,67.617814 122.70705,66.421404 120.65625,67.156250 z M 162.25000,67.468750 C 160.98536,68.304844 160.47655,70.055902 161.35305,71.321264 C 162.02451,73.004295 164.27223,73.179865 165.64672,72.263080 C 167.48408,71.700360 166.67812,69.347513 165.33731,68.658474 C 164.66189,67.815250 163.12029,67.406310 162.25000,67.468750 z "
       id="path1283" />
    <path
       style="fill:url(#linearGradient95);fill-opacity:0.074380167;fill-rule:evenodd;stroke-width:1.0000000pt"
       d="M 137.09375,12.062500 C 133.45264,13.658306 130.89510,17.054651 128.02763,19.760075 C 120.64992,27.277135 113.11748,34.668181 105.81675,42.244521 C 104.77302,43.583830 104.19848,45.113312 103.93750,46.781250 C 108.02500,49.661848 113.35464,49.814484 117.77247,52.034312 C 119.23732,52.180074 120.83004,53.663696 119.47530,54.914506 C 117.72685,56.714093 114.64707,56.868986 113.18750,58.937500 C 116.98689,61.678185 121.72461,62.314645 125.91888,64.199775 C 127.35246,65.248996 129.93899,65.341959 130.00000,67.531250 C 129.61283,69.469175 127.68115,70.594821 126.84375,72.343750 C 128.66657,74.916318 132.41661,73.526770 134.81763,75.194505 C 136.12150,75.998634 135.76289,77.719238 136.33739,78.786112 C 139.34189,80.984126 143.56705,80.023489 146.59979,78.262860 C 147.57821,77.931235 150.25551,76.737683 148.25234,75.866570 C 146.79311,75.539319 145.57083,73.791727 146.98575,72.676315 C 150.59379,69.928273 155.52636,69.300230 158.75379,65.912819 C 160.44061,64.636839 157.51978,63.512312 156.64603,62.784855 C 155.31686,61.805358 153.02074,60.864770 153.31250,58.906250 C 155.52467,55.836091 159.76350,56.249927 162.98171,54.909139 C 166.64088,54.011598 170.17880,52.442724 173.39619,50.585767 C 175.44759,48.766928 174.40312,45.854433 173.70402,43.674602 C 170.01715,38.505895 164.93468,34.528530 160.60640,29.906454 C 155.05848,24.484276 149.68028,18.831089 144.02714,13.552135 C 142.01313,12.267231 139.68457,11.155741 137.26959,12.030263 L 137.09375,12.062500 z M 139.25000,14.156250 C 144.36849,16.573687 148.44456,20.615673 153.06166,23.857057 C 154.79682,25.417824 157.75256,26.462276 157.65625,29.218750 C 155.98301,29.620934 154.51821,27.909197 152.92283,27.467153 C 151.47889,26.979622 149.05912,24.688826 149.46490,27.619328 C 148.95092,28.676042 149.67609,32.096323 148.30430,31.528870 C 146.86362,30.916675 145.25114,29.742049 143.73062,29.880583 C 141.56112,31.359522 139.38321,32.826259 137.21875,34.312500 C 136.40063,31.654144 135.63994,28.977747 134.84375,26.312500 C 133.78712,28.431959 132.98467,30.961875 131.78125,32.843750 C 128.52084,33.166779 125.26035,33.488957 122.00000,33.812500 C 122.02692,31.439278 121.58820,28.751334 123.45144,26.900643 C 126.38650,21.928911 131.54097,18.937382 135.96875,15.531250 C 137.05500,15.131227 138.17386,14.356070 139.25000,14.156250 z M 126.34375,53.906250 C 130.81931,55.099287 135.33348,56.080112 139.93750,56.625000 C 140.81508,58.380031 139.61654,59.889689 137.75155,59.030564 C 134.35469,58.342143 130.95451,57.411091 127.62500,56.500000 C 127.37596,56.018046 124.72663,53.333015 126.34375,53.906250 z M 168.68750,62.750000 C 167.26725,63.145732 165.19352,63.022642 164.68750,64.750000 C 167.41558,65.272026 170.36127,66.626958 173.03125,65.187500 C 173.94813,63.333514 171.22391,62.807999 169.92452,62.707344 C 169.51218,62.721563 169.09984,62.735781 168.68750,62.750000 z M 120.96875,68.250000 C 119.88102,69.094191 117.71809,71.141191 120.00567,71.867660 C 122.11744,72.377527 123.71955,70.573549 125.28125,69.468750 C 124.17010,68.379529 122.48301,67.967608 120.96875,68.250000 z M 162.25000,68.937500 C 161.26655,70.838341 164.03769,72.707639 165.32625,71.028976 C 165.98639,69.968138 163.10932,68.105539 162.25000,68.937500 z "
       id="path1286" />
    <path
       style="fill:url(#linearGradient96);fill-opacity:0.074380167;fill-rule:evenodd;stroke-width:1.0000000pt"
       d="M 137.50000,12.562500 C 131.56402,15.884438 127.47918,21.513076 122.59316,26.106819 C 117.07494,31.800872 111.33765,37.333066 105.95500,43.127274 C 105.27016,44.232264 103.90274,46.716455 105.88806,47.110513 C 110.48303,49.525949 116.07018,49.897473 120.25000,52.937500 C 121.19557,55.258014 118.31954,56.204644 116.77699,57.135076 C 115.14828,57.646504 113.25757,59.174666 115.98524,59.736007 C 120.51650,62.179113 125.90956,62.812244 130.06250,65.968750 C 131.40440,68.155882 128.87852,70.088345 127.96429,71.816940 C 127.97548,73.606583 130.61198,73.210238 131.85374,73.694589 C 134.00698,73.861384 136.31306,75.067306 136.52629,77.437982 C 137.24770,79.315251 139.82104,79.377347 141.56250,79.375000 C 143.88381,79.081698 145.88731,77.848938 148.00000,76.937500 C 147.89289,75.484280 145.47385,75.343455 145.78125,73.562500 C 147.65028,70.568783 151.46696,69.934698 154.32757,68.211442 C 155.95166,67.507534 157.40819,66.436524 158.50000,65.031250 C 156.69534,62.893495 153.11684,62.207207 152.76893,59.025530 C 153.13476,57.911585 154.90043,56.856141 156.14992,56.314935 C 161.47352,54.305871 167.29666,53.530281 172.18291,50.436255 C 174.75469,49.397100 173.90347,46.181096 173.15013,44.168122 C 170.99740,41.143850 168.08639,38.542958 165.64236,35.681332 C 163.12371,33.093790 160.49665,30.610931 157.93750,28.062500 C 158.99092,29.594714 157.00835,30.333418 155.86310,29.376751 C 153.95887,28.546062 152.06033,27.726589 150.12500,26.968750 C 150.04976,28.633800 149.69671,30.253091 149.34375,31.875000 C 146.94959,32.517021 144.62510,29.359512 142.44997,31.405021 C 140.65579,32.399012 139.25573,34.074138 137.34005,34.698602 C 135.96867,34.449689 136.15225,31.657450 135.44638,30.368996 C 135.03220,27.477998 134.31032,28.114323 133.43720,30.484434 C 132.63691,31.983328 132.29360,34.079093 130.12469,33.576560 C 127.22896,33.863646 124.33317,34.149933 121.43750,34.437500 C 121.45635,31.458390 121.16984,28.094375 123.52595,25.839572 C 126.82257,21.188668 131.69023,18.019711 136.23357,14.793262 C 137.75437,14.087412 139.64327,13.037594 141.05071,14.536711 C 144.77608,17.093755 148.56965,19.491887 152.06250,22.343750 C 149.06655,19.513772 146.25485,16.420638 143.14594,13.751994 C 141.38445,12.871744 139.52020,11.789900 137.50000,12.562500 z M 126.40625,53.343750 C 131.09445,54.266714 135.77718,55.221773 140.46875,56.125000 C 140.66311,57.490600 140.90400,59.768414 138.90019,59.717011 C 134.99279,58.970773 131.04202,57.882901 127.18750,56.875000 C 126.61048,55.955764 124.83534,54.556620 125.40625,53.625000 C 125.73497,53.577157 126.08499,53.292470 126.40625,53.343750 z M 166.53125,63.812500 C 164.90117,64.830649 168.72302,64.879550 169.60036,65.161786 C 170.82454,65.513571 173.80209,64.644903 171.50000,63.593750 C 169.78209,63.217030 168.21140,63.255613 166.53125,63.812500 z M 120.81250,69.187500 C 118.77488,70.497531 120.63987,72.049766 122.29985,70.780747 C 124.22011,70.547064 124.25797,68.584075 122.13849,68.857155 C 121.62590,68.786616 121.20364,68.805690 120.81250,69.187500 z M 162.78125,70.250000 C 165.04372,72.410337 164.50416,68.582957 162.78125,69.787913 C 162.78125,69.883882 162.78125,70.191942 162.78125,70.250000 z "
       id="path1295" />
    <path
       style="fill:url(#linearGradient97);fill-opacity:0.074380167;fill-rule:evenodd;stroke-width:1.0000000pt"
       d="M 137.25000,10.312500 C 134.57328,10.811904 132.67255,13.050780 130.64866,14.715585 C 121.77957,23.451854 113.11785,32.437236 104.37500,41.281250 C 103.17019,43.288146 102.47259,45.456013 102.06250,47.750000 C 105.83476,49.628698 109.64657,51.368815 113.75481,52.377095 C 114.74672,53.000901 118.15181,53.211596 117.03125,54.625000 C 114.87625,55.770623 112.18432,56.545814 111.25000,59.062500 C 113.07397,62.261249 117.13309,62.448994 120.14188,63.972108 C 122.66750,64.970987 125.19313,65.969869 127.71875,66.968750 C 127.79709,69.608591 127.12737,68.724937 125.79671,67.542170 C 123.76150,66.508388 120.74167,65.559916 119.14266,67.799744 C 117.68910,68.685330 116.55779,70.940149 117.66673,72.361712 C 119.74129,74.610002 123.29896,73.558599 125.22361,71.631365 C 125.39044,71.451948 124.94524,74.329263 126.55554,74.625682 C 128.75187,75.888131 131.56113,75.535204 133.75000,76.781250 C 134.17453,78.637203 134.92263,80.738750 137.10053,81.029661 C 140.53970,82.420114 144.41944,81.397273 147.50485,79.584682 C 148.81540,78.872018 151.32795,78.343669 150.75195,76.374975 C 150.70713,75.080531 147.53803,74.300613 149.31250,73.093750 C 153.55943,71.203594 157.91230,69.209830 161.18750,65.843750 C 161.99115,63.731003 159.07145,62.849633 157.93750,61.562500 C 156.57653,60.417748 154.30116,59.195844 157.17010,58.407983 C 162.44672,56.428116 168.30037,55.651561 173.14000,52.536010 C 175.69933,51.724285 176.75286,48.825627 176.01594,46.382200 C 175.99204,43.921497 174.36450,41.884430 172.99509,39.973772 C 168.23708,34.553265 162.73310,29.839073 157.72691,24.648245 C 153.37676,20.454464 149.19589,15.998891 144.74248,11.964991 C 142.49218,10.519398 139.90204,10.047325 137.25000,10.312500 z M 140.40625,16.625000 C 144.38180,19.415210 148.26381,22.371245 152.21875,25.218750 C 151.00059,24.471219 149.71107,24.008458 148.28125,23.906250 C 148.08169,25.616789 147.84012,27.322499 147.62500,29.031250 C 145.77312,28.480352 143.67622,27.363820 142.02088,28.944411 C 140.79579,29.321785 138.71876,32.029330 138.02739,30.946881 C 137.09069,27.714729 136.15797,24.481420 135.21875,21.250000 C 133.79126,24.568262 132.38708,27.896549 130.96875,31.218750 C 128.56250,31.458333 126.15625,31.697917 123.75000,31.937500 C 123.73611,28.504117 126.40867,25.941624 128.50533,23.538181 C 131.60340,20.877921 134.84009,18.280137 138.37100,16.266120 C 139.05687,15.927768 139.72649,16.501380 140.40625,16.625000 z M 165.12500,61.937500 C 163.94994,62.683294 162.04675,64.163789 163.31250,65.625000 C 165.77599,67.237331 168.84980,67.346191 171.68759,67.438839 C 173.79767,67.380039 175.87709,64.882603 174.44068,62.966319 C 173.10190,60.663393 170.05340,61.177216 167.81605,61.201002 C 166.91904,61.446503 166.02202,61.692001 165.12500,61.937500 z M 162.03125,67.031250 C 160.83535,68.000188 160.29043,69.695123 160.76346,71.258236 C 161.16730,73.039050 163.22496,73.494707 164.78719,72.992478 C 167.13879,73.181332 168.09248,69.825149 166.13394,68.653373 C 164.96960,67.668728 163.65541,66.689296 162.03125,67.031250 z "
       id="path1300" />
    <path
       style="fill:url(#linearGradient98);fill-opacity:0.074380167;fill-rule:evenodd;stroke-width:1.0000000pt"
       d="M 136.87500,9.5625000 C 131.65304,11.769127 128.14544,16.384624 124.15881,20.216605 C 117.35142,27.117414 110.49657,33.984328 103.71875,40.906250 C 102.85273,43.332808 101.99819,45.763562 101.12500,48.187500 C 105.93068,50.283305 110.76347,52.276496 115.75000,53.906250 C 115.44333,55.363555 112.99770,55.191635 112.24058,56.587946 C 110.89606,57.445273 110.01695,59.785906 111.89556,60.567820 C 114.86490,63.357428 118.93991,64.363020 122.62500,65.875000 C 119.72774,65.033632 117.80750,68.090788 116.68750,70.250000 C 116.01105,72.950420 119.11437,74.651083 121.43923,74.259441 C 122.88425,74.778519 124.87048,71.894366 125.06555,74.129447 C 127.21708,76.574392 131.35224,75.998123 133.59751,78.288768 C 134.32398,80.302303 135.99246,81.986172 138.23383,82.006618 C 140.25772,82.589257 142.23898,82.314480 144.19142,81.614260 C 146.47188,81.098710 148.64271,79.959926 150.63761,78.824244 C 152.14711,77.754911 151.81527,75.346631 150.43750,74.312500 C 150.23406,72.704926 152.73875,72.682794 153.75639,71.819616 C 156.49819,70.564020 158.90600,68.804050 161.21875,66.906250 C 160.19643,68.376408 159.81043,70.315970 160.38112,71.987759 C 161.34634,74.267655 164.22210,73.656108 166.15625,73.531250 C 168.08949,72.610730 168.83732,69.631414 166.87500,68.343750 C 164.02568,66.581529 166.47357,67.403459 168.27836,67.911665 C 170.51415,68.044548 173.31226,68.747610 174.83495,66.581402 C 176.52328,64.952843 175.46252,62.386049 173.84375,61.125000 C 171.82924,60.052772 169.41179,60.364713 167.22781,60.468857 C 165.26732,60.816302 163.77932,61.981088 162.56250,63.500000 C 161.07416,64.693238 164.27576,66.891706 162.51264,66.451187 C 161.23611,66.670932 162.80138,64.122782 161.27178,63.293106 C 160.27477,61.829766 158.59216,60.917429 157.34375,59.656250 C 163.37320,56.739900 170.41697,55.950383 175.81250,51.750000 C 177.79054,49.403625 176.89111,46.297658 176.31250,43.625000 C 172.71709,37.077334 166.72680,32.381991 161.58112,27.092054 C 156.10204,21.754721 150.65568,16.371055 145.15625,11.062500 C 142.76062,10.099303 140.31053,9.4347862 137.70606,9.5684113 C 137.43820,9.5943662 137.13013,9.4705862 136.87500,9.5625000 z M 144.00000,20.125000 C 145.41913,21.217458 146.85549,22.290152 148.28125,23.375000 C 146.97140,24.376925 147.43473,26.306660 146.96875,27.718750 C 145.01335,27.188020 142.88412,27.117042 141.28969,28.567875 C 140.30436,29.400862 138.46017,30.323076 138.31032,28.383898 C 137.43025,25.351664 136.59470,22.304201 135.68750,19.281250 C 137.21838,18.817776 138.78213,16.344334 140.28250,17.745803 C 141.52167,18.538869 142.76083,19.331934 144.00000,20.125000 z M 130.53125,30.406250 C 128.68750,30.593750 126.84375,30.781250 125.00000,30.968750 C 125.70615,27.451641 128.61722,24.990200 131.09307,22.632488 C 132.44877,21.648343 133.72082,20.531920 135.12500,19.625000 C 133.59375,23.218750 132.06250,26.812500 130.53125,30.406250 z "
       id="path1304" />
  </g>
  <path
     style="fill:url(#linearGradient86);fill-rule:evenodd;stroke-width:1.0000000pt"
     d="M 61.324543,13.157405 C 58.120432,13.157407 54.894480,14.363700 52.439250,16.818927 L 8.8427293,60.464268 C 6.4362721,62.870667 5.1802235,66.014096 5.1323869,69.154280 C 5.1317153,69.206979 5.1323869,69.296859 5.1323869,69.349561 L 5.2300277,69.349561 C 6.0652530,72.527380 27.622935,76.559408 30.030736,78.967159 C 33.666950,82.603398 16.093488,85.290236 19.729655,88.926502 C 23.365853,92.562699 41.723750,95.933059 45.360308,99.569324 C 48.996536,103.20554 37.916064,107.06414 41.552324,110.70035 C 45.188538,114.33661 57.385441,109.80802 55.173187,119.29271 C 60.083632,124.20317 70.331349,121.85979 77.191140,116.94935 C 80.827352,113.31313 70.235113,113.65307 73.871357,110.01687 C 77.507572,106.38061 86.690755,106.36351 94.424706,97.665329 C 91.311690,92.823845 81.122043,90.756393 84.758279,87.120150 C 88.394499,83.483938 95.428080,85.308591 110.68185,78.381315 C 118.12811,74.999498 117.54519,72.463775 117.51670,69.349561 C 117.51610,69.284031 117.51670,69.220313 117.51670,69.154280 L 117.46787,69.154280 C 117.42005,66.014099 116.21274,62.870672 113.80635,60.464268 L 70.161015,16.818927 C 67.705800,14.363703 64.528654,13.157405 61.324543,13.157405 z M 41.991707,81.212891 C 48.489821,82.898114 55.719317,85.078978 61.519825,85.118512 L 61.763925,87.754812 C 56.796879,87.242813 46.276114,84.822105 43.798058,83.556265 L 41.991707,81.212891 z M 109.70544,92.783302 C 108.71350,92.751510 107.77478,92.850960 107.06915,93.027398 C 105.73880,93.359824 99.275960,93.512966 99.794920,97.665329 C 105.50464,99.740509 114.33102,101.32980 115.36860,97.177128 C 116.14743,94.063466 112.68128,92.878660 109.70544,92.783302 z M 35.059226,101.22921 C 34.160949,101.12453 33.282136,101.23525 32.422930,101.66860 C 28.986997,103.40175 26.674321,107.25263 29.884276,108.84517 C 33.094556,110.43774 35.369474,108.62440 38.183725,106.64826 C 40.998304,104.67244 40.925879,104.28603 40.722379,103.52376 C 40.332770,103.62767 37.754075,101.54328 35.059226,101.22921 z M 97.842115,101.91269 C 95.246837,102.95056 95.277337,106.55608 97.353914,108.11287 C 99.429967,109.66999 102.02830,108.66283 103.06588,107.62467 C 104.10433,106.58680 103.03207,102.95058 97.842115,101.91269 z "
     id="path1217"
     sodipodi:nodetypes="cccccccccccccccccccccccccccccccccccccccccc" />
  <path
     style="fill:url(#linearGradient85);fill-rule:evenodd;stroke-width:1.0000000pt"
     d="M 6.1633126,64.182234 C 5.4528472,65.752747 5.0660754,67.430556 5.0404457,69.113083 C 5.0397758,69.165778 5.0404457,69.255669 5.0404457,69.308364 L 5.1380858,69.308364 C 5.9373106,72.349205 25.296023,76.150672 29.108850,78.584220 C 30.790161,77.584114 31.894484,76.536658 30.768738,75.410901 C 28.360938,73.003146 6.8032579,68.971121 5.9680310,65.793303 L 5.8703902,65.793303 C 5.8703902,65.740593 5.8697210,65.650716 5.8703902,65.598023 C 5.8777617,65.114208 6.0987935,64.663485 6.1633126,64.182234 z M 117.37591,70.528871 C 116.52296,71.879280 114.88377,73.251873 111.41985,74.825056 C 96.166086,81.752329 89.132505,79.927684 85.496293,83.563879 C 84.394714,84.665457 84.787747,85.607556 85.642754,86.541919 C 89.492145,83.820076 96.422367,84.774092 110.58990,78.340118 C 117.02403,75.417962 117.39376,73.106645 117.37591,70.528871 z M 42.729711,77.656634 L 44.536062,80.000000 C 47.014116,81.265844 57.534880,83.686565 62.501929,84.198549 L 62.257827,81.562250 C 56.457320,81.522709 49.227823,79.341863 42.729711,77.656634 z M 21.199962,85.760796 C 19.574016,86.744926 18.531314,87.778861 19.637714,88.885290 C 23.273912,92.521495 41.631808,95.891855 45.268366,99.528120 C 45.428284,99.688025 45.406975,99.855582 45.512468,100.01632 C 46.641908,98.672142 47.405664,97.320409 46.098311,96.013060 C 42.594118,92.509152 25.698900,89.246691 21.199962,85.760796 z M 101.75343,94.401988 C 100.50454,95.050724 99.495644,95.965222 99.702978,97.624110 C 105.41269,99.699298 114.23906,101.28858 115.27664,97.135924 C 115.47857,96.328672 115.36759,95.648061 115.08136,95.085476 C 112.61472,97.076433 106.51260,95.964804 101.75343,94.401988 z M 92.770509,96.159514 C 85.616299,102.52283 77.879623,103.19032 74.609361,106.46060 C 73.293896,107.77606 74.036068,108.49450 75.097565,109.14571 C 79.270252,106.35065 87.306804,105.52604 94.332764,97.624110 C 93.972653,97.064067 93.287663,96.652065 92.770509,96.159514 z M 96.822588,102.60380 C 95.320933,104.06316 95.512492,106.76009 97.261972,108.07167 C 99.338017,109.62877 101.93635,108.62162 102.97394,107.58347 C 103.50757,107.05013 103.43684,105.85469 102.58337,104.65425 C 101.31731,105.30622 99.653112,105.72755 98.091913,104.55661 C 97.432185,104.06202 97.050691,103.36392 96.822588,102.60380 z M 39.263470,102.79908 C 39.089429,102.92582 39.124789,102.94945 38.921728,103.09200 C 36.107476,105.06813 33.832558,106.88149 30.622278,105.28891 C 29.951029,104.95588 29.679073,104.46128 29.450591,103.97076 C 28.023155,105.73104 27.674053,107.75303 29.792333,108.80397 C 33.002618,110.39653 35.277532,108.58320 38.091783,106.60707 C 40.906365,104.63124 40.833938,104.24482 40.630438,103.48256 C 40.496760,103.51821 39.828821,103.11874 39.263470,102.79908 z M 42.046227,106.65588 C 40.916789,108.00005 40.153019,109.35179 41.460383,110.65914 C 45.096599,114.29540 57.293499,109.76680 55.081244,119.25151 C 59.991692,124.16195 70.239411,121.81857 77.099198,116.90813 C 78.438701,115.56862 77.661814,114.83209 76.562171,114.17419 C 69.763682,118.47214 60.520843,120.34614 55.911189,115.73644 C 58.123444,106.25176 45.926540,110.78036 42.290329,107.14408 C 42.130409,106.98417 42.151721,106.81662 42.046227,106.65588 z "
     id="path1269"
     sodipodi:nodetypes="ccccccccccccccccccccccccccccccccccccccccccccccccccccccccccc" />
  <path
     style="fill:url(#linearGradient84);fill-opacity:0.75000000;fill-rule:evenodd;stroke-width:1.0000000pt"
     d="M 83.001276,34.273194 L 109.42656,62.666343 C 109.42656,62.666343 117.29795,71.099952 111.11331,74.473395 C 104.92865,77.846838 86.093600,82.907003 86.093600,82.907003 L 51.859698,33.610217 L 83.001276,34.273194 z "
     id="path1271"
     sodipodi:nodetypes="cccccc" />
  <path
     style="fill:url(#linearGradient83);fill-opacity:0.75000000;fill-rule:evenodd;stroke-width:1.0000000pt"
     d="M 42.305901,29.965717 L 17.567325,58.358859 C 17.567325,58.358859 8.0092391,66.792467 14.193884,70.165908 C 20.378528,73.539350 61.140955,87.314237 89.815211,82.254076 L 56.924154,33.058039 L 42.305901,29.965717 z "
     id="path1276"
     sodipodi:nodetypes="cccccc" />
  <path
     style="fill:url(#linearGradient82);fill-rule:evenodd;stroke-width:1.0000000pt"
     d="M 62.479030,18.002931 C 66.099548,18.029688 81.305245,32.819949 85.657306,35.871159 C 90.009374,38.922368 88.988709,40.923552 88.988709,41.114298 L 76.783654,35.207043 L 75.563141,44.434078 L 68.825939,41.260759 L 58.476032,48.193240 L 54.472768,34.523559 L 49.395457,46.484530 L 35.091110,47.900319 L 35.237571,41.553681 L 56.367209,20.750292 C 57.900212,19.240959 58.924897,17.976175 62.479030,18.002931 z "
     id="path1317"
     sodipodi:nodetypes="ccccccccccczz" />
  <g
     id="g3484"
     transform="matrix(0.447500,0.000000,0.000000,0.447500,235.6618,-36.07826)">
    <g
       id="g3664"
       transform="matrix(10.18595,0.000000,0.000000,10.18595,-458.9301,97.18181)">
      <path
         style="fill:#625b47;fill-rule:evenodd;stroke-width:0.25000000"
         d="M 5.1124425,15.088383 C 7.6442073,10.933131 16.200405,0.85242072 18.351350,0.34740340 C 20.465292,-0.14892586 20.126155,1.1288235 19.491687,2.1409541 C 18.846618,3.1699905 16.033557,9.0480435 6.8046433,15.760898 C 5.4345257,16.225148 5.1124425,15.088383 5.1124425,15.088383 z "
         id="path3478"
         sodipodi:nodetypes="czzcc" />
      <path
         style="fill:#434343;fill-rule:evenodd;stroke-width:0.25000000"
         d="M 0.37663491,18.603312 C 0.37663491,18.603312 6.8157353,20.144408 7.3349401,16.563713 C 7.8541449,12.983017 5.3432215,14.712190 4.2710964,14.795161 C 2.7764128,14.849396 1.3056306,16.398825 0.37663491,18.603312 z "
         id="path2140"
         sodipodi:nodetypes="cccc" />
      <path
         style="fill:url(#linearGradient87);fill-opacity:0.75000000;fill-rule:evenodd;stroke-width:0.12500000"
         d="M 9.7455639,9.4680460 C 11.188151,7.8020105 16.650131,1.5821988 18.121421,0.91377874 C 19.560486,0.25999897 19.709887,0.75188491 19.500703,1.2507259 C 19.291519,1.7495668 11.998924,10.605461 11.169445,10.292321 C 10.339965,9.9791820 9.7249332,9.9020271 9.7455639,9.4680460 z "
         id="path2230"
         sodipodi:nodetypes="czccc" />
      <path
         style="fill:url(#linearGradient88);fill-rule:evenodd;stroke-width:0.25000000"
         d="M 0.37663491,18.603312 C 0.37663491,18.603312 6.8157353,20.144408 7.3349401,16.563713 C 7.8541449,12.983017 5.3432215,14.712190 4.2710964,14.795161 C 2.7764128,14.849396 1.3056306,16.398825 0.37663491,18.603312 z "
         id="path6976"
         sodipodi:nodetypes="cccc" />
      <path
         style="fill:url(#linearGradient89);fill-rule:evenodd;stroke-width:0.25000000"
         d="M 5.2262615,14.482371 L 9.4036242,9.1933699 C 9.8723742,10.208995 12.658077,10.847767 12.225089,11.335824 C 11.792101,11.823880 7.8376479,15.591471 7.3758775,15.767068 C 6.9141065,15.942666 5.0049707,14.674322 5.2262615,14.482371 z "
         id="path2141"
         sodipodi:nodetypes="ccccc" />
      <path
         style="fill:url(#linearGradient90);fill-rule:evenodd;stroke-width:0.25000000"
         d="M 0.37663491,18.603312 C 0.37663491,18.603312 6.8157353,20.144408 7.3349401,16.563713 C 7.8541449,12.983017 5.3432215,14.712190 4.2710964,14.795161 C 2.7764128,14.849396 1.3056306,16.398825 0.37663491,18.603312 z "
         id="path6975"
         sodipodi:nodetypes="cccc" />
      <path
         style="fill:url(#linearGradient91);fill-opacity:0.75000000;fill-rule:evenodd;stroke-width:1.0000000pt"
         d="M 0.92110978,17.977406 C 0.92110978,17.977406 2.3271478,15.007295 4.5702991,15.263772 C 6.2653452,15.431008 6.0720506,15.937479 6.0720506,15.937479 C 6.0720506,15.937479 3.9441923,18.234961 0.92110978,17.977406 z "
         id="path2247"
         sodipodi:nodetypes="cccc" />
    </g>
    <path
       sodipodi:type="arc"
       style="fill:url(#radialGradient92);fill-opacity:0.75000000;fill-rule:evenodd;stroke:none;stroke-width:1.0000000pt;stroke-linecap:butt;stroke-linejoin:miter;stroke-opacity:1.0000000"
       id="path3483"
       sodipodi:cx="-289.09140"
       sodipodi:cy="598.36652"
       sodipodi:rx="125.20509"
       sodipodi:ry="125.20509"
       d="M -163.88631 598.36652 A 125.20509 125.20509 0 1 1  -414.29649,598.36652 A 125.20509 125.20509 0 1 1  -163.88631 598.36652 z"
       transform="matrix(-0.846653,0.000000,0.000000,0.123873,-592.5340,212.9432)" />
  </g>
</svg>
