<?xml version="1.0" encoding="UTF-8" standalone="no"?>
<svg
   xmlns:dc="http://purl.org/dc/elements/1.1/"
   xmlns:cc="http://web.resource.org/cc/"
   xmlns:rdf="http://www.w3.org/1999/02/22-rdf-syntax-ns#"
   xmlns:svg="http://www.w3.org/2000/svg"
   xmlns="http://www.w3.org/2000/svg"
   xmlns:sodipodi="http://inkscape.sourceforge.net/DTD/sodipodi-0.dtd"
   xmlns:inkscape="http://www.inkscape.org/namespaces/inkscape"
   viewBox="0 0 480.0 360.0"
   id="svg3446"
   sodipodi:version="0.32"
   inkscape:version="0.42"
   width="210mm"
   height="297mm"
   sodipodi:docname="comtrend.svg"
   sodipodi:docbase="/home/vjrj/proyectos/tid/guadalinex2005/dev/adsl_assistant/bb-assist">
  <metadata
     id="metadata4221">
    <rdf:RDF>
      <cc:Work
         rdf:about="">
        <dc:format>image/svg+xml</dc:format>
        <dc:type
           rdf:resource="http://purl.org/dc/dcmitype/StillImage" />
      </cc:Work>
    </rdf:RDF>
  </metadata>
  <defs
     id="defs4219" />
  <sodipodi:namedview
     inkscape:cy="526.18109"
     inkscape:cx="372.04724"
     inkscape:zoom="0.54543959"
     inkscape:window-height="739"
     inkscape:window-width="918"
     inkscape:pageshadow="2"
     inkscape:pageopacity="0.0"
     borderopacity="1.0"
     bordercolor="#666666"
     pagecolor="#ffffff"
     id="base"
     inkscape:window-x="98"
     inkscape:window-y="0"
     inkscape:current-layer="svg3446" />
  <path
     stroke="none"
     fill="#774c0b"
     d="M93 37L95 35L100 37L97 31L105 27C99.3072 25.6689 94.5338 32.1055 93 37z"
     id="path3516"
     inkscape:export-filename="/home/vjrj/proyectos/tid/guadalinex2005/dev/adsl_assistant/bb-assist/comtrend.png"
     inkscape:export-xdpi="20.347212"
     inkscape:export-ydpi="20.347212" />
  <path
     stroke="none"
     fill="#1e1a0c"
     d="M97 31L100 37L95 35C105.114 58.1205 138.656 64.8985 160 70C156.504 63.2694 145.954 57.5082 140.039 52.4467C127.293 41.5383 116.622 19.4411 97 31z"
     id="path3518"
     inkscape:export-filename="/home/vjrj/proyectos/tid/guadalinex2005/dev/adsl_assistant/bb-assist/comtrend.png"
     inkscape:export-xdpi="20.347212"
     inkscape:export-ydpi="20.347212" />
  <path
     stroke="none"
     fill="#6d4d20"
     d="M106 31L106 34L108 34L108 31z"
     id="path3530"
     inkscape:export-filename="/home/vjrj/proyectos/tid/guadalinex2005/dev/adsl_assistant/bb-assist/comtrend.png"
     inkscape:export-xdpi="20.347212"
     inkscape:export-ydpi="20.347212" />
  <path
     stroke="none"
     fill="#855318"
     d="M130.333 40.6667L130.667 41.3333L130.333 40.6667z"
     id="path3546"
     inkscape:export-filename="/home/vjrj/proyectos/tid/guadalinex2005/dev/adsl_assistant/bb-assist/comtrend.png"
     inkscape:export-xdpi="20.347212"
     inkscape:export-ydpi="20.347212" />
  <path
     stroke="none"
     fill="#955c1d"
     d="M141 53L144 55z"
     id="path3562"
     inkscape:export-filename="/home/vjrj/proyectos/tid/guadalinex2005/dev/adsl_assistant/bb-assist/comtrend.png"
     inkscape:export-xdpi="20.347212"
     inkscape:export-ydpi="20.347212" />
  <path
     stroke="none"
     fill="#9f6a12"
     d="M150 61L154 64z"
     id="path3566"
     inkscape:export-filename="/home/vjrj/proyectos/tid/guadalinex2005/dev/adsl_assistant/bb-assist/comtrend.png"
     inkscape:export-xdpi="20.347212"
     inkscape:export-ydpi="20.347212" />
  <path
     stroke="none"
     fill="#241a0c"
     d="M141 63C139.878 69.6701 145.722 69.3324 151 70L151 71L138 70L138 71C171.693 75.2581 213.93 93.0868 213 133C222.499 126.149 210.598 110.273 210 102L206 100L206 99C218.75 100.875 242.701 116.581 245 98C259.624 103.294 270.558 117.952 286 116C278.613 105.474 262.322 102.195 253.317 93.5016C248.905 89.242 251.142 82.5528 244 81L242 83L239 93L241 86L236 87L238 99L232 100L234 101L234 102L224 97C210.22 97.8043 202.069 91.0017 190 87L192 83C187.461 82.9464 184.428 82.7025 183 78L195 78L175 76.3873z"
     id="path3568"
     inkscape:export-filename="/home/vjrj/proyectos/tid/guadalinex2005/dev/adsl_assistant/bb-assist/comtrend.png"
     inkscape:export-xdpi="20.347212"
     inkscape:export-ydpi="20.347212" />
  <path
     stroke="none"
     fill="#403826"
     d="M87 72L87 73L120 68L120 69L101 72L101 73L151 71L151 70C146.492 69.1597 142.373 69.3047 140 65z"
     id="path3576"
     inkscape:export-filename="/home/vjrj/proyectos/tid/guadalinex2005/dev/adsl_assistant/bb-assist/comtrend.png"
     inkscape:export-xdpi="20.347212"
     inkscape:export-ydpi="20.347212" />
  <path
     stroke="none"
     fill="#846f4a"
     d="M83 77L83 78L120 69C110.085 64.8488 91.7434 72.0291 83 77z"
     id="path3584"
     inkscape:export-filename="/home/vjrj/proyectos/tid/guadalinex2005/dev/adsl_assistant/bb-assist/comtrend.png"
     inkscape:export-xdpi="20.347212"
     inkscape:export-ydpi="20.347212" />
  <path
     stroke="none"
     fill="#8c5b17"
     d="M93 70L93 71L99 70z"
     id="path3588"
     inkscape:export-filename="/home/vjrj/proyectos/tid/guadalinex2005/dev/adsl_assistant/bb-assist/comtrend.png"
     inkscape:export-xdpi="20.347212"
     inkscape:export-ydpi="20.347212" />
  <path
     stroke="none"
     fill="#99661a"
     d="M162 69L165 71z"
     id="path3590"
     inkscape:export-filename="/home/vjrj/proyectos/tid/guadalinex2005/dev/adsl_assistant/bb-assist/comtrend.png"
     inkscape:export-xdpi="20.347212"
     inkscape:export-ydpi="20.347212" />
  <path
     stroke="none"
     fill="#17130e"
     d="M106 72L106 73L130 72.0895L158 76L155 81C159.281 83.0756 163.475 82.9752 165 88L170 89L170 86L171 86L172 86L172 91C179.698 96.0457 184.144 102.298 187 111L188 111L182 93L183 93L190.035 111L186 131L187 131L192 125L192 117L195 118C195 111.257 195.931 103.742 192 98C199.045 100.402 204.601 107.767 206 115L200 111L207 135C214.621 132.248 213.347 126.944 212.275 120C210.571 108.966 202.259 98.6727 193.701 91.5903C169.178 71.2971 136.285 68.1726 106 72z"
     id="path3592"
     inkscape:export-filename="/home/vjrj/proyectos/tid/guadalinex2005/dev/adsl_assistant/bb-assist/comtrend.png"
     inkscape:export-xdpi="20.347212"
     inkscape:export-ydpi="20.347212" />
  <path
     stroke="none"
     fill="#16150f"
     d="M195 78L183 78C183.872 83.2253 187.345 82.9836 192 83L190 87C201.356 92.6495 210.552 98.3923 224 97C225.249 101.268 230.007 101.512 234 102L234 101L232 100L238 99L236 87L239 88L245 82C236.835 76.3149 213.967 69.2694 204 70.1235C199.146 70.5394 196.262 73.545 195 78z"
     id="path3594"
     inkscape:export-filename="/home/vjrj/proyectos/tid/guadalinex2005/dev/adsl_assistant/bb-assist/comtrend.png"
     inkscape:export-xdpi="20.347212"
     inkscape:export-ydpi="20.347212" />
  <path
     stroke="none"
     fill="#874f0e"
     d="M116 72L116 73L134 73z"
     id="path3596"
     inkscape:export-filename="/home/vjrj/proyectos/tid/guadalinex2005/dev/adsl_assistant/bb-assist/comtrend.png"
     inkscape:export-xdpi="20.347212"
     inkscape:export-ydpi="20.347212" />
  <path
     stroke="none"
     fill="#201b11"
     d="M126 179L126 177L96 173L96 172L115 173C122.757 166.896 136.871 167.339 146 162.127C149.464 160.15 155.527 157.47 154 153C164.854 146.868 164 136.805 164 126L163 126C162.751 155.656 135.562 158.038 112 158C104.708 157.988 89.1912 157.414 83.5633 152.258C77.0552 146.297 80.3821 133.798 83 127L80 128L83 118C71.9435 121.739 72 137.588 72 147C67.7721 144.988 64.3267 142.308 61.0154 138.985C58.3163 136.277 55.8938 133.37 54.0579 130C40.9804 105.997 76.2068 94.3527 92 87L92 86L72 90C80.6064 79.8859 98.1937 75.0121 111 74L111 73C91.0632 73 79.1017 81.351 63 92C69.1972 83.3897 80.3881 77.9965 90 74C82.3135 71.7261 71.8326 79.8521 66 84.1559C56.677 91.0352 48.8374 100.713 45.7245 112C44.6732 115.812 45.85 120.171 44.4012 123.816C40.6022 133.373 35.5555 145.021 40.1481 156C43.7029 164.498 52.887 168.007 61 170.715C81.324 177.498 104.756 179 126 179z"
     id="path3598"
     inkscape:export-filename="/home/vjrj/proyectos/tid/guadalinex2005/dev/adsl_assistant/bb-assist/comtrend.png"
     inkscape:export-xdpi="20.347212"
     inkscape:export-ydpi="20.347212" />
  <path
     stroke="none"
     fill="#af7917"
     d="M226 75L226 76L236 78z"
     id="path3602"
     inkscape:export-filename="/home/vjrj/proyectos/tid/guadalinex2005/dev/adsl_assistant/bb-assist/comtrend.png"
     inkscape:export-xdpi="20.347212"
     inkscape:export-ydpi="20.347212" />
  <path
     stroke="none"
     fill="#704011"
     d="M155 76L155 77L158 78z"
     id="path3604"
     inkscape:export-filename="/home/vjrj/proyectos/tid/guadalinex2005/dev/adsl_assistant/bb-assist/comtrend.png"
     inkscape:export-xdpi="20.347212"
     inkscape:export-ydpi="20.347212" />
  <path
     stroke="none"
     fill="#664710"
     d="M174 76L174 77L187 77z"
     id="path3606"
     inkscape:export-filename="/home/vjrj/proyectos/tid/guadalinex2005/dev/adsl_assistant/bb-assist/comtrend.png"
     inkscape:export-xdpi="20.347212"
     inkscape:export-ydpi="20.347212" />
  <path
     stroke="none"
     fill="#5b492e"
     d="M63 92L84 78C76.6423 77.7247 66.0934 85.508 63 92z"
     id="path3608"
     inkscape:export-filename="/home/vjrj/proyectos/tid/guadalinex2005/dev/adsl_assistant/bb-assist/comtrend.png"
     inkscape:export-xdpi="20.347212"
     inkscape:export-ydpi="20.347212" />
  <path
     stroke="none"
     fill="#2d2512"
     d="M94 85L94 86L98 86L98 87C85.0211 91.9838 73.8952 99.0615 63 107.648C60.4736 109.639 54.3755 118.242 52 115L51 115L52 128C71.6807 114.137 86.4201 93.0029 113 93L113 94C97.3503 98.6034 82.5587 111.853 80 128C98.2973 117.695 110.007 94.5615 134 94L134 93L130 90L114 97L126 90L126 89L115 88L115 89L121 89L121 90L105 90L105 89C111.74 88.0924 128.664 81.3366 134 85L156 92L153 88L177 95L172 91L170 86L170 89L165 88C164.105 82.6339 159.538 82.6577 155 81L158 79L142 81.8712L114 82.0934z"
     id="path3610"
     inkscape:export-filename="/home/vjrj/proyectos/tid/guadalinex2005/dev/adsl_assistant/bb-assist/comtrend.png"
     inkscape:export-xdpi="20.347212"
     inkscape:export-ydpi="20.347212" />
  <path
     stroke="none"
     fill="#81580a"
     d="M150 79L150 80L153 80z"
     id="path3614"
     inkscape:export-filename="/home/vjrj/proyectos/tid/guadalinex2005/dev/adsl_assistant/bb-assist/comtrend.png"
     inkscape:export-xdpi="20.347212"
     inkscape:export-ydpi="20.347212" />
  <path
     stroke="none"
     fill="#976a1f"
     d="M242 80L242 81L247 81z"
     id="path3618"
     inkscape:export-filename="/home/vjrj/proyectos/tid/guadalinex2005/dev/adsl_assistant/bb-assist/comtrend.png"
     inkscape:export-xdpi="20.347212"
     inkscape:export-ydpi="20.347212" />
  <path
     stroke="none"
     fill="#622f03"
     d="M83 86L83 87L92 86C92.4942 89.5079 95.4229 88.2403 98 87L98 86L94 86L94 85L146 82L128 81z"
     id="path3622"
     inkscape:export-filename="/home/vjrj/proyectos/tid/guadalinex2005/dev/adsl_assistant/bb-assist/comtrend.png"
     inkscape:export-xdpi="20.347212"
     inkscape:export-ydpi="20.347212" />
  <path
     stroke="none"
     fill="#9e6418"
     d="M86 84L86 85L92 84z"
     id="path3624"
     inkscape:export-filename="/home/vjrj/proyectos/tid/guadalinex2005/dev/adsl_assistant/bb-assist/comtrend.png"
     inkscape:export-xdpi="20.347212"
     inkscape:export-ydpi="20.347212" />
  <path
     stroke="none"
     fill="#17140e"
     d="M105 89L105 90C110.365 89.8886 115.668 87.7329 121 88.304C125.551 88.7914 128.86 91.9988 133.09 92.6396C138.657 93.4832 142.104 90.2952 147.91 93.26C171.894 105.506 174.288 136.167 154 153L154 154C163.113 152.564 168.317 140.298 169 132L174 134C177.319 120.061 172.962 103.312 160.985 94.5733C157.681 92.162 153.563 92.0624 149.91 90.3812C144.916 88.0822 139.582 84.345 134 85C130.46 80.961 110.465 87.8726 105 89z"
     id="path3626"
     inkscape:export-filename="/home/vjrj/proyectos/tid/guadalinex2005/dev/adsl_assistant/bb-assist/comtrend.png"
     inkscape:export-xdpi="20.347212"
     inkscape:export-ydpi="20.347212" />
  <path
     stroke="none"
     fill="#a35b0f"
     d="M72 90L86 86L86 85L80 84z"
     id="path3630"
     inkscape:export-filename="/home/vjrj/proyectos/tid/guadalinex2005/dev/adsl_assistant/bb-assist/comtrend.png"
     inkscape:export-xdpi="20.347212"
     inkscape:export-ydpi="20.347212" />
  <path
     stroke="none"
     fill="#6f623f"
     d="M241 85L239 93L243 85z"
     id="path3632"
     inkscape:export-filename="/home/vjrj/proyectos/tid/guadalinex2005/dev/adsl_assistant/bb-assist/comtrend.png"
     inkscape:export-xdpi="20.347212"
     inkscape:export-ydpi="20.347212" />
  <path
     stroke="none"
     fill="#b57115"
     d="M70 96L70 97L93 89C86.4238 86.459 75.7169 92.7466 70 96z"
     id="path3634"
     inkscape:export-filename="/home/vjrj/proyectos/tid/guadalinex2005/dev/adsl_assistant/bb-assist/comtrend.png"
     inkscape:export-xdpi="20.347212"
     inkscape:export-ydpi="20.347212" />
  <path
     stroke="none"
     fill="#6c533f"
     d="M74 104L103 89C95.7234 86.1952 77.7523 97.816 74 104z"
     id="path3636"
     inkscape:export-filename="/home/vjrj/proyectos/tid/guadalinex2005/dev/adsl_assistant/bb-assist/comtrend.png"
     inkscape:export-xdpi="20.347212"
     inkscape:export-ydpi="20.347212" />
  <path
     stroke="none"
     fill="#966216"
     d="M251 88L251 93L252 93z"
     id="path3640"
     inkscape:export-filename="/home/vjrj/proyectos/tid/guadalinex2005/dev/adsl_assistant/bb-assist/comtrend.png"
     inkscape:export-xdpi="20.347212"
     inkscape:export-ydpi="20.347212" />
  <path
     stroke="none"
     fill="#51230d"
     d="M111 89L111 91L121 90z"
     id="path3642"
     inkscape:export-filename="/home/vjrj/proyectos/tid/guadalinex2005/dev/adsl_assistant/bb-assist/comtrend.png"
     inkscape:export-xdpi="20.347212"
     inkscape:export-ydpi="20.347212" />
  <path
     stroke="none"
     fill="#635737"
     d="M114 97C119.062 95.6048 125.288 93.7067 128 89z"
     id="path3644"
     inkscape:export-filename="/home/vjrj/proyectos/tid/guadalinex2005/dev/adsl_assistant/bb-assist/comtrend.png"
     inkscape:export-xdpi="20.347212"
     inkscape:export-ydpi="20.347212" />
  <path
     stroke="none"
     fill="#623208"
     d="M138 91L132 94L132 95C153.162 100.029 161.852 117.151 161 137L162 137L163 126L164 126L164 139L165 139C168.313 130.398 169.157 121.062 167 112L165 114C159.145 101.696 147.9 98.743 138 91z"
     id="path3650"
     inkscape:export-filename="/home/vjrj/proyectos/tid/guadalinex2005/dev/adsl_assistant/bb-assist/comtrend.png"
     inkscape:export-xdpi="20.347212"
     inkscape:export-ydpi="20.347212" />
  <path
     stroke="none"
     fill="#703e0d"
     d="M145.667 92.3333L146.333 92.6667L145.667 92.3333z"
     id="path3654"
     inkscape:export-filename="/home/vjrj/proyectos/tid/guadalinex2005/dev/adsl_assistant/bb-assist/comtrend.png"
     inkscape:export-xdpi="20.347212"
     inkscape:export-ydpi="20.347212" />
  <path
     stroke="none"
     fill="#562d0c"
     d="M148 93L151 95z"
     id="path3660"
     inkscape:export-filename="/home/vjrj/proyectos/tid/guadalinex2005/dev/adsl_assistant/bb-assist/comtrend.png"
     inkscape:export-xdpi="20.347212"
     inkscape:export-ydpi="20.347212" />
  <path
     stroke="none"
     fill="#29251b"
     d="M182 93C182.903 98.0619 186.418 102.041 187.353 107C189.809 120.019 181.279 135.699 171 143C172.644 138.423 175.578 133.143 169 132L160 155C153.653 157.828 148.792 163.855 142 165.84C134.925 167.908 119.895 167.182 115 173L106 172L106 173L151 175.961L172 173L172 174L104 180L104 181L127 182L121 184L121 185L157 182.486L186 173L186 172L184 171L187 167L172 171L172 170L179 168L179 167L138 174L138 173C148.339 169.416 153.849 161.757 162.285 155.598C170.922 149.294 180.136 147.282 187.097 138C190.553 133.392 198.679 121.347 192 117L192 125L187 131L186 131C188.482 117.035 194.1 104.972 182 93z"
     id="path3662"
     inkscape:export-filename="/home/vjrj/proyectos/tid/guadalinex2005/dev/adsl_assistant/bb-assist/comtrend.png"
     inkscape:export-xdpi="20.347212"
     inkscape:export-ydpi="20.347212" />
  <path
     stroke="none"
     fill="#745310"
     d="M253.667 94.3333L254.333 94.6667L253.667 94.3333z"
     id="path3666"
     inkscape:export-filename="/home/vjrj/proyectos/tid/guadalinex2005/dev/adsl_assistant/bb-assist/comtrend.png"
     inkscape:export-xdpi="20.347212"
     inkscape:export-ydpi="20.347212" />
  <path
     stroke="none"
     fill="#a56822"
     d="M192 98L199 103z"
     id="path3670"
     inkscape:export-filename="/home/vjrj/proyectos/tid/guadalinex2005/dev/adsl_assistant/bb-assist/comtrend.png"
     inkscape:export-xdpi="20.347212"
     inkscape:export-ydpi="20.347212" />
  <path
     stroke="none"
     fill="#845f1a"
     d="M262 98L265 100z"
     id="path3674"
     inkscape:export-filename="/home/vjrj/proyectos/tid/guadalinex2005/dev/adsl_assistant/bb-assist/comtrend.png"
     inkscape:export-xdpi="20.347212"
     inkscape:export-ydpi="20.347212" />
  <path
     stroke="none"
     fill="#0c090a"
     d="M206 99L206 100C215.781 106.445 226.414 109 238 109C230.674 102.787 215.447 99.8238 206 99z"
     id="path3676"
     inkscape:export-filename="/home/vjrj/proyectos/tid/guadalinex2005/dev/adsl_assistant/bb-assist/comtrend.png"
     inkscape:export-xdpi="20.347212"
     inkscape:export-ydpi="20.347212" />
  <path
     stroke="none"
     fill="#5e2e0a"
     d="M195 101L195 119L196 119L196 110L199 113L201 111L206 115L200 102z"
     id="path3680"
     inkscape:export-filename="/home/vjrj/proyectos/tid/guadalinex2005/dev/adsl_assistant/bb-assist/comtrend.png"
     inkscape:export-xdpi="20.347212"
     inkscape:export-ydpi="20.347212" />
  <path
     stroke="none"
     fill="#87540f"
     d="M184 103L186 121L187 121z"
     id="path3682"
     inkscape:export-filename="/home/vjrj/proyectos/tid/guadalinex2005/dev/adsl_assistant/bb-assist/comtrend.png"
     inkscape:export-xdpi="20.347212"
     inkscape:export-ydpi="20.347212" />
  <path
     stroke="none"
     fill="#70490d"
     d="M46 109L45 112z"
     id="path3690"
     inkscape:export-filename="/home/vjrj/proyectos/tid/guadalinex2005/dev/adsl_assistant/bb-assist/comtrend.png"
     inkscape:export-xdpi="20.347212"
     inkscape:export-ydpi="20.347212" />
  <path
     stroke="none"
     fill="#602e08"
     d="M44 112C39.7135 119.372 39 125.627 39 134L40 134C40.6277 125.839 47.8872 121.264 44 112z"
     id="path3700"
     inkscape:export-filename="/home/vjrj/proyectos/tid/guadalinex2005/dev/adsl_assistant/bb-assist/comtrend.png"
     inkscape:export-xdpi="20.347212"
     inkscape:export-ydpi="20.347212" />
  <path
     stroke="none"
     fill="#b77a40"
     d="M304 113L304 114L312 114z"
     id="path3702"
     inkscape:export-filename="/home/vjrj/proyectos/tid/guadalinex2005/dev/adsl_assistant/bb-assist/comtrend.png"
     inkscape:export-xdpi="20.347212"
     inkscape:export-ydpi="20.347212" />
  <path
     stroke="none"
     fill="#4c475a"
     d="M312 113L312 114L331 114z"
     id="path3704"
     inkscape:export-filename="/home/vjrj/proyectos/tid/guadalinex2005/dev/adsl_assistant/bb-assist/comtrend.png"
     inkscape:export-xdpi="20.347212"
     inkscape:export-ydpi="20.347212" />
  <path
     stroke="none"
     fill="#804f22"
     d="M52 114L52 118L55 117z"
     id="path3706"
     inkscape:export-filename="/home/vjrj/proyectos/tid/guadalinex2005/dev/adsl_assistant/bb-assist/comtrend.png"
     inkscape:export-xdpi="20.347212"
     inkscape:export-ydpi="20.347212" />
  <path
     stroke="none"
     fill="#7d4d16"
     d="M174 114L174 118L175 118z"
     id="path3708"
     inkscape:export-filename="/home/vjrj/proyectos/tid/guadalinex2005/dev/adsl_assistant/bb-assist/comtrend.png"
     inkscape:export-xdpi="20.347212"
     inkscape:export-ydpi="20.347212" />
  <path
     stroke="none"
     fill="#966a46"
     d="M295 114L295 115L301 115z"
     id="path3710"
     inkscape:export-filename="/home/vjrj/proyectos/tid/guadalinex2005/dev/adsl_assistant/bb-assist/comtrend.png"
     inkscape:export-xdpi="20.347212"
     inkscape:export-ydpi="20.347212" />
  <path
     stroke="none"
     fill="#213273"
     d="M280 120L280 121L296 124L294 128L305 138L305 137L303 135L306 137L310 136L308 133L312 132L312 131L308 131L312 122L311 130L315 133L334 132L330 127L326 130L326 129L333 123L330 122L328 124L327 123L327 122L327 121L333 121L333 120L330 117L327 115L332 115C319.101 109.587 291.992 113.402 280 120z"
     id="path3712"
     inkscape:export-filename="/home/vjrj/proyectos/tid/guadalinex2005/dev/adsl_assistant/bb-assist/comtrend.png"
     inkscape:export-xdpi="20.347212"
     inkscape:export-ydpi="20.347212" />
  <path
     stroke="none"
     fill="#223374"
     d="M 327.00000,115.00000 L 330.00000,117.00000 L 333.00000,120.00000 L 333.00000,121.00000 L 327.00000,121.00000 L 328.00000,124.00000 L 330.00000,122.00000 L 331.00000,122.00000 L 333.00000,123.00000 L 326.00000,129.00000 L 326.00000,130.00000 L 330.00000,127.00000 L 299.36499,149.99407 C 304.07299,147.11507 345.23700,145.59800 350.00000,148.00000 L 350.00000,149.00000 L 314.96439,138.39763 L 317.57864,163.32344 C 318.02864,165.42944 345.83200,153.19900 348.00000,150.00000 L 352.00000,158.00000 C 359.81100,158.16700 363.10000,160.88000 366.00000,168.00000 C 376.07300,165.21800 368.11800,157.15000 364.11600,152.00000 C 356.17300,141.78000 340.69300,115.44500 327.00000,115.00000 z "
     id="path3714"
     sodipodi:nodetypes="cccccccccccccccccccccc"
     inkscape:export-filename="/home/vjrj/proyectos/tid/guadalinex2005/dev/adsl_assistant/bb-assist/comtrend.png"
     inkscape:export-xdpi="20.347212"
     inkscape:export-ydpi="20.347212" />
  <path
     stroke="none"
     fill="#223373"
     d="M237 122L237 123L244 127L244 129L240 130L239 126L235 129L244 131L244 132L241 132L241 133L245 139L248 145L251 145L251 146L249 151L252 152L252 153L247 152L250 156L250 157L247 157L253 162L251 166C254 167.55 254.66 168.66 254 172L257 170L260 171L258 174C262.999 177.217 265.604 180.754 272 179C269.259 173.561 260.37 167.938 265 161L265 160L262 160L262 159L266 159L265 156L271 150C268.796 149.097 262.532 147.515 266 145L266 144L263 144L263 143L271 143L271 144L267 147L272 147C272.661 150.814 274.259 151.57 278 152L276 155L287 161L286 157L292 157L292 156L290 155C292.334 153.985 290.91 153.579 289 153C291.591 149.85 292.991 148.78 297 150C296.172 146.554 295.824 144.89 299 143L298 140L303 139C300.892 134.309 299.254 129.671 294 128L296 124L280 121L280 120L291 117C280.892 112.76 266.205 120.15 255.83 121.259C249.519 121.934 243.382 120.815 237 122z"
     id="path3716"
     inkscape:export-filename="/home/vjrj/proyectos/tid/guadalinex2005/dev/adsl_assistant/bb-assist/comtrend.png"
     inkscape:export-xdpi="20.347212"
     inkscape:export-ydpi="20.347212" />
  <path
     stroke="none"
     fill="#685757"
     d="M247 120L247 121L258 122z"
     id="path3720"
     inkscape:export-filename="/home/vjrj/proyectos/tid/guadalinex2005/dev/adsl_assistant/bb-assist/comtrend.png"
     inkscape:export-xdpi="20.347212"
     inkscape:export-ydpi="20.347212" />
  <path
     stroke="none"
     fill="#9d6c2d"
     d="M175 121L175 129L176 129z"
     id="path3724"
     inkscape:export-filename="/home/vjrj/proyectos/tid/guadalinex2005/dev/adsl_assistant/bb-assist/comtrend.png"
     inkscape:export-xdpi="20.347212"
     inkscape:export-ydpi="20.347212" />
  <path
     stroke="none"
     fill="#653c09"
     d="M205 122L206 135L207 135z"
     id="path3728"
     inkscape:export-filename="/home/vjrj/proyectos/tid/guadalinex2005/dev/adsl_assistant/bb-assist/comtrend.png"
     inkscape:export-xdpi="20.347212"
     inkscape:export-ydpi="20.347212" />
  <path
     stroke="none"
     fill="#243777"
     d="M311 122L308 131L312 131L312 132L308 133L310 136L306 137L303 135L305 138L298 140L299 143C295.042 144.33 295.603 146.474 297 150C292.956 148.023 291.152 149.2 289 153L292 156L292 157L286 157L287 161L282 160L283 164L277 164L277 165L281 166L281 167L275 166C276.743 171.253 282.088 172.348 287 171L287 173L291 171L287 165L291 161L293 164L296 161L300 168L305 166L304 164C308.86 159.557 298.504 149.075 297 144L304 144C310.848 138.038 326.311 136.77 334 141L333 132L315 133L311 130z"
     id="path3730"
     inkscape:export-filename="/home/vjrj/proyectos/tid/guadalinex2005/dev/adsl_assistant/bb-assist/comtrend.png"
     inkscape:export-xdpi="20.347212"
     inkscape:export-ydpi="20.347212" />
  <path
     stroke="none"
     fill="#9a6124"
     d="M216 123L216 132L220 132L220 131L217 131z"
     id="path3732"
     inkscape:export-filename="/home/vjrj/proyectos/tid/guadalinex2005/dev/adsl_assistant/bb-assist/comtrend.png"
     inkscape:export-xdpi="20.347212"
     inkscape:export-ydpi="20.347212" />
  <path
     d="M 198.00000,138.00000 L 214.00000,174.00000 L 220.00000,170.00000 L 215.00000,171.00000 L 215.00000,165.00000 L 218.00000,168.00000 L 224.00000,169.00000 L 222.00000,167.00000 L 223.00000,164.00000 L 213.00000,165.00000 L 216.00000,160.00000 L 217.00000,160.00000 L 219.00000,162.00000 L 218.00000,159.00000 L 228.00000,156.00000 L 229.00000,161.00000 L 237.00000,158.00000 L 237.00000,157.00000 L 231.00000,158.00000 L 229.00000,152.00000 L 231.00000,151.00000 L 232.00000,151.00000 L 232.00000,153.00000 L 235.00000,152.00000 C 236.05600,156.71700 246.26100,162.22500 251.00000,163.00000 L 251.00000,164.00000 L 248.00000,164.00000 L 253.00000,167.00000 L 251.00000,170.00000 L 256.00000,170.00000 L 251.00000,166.00000 L 253.00000,162.00000 C 250.60600,161.02900 247.00900,159.13900 250.00000,157.00000 L 250.00000,156.00000 L 247.00000,156.00000 L 247.00000,152.00000 L 252.00000,153.00000 L 252.00000,152.00000 L 249.00000,151.00000 L 251.00000,145.00000 L 248.00000,145.00000 L 248.00000,144.00000 L 245.00000,139.00000 C 245.13700,135.44000 244.42700,134.08900 241.00000,133.00000 L 241.00000,132.00000 L 244.00000,132.00000 L 244.00000,131.00000 L 235.00000,129.00000 L 239.00000,126.00000 L 240.00000,130.00000 L 244.00000,129.00000 L 244.00000,127.00000 C 233.85300,121.64400 231.77100,126.74900 222.00000,130.44700 C 214.28600,133.36600 205.89400,135.42700 198.00000,138.00000 z "
     id="path3734"
     style="fill:#1e2d6e;stroke:none"
     inkscape:export-filename="/home/vjrj/proyectos/tid/guadalinex2005/dev/adsl_assistant/bb-assist/comtrend.png"
     inkscape:export-xdpi="20.347212"
     inkscape:export-ydpi="20.347212" />
  <path
     stroke="none"
     fill="#a3682a"
     d="M80 133L80 146L81 146z"
     id="path3738"
     inkscape:export-filename="/home/vjrj/proyectos/tid/guadalinex2005/dev/adsl_assistant/bb-assist/comtrend.png"
     inkscape:export-xdpi="20.347212"
     inkscape:export-ydpi="20.347212" />
  <path
     stroke="none"
     fill="#592e09"
     d="M47 136L44 150L45 150L45 146C52.145 152.997 60.6652 160.07 71 161L70 154C60.0155 150.923 52.9973 145.823 49 136z"
     id="path3740"
     inkscape:export-filename="/home/vjrj/proyectos/tid/guadalinex2005/dev/adsl_assistant/bb-assist/comtrend.png"
     inkscape:export-xdpi="20.347212"
     inkscape:export-ydpi="20.347212" />
  <path
     stroke="none"
     fill="#6b430b"
     d="M71 136L70 147C72.923 144.446 72.4216 139.388 71 136z"
     id="path3742"
     inkscape:export-filename="/home/vjrj/proyectos/tid/guadalinex2005/dev/adsl_assistant/bb-assist/comtrend.png"
     inkscape:export-xdpi="20.347212"
     inkscape:export-ydpi="20.347212" />
  <path
     stroke="none"
     fill="#662f07"
     d="M38 138L36 161L35 161L35 159L34 159C35.9631 172.097 47.9076 178.918 60 181.399C83.1494 186.149 107.403 186 131 186L131 185L121 185L121 184L127 182C107.221 175.99 84.1232 181.483 63.7145 175.415C57.1894 173.475 49.9776 171.708 45.6427 165.907C38.754 156.688 41.911 147.32 38 138z"
     id="path3748"
     inkscape:export-filename="/home/vjrj/proyectos/tid/guadalinex2005/dev/adsl_assistant/bb-assist/comtrend.png"
     inkscape:export-xdpi="20.347212"
     inkscape:export-ydpi="20.347212" />
  <path
     stroke="none"
     fill="#8b5812"
     d="M50 139C51.9601 144.766 56.2342 149.04 62 151z"
     id="path3754"
     inkscape:export-filename="/home/vjrj/proyectos/tid/guadalinex2005/dev/adsl_assistant/bb-assist/comtrend.png"
     inkscape:export-xdpi="20.347212"
     inkscape:export-ydpi="20.347212" />
  <path
     stroke="none"
     fill="#392520"
     d="M197 139C196.993 150.151 196.289 159.986 207 167C202.443 179.021 212.141 189.106 218.456 198.174C220.936 201.735 221.461 206.275 225 209L224 212L227 215L228 215L228 211L229 211L260 280L259 280L254 273C256.715 279.53 259.4 296.914 265 300L263 303L263 304L268 312L267 318C270.997 315.118 269.395 311.355 270.299 307C273.129 293.357 265.267 284.815 259.989 272C248.964 245.233 235.771 219.418 223.796 193C215.883 175.545 209.032 154.025 197 139z"
     id="path3756"
     inkscape:export-filename="/home/vjrj/proyectos/tid/guadalinex2005/dev/adsl_assistant/bb-assist/comtrend.png"
     inkscape:export-xdpi="20.347212"
     inkscape:export-ydpi="20.347212" />
  <path
     stroke="none"
     fill="#925e1b"
     d="M196 140L196 149L197 149z"
     id="path3758"
     inkscape:export-filename="/home/vjrj/proyectos/tid/guadalinex2005/dev/adsl_assistant/bb-assist/comtrend.png"
     inkscape:export-xdpi="20.347212"
     inkscape:export-ydpi="20.347212" />
  <path
     stroke="none"
     fill="#2a3978"
     d="M263 143L263 144L266 144L266 145L263 145L271 150L265 156L266 159L262 159L262 160L265 160L265 161C257.717 167.499 271.655 179.296 278 180L278 179L275 173L281 174L279 177L283 177L287 184L286 184L279 181L276 187C281.503 188.443 283.771 192.957 288.15 194.54C291.143 195.623 290.207 192.063 289 191L289 194L287 191L302 191L301 184C304.995 182.629 307.668 182.145 311 185L306 185C309.685 188.65 315.142 186.656 315.472 180.996C315.789 175.57 308.961 165.638 304 164L300 168L296 161L293 164C293.575 161.604 293.475 161.513 291 161L287 165L291 171L287 173L287 171C281.912 171.976 277.546 170.712 275 166L281 167L281 166L277 165L277 164L283 164L276 155L278 152L272 147L267 147L271 144z"
     id="path3762"
     inkscape:export-filename="/home/vjrj/proyectos/tid/guadalinex2005/dev/adsl_assistant/bb-assist/comtrend.png"
     inkscape:export-xdpi="20.347212"
     inkscape:export-ydpi="20.347212" />
  <path
     stroke="none"
     fill="#3a1f00"
     d="M35 145L35 161L36 161L37 145z"
     id="path3768"
     inkscape:export-filename="/home/vjrj/proyectos/tid/guadalinex2005/dev/adsl_assistant/bb-assist/comtrend.png"
     inkscape:export-xdpi="20.347212"
     inkscape:export-ydpi="20.347212" />
  <path
     stroke="none"
     fill="#273774"
     d="M 339.00000,146.00000 C 340.13100,151.68200 343.04000,155.54100 349.00000,156.00000 L 348.00000,159.00000 L 354.00000,159.00000 L 351.00000,162.00000 L 354.00000,163.00000 L 353.00000,167.00000 L 357.00000,167.00000 L 356.00000,171.00000 C 359.82500,171.11800 360.79200,172.19500 361.00000,176.00000 L 364.00000,177.00000 L 362.00000,180.00000 L 369.00000,182.00000 L 369.00000,184.00000 L 364.00000,185.00000 L 364.00000,186.00000 L 368.00000,186.00000 L 367.00000,189.00000 L 371.00000,190.00000 L 371.00000,191.00000 L 367.00000,191.00000 L 366.00000,197.00000 L 366.00000,198.00000 L 369.00000,201.00000 L 374.00000,200.00000 L 374.00000,196.00000 L 375.00000,196.00000 L 375.00000,199.00000 L 383.00000,198.00000 L 383.00000,197.00000 L 372.00000,195.00000 L 372.00000,191.00000 L 384.00000,194.00000 L 383.00000,190.00000 L 393.00000,198.00000 L 390.00000,199.00000 L 399.00000,209.00000 C 395.94900,212.40400 392.36900,216.16300 388.00000,213.00000 L 387.00000,213.00000 L 392.00000,218.00000 L 393.00000,218.00000 L 402.00000,213.00000 L 404.00000,222.00000 L 411.00000,219.00000 C 410.44500,211.36200 404.23900,204.91200 399.76900,199.00000 C 390.76100,187.08800 381.71400,175.13000 373.00000,163.00000 L 366.00000,168.00000 C 363.69400,160.13200 360.04900,158.06800 352.00000,158.00000 L 348.00000,150.00000 C 345.67500,152.04900 342.84456,148.08900 342.13056,146.00000 L 349.86053,145.25223 L 354.23739,155.48071 C 350.92439,151.56771 343.83600,145.11600 339.00000,146.00000 z "
     id="path3770"
     sodipodi:nodetypes="ccccccccccccccccccccccccccccccccccccccccccccccccccccc"
     inkscape:export-filename="/home/vjrj/proyectos/tid/guadalinex2005/dev/adsl_assistant/bb-assist/comtrend.png"
     inkscape:export-xdpi="20.347212"
     inkscape:export-ydpi="20.347212" />
  <path
     stroke="none"
     fill="#624a2d"
     d="M167 150L173 146z"
     id="path3774"
     inkscape:export-filename="/home/vjrj/proyectos/tid/guadalinex2005/dev/adsl_assistant/bb-assist/comtrend.png"
     inkscape:export-xdpi="20.347212"
     inkscape:export-ydpi="20.347212" />
  <path
     stroke="none"
     fill="#6b3808"
     d="M180 153L181 161C186.706 158.004 195.458 156.01 196 149z"
     id="path3778"
     inkscape:export-filename="/home/vjrj/proyectos/tid/guadalinex2005/dev/adsl_assistant/bb-assist/comtrend.png"
     inkscape:export-xdpi="20.347212"
     inkscape:export-ydpi="20.347212" />
  <path
     stroke="none"
     fill="#916315"
     d="M33 151L33 160L34 160z"
     id="path3788"
     inkscape:export-filename="/home/vjrj/proyectos/tid/guadalinex2005/dev/adsl_assistant/bb-assist/comtrend.png"
     inkscape:export-xdpi="20.347212"
     inkscape:export-ydpi="20.347212" />
  <path
     stroke="none"
     fill="#213472"
     d="M231 151L229 152L231 158L237 157L237 158L229 161L228 156L225 159L218 159L219 162L217 160L216 160L213 165L223 164L224 169L218 168L215 165L215 171L220 170L216 174C217.999 180.991 225.458 206.301 234 205L230 200L233 200L227 196L240 187L236 182L243 182L244 178L238 177L238 176L244 169L249 171C247.567 166.334 243.185 159.799 238 160L239 156L235 152L232 153z"
     id="path3790"
     inkscape:export-filename="/home/vjrj/proyectos/tid/guadalinex2005/dev/adsl_assistant/bb-assist/comtrend.png"
     inkscape:export-xdpi="20.347212"
     inkscape:export-ydpi="20.347212" />
  <path
     stroke="none"
     fill="#8d7a59"
     d="M139 167C146.576 165.633 156.115 159.715 160 153C153.914 155.052 142.528 161.613 139 167z"
     id="path3796"
     inkscape:export-filename="/home/vjrj/proyectos/tid/guadalinex2005/dev/adsl_assistant/bb-assist/comtrend.png"
     inkscape:export-xdpi="20.347212"
     inkscape:export-ydpi="20.347212" />
  <path
     stroke="none"
     fill="#130f0b"
     d="M183 166L172 170L172 171L187 167L184 171C187.299 175.399 200.566 171.736 199 178L202 185L205 190L208 193L208 202L213 207L211 209L211 210L211 211L216 214L216 211L217 211L215 219L216 224L219 223L219 229L222 228L230 239C228.571 241.444 228.652 242.361 231 244L230 246L232 246C231.739 248.392 234.457 259.38 237 256L238 256L237 261L241 264L236 264L236 265L243 265L240 274L241 277L244 276C244.628 280.027 245.986 281.339 250 282L250 283L246 284L251 289L251 290L248 290L252 293L251 296C257.213 300.511 257.522 305.792 258 313L265 315L264 318C269.849 316.747 262.172 304.087 260.611 300C255.965 287.836 250.609 275.709 245.083 264C242.237 257.97 236.906 250.852 238 244C232.266 240.696 231.12 232.633 228.335 227C222.149 214.491 217.257 202.049 212.526 189.054C209.53 180.824 204.096 176.761 207 167L198 154C190.534 155.264 181.527 156.759 183 166z"
     id="path3800"
     inkscape:export-filename="/home/vjrj/proyectos/tid/guadalinex2005/dev/adsl_assistant/bb-assist/comtrend.png"
     inkscape:export-xdpi="20.347212"
     inkscape:export-ydpi="20.347212" />
  <path
     stroke="none"
     fill="#b97a26"
     d="M96 156L96 157L130 158z"
     id="path3802"
     inkscape:export-filename="/home/vjrj/proyectos/tid/guadalinex2005/dev/adsl_assistant/bb-assist/comtrend.png"
     inkscape:export-xdpi="20.347212"
     inkscape:export-ydpi="20.347212" />
  <path
     stroke="none"
     fill="#b09360"
     d="M126 160L126 161C132.542 160.996 144.955 161.904 149 156z"
     id="path3804"
     inkscape:export-filename="/home/vjrj/proyectos/tid/guadalinex2005/dev/adsl_assistant/bb-assist/comtrend.png"
     inkscape:export-xdpi="20.347212"
     inkscape:export-ydpi="20.347212" />
  <path
     stroke="none"
     fill="#303d74"
     d="M 325.30861,139.05045 L 329.08505,185.72107 L 333.70060,187.92636 L 344.00000,191.00000 C 346.32300,194.39200 347.81600,195.70400 352.00000,195.00000 L 353.00000,197.00000 L 353.00000,198.00000 L 345.00000,198.00000 L 345.00000,199.00000 L 347.00000,200.00000 L 344.00000,204.00000 L 348.00000,204.00000 L 347.00000,211.00000 C 349.97300,219.03400 355.08700,219.99500 363.00000,220.00000 L 364.00000,228.00000 L 367.00000,227.00000 L 366.00000,233.00000 L 371.00000,233.00000 L 371.00000,232.00000 L 368.00000,231.00000 C 370.83800,225.49500 373.21000,225.77200 379.00000,226.00000 L 377.00000,224.00000 L 378.00000,217.00000 L 374.00000,216.00000 L 382.00000,214.00000 L 380.00000,217.00000 L 385.00000,213.00000 L 382.00000,210.00000 L 374.00000,208.00000 L 370.00000,209.00000 L 370.00000,203.00000 L 360.00000,205.00000 L 354.00000,204.00000 L 354.00000,203.00000 L 369.00000,201.00000 L 366.00000,198.00000 L 366.00000,197.00000 L 367.00000,191.00000 L 371.00000,191.00000 L 371.00000,190.00000 L 367.00000,189.00000 L 368.00000,186.00000 L 364.00000,186.00000 L 364.00000,185.00000 L 369.00000,184.00000 L 369.00000,182.00000 L 362.00000,180.00000 L 364.00000,177.00000 L 361.00000,176.00000 C 361.35700,171.92500 360.01700,170.86900 356.00000,171.00000 L 357.00000,167.00000 L 353.00000,167.00000 L 356.10979,161.37685 L 354.00000,159.00000 L 348.00000,159.00000 L 349.00000,156.00000 L 325.30861,139.05045 z "
     id="path3806"
     sodipodi:nodetypes="ccccccccccccccccccccccccccccccccccccccccccccccccccccccccc"
     inkscape:export-filename="/home/vjrj/proyectos/tid/guadalinex2005/dev/adsl_assistant/bb-assist/comtrend.png"
     inkscape:export-xdpi="20.347212"
     inkscape:export-ydpi="20.347212" />
  <path
     stroke="none"
     fill="#243877"
     d="M238 160C243.005 160.095 246.908 166.799 249 171L244 169L238 176L238 177L244 178L243 182L236 182L240 187L227 196L233 200L230 200L248 206L255 205L254 208L260 208L256 200L253 202L254 197L255 197L258 199L260 189L256 189L256 185L253 186L254 179L248 178L250 176L250 172L251 172L252 177C255.007 174.097 254.46 172.116 251 170L253 167C250.619 166.743 246.616 164.566 251 164C247.206 161.514 241.652 155.256 238 160z"
     id="path3808"
     inkscape:export-filename="/home/vjrj/proyectos/tid/guadalinex2005/dev/adsl_assistant/bb-assist/comtrend.png"
     inkscape:export-xdpi="20.347212"
     inkscape:export-ydpi="20.347212" />
  <path
     stroke="none"
     fill="#756342"
     d="M113 161L113 162L131 162z"
     id="path3814"
     inkscape:export-filename="/home/vjrj/proyectos/tid/guadalinex2005/dev/adsl_assistant/bb-assist/comtrend.png"
     inkscape:export-xdpi="20.347212"
     inkscape:export-ydpi="20.347212" />
  <path
     stroke="none"
     fill="#55512b"
     d="M135 160L135 161L139 161z"
     id="path3816"
     inkscape:export-filename="/home/vjrj/proyectos/tid/guadalinex2005/dev/adsl_assistant/bb-assist/comtrend.png"
     inkscape:export-xdpi="20.347212"
     inkscape:export-ydpi="20.347212" />
  <path
     stroke="none"
     fill="#35417b"
     d="M 311.35906,126.23146 C 314.10506,134.90746 295.66896,127.90208 293.80119,142.25816 L 311.00000,188.00000 L 313.00000,189.00000 L 313.00000,190.00000 C 310.55200,192.32200 312.26800,194.04800 315.00000,195.00000 L 315.00000,199.00000 L 323.00000,201.00000 L 319.00000,202.00000 L 318.00000,207.00000 L 323.00000,208.00000 L 321.00000,205.00000 L 326.00000,207.00000 L 332.00000,197.00000 L 333.00000,197.00000 C 333.44500,205.02700 330.95200,207.42500 324.00000,211.00000 L 314.00000,209.00000 L 314.00000,210.00000 L 321.00000,213.00000 L 322.00000,219.00000 L 326.00000,220.00000 L 330.00000,214.00000 L 329.00000,210.00000 L 331.00000,217.00000 L 338.00000,216.00000 L 337.00000,211.00000 L 338.00000,211.00000 L 339.00000,214.00000 L 341.00000,214.00000 L 342.00000,210.00000 L 345.00000,212.00000 C 345.00000,209.20500 346.48000,209.73500 349.00000,210.00000 L 348.00000,204.00000 L 344.00000,204.00000 L 347.00000,200.00000 L 345.00000,199.00000 L 345.00000,198.00000 L 353.00000,198.00000 L 353.00000,197.00000 L 352.00000,195.00000 L 346.00000,192.00000 L 343.97329,188.25816 L 340.10682,186.01484 L 337.34125,179.29377 L 335.10089,177.29080 L 311.35906,126.23146 z "
     id="path3828"
     sodipodi:nodetypes="cccccccccccccccccccccccccccccccccccccccccccccc"
     inkscape:export-filename="/home/vjrj/proyectos/tid/guadalinex2005/dev/adsl_assistant/bb-assist/comtrend.png"
     inkscape:export-xdpi="20.347212"
     inkscape:export-ydpi="20.347212" />
  <path
     stroke="none"
     fill="#7a83a2"
     d="M315.667 165.333L316.333 165.667L315.667 165.333z"
     id="path3840"
     inkscape:export-filename="/home/vjrj/proyectos/tid/guadalinex2005/dev/adsl_assistant/bb-assist/comtrend.png"
     inkscape:export-xdpi="20.347212"
     inkscape:export-ydpi="20.347212" />
  <path
     stroke="none"
     fill="#675e20"
     d="M321 168L330 166z"
     id="path3842"
     inkscape:export-filename="/home/vjrj/proyectos/tid/guadalinex2005/dev/adsl_assistant/bb-assist/comtrend.png"
     inkscape:export-xdpi="20.347212"
     inkscape:export-ydpi="20.347212" />
  <path
     stroke="none"
     fill="#dac5ab"
     d="M313 168L317 167z"
     id="path3844"
     inkscape:export-filename="/home/vjrj/proyectos/tid/guadalinex2005/dev/adsl_assistant/bb-assist/comtrend.png"
     inkscape:export-xdpi="20.347212"
     inkscape:export-ydpi="20.347212" />
  <path
     stroke="none"
     fill="#6f4016"
     d="M116 167L116 168L124 168z"
     id="path3846"
     inkscape:export-filename="/home/vjrj/proyectos/tid/guadalinex2005/dev/adsl_assistant/bb-assist/comtrend.png"
     inkscape:export-xdpi="20.347212"
     inkscape:export-ydpi="20.347212" />
  <path
     stroke="none"
     fill="#946322"
     d="M103 168L103 169L118 169z"
     id="path3850"
     inkscape:export-filename="/home/vjrj/proyectos/tid/guadalinex2005/dev/adsl_assistant/bb-assist/comtrend.png"
     inkscape:export-xdpi="20.347212"
     inkscape:export-ydpi="20.347212" />
  <path
     stroke="none"
     fill="#4c390d"
     d="M108 169L108 170L116 170z"
     id="path3852"
     inkscape:export-filename="/home/vjrj/proyectos/tid/guadalinex2005/dev/adsl_assistant/bb-assist/comtrend.png"
     inkscape:export-xdpi="20.347212"
     inkscape:export-ydpi="20.347212" />
  <path
     stroke="none"
     fill="#cab8a3"
     d="M315 169L319 172z"
     id="path3854"
     inkscape:export-filename="/home/vjrj/proyectos/tid/guadalinex2005/dev/adsl_assistant/bb-assist/comtrend.png"
     inkscape:export-xdpi="20.347212"
     inkscape:export-ydpi="20.347212" />
  <path
     stroke="none"
     fill="#2b3977"
     d="M257 170L252 177L251 172L250 172L248 178L254 179L253 186L256 185L256 189L260 189L258 199L255 197L254 197L253 202L256 200C258.26 202.842 260.561 205.518 257 208L261 215L265 213L263 217L267 216L268 221L274 214L269 214L273 208L271 208L275 203L271 204L268 201L269 196L274 194L276 201L283 198C284.176 202.139 287.267 201.203 291 201L289 198L290 195L276 187L279 181L286 184L287 184L283 177L279 177L281 174L275 173L278 179L278 180L258 174C259.5 171.753 259.386 171.274 257 170z"
     id="path3860"
     inkscape:export-filename="/home/vjrj/proyectos/tid/guadalinex2005/dev/adsl_assistant/bb-assist/comtrend.png"
     inkscape:export-xdpi="20.347212"
     inkscape:export-ydpi="20.347212" />
  <path
     stroke="none"
     fill="#5f6b9b"
     d="M319 170L321 173z"
     id="path3862"
     inkscape:export-filename="/home/vjrj/proyectos/tid/guadalinex2005/dev/adsl_assistant/bb-assist/comtrend.png"
     inkscape:export-xdpi="20.347212"
     inkscape:export-ydpi="20.347212" />
  <path
     stroke="none"
     fill="#655b40"
     d="M96 172L96 173L106 173z"
     id="path3868"
     inkscape:export-filename="/home/vjrj/proyectos/tid/guadalinex2005/dev/adsl_assistant/bb-assist/comtrend.png"
     inkscape:export-xdpi="20.347212"
     inkscape:export-ydpi="20.347212" />
  <path
     stroke="none"
     fill="#9a6728"
     d="M138 173L138 174L153 174z"
     id="path3870"
     inkscape:export-filename="/home/vjrj/proyectos/tid/guadalinex2005/dev/adsl_assistant/bb-assist/comtrend.png"
     inkscape:export-xdpi="20.347212"
     inkscape:export-ydpi="20.347212" />
  <path
     stroke="none"
     fill="#a48663"
     d="M103 173L103 174L136 177z"
     id="path3872"
     inkscape:export-filename="/home/vjrj/proyectos/tid/guadalinex2005/dev/adsl_assistant/bb-assist/comtrend.png"
     inkscape:export-xdpi="20.347212"
     inkscape:export-ydpi="20.347212" />
  <path
     stroke="none"
     fill="#7b6945"
     d="M126 177L126 178C141.741 178 156.651 177.973 172 174L154 175.536z"
     id="path3874"
     inkscape:export-filename="/home/vjrj/proyectos/tid/guadalinex2005/dev/adsl_assistant/bb-assist/comtrend.png"
     inkscape:export-xdpi="20.347212"
     inkscape:export-ydpi="20.347212" />
  <path
     stroke="none"
     fill="#2a150c"
     d="M187 174C188.124 184.988 194.903 195.704 198.681 206C209.389 235.186 222.755 263.446 234.999 292C240.3 304.362 248.923 321.93 265 319L265 315L258 313L259 310L255 311L252 307L255 308L255 304C248.14 303.834 244.201 301.923 247 295L241 294L243 292L243 291L239 291L239 290C241.412 287.661 239.656 285.521 238 283L241 283L241 282L233 272L237 274L238 270L237 270L236 272L235 269L232 272L231 272L229 271L231 268L228 269L228 262L224 262L224 258L223 258L223 260L222 260L221 253L227 250L223 250C225.639 246.977 228.125 243.442 223 242L224 238L217 237L218 234L217 230L213 229L213 228L215 227L210 224L211 220L214 221L211 219L213 217L213 216L209 213L205 198L205 197L201 194L205 195L201 189L202 187L201 186L197 188L196 182C201.64 180.814 196.181 176.577 193 176L193 175L195 173z"
     id="path3878"
     inkscape:export-filename="/home/vjrj/proyectos/tid/guadalinex2005/dev/adsl_assistant/bb-assist/comtrend.png"
     inkscape:export-xdpi="20.347212"
     inkscape:export-ydpi="20.347212" />
  <path
     stroke="none"
     fill="#1c110c"
     d="M195 173L193 175L193 176C195.805 177.181 199.887 179.713 196 182L197 188L201 186L201 189L205 195L201 194L205 197L205 198L203 199L209 213C212.104 215.395 212.055 215.717 211 219L214 221L211 220L210 224L215 227L213 228L213 229L217 230L215 232L218 234L217 237L224 238L223 242C226.622 244.333 224.883 246.733 223 250L227 250L226 253L221 253L222 260L223 260L223 258L224 258L224 262L228 262L228 269L231 268L229 271L232 272L235 269C235.579 270.91 235.985 272.334 237 270L238 270L237 274L233 272L241 282L238 283L239 290L239 291L243 291L243 292L241 294L247 295C242.967 302.214 248.36 303.94 255 304L255 308L252 307L255 311L256 311L258 310C257.246 303.724 257.365 299.059 251 296L252 293C249.689 292.274 247.252 290.484 251 290L251 289L246 284L250 283L250 282C246.248 280.928 245.074 279.74 244 276L241 277L240 274C243.851 271.809 243.032 269.057 243 265L236 265L236 264L241 264L237 261L238 256L237 256L236 258L232 246L231 244L230 239L222 228L219 229L219 223L216 224L215 219L217 211L216 211L216 214L211 211L211 210L211 209L213 207L208 202L208 193L205 190C205.283 186.919 205.03 185.856 202 185C202 181.637 202.716 178.796 199 178z"
     id="path3880"
     inkscape:export-filename="/home/vjrj/proyectos/tid/guadalinex2005/dev/adsl_assistant/bb-assist/comtrend.png"
     inkscape:export-xdpi="20.347212"
     inkscape:export-ydpi="20.347212" />
  <path
     stroke="none"
     fill="#7a8193"
     d="M317.333 173.667L317.667 174.333L317.333 173.667z"
     id="path3882"
     inkscape:export-filename="/home/vjrj/proyectos/tid/guadalinex2005/dev/adsl_assistant/bb-assist/comtrend.png"
     inkscape:export-xdpi="20.347212"
     inkscape:export-ydpi="20.347212" />
  <path
     stroke="none"
     fill="#764d1b"
     d="M178 175L178 176L182 175z"
     id="path3886"
     inkscape:export-filename="/home/vjrj/proyectos/tid/guadalinex2005/dev/adsl_assistant/bb-assist/comtrend.png"
     inkscape:export-xdpi="20.347212"
     inkscape:export-ydpi="20.347212" />
  <path
     stroke="none"
     fill="#677687"
     d="M319.667 174.333L320.333 174.667L319.667 174.333z"
     id="path3888"
     inkscape:export-filename="/home/vjrj/proyectos/tid/guadalinex2005/dev/adsl_assistant/bb-assist/comtrend.png"
     inkscape:export-xdpi="20.347212"
     inkscape:export-ydpi="20.347212" />
  <path
     stroke="none"
     fill="#c3b067"
     d="M336.667 176.333L337.333 176.667L336.667 176.333z"
     id="path3890"
     inkscape:export-filename="/home/vjrj/proyectos/tid/guadalinex2005/dev/adsl_assistant/bb-assist/comtrend.png"
     inkscape:export-xdpi="20.347212"
     inkscape:export-ydpi="20.347212" />
  <path
     stroke="none"
     fill="#ac9861"
     d="M331.667 177.333L332.333 177.667L331.667 177.333z"
     id="path3896"
     inkscape:export-filename="/home/vjrj/proyectos/tid/guadalinex2005/dev/adsl_assistant/bb-assist/comtrend.png"
     inkscape:export-xdpi="20.347212"
     inkscape:export-ydpi="20.347212" />
  <path
     stroke="none"
     fill="#b1a35f"
     d="M341 179L344 177z"
     id="path3900"
     inkscape:export-filename="/home/vjrj/proyectos/tid/guadalinex2005/dev/adsl_assistant/bb-assist/comtrend.png"
     inkscape:export-xdpi="20.347212"
     inkscape:export-ydpi="20.347212" />
  <path
     stroke="none"
     fill="#855115"
     d="M91 179L91 180L111 180z"
     id="path3902"
     inkscape:export-filename="/home/vjrj/proyectos/tid/guadalinex2005/dev/adsl_assistant/bb-assist/comtrend.png"
     inkscape:export-xdpi="20.347212"
     inkscape:export-ydpi="20.347212" />
  <path
     stroke="none"
     fill="#c2b472"
     d="M335.667 178.333L336.333 178.667L335.667 178.333z"
     id="path3904"
     inkscape:export-filename="/home/vjrj/proyectos/tid/guadalinex2005/dev/adsl_assistant/bb-assist/comtrend.png"
     inkscape:export-xdpi="20.347212"
     inkscape:export-ydpi="20.347212" />
  <path
     stroke="none"
     fill="#c1b473"
     d="M331.667 179.333L332.333 179.667L331.667 179.333z"
     id="path3906"
     inkscape:export-filename="/home/vjrj/proyectos/tid/guadalinex2005/dev/adsl_assistant/bb-assist/comtrend.png"
     inkscape:export-xdpi="20.347212"
     inkscape:export-ydpi="20.347212" />
  <path
     stroke="none"
     fill="#334076"
     d="M301 184L302 191C299.02 191.308 285.405 188.039 289 194L289 191L289 197L289 198L291 201L286 201L291 207L290 210L300 212L296 213C297.479 217.246 299.594 219.103 304 220L304 221L298 222L300 225L301 225L305 220L310 224L306 223C302.023 227.529 298.395 228.504 301 235L307 234L306 238L309 241L318 242L320 235L321 235C322.225 239.771 325.264 241.473 330 242L324 239L324 238C325.679 237.956 330.423 237.488 327 236L327 235L332 231L326 231L328 226L321 229L321 233L313 224L318 226L316 219L324 217L321 213L314 210L314 209L324 211C331.639 208.216 333.949 205.08 333 197L332 197L326 207L325 204L321 205L323 208L318 207L319 202L323 201L315 199L315 195C311.802 193.097 311.921 191.398 313 188L306 185L311 185C308.279 181.43 304.701 182.25 301 184z"
     id="path3918"
     inkscape:export-filename="/home/vjrj/proyectos/tid/guadalinex2005/dev/adsl_assistant/bb-assist/comtrend.png"
     inkscape:export-xdpi="20.347212"
     inkscape:export-ydpi="20.347212" />
  <path
     stroke="none"
     fill="#89571a"
     d="M141 184L141 185L149 185z"
     id="path3920"
     inkscape:export-filename="/home/vjrj/proyectos/tid/guadalinex2005/dev/adsl_assistant/bb-assist/comtrend.png"
     inkscape:export-xdpi="20.347212"
     inkscape:export-ydpi="20.347212" />
  <path
     stroke="none"
     fill="#8a560d"
     d="M88 185L88 186L106 186z"
     id="path3922"
     inkscape:export-filename="/home/vjrj/proyectos/tid/guadalinex2005/dev/adsl_assistant/bb-assist/comtrend.png"
     inkscape:export-xdpi="20.347212"
     inkscape:export-ydpi="20.347212" />
  <path
     stroke="none"
     fill="#938576"
     d="M359.667 186.333L360.333 186.667L359.667 186.333z"
     id="path3924"
     inkscape:export-filename="/home/vjrj/proyectos/tid/guadalinex2005/dev/adsl_assistant/bb-assist/comtrend.png"
     inkscape:export-xdpi="20.347212"
     inkscape:export-ydpi="20.347212" />
  <path
     stroke="none"
     fill="#9f907e"
     d="M352.667 188.333L353.333 188.667L352.667 188.333z"
     id="path3926"
     inkscape:export-filename="/home/vjrj/proyectos/tid/guadalinex2005/dev/adsl_assistant/bb-assist/comtrend.png"
     inkscape:export-xdpi="20.347212"
     inkscape:export-ydpi="20.347212" />
  <path
     stroke="none"
     fill="#8f8372"
     d="M349.667 189.333L350.333 189.667L349.667 189.333z"
     id="path3930"
     inkscape:export-filename="/home/vjrj/proyectos/tid/guadalinex2005/dev/adsl_assistant/bb-assist/comtrend.png"
     inkscape:export-xdpi="20.347212"
     inkscape:export-ydpi="20.347212" />
  <path
     stroke="none"
     fill="#2b3770"
     d="M383 190L384 194L372 191L372 195L383 197L383 198L375 196L374 196L374 200L354 203L354 204L360 205L370 203L370 209L374 208L382 210L385 213L380 217L382 214L374 216L378 217L379 226C373.074 225.537 370.25 224.77 368 231L376 236L395 232L395 228L392 227L392 224L395 223C395.632 226.967 396.903 228.599 401 228L399 224L401 223L402 225L411 223L410 220L413 221L414 220L412 216L404 222L402 213L393 218L392 218L387 213L388 213C391.68 217.21 396.775 212.605 399 209L390 199L393 198z"
     id="path3934"
     inkscape:export-filename="/home/vjrj/proyectos/tid/guadalinex2005/dev/adsl_assistant/bb-assist/comtrend.png"
     inkscape:export-xdpi="20.347212"
     inkscape:export-ydpi="20.347212" />
  <path
     stroke="none"
     fill="#a39279"
     d="M342.667 191.333L343.333 191.667L342.667 191.333z"
     id="path3936"
     inkscape:export-filename="/home/vjrj/proyectos/tid/guadalinex2005/dev/adsl_assistant/bb-assist/comtrend.png"
     inkscape:export-xdpi="20.347212"
     inkscape:export-ydpi="20.347212" />
  <path
     stroke="none"
     fill="#231914"
     d="M213 193C216.759 205.965 223.855 217.717 229.289 230C231.437 234.854 232.525 242.101 238 244C236.476 251.337 242.406 259.398 245.431 265.91C252.548 281.239 259.569 296.946 265 313L268 312L263 304L263 303L265 300L254 273L259 280L260 280C254.324 256.311 238.587 233.362 229 211L228 211L228 215L227 215L224 212L225 209z"
     id="path3944"
     inkscape:export-filename="/home/vjrj/proyectos/tid/guadalinex2005/dev/adsl_assistant/bb-assist/comtrend.png"
     inkscape:export-xdpi="20.347212"
     inkscape:export-ydpi="20.347212" />
  <path
     stroke="none"
     fill="#303c79"
     d="M 273.00000,194.00000 L 269.00000,196.00000 L 268.00000,201.00000 L 271.00000,204.00000 L 275.00000,203.00000 C 273.67700,204.27500 269.13400,208.10600 273.00000,208.00000 L 269.00000,214.00000 L 274.00000,214.00000 C 271.16900,217.58500 270.16600,219.70200 272.00000,224.00000 L 276.00000,223.00000 L 276.00000,231.00000 L 272.00000,231.00000 L 272.00000,234.00000 L 265.00000,234.00000 L 266.00000,239.00000 L 262.00000,239.00000 C 262.01300,255.57900 260.28775,263.78302 268.65875,270.81602 C 272.24775,269.75802 315.53335,269.68512 318.78635,268.64012 C 323.82335,267.02312 297.46300,250.92800 302.00000,244.00000 L 275.70623,260.21068 L 331.31157,260.32938 L 321.70623,243.12463 L 307.00000,242.00000 L 310.00000,242.00000 L 306.00000,238.00000 L 307.00000,234.00000 L 301.00000,235.00000 C 299.29100,228.37900 302.96500,228.04400 306.00000,223.00000 L 310.00000,224.00000 L 305.00000,220.00000 L 301.00000,225.00000 L 300.00000,225.00000 L 298.00000,222.00000 L 304.00000,221.00000 L 304.00000,220.00000 L 296.00000,213.00000 L 300.00000,212.00000 L 299.00000,209.00000 L 290.00000,210.00000 L 291.00000,207.00000 L 283.00000,198.00000 L 276.00000,201.00000 L 273.00000,194.00000 z "
     id="path3946"
     sodipodi:nodetypes="cccccccccccccccccsccccccccccccccccccccccccc"
     inkscape:export-filename="/home/vjrj/proyectos/tid/guadalinex2005/dev/adsl_assistant/bb-assist/comtrend.png"
     inkscape:export-xdpi="20.347212"
     inkscape:export-ydpi="20.347212" />
  <path
     stroke="none"
     fill="#7f4c10"
     d="M195 197L195 200L196 200z"
     id="path3950"
     inkscape:export-filename="/home/vjrj/proyectos/tid/guadalinex2005/dev/adsl_assistant/bb-assist/comtrend.png"
     inkscape:export-xdpi="20.347212"
     inkscape:export-ydpi="20.347212" />
  <path
     stroke="none"
     fill="#754806"
     d="M197.333 202.667L197.667 203.333L197.333 202.667z"
     id="path3954"
     inkscape:export-filename="/home/vjrj/proyectos/tid/guadalinex2005/dev/adsl_assistant/bb-assist/comtrend.png"
     inkscape:export-xdpi="20.347212"
     inkscape:export-ydpi="20.347212" />
  <path
     stroke="none"
     fill="#243778"
     d="M233 203L231 206L240.176 226L254 257L255 257L265 251L262 239L266 239L265 234L272 234L272 231L276 231L276 223L272 224L267 216L263 217L265 213L261 215C259.885 211.096 257.931 209.074 254 208L255 205L248 206z"
     id="path3956"
     inkscape:export-filename="/home/vjrj/proyectos/tid/guadalinex2005/dev/adsl_assistant/bb-assist/comtrend.png"
     inkscape:export-xdpi="20.347212"
     inkscape:export-ydpi="20.347212" />
  <path
     stroke="none"
     fill="#333d77"
     d="M345 212L342 210L341 214L339 214L338 211L337 211L338 216L331 217C332.466 213.576 332.281 211.94 329 210L330 214L326 220L316 219L318 226L313 224L321 233L321 229L328 226L326 231L332 231L327 235L327 236L329 237L324 238L324 239L330 242C325.509 241.096 322.996 239.115 321 235L320 235L318 242C313.779 239.755 311.327 240.455 307 242L307 243L314 243L315 251L297 252L296 255L288 255L287 259L285 257L280 257L271 257L268 262L268 252L265 252L266 257L264 261L265 265L323 254L325 256L325 262L330 260L326 257L328 255L321 252L321 251L330 253C330.234 244.782 338.919 247.999 345 248L335 256L342 261L343 261C345.189 259.403 348.214 257.511 344 257L344 256L347 255L344 254L345 250L349 252L349 255L350 255L350 251L351 251L356 253L362 249L361 253L365 247L357 246L357 245L362 243L361 234L351 232L358 232L356 229C358.334 227.985 356.91 227.579 355 227L355 226L358 225L358 224C355.142 224.209 354 224.174 354 227L343 225L343 224L348 216L347 220L354 220L354 219C350.417 216.932 347.904 214.293 349 210C346.421 209.366 345 209.181 345 212z"
     id="path3966"
     inkscape:export-filename="/home/vjrj/proyectos/tid/guadalinex2005/dev/adsl_assistant/bb-assist/comtrend.png"
     inkscape:export-xdpi="20.347212"
     inkscape:export-ydpi="20.347212" />
  <path
     stroke="none"
     fill="#2d3c73"
     d="M346 216L343 224L343 225L354 227L358 224L358 225L355 226L355 227L356 229L358 232L351 232L361 234L362 243L357 245L357 246L365 247L361 253L362 249L355 251L370 273L363 265L362 265C364.328 278.041 372.007 271.218 381 270L369 247C374.255 248.183 376.611 248.345 381 245L379 248L383 253L385 249L385 248L382 247L382 244L385 241L380 239L377 240L377 235L366 233L367 227L364 228L363 220L347 220L348 216z"
     id="path3968"
     inkscape:export-filename="/home/vjrj/proyectos/tid/guadalinex2005/dev/adsl_assistant/bb-assist/comtrend.png"
     inkscape:export-xdpi="20.347212"
     inkscape:export-ydpi="20.347212" />
  <path
     stroke="none"
     fill="#26356e"
     d="M410 220L411 223L402 225L399 224L401 228C397.252 227.838 396.041 226.567 395 223L392 224L392 227L395 228L395 232C388.052 233.319 377.274 231.77 377 240L380 239L385 241L382 244L382 247L396 247L396 249C389.57 250.524 383.244 255.247 379 248L381 245C372.001 250.423 385.749 260.212 388 267L407 260L407 259L390 264L390 263L400 260L401 251L398 248L405 248L407 238L406 236L399 235L399 234C404.397 233.29 413.061 230.793 415 238L425 240L416 234L416 231L421 230L415 220z"
     id="path3972"
     inkscape:export-filename="/home/vjrj/proyectos/tid/guadalinex2005/dev/adsl_assistant/bb-assist/comtrend.png"
     inkscape:export-xdpi="20.347212"
     inkscape:export-ydpi="20.347212" />
  <path
     stroke="none"
     fill="#232242"
     d="M237 221L242 234L243 234z"
     id="path3974"
     inkscape:export-filename="/home/vjrj/proyectos/tid/guadalinex2005/dev/adsl_assistant/bb-assist/comtrend.png"
     inkscape:export-xdpi="20.347212"
     inkscape:export-ydpi="20.347212" />
  <path
     stroke="none"
     fill="#263471"
     d="M416 231L416 234L425 240C421.371 237.514 419.157 235.999 415 238L416 235L399 234L399 235L406 236L407 238L405 248L398 248L401 251L399 259C407.259 258.274 415.362 254.06 423 251C425.357 250.056 429.634 249.112 430.828 246.582C433.729 240.434 421.818 229.167 416 231z"
     id="path3980"
     inkscape:export-filename="/home/vjrj/proyectos/tid/guadalinex2005/dev/adsl_assistant/bb-assist/comtrend.png"
     inkscape:export-xdpi="20.347212"
     inkscape:export-ydpi="20.347212" />
  <path
     stroke="none"
     fill="#2e3c77"
     d="M330 253L321 251L321 252C323.516 252.719 327.961 254.198 326 257L330 260L325 262L325 256L323 254L299 259C300.807 262.116 302.491 262.184 306 262L305 265L302 264L303 266L295 264L300 266L296 273L299 277L309 274L311 281C314.054 280.346 313.936 278.993 314 276L318 278L322 276L318 284L335 281L335 282L315 287L315 288L363 276L351 251L350 251L350 255L349 255L349 252L345 250L347 255L344 256L344 257L347 257L343 261L342 261L335 256L345 248C338.782 247.996 328.974 243.811 330 253z"
     id="path4016"
     inkscape:export-filename="/home/vjrj/proyectos/tid/guadalinex2005/dev/adsl_assistant/bb-assist/comtrend.png"
     inkscape:export-xdpi="20.347212"
     inkscape:export-ydpi="20.347212" />
  <path
     stroke="none"
     fill="#978c78"
     d="M382 249L383 253L396 249L396 247L395 246z"
     id="path4018"
     inkscape:export-filename="/home/vjrj/proyectos/tid/guadalinex2005/dev/adsl_assistant/bb-assist/comtrend.png"
     inkscape:export-xdpi="20.347212"
     inkscape:export-ydpi="20.347212" />
  <path
     stroke="none"
     fill="#47415c"
     d="M432 246C429.647 250.073 425.221 251.107 421 252.8C411.336 256.678 396.712 267.653 386.09 266.827C382.086 266.516 378.581 260.906 375 259L381 270L367.174 273.264L357 264L363 276C353.029 276.457 326.708 281.991 323 292L326 291L325 294L340 292L339 289L345 291L349 289L349 286C354.568 286.424 360.158 287.537 362 281C372.513 282.773 374.701 278.702 384.005 276.72C401.391 273.016 423.7 277.715 430.344 257C431.516 253.345 433.325 249.735 432 246z"
     id="path4020"
     inkscape:export-filename="/home/vjrj/proyectos/tid/guadalinex2005/dev/adsl_assistant/bb-assist/comtrend.png"
     inkscape:export-xdpi="20.347212"
     inkscape:export-ydpi="20.347212" />
  <path
     stroke="none"
     fill="#313754"
     d="M288 249L291 248z"
     id="path4022"
     inkscape:export-filename="/home/vjrj/proyectos/tid/guadalinex2005/dev/adsl_assistant/bb-assist/comtrend.png"
     inkscape:export-xdpi="20.347212"
     inkscape:export-ydpi="20.347212" />
  <path
     stroke="none"
     fill="#1b1b18"
     d="M369 247C370.573 252.345 373.403 258.279 379 260C378.975 252.612 376.792 248.24 369 247z"
     id="path4034"
     inkscape:export-filename="/home/vjrj/proyectos/tid/guadalinex2005/dev/adsl_assistant/bb-assist/comtrend.png"
     inkscape:export-xdpi="20.347212"
     inkscape:export-ydpi="20.347212" />
  <path
     stroke="none"
     fill="#888796"
     d="M431 247L390 263L390 264L422 252.806z"
     id="path4036"
     inkscape:export-filename="/home/vjrj/proyectos/tid/guadalinex2005/dev/adsl_assistant/bb-assist/comtrend.png"
     inkscape:export-xdpi="20.347212"
     inkscape:export-ydpi="20.347212" />
  <path
     stroke="none"
     fill="#60584c"
     d="M384.333 250.667L384.667 251.333L384.333 250.667z"
     id="path4064"
     inkscape:export-filename="/home/vjrj/proyectos/tid/guadalinex2005/dev/adsl_assistant/bb-assist/comtrend.png"
     inkscape:export-xdpi="20.347212"
     inkscape:export-ydpi="20.347212" />
  <path
     stroke="none"
     fill="#313f7c"
     d="M261 252L255 255C255.667 264.624 265.035 286.405 272 293L272 282L278 283L278 279L276 281L275 281L273 279L277 275L283 276L284 276L284 270L276 266L284 265L284 266L281 267C283.259 268.38 285.571 268.982 286 266L289 267L285 273L292 274L292 273L289 271L299 271L300 266L295 264L303 266L302 264L306 262L265 266L264 261L266 257L266 256z"
     id="path4076"
     inkscape:export-filename="/home/vjrj/proyectos/tid/guadalinex2005/dev/adsl_assistant/bb-assist/comtrend.png"
     inkscape:export-xdpi="20.347212"
     inkscape:export-ydpi="20.347212" />
  <path
     stroke="none"
     fill="#9e8e57"
     d="M276.333 252.667L276.667 253.333L276.333 252.667z"
     id="path4078"
     inkscape:export-filename="/home/vjrj/proyectos/tid/guadalinex2005/dev/adsl_assistant/bb-assist/comtrend.png"
     inkscape:export-xdpi="20.347212"
     inkscape:export-ydpi="20.347212" />
  <path
     stroke="none"
     fill="#796f83"
     d="M264 253L263 256z"
     id="path4088"
     inkscape:export-filename="/home/vjrj/proyectos/tid/guadalinex2005/dev/adsl_assistant/bb-assist/comtrend.png"
     inkscape:export-xdpi="20.347212"
     inkscape:export-ydpi="20.347212" />
  <path
     stroke="none"
     fill="#222125"
     d="M352 253C353.135 256.397 354.577 256.579 358 256z"
     id="path4090"
     inkscape:export-filename="/home/vjrj/proyectos/tid/guadalinex2005/dev/adsl_assistant/bb-assist/comtrend.png"
     inkscape:export-xdpi="20.347212"
     inkscape:export-ydpi="20.347212" />
  <path
     stroke="none"
     fill="#6d6047"
     d="M376 253L378 257z"
     id="path4092"
     inkscape:export-filename="/home/vjrj/proyectos/tid/guadalinex2005/dev/adsl_assistant/bb-assist/comtrend.png"
     inkscape:export-xdpi="20.347212"
     inkscape:export-ydpi="20.347212" />
  <path
     stroke="none"
     fill="#3c3b50"
     d="M276 254L274 257z"
     id="path4094"
     inkscape:export-filename="/home/vjrj/proyectos/tid/guadalinex2005/dev/adsl_assistant/bb-assist/comtrend.png"
     inkscape:export-xdpi="20.347212"
     inkscape:export-ydpi="20.347212" />
  <path
     stroke="none"
     fill="#1d2353"
     d="M379 254L377 260L377 261C379.604 262.465 381.984 266.806 385.022 267.118C391.179 267.75 381.981 255.443 381 254z"
     id="path4100"
     inkscape:export-filename="/home/vjrj/proyectos/tid/guadalinex2005/dev/adsl_assistant/bb-assist/comtrend.png"
     inkscape:export-xdpi="20.347212"
     inkscape:export-ydpi="20.347212" />
  <path
     stroke="none"
     fill="#7d420c"
     d="M219 255L219 258L220 258z"
     id="path4104"
     inkscape:export-filename="/home/vjrj/proyectos/tid/guadalinex2005/dev/adsl_assistant/bb-assist/comtrend.png"
     inkscape:export-xdpi="20.347212"
     inkscape:export-ydpi="20.347212" />
  <path
     stroke="none"
     fill="#4d4134"
     d="M353 257L362 266C361.843 259.507 359.93 255.935 353 257z"
     id="path4112"
     inkscape:export-filename="/home/vjrj/proyectos/tid/guadalinex2005/dev/adsl_assistant/bb-assist/comtrend.png"
     inkscape:export-xdpi="20.347212"
     inkscape:export-ydpi="20.347212" />
  <path
     stroke="none"
     fill="#7d7076"
     d="M281.667 257.333L282.333 257.667L281.667 257.333z"
     id="path4114"
     inkscape:export-filename="/home/vjrj/proyectos/tid/guadalinex2005/dev/adsl_assistant/bb-assist/comtrend.png"
     inkscape:export-xdpi="20.347212"
     inkscape:export-ydpi="20.347212" />
  <path
     stroke="none"
     fill="#a39771"
     d="M358 259L359 263L360 263L360 259z"
     id="path4120"
     inkscape:export-filename="/home/vjrj/proyectos/tid/guadalinex2005/dev/adsl_assistant/bb-assist/comtrend.png"
     inkscape:export-xdpi="20.347212"
     inkscape:export-ydpi="20.347212" />
  <path
     stroke="none"
     fill="#212246"
     d="M256 260L268 291L269 291C268.507 281.873 261.362 267.402 256 260z"
     id="path4124"
     inkscape:export-filename="/home/vjrj/proyectos/tid/guadalinex2005/dev/adsl_assistant/bb-assist/comtrend.png"
     inkscape:export-xdpi="20.347212"
     inkscape:export-ydpi="20.347212" />
  <path
     stroke="none"
     fill="#8d7356"
     d="M355 261L358 264z"
     id="path4126"
     inkscape:export-filename="/home/vjrj/proyectos/tid/guadalinex2005/dev/adsl_assistant/bb-assist/comtrend.png"
     inkscape:export-xdpi="20.347212"
     inkscape:export-ydpi="20.347212" />
  <path
     stroke="none"
     fill="#182554"
     d="M362 261C362.532 265.768 365.298 271.311 370 273z"
     id="path4128"
     inkscape:export-filename="/home/vjrj/proyectos/tid/guadalinex2005/dev/adsl_assistant/bb-assist/comtrend.png"
     inkscape:export-xdpi="20.347212"
     inkscape:export-ydpi="20.347212" />
  <path
     stroke="none"
     fill="#aba376"
     d="M328 269L328 268L330 268L330 267C327.149 267.614 327.146 268.303 328 271C334.626 269.615 347.314 268.046 351 262z"
     id="path4130"
     inkscape:export-filename="/home/vjrj/proyectos/tid/guadalinex2005/dev/adsl_assistant/bb-assist/comtrend.png"
     inkscape:export-xdpi="20.347212"
     inkscape:export-ydpi="20.347212" />
  <path
     stroke="none"
     fill="#353f7b"
     d="M276 266L284 270L284 276L283 276L282 274L277 275L273 279L278 279L278 283L272 282L271 291L270 291C272.145 304.178 297.342 293.003 306 291L306 290L273 296L273 295L320 285L320 284L318 283L318 282L322 276L318 278L314 276L311 281L309 274L299 277L296 273L299 272L299 271L289 271L292 273L292 274L285 273C287.245 270.537 289.076 268.312 286 266C286 269.43 283.303 268.184 281 267L284 266z"
     id="path4136"
     inkscape:export-filename="/home/vjrj/proyectos/tid/guadalinex2005/dev/adsl_assistant/bb-assist/comtrend.png"
     inkscape:export-xdpi="20.347212"
     inkscape:export-ydpi="20.347212" />
  <path
     stroke="none"
     fill="#978c9e"
     d="M371 270L371 271L377 269z"
     id="path4138"
     inkscape:export-filename="/home/vjrj/proyectos/tid/guadalinex2005/dev/adsl_assistant/bb-assist/comtrend.png"
     inkscape:export-xdpi="20.347212"
     inkscape:export-ydpi="20.347212" />
  <path
     stroke="none"
     fill="#878899"
     d="M336 280L336 281L359 275C353.143 272.922 341.769 277.824 336 280z"
     id="path4142"
     inkscape:export-filename="/home/vjrj/proyectos/tid/guadalinex2005/dev/adsl_assistant/bb-assist/comtrend.png"
     inkscape:export-xdpi="20.347212"
     inkscape:export-ydpi="20.347212" />
  <path
     stroke="none"
     fill="#4c4261"
     d="M362 281C359.318 286.841 354.66 286.196 349 286L349 289L345 291L339 289L340 292L325 294L326 291L323 292L327 287L327 286L273 298L268 317L268 318C279.427 316.289 291.046 310.698 302 307.004C322.845 299.975 343.915 293.322 365 287.035C373.051 284.634 393.238 281.825 398 275z"
     id="path4144"
     inkscape:export-filename="/home/vjrj/proyectos/tid/guadalinex2005/dev/adsl_assistant/bb-assist/comtrend.png"
     inkscape:export-xdpi="20.347212"
     inkscape:export-ydpi="20.347212" />
  <path
     stroke="none"
     fill="#8f899e"
     d="M305 288L305 289L335 282C327.216 279.215 313.001 286.17 305 288z"
     id="path4152"
     inkscape:export-filename="/home/vjrj/proyectos/tid/guadalinex2005/dev/adsl_assistant/bb-assist/comtrend.png"
     inkscape:export-xdpi="20.347212"
     inkscape:export-ydpi="20.347212" />
  <path
     stroke="none"
     fill="#737195"
     d="M273 295L273 296L306 290C300.222 285.998 279.817 292.844 273 295z"
     id="path4160"
     inkscape:export-filename="/home/vjrj/proyectos/tid/guadalinex2005/dev/adsl_assistant/bb-assist/comtrend.png"
     inkscape:export-xdpi="20.347212"
     inkscape:export-ydpi="20.347212" />
  <rect
     style="fill:none;fill-opacity:0.75000000;fill-rule:evenodd;stroke:none;stroke-width:0.93479271pt;stroke-linecap:butt;stroke-linejoin:miter;stroke-opacity:1.0000000"
     id="rect4224"
     width="405.74005"
     height="405.74005"
     x="31.031713"
     y="-31.525549"
     inkscape:export-filename="/home/vjrj/proyectos/tid/guadalinex2005/dev/adsl_assistant/bb-assist/comtrend.png"
     inkscape:export-xdpi="20.000000"
     inkscape:export-ydpi="20.000000" />
</svg>
