<?xml version="1.0" encoding="UTF-8" standalone="no"?>
<!-- Created with Inkscape (http://www.inkscape.org/) -->
<!-- 
Created By Andrew Fitzsimon.
Much of this document has been manually cleaned and crafted in a text editor so that only the colour definitions and basic presentation related data remain in the XML. 
Changes to this document may compromise the structure of this palette.
-->
<svg
   xmlns:dc="http://purl.org/dc/elements/1.1/"
   xmlns:cc="http://web.resource.org/cc/"
   xmlns:rdf="http://www.w3.org/1999/02/22-rdf-syntax-ns#"
   xmlns:svg="http://www.w3.org/2000/svg"
   xmlns="http://www.w3.org/2000/svg"
   xmlns:xlink="&amp;#38;#38;#38;#38;#38;#38;#38;#38;#38;#38;#38;#38;#38;ns_xlink;"
   xmlns:sodipodi="http://inkscape.sourceforge.net/DTD/sodipodi-0.dtd"
   xmlns:inkscape="http://www.inkscape.org/namespaces/inkscape"
   sodipodi:docbase="/home/andy/Desktop/Etiquette/human/scalable/filesystems"
   sodipodi:docname="gnome-fs-bookmark-missing.svg"
   inkscape:version="0.41+cvs"
   sodipodi:version="0.32"
   id="Etiquette"
   height="128"
   width="128"
   y="00"
   x="00"
   version="1.0">
  <metadata
     id="About">
    <rdf:RDF
       id="RDF232">
      <cc:Work
         id="Work233"
         rdf:about="">
        <dc:format
           id="format234">image/svg+xml</dc:format>
        <dc:type
           rdf:resource="http://purl.org/dc/dcmitype/StillImage"
           id="type236" />
        <dc:creator
           id="creator1291">
          <cc:Agent
             id="Agent1292">
            <dc:title
               id="title1293">Andrew Fitzsimon</dc:title>
          </cc:Agent>
        </dc:creator>
        <dc:date
           id="date1295">2004-12-25</dc:date>
        <dc:title
           id="title1297">Etiquette Icon</dc:title>
        <cc:license
           rdf:resource="http://creativecommons.org/licenses/by/2.0/"
           id="license1299" />
        <dc:rights
           id="rights1308">
          <cc:Agent
             id="Agent1309">
            <dc:title
               id="title1310">Andrew Fitzsimon</dc:title>
          </cc:Agent>
        </dc:rights>
      </cc:Work>
      <cc:License
         id="License1300"
         rdf:about="http://creativecommons.org/licenses/by/2.0/">
        <cc:permits
           id="permits1301"
           rdf:resource="http://web.resource.org/cc/Reproduction" />
        <cc:permits
           id="permits1302"
           rdf:resource="http://web.resource.org/cc/Distribution" />
        <cc:requires
           id="requires1303"
           rdf:resource="http://web.resource.org/cc/Notice" />
        <cc:requires
           id="requires1304"
           rdf:resource="http://web.resource.org/cc/Attribution" />
        <cc:prohibits
           id="prohibits1305"
           rdf:resource="http://web.resource.org/cc/CommercialUse" />
        <cc:permits
           id="permits1306"
           rdf:resource="http://web.resource.org/cc/DerivativeWorks" />
        <cc:requires
           id="requires1307"
           rdf:resource="http://web.resource.org/cc/ShareAlike" />
      </cc:License>
    </rdf:RDF>
  </metadata>
  <sodipodi:namedview
     inkscape:guide-bbox="true"
     showguides="true"
     gridempopacity="0.082352941"
     gridempcolor="#3f3fff"
     gridempspacing="2"
     gridopacity="0.082352941"
     gridcolor="#3f3fff"
     inkscape:grid-bbox="false"
     showborder="true"
     gridtolerance="40pt"
     inkscape:grid-points="false"
     gridoriginx="0pt"
     gridoriginy="0.0000000pt"
     gridspacingy="8.0000000pt"
     gridspacingx="8.0000000pt"
     showgrid="false"
     inkscape:current-layer="Etiquette"
     inkscape:window-y="31"
     inkscape:window-x="124"
     inkscape:window-height="681"
     inkscape:window-width="491"
     inkscape:cy="74.647644"
     inkscape:cx="88.400116"
     inkscape:zoom="1.0000000"
     inkscape:pageshadow="0"
     inkscape:pageopacity="0.0000000"
     borderopacity="1.0"
     bordercolor="#666666"
     pagecolor="#838383"
     id="base" />
  <defs
     id="Gradients">
    <linearGradient
       id="BlueMediumGradient">
      <stop
         id="stop3844"
         offset="0"
         style="stop-color:#7590ae;stop-opacity:1;" />
      <stop
         id="stop3845"
         offset="1"
         style="stop-color:#7590ae;stop-opacity:0;" />
    </linearGradient>
    <linearGradient
       gradientUnits="userSpaceOnUse"
       y2="79.777206"
       x2="37.288532"
       y1="88.553230"
       x1="29.425545"
       gradientTransform="matrix(0.972111,0.000000,0.000000,0.833238,11.00000,-2.200000)"
       id="linearGradient2536"
       xlink:href="#BlueMediumGradient"
       inkscape:collect="always" />
    <linearGradient
       id="BlueHilightGradient">
      <stop
         id="stop3840"
         offset="0"
         style="stop-color:#9db8d2;stop-opacity:1;" />
      <stop
         id="stop3841"
         offset="1"
         style="stop-color:#9db8d2;stop-opacity:0;" />
    </linearGradient>
    <linearGradient
       gradientUnits="userSpaceOnUse"
       y2="82.386666"
       x2="50.384163"
       y1="31.488502"
       x1="50.384163"
       gradientTransform="matrix(1.524513,0.000000,0.000000,0.655947,9.500000,-9.000001)"
       id="linearGradient2520"
       xlink:href="#BlueHilightGradient"
       inkscape:collect="always" />
    <linearGradient
       id="linearGradient117">
      <stop
         id="stop118"
         offset="0.0000000"
         style="stop-color:#ffffff;stop-opacity:1.0000000;" />
      <stop
         id="stop119"
         offset="1"
         style="stop-color:#ffffff;stop-opacity:0;" />
    </linearGradient>
    <linearGradient
       id="linearGradient2381">
      <stop
         id="stop2382"
         offset="0.0000000"
         style="stop-color:#000000;stop-opacity:0.47058824;" />
      <stop
         id="stop2384"
         offset="0.31578946"
         style="stop-color:#000000;stop-opacity:0.19191919;" />
      <stop
         id="stop2383"
         offset="1.0000000"
         style="stop-color:#6f6f6f;stop-opacity:0.0000000;" />
    </linearGradient>
    <linearGradient
       id="linearGradient1694">
      <stop
         id="stop1696"
         offset="0.0000000"
         style="stop-color:#9db8d2;stop-opacity:1.0000000;" />
      <stop
         id="stop1698"
         offset="0.56999999"
         style="stop-color:#7590ae;stop-opacity:1.0000000;" />
      <stop
         id="stop1697"
         offset="1.0000000"
         style="stop-color:#314e6c;stop-opacity:1.0000000;" />
    </linearGradient>
    <linearGradient
       id="linearGradient1693">
      <stop
         id="stop1694"
         offset="0.00000000"
         style="stop-color:#ffffff;stop-opacity:1.0000000;" />
      <stop
         id="stop1695"
         offset="1.0000000"
         style="stop-color:#ffffff;stop-opacity:0.00000000;" />
    </linearGradient>
    <linearGradient
       id="MaterialSoftShadow">
      <stop
         id="stop2619"
         offset="0"
         style="stop-color:#000000;stop-opacity:0.215;" />
      <stop
         id="stop2621"
         offset="0.50000000"
         style="stop-color:#000000;stop-opacity:0.098;" />
      <stop
         id="stop2620"
         offset="1"
         style="stop-color:#000000;stop-opacity:0;" />
    </linearGradient>
    <linearGradient
       id="WhiteTransparent">
      <stop
         id="stopWhiteFull"
         offset="0"
         style="stop-color:#ffffff;stop-opacity:1;" />
      <stop
         id="stopWhiteTransparent"
         offset="1"
         style="stop-color:#ffffff;stop-opacity:0;" />
    </linearGradient>
    <linearGradient
       y2="32.579056"
       x2="77.407570"
       y1="-17.627333"
       x1="78.170364"
       gradientTransform="matrix(1.216937,0.000000,0.000000,1.303318,-0.865934,2.778009)"
       gradientUnits="userSpaceOnUse"
       id="linearGradient26784"
       xlink:href="#WhiteTransparent"
       inkscape:collect="always" />
    <linearGradient
       y2="276.50476"
       x2="246.58887"
       y1="330.42316"
       x1="246.58887"
       gradientUnits="userSpaceOnUse"
       id="linearGradient26786"
       xlink:href="#WhiteTransparent"
       inkscape:collect="always"
       gradientTransform="matrix(0.623124,0.000000,0.000000,0.623124,-88.84991,-79.10685)" />
    <linearGradient
       y2="162.85263"
       x2="72.715558"
       y1="-11.108592"
       x1="88.009292"
       gradientTransform="matrix(0.862119,0.000000,0.000000,0.751540,-0.710613,2.616517)"
       gradientUnits="userSpaceOnUse"
       id="linearGradient26788"
       xlink:href="#linearGradient1693"
       inkscape:collect="always" />
    <radialGradient
       r="83.198463"
       fy="203.93304"
       fx="242.12482"
       cy="248.48956"
       cx="244.43382"
       gradientTransform="matrix(0.756423,0.000000,0.000000,0.756423,-121.4328,-123.5441)"
       gradientUnits="userSpaceOnUse"
       id="radialGradient26790"
       xlink:href="#linearGradient1694"
       inkscape:collect="always" />
    <radialGradient
       r="125.20509"
       fy="598.36652"
       fx="-289.09140"
       cy="598.36652"
       cx="-289.09140"
       gradientUnits="userSpaceOnUse"
       id="radialGradient26794"
       xlink:href="#linearGradient2381"
       inkscape:collect="always" />
    <radialGradient
       r="125.20509"
       fy="598.36652"
       fx="-289.09140"
       cy="598.36652"
       cx="-289.09140"
       gradientUnits="userSpaceOnUse"
       id="radialGradient26795"
       xlink:href="#MaterialSoftShadow"
       inkscape:collect="always" />
    <linearGradient
       inkscape:collect="always"
       xlink:href="#WhiteTransparent"
       id="linearGradient2979"
       gradientUnits="userSpaceOnUse"
       gradientTransform="scale(1.080123,0.925820)"
       x1="32.620991"
       y1="78.360138"
       x2="49.002266"
       y2="61.978863" />
    <linearGradient
       inkscape:collect="always"
       xlink:href="#linearGradient117"
       id="linearGradient2981"
       gradientUnits="userSpaceOnUse"
       gradientTransform="scale(1.524514,0.655947)"
       x1="65.374641"
       y1="-0.23939589"
       x2="55.879204"
       y2="75.891472" />
    <linearGradient
       inkscape:collect="always"
       xlink:href="#WhiteTransparent"
       id="linearGradient3474"
       gradientTransform="matrix(0.867053,0.000000,0.000000,1.153332,-58.00000,-48.50000)"
       x1="115.36925"
       y1="167.75018"
       x2="174.70280"
       y2="167.75018"
       gradientUnits="userSpaceOnUse" />
    <linearGradient
       inkscape:collect="always"
       xlink:href="#WhiteTransparent"
       id="linearGradient3478"
       gradientUnits="userSpaceOnUse"
       gradientTransform="matrix(0.867053,0.000000,0.000000,1.153332,-58.00000,-48.50000)"
       x1="115.36925"
       y1="167.75018"
       x2="174.70280"
       y2="167.75018" />
    <linearGradient
       inkscape:collect="always"
       xlink:href="#WhiteTransparent"
       id="linearGradient3482"
       gradientUnits="userSpaceOnUse"
       gradientTransform="matrix(0.867053,0.000000,0.000000,1.153332,-58.00000,-48.50000)"
       x1="115.36925"
       y1="167.75018"
       x2="174.70280"
       y2="167.75018" />
    <linearGradient
       inkscape:collect="always"
       xlink:href="#WhiteTransparent"
       id="linearGradient3486"
       gradientUnits="userSpaceOnUse"
       gradientTransform="matrix(0.867053,0.000000,0.000000,1.153332,-58.00000,-48.50000)"
       x1="115.36925"
       y1="167.75018"
       x2="174.70280"
       y2="167.75018" />
    <linearGradient
       inkscape:collect="always"
       xlink:href="#WhiteTransparent"
       id="linearGradient3490"
       gradientUnits="userSpaceOnUse"
       gradientTransform="matrix(0.867053,0.000000,0.000000,1.153332,-58.00000,-48.50000)"
       x1="115.36925"
       y1="167.75018"
       x2="174.70280"
       y2="167.75018" />
    <linearGradient
       inkscape:collect="always"
       xlink:href="#WhiteTransparent"
       id="linearGradient3494"
       gradientUnits="userSpaceOnUse"
       gradientTransform="matrix(0.867053,0.000000,0.000000,1.153332,1.500000,0.000000)"
       x1="114.55752"
       y1="127.44981"
       x2="66.201950"
       y2="117.19723" />
    <linearGradient
       inkscape:collect="always"
       xlink:href="#WhiteTransparent"
       id="linearGradient3500"
       gradientUnits="userSpaceOnUse"
       gradientTransform="scale(1.080123,0.925820)"
       x1="32.620991"
       y1="78.360138"
       x2="49.002266"
       y2="61.978863" />
    <linearGradient
       inkscape:collect="always"
       xlink:href="#linearGradient117"
       id="linearGradient3502"
       gradientUnits="userSpaceOnUse"
       gradientTransform="scale(1.524514,0.655947)"
       x1="65.374641"
       y1="-0.23939589"
       x2="55.879204"
       y2="75.891472" />
    <linearGradient
       inkscape:collect="always"
       xlink:href="#WhiteTransparent"
       id="linearGradient3504"
       gradientUnits="userSpaceOnUse"
       gradientTransform="matrix(0.867053,0.000000,0.000000,1.153332,1.500000,-0.830063)"
       x1="114.55752"
       y1="127.44981"
       x2="66.201950"
       y2="117.19723" />
    <linearGradient
       inkscape:collect="always"
       xlink:href="#WhiteTransparent"
       id="linearGradient3528"
       gradientTransform="scale(0.855135,1.169406)"
       x1="30.033466"
       y1="118.25496"
       x2="108.44317"
       y2="183.36705"
       gradientUnits="userSpaceOnUse" />
    <linearGradient
       inkscape:collect="always"
       xlink:href="#WhiteTransparent"
       id="linearGradient3532"
       gradientUnits="userSpaceOnUse"
       gradientTransform="scale(0.855135,1.169406)"
       x1="103.01480"
       y1="132.87196"
       x2="84.920258"
       y2="124.45611" />
    <linearGradient
       y2="183.36705"
       x2="108.44317"
       y1="118.25496"
       x1="30.033466"
       gradientTransform="scale(0.855135,1.169406)"
       gradientUnits="userSpaceOnUse"
       id="linearGradient2138"
       xlink:href="#WhiteTransparent"
       inkscape:collect="always" />
    <linearGradient
       y2="183.36705"
       x2="108.44317"
       y1="118.25496"
       x1="30.033466"
       gradientTransform="scale(0.855135,1.169406)"
       gradientUnits="userSpaceOnUse"
       id="linearGradient2142"
       xlink:href="#WhiteTransparent"
       inkscape:collect="always" />
    <linearGradient
       y2="183.36705"
       x2="108.44317"
       y1="118.25496"
       x1="30.033466"
       gradientTransform="scale(0.855135,1.169406)"
       gradientUnits="userSpaceOnUse"
       id="linearGradient2146"
       xlink:href="#WhiteTransparent"
       inkscape:collect="always" />
    <linearGradient
       y2="183.36705"
       x2="108.44317"
       y1="118.25496"
       x1="30.033466"
       gradientTransform="scale(0.855135,1.169406)"
       gradientUnits="userSpaceOnUse"
       id="linearGradient2150"
       xlink:href="#WhiteTransparent"
       inkscape:collect="always" />
    <linearGradient
       y2="183.36705"
       x2="108.44317"
       y1="118.25496"
       x1="30.033466"
       gradientTransform="scale(0.855135,1.169406)"
       gradientUnits="userSpaceOnUse"
       id="linearGradient2154"
       xlink:href="#WhiteTransparent"
       inkscape:collect="always" />
    <linearGradient
       y2="183.36705"
       x2="108.44317"
       y1="118.25496"
       x1="30.033466"
       gradientTransform="scale(0.855135,1.169406)"
       gradientUnits="userSpaceOnUse"
       id="linearGradient2158"
       xlink:href="#WhiteTransparent"
       inkscape:collect="always" />
    <linearGradient
       gradientUnits="userSpaceOnUse"
       y2="126.96176"
       x2="68.752571"
       y1="139.47144"
       x1="95.011925"
       gradientTransform="matrix(0.872796,0.000000,0.000000,1.145743,0.293472,-2.347772)"
       id="linearGradient2180"
       xlink:href="#WhiteTransparent"
       inkscape:collect="always" />
  </defs>
  <path
     transform="matrix(-0.322487,0.000000,0.000000,8.971150e-2,-32.36858,52.33634)"
     d="M -163.88631 598.36652 A 125.20509 125.20509 0 1 1  -414.29649,598.36652 A 125.20509 125.20509 0 1 1  -163.88631 598.36652 z"
     sodipodi:ry="125.20509"
     sodipodi:rx="125.20509"
     sodipodi:cy="598.36652"
     sodipodi:cx="-289.09140"
     id="path4284"
     style="fill:url(#radialGradient26795);fill-opacity:1.0000000;fill-rule:evenodd;stroke:none;stroke-width:1.0000000pt;stroke-linecap:butt;stroke-linejoin:miter;stroke-opacity:1.0000000"
     sodipodi:type="arc" />
  <path
     transform="matrix(-0.450751,0.000000,0.000000,0.275963,-63.56894,-74.35010)"
     d="M -163.88631 598.36652 A 125.20509 125.20509 0 1 1  -414.29649,598.36652 A 125.20509 125.20509 0 1 1  -163.88631 598.36652 z"
     sodipodi:ry="125.20509"
     sodipodi:rx="125.20509"
     sodipodi:cy="598.36652"
     sodipodi:cx="-289.09140"
     id="path4285"
     style="fill:url(#radialGradient26794);fill-opacity:1.0000000;fill-rule:evenodd;stroke:none;stroke-width:1.0000000pt;stroke-linecap:butt;stroke-linejoin:miter;stroke-opacity:1.0000000"
     sodipodi:type="arc" />
  <path
     id="path4286"
     style="fill:#314e6c;fill-opacity:1.0000000;fill-rule:evenodd;stroke:none;stroke-width:8.7163954;stroke-linecap:butt;stroke-linejoin:miter;stroke-miterlimit:4.0000000;stroke-opacity:1.0000000"
     d="M 119.92112,64.516240 C 119.92112,33.427488 94.718648,8.2250592 63.629886,8.2250592 C 32.541123,8.2250592 7.3387439,33.427488 7.3387439,64.516240 C 7.3387439,95.605010 32.541123,120.80744 63.629886,120.80744 C 94.718648,120.80744 119.92112,95.605010 119.92112,64.516240 z " />
  <path
     id="path4287"
     style="fill:url(#radialGradient26790);fill-opacity:1.0000000;fill-rule:evenodd;stroke:#444444;stroke-width:2.5000000;stroke-linecap:butt;stroke-linejoin:miter;stroke-miterlimit:4.0000000;stroke-opacity:1.0000000"
     d="M 119.75376,64.419268 C 119.75376,33.330506 94.551369,8.1280878 63.462607,8.1280878 C 32.373847,8.1280878 7.1714659,33.330506 7.1714659,64.419268 C 7.1714659,95.508021 32.373847,120.71045 63.462607,120.71045 C 94.551369,120.71045 119.75376,95.508021 119.75376,64.419268 z " />
  <path
     id="path4288"
     style="fill:url(#linearGradient26788);fill-opacity:1.0000000;fill-rule:evenodd;stroke:none;stroke-width:1.0000000pt;stroke-linecap:butt;stroke-linejoin:miter;stroke-opacity:1.0000000"
     d="M 58.972527,11.391071 C 54.363044,12.397169 49.434838,12.647399 45.319176,15.171423 C 43.725078,15.301651 37.285077,17.828182 41.583180,18.266899 C 44.245412,17.511318 45.482637,14.743110 48.454917,14.975258 C 51.645879,14.025904 54.927821,12.896361 58.406511,12.231780 C 58.765576,12.064893 58.772919,11.669235 58.972527,11.391071 z M 65.758432,12.284261 C 63.455836,14.932456 58.146248,14.764091 57.828955,19.077663 C 58.914161,20.569181 64.253982,13.549144 65.824238,17.885738 C 66.133520,20.793232 64.195808,24.463241 60.838904,22.568589 C 59.210093,22.432620 57.181682,22.767425 57.249395,21.309800 C 56.404041,23.448141 49.668969,27.586069 52.034699,22.975518 C 53.263246,22.052221 50.315668,21.884342 52.340548,20.298284 C 54.132537,18.478649 48.445668,18.650171 50.598914,20.613013 C 49.351390,22.333095 48.789092,24.162628 46.337338,24.461945 C 48.430027,24.228424 50.605303,23.889958 48.999857,26.123688 C 50.211619,30.676236 42.604204,28.299204 41.670729,31.659683 C 38.904448,36.110757 45.813665,35.875377 47.785999,33.682304 C 47.452968,29.566195 51.688795,30.781074 53.911375,30.374726 C 56.246301,28.641532 58.711692,34.003213 59.867282,35.919866 C 61.382223,36.719309 63.044604,33.586526 60.737337,32.776371 C 61.011046,31.237713 56.056517,28.633674 59.192260,28.521471 C 61.288189,29.636157 62.467335,31.945477 62.862545,33.449221 C 67.039815,33.260018 61.145612,38.087668 65.154936,36.619315 C 67.695383,36.164565 64.881226,31.927528 68.253578,33.589137 C 72.515918,35.225866 66.790043,28.089344 71.655974,28.059169 C 73.916606,26.724267 72.703700,32.698390 74.095710,29.778171 C 74.886035,25.047485 81.213881,31.542466 78.330010,33.436596 C 74.663444,32.416888 70.970268,32.119422 69.382180,36.248291 C 69.160731,38.192602 74.722287,33.443090 74.073584,36.911108 C 75.246053,40.588936 69.471064,41.258755 67.292638,39.984515 C 65.289788,37.573551 63.424555,39.820461 61.933840,40.917466 C 59.610073,40.592694 51.879438,39.978565 55.147456,36.515011 C 56.011883,32.898883 50.633437,36.185852 48.675889,35.371189 C 46.204298,36.710163 42.396204,35.524372 40.420343,37.521012 C 40.137763,39.836360 36.434671,38.559822 35.828408,41.346035 C 34.429055,44.517742 29.791532,45.576971 29.674704,48.976731 C 29.541664,52.776472 27.751869,56.234113 29.739460,59.977615 C 30.217451,63.806395 33.844441,66.175122 37.555450,65.275751 C 39.704216,65.229554 41.720034,67.918137 43.231353,64.676002 C 45.666892,60.663779 48.157460,66.912317 51.210613,65.289855 C 53.724929,68.185905 49.107625,71.630998 53.048760,73.658528 C 56.353306,77.159315 55.371479,82.021660 53.927778,86.086567 C 53.950095,89.359840 58.246958,91.063774 58.168279,94.308037 C 57.840113,98.951347 62.018812,103.02507 66.578133,100.78106 C 69.533053,99.948042 70.729651,96.438825 73.758961,95.628491 C 76.058124,93.687907 75.058749,88.018699 79.255760,87.880729 C 84.983353,85.965294 80.874273,79.117971 82.435181,75.241249 C 84.724711,72.536814 85.696525,68.534233 89.203633,67.036315 C 91.914315,64.662764 90.124805,59.878832 92.874301,57.190488 C 90.545385,58.985795 86.626280,60.556432 84.076772,58.375774 C 80.131154,54.952933 76.886406,50.671395 74.874306,45.842125 C 73.932724,43.706949 73.992424,39.413062 76.326683,39.433175 C 76.694427,43.914007 79.864026,47.523371 82.075734,51.243555 C 84.192072,53.661385 85.668103,57.452258 89.595505,56.184969 C 92.913593,55.060137 97.462232,52.861389 97.535093,48.927369 C 97.225334,44.472431 89.280980,48.632870 87.713774,44.087121 C 84.579177,42.219589 89.847091,39.135051 90.796968,42.597720 C 92.831290,44.673118 96.480119,43.576228 97.976082,46.380561 C 101.00425,45.026947 103.42691,45.979637 104.67444,49.156532 C 107.34344,51.799519 108.06585,55.804675 107.96649,59.426534 C 111.46903,62.841098 110.39249,54.458166 111.31853,52.396941 C 111.45805,50.441937 111.65547,48.034168 112.47890,51.231768 C 115.04174,52.459970 113.25587,47.238348 112.67077,46.062800 C 108.17620,35.794505 106.73165,33.913326 101.80144,28.001977 C 93.664818,20.021475 87.053057,16.615790 78.045047,13.645810 C 77.390146,16.844772 73.390072,14.028842 71.482211,16.707756 C 69.480410,18.220790 69.470396,18.027723 70.873944,16.018521 C 69.854639,14.190722 67.539834,13.316691 65.758432,12.284261 z M 51.565673,15.856957 C 49.565018,14.909969 44.608579,18.035697 49.046684,17.824797 C 50.301649,18.086242 50.720414,16.456515 51.565673,15.856957 z M 48.733683,20.540685 C 47.136533,21.151440 43.343219,22.226862 46.696023,22.943123 C 47.656008,22.492341 48.281440,21.457880 48.733683,20.540685 z M 57.883219,34.156176 C 55.454450,35.374660 57.724239,37.796590 59.006193,35.492280 C 58.701774,34.987279 58.224451,34.631199 57.883219,34.156176 z M 112.67201,60.080081 C 109.10491,62.511376 116.89763,64.341102 112.67201,60.080081 z M 10.719203,66.288743 C 10.512252,70.745427 11.656301,75.443527 12.651384,80.250071 C 13.935436,82.524304 14.799006,87.181787 16.276657,87.839472 C 17.816394,84.308092 14.649657,80.358335 16.496292,76.704824 C 14.273329,74.956284 17.264493,71.080507 13.650856,70.024081 C 12.513576,68.911981 11.666410,67.555562 10.719203,66.288743 z M 88.926585,80.666702 C 88.557983,84.781428 82.955324,85.747776 84.000000,89.918226 C 84.998135,92.104520 83.510755,92.265865 83.281202,94.037961 C 85.341178,95.618334 87.092159,90.473800 88.670995,89.077127 C 89.039217,87.043883 93.840775,80.190199 88.926585,80.666702 z " />
  <path
     id="path4289"
     style="opacity:0.75621302;stroke-opacity:1.0000000;stroke-miterlimit:4.0000000;stroke-linejoin:miter;stroke-linecap:butt;stroke-width:2.3390312;stroke:none;fill-rule:evenodd;fill-opacity:1.0000000;fill:url(#linearGradient26784)"
     d="M 112.71654,62.141412 C 112.71654,33.666579 91.163092,10.583160 64.575472,10.583160 C 37.987853,10.583160 16.434302,33.666579 16.434302,62.141412 C 16.434302,90.616253 37.987853,113.69966 64.575472,113.69966 C 91.163092,113.69966 112.71654,90.616253 112.71654,62.141412 z " />
  <path
     id="path4290"
     style="fill:#ffffff;fill-opacity:0.58854169;fill-rule:evenodd;stroke:none;stroke-width:1.0000000pt;stroke-linecap:butt;stroke-linejoin:miter;stroke-opacity:1.0000000"
     d="M 58.972527,11.391071 C 54.363044,12.397169 49.434838,12.647399 45.319176,15.171423 C 43.725078,15.301651 37.285077,17.828182 41.583180,18.266899 C 44.245412,17.511318 45.482637,14.743110 48.454917,14.975258 C 51.645879,14.025904 54.927821,12.896361 58.406511,12.231780 C 58.765576,12.064893 58.772919,11.669235 58.972527,11.391071 z M 65.758432,12.284261 C 63.455836,14.932456 58.146248,14.764091 57.828955,19.077663 C 58.914161,20.569181 64.253982,13.549144 65.824238,17.885738 C 66.133520,20.793232 64.195808,24.463241 60.838904,22.568589 C 59.210093,22.432620 57.181682,22.767425 57.249395,21.309800 C 56.404041,23.448141 49.668969,27.586069 52.034699,22.975518 C 53.263246,22.052221 50.315668,21.884342 52.340548,20.298284 C 54.132537,18.478649 48.445668,18.650171 50.598914,20.613013 C 49.351390,22.333095 48.789092,24.162628 46.337338,24.461945 C 48.430027,24.228424 50.605303,23.889958 48.999857,26.123688 C 50.211619,30.676236 42.604204,28.299204 41.670729,31.659683 C 38.904448,36.110757 45.813665,35.875377 47.785999,33.682304 C 47.452968,29.566195 51.688795,30.781074 53.911375,30.374726 C 56.246301,28.641532 58.711692,34.003213 59.867282,35.919866 C 61.382223,36.719309 63.044604,33.586526 60.737337,32.776371 C 61.011046,31.237713 56.056517,28.633674 59.192260,28.521471 C 61.288189,29.636157 62.467335,31.945477 62.862545,33.449221 C 67.039815,33.260018 61.145612,38.087668 65.154936,36.619315 C 67.695383,36.164565 64.881226,31.927528 68.253578,33.589137 C 72.515918,35.225866 66.790043,28.089344 71.655974,28.059169 C 73.916606,26.724267 72.703700,32.698390 74.095710,29.778171 C 74.886035,25.047485 81.213881,31.542466 78.330010,33.436596 C 74.663444,32.416888 70.970268,32.119422 69.382180,36.248291 C 69.160731,38.192602 74.722287,33.443090 74.073584,36.911108 C 75.246053,40.588936 69.471064,41.258755 67.292638,39.984515 C 65.289788,37.573551 63.424555,39.820461 61.933840,40.917466 C 59.610073,40.592694 51.879438,39.978565 55.147456,36.515011 C 56.011883,32.898883 50.633437,36.185852 48.675889,35.371189 C 46.204298,36.710163 42.396204,35.524372 40.420343,37.521012 C 40.137763,39.836360 36.434671,38.559822 35.828408,41.346035 C 34.429055,44.517742 29.791532,45.576971 29.674704,48.976731 C 29.541664,52.776472 27.751869,56.234113 29.739460,59.977615 C 30.217451,63.806395 33.844441,66.175122 37.555450,65.275751 C 39.704216,65.229554 41.720034,67.918137 43.231353,64.676002 C 45.666892,60.663779 48.157460,66.912317 51.210613,65.289855 C 53.724929,68.185905 49.107625,71.630998 53.048760,73.658528 C 56.353306,77.159315 55.371479,82.021660 53.927778,86.086567 C 53.950095,89.359840 58.246958,91.063774 58.168279,94.308037 C 57.840113,98.951347 62.018812,103.02507 66.578133,100.78106 C 69.533053,99.948042 70.729651,96.438825 73.758961,95.628491 C 76.058124,93.687907 75.058749,88.018699 79.255760,87.880729 C 84.983353,85.965294 80.874273,79.117971 82.435181,75.241249 C 84.724711,72.536814 85.696525,68.534233 89.203633,67.036315 C 91.914315,64.662764 90.124805,59.878832 92.874301,57.190488 C 90.545385,58.985795 86.626280,60.556432 84.076772,58.375774 C 80.131154,54.952933 76.886406,50.671395 74.874306,45.842125 C 73.932724,43.706949 73.992424,39.413062 76.326683,39.433175 C 76.694427,43.914007 79.864026,47.523371 82.075734,51.243555 C 84.192072,53.661385 85.668103,57.452258 89.595505,56.184969 C 92.913593,55.060137 97.462232,52.861389 97.535093,48.927369 C 97.225334,44.472431 89.280980,48.632870 87.713774,44.087121 C 84.579177,42.219589 89.847091,39.135051 90.796968,42.597720 C 92.831290,44.673118 96.480119,43.576228 97.976082,46.380561 C 101.00425,45.026947 103.42691,45.979637 104.67444,49.156532 C 107.34344,51.799519 108.06585,55.804675 107.96649,59.426534 C 111.46903,62.841098 110.39249,54.458166 111.31853,52.396941 C 111.45805,50.441937 111.65547,48.034168 112.47890,51.231768 C 115.04174,52.459970 113.25587,47.238348 112.67077,46.062800 C 108.17620,35.794505 106.73165,33.913326 101.80144,28.001977 C 93.664818,20.021475 87.053057,16.615790 78.045047,13.645810 C 77.390146,16.844772 73.390072,14.028842 71.482211,16.707756 C 69.480410,18.220790 69.470396,18.027723 70.873944,16.018521 C 69.854639,14.190722 67.539834,13.316691 65.758432,12.284261 z M 51.565673,15.856957 C 49.565018,14.909969 44.608579,18.035697 49.046684,17.824797 C 50.301649,18.086242 50.720414,16.456515 51.565673,15.856957 z M 48.733683,20.540685 C 47.136533,21.151440 43.343219,22.226862 46.696023,22.943123 C 47.656008,22.492341 48.281440,21.457880 48.733683,20.540685 z M 57.883219,34.156176 C 55.454450,35.374660 57.724239,37.796590 59.006193,35.492280 C 58.701774,34.987279 58.224451,34.631199 57.883219,34.156176 z M 112.67201,60.080081 C 109.10491,62.511376 116.89763,64.341102 112.67201,60.080081 z M 10.719203,66.288743 C 10.512252,70.745427 11.656301,75.443527 12.651384,80.250071 C 13.935436,82.524304 14.799006,87.181787 16.276657,87.839472 C 17.816394,84.308092 14.649657,80.358335 16.496292,76.704824 C 14.273329,74.956284 17.264493,71.080507 13.650856,70.024081 C 12.513576,68.911981 11.666410,67.555562 10.719203,66.288743 z M 88.926585,80.666702 C 88.557983,84.781428 82.955324,85.747776 84.000000,89.918226 C 84.998135,92.104520 83.510755,92.265865 83.281202,94.037961 C 85.341178,95.618334 87.092159,90.473800 88.670995,89.077127 C 89.039217,87.043883 93.840775,80.190199 88.926585,80.666702 z " />
  <path
     id="path4291"
     style="fill:none;fill-opacity:1.0000000;fill-rule:evenodd;stroke:none;stroke-width:3.7500000;stroke-linecap:butt;stroke-linejoin:miter;stroke-miterlimit:4.0000000;stroke-opacity:1.0000000"
     d="M 119.92112,64.516240 C 119.92112,33.427488 94.718648,8.2250592 63.629886,8.2250592 C 32.541123,8.2250592 7.3387439,33.427488 7.3387439,64.516240 C 7.3387439,95.605010 32.541123,120.80744 63.629886,120.80744 C 94.718648,120.80744 119.92112,95.605010 119.92112,64.516240 z " />
  <path
     id="path4292"
     style="fill:none;fill-opacity:0.94117647;fill-rule:evenodd;stroke:none;stroke-width:5.8040280;stroke-linecap:butt;stroke-linejoin:miter;stroke-miterlimit:4.0000000;stroke-opacity:1.0000000"
     d="M 119.92112,64.516240 C 119.92112,33.427488 94.718648,8.2250592 63.629886,8.2250592 C 32.541123,8.2250592 7.3387439,33.427488 7.3387439,64.516240 C 7.3387439,95.605010 32.541123,120.80744 63.629886,120.80744 C 94.718648,120.80744 119.92112,95.605010 119.92112,64.516240 z " />
  <path
     id="path4861"
     style="opacity:0.73372781;fill:url(#linearGradient26786);fill-opacity:1.0000000;fill-rule:evenodd;stroke:none;stroke-width:1.2500000;stroke-linecap:butt;stroke-linejoin:miter;stroke-miterlimit:4.0000000;stroke-opacity:1.0000000"
     d="M 106.43349,75.732977 C 106.43349,52.000829 87.194756,32.762122 63.462607,32.762122 C 39.730462,32.762122 20.491722,52.000829 20.491722,75.732977 C 20.491722,99.465124 39.730462,118.70383 63.462607,118.70383 C 87.194756,118.70383 106.43349,99.465124 106.43349,75.732977 z " />
  <g
     id="g3496"
     transform="matrix(1.204728,0.000000,0.000000,1.204728,-15.02481,-109.0713)">
    <path
       style="font-size:90.014183;font-style:normal;font-variant:normal;font-weight:normal;font-stretch:normal;fill:#eed680;fill-opacity:1.0000000;stroke:#333333;stroke-width:2.0751572;stroke-linecap:butt;stroke-linejoin:miter;stroke-miterlimit:4.0000000;stroke-opacity:1.0000000;font-family:Interstate-Black;text-anchor:start;writing-mode:lr-tb;stroke-dasharray:none"
       d="M 93.016937,127.87704 C 93.016937,115.33092 83.019230,109.05785 67.042540,109.05785 C 56.162709,109.05785 47.243179,112.29241 39.107809,117.48728 L 47.831286,131.50365 C 53.516244,127.68101 59.789319,125.03456 66.748491,125.03456 C 72.041382,125.03456 74.393786,126.79886 74.393786,129.73936 C 74.393786,132.48382 72.433450,133.85605 68.316757,135.81639 C 58.319073,140.52117 55.574598,145.91210 55.574598,154.24350 L 73.119570,154.24350 C 73.119570,149.53872 75.275941,146.79424 80.862881,144.04978 C 89.292300,139.93309 93.016937,135.71835 93.016937,127.87704 M 74.393786,169.63211 C 74.393786,163.84914 70.081050,159.63442 64.200059,159.63442 C 58.319069,159.63442 54.006333,163.84914 54.006333,169.63211 C 54.006333,175.41508 58.319069,179.82583 64.200059,179.82583 C 70.081050,179.82583 74.393786,175.41508 74.393786,169.63211"
       id="text3457" />
    <path
       sodipodi:nodetypes="cccccccccccccccc"
       style="font-size:90.014183;font-style:normal;font-variant:normal;font-weight:normal;font-stretch:normal;fill:url(#linearGradient2180);fill-opacity:1.0000000;stroke:none;stroke-width:2.0751562;stroke-linecap:butt;stroke-linejoin:miter;stroke-miterlimit:4.0000000;stroke-opacity:1.0000000;font-family:Interstate-Black;text-anchor:start;writing-mode:lr-tb"
       d="M 88.821943,126.75722 C 88.821943,115.14120 79.565406,109.33318 64.773132,109.33318 C 54.699866,109.33318 46.441577,112.32794 38.909314,117.13770 L 46.986085,130.11498 C 52.249594,126.57573 58.057621,124.12547 64.500882,124.12547 C 69.401390,124.12547 71.579401,125.75897 71.579401,128.48148 C 71.579401,131.02248 69.764392,132.29299 65.952886,134.10800 C 56.696370,138.46399 54.155354,143.45527 54.155354,151.16903 L 70.399647,151.16903 C 70.399647,146.81304 72.396158,144.27202 77.568916,141.73101 C 85.373428,137.91951 88.821943,134.01723 88.821943,126.75722 M 71.872873,167.17765 C 71.872873,161.82340 67.879857,157.92113 62.434847,157.92113 C 56.989839,157.92113 52.996823,161.82340 52.996823,167.17765 C 52.996823,172.53191 56.989839,176.61567 62.434847,176.61567 C 67.879857,176.61567 71.872873,172.53191 71.872873,167.17765"
       id="path2164" />
  </g>
</svg>
