<?xml version="1.0" encoding="UTF-8" standalone="no"?>
<!-- Created with Inkscape (http://www.inkscape.org/) -->
<!-- 
Created By Andrew Fitzsimon.
Much of this document has been manually cleaned and crafted in a text editor so that only the colour definitions and basic presentation related data remain in the XML. 
Changes to this document may compromise the structure of this palette.
-->
<svg
   xmlns:dc="http://purl.org/dc/elements/1.1/"
   xmlns:cc="http://web.resource.org/cc/"
   xmlns:rdf="http://www.w3.org/1999/02/22-rdf-syntax-ns#"
   xmlns:svg="http://www.w3.org/2000/svg"
   xmlns="http://www.w3.org/2000/svg"
   xmlns:xlink="&amp;#38;#38;#38;#38;#38;#38;#38;#38;#38;#38;#38;#38;ns_xlink;"
   xmlns:sodipodi="http://inkscape.sourceforge.net/DTD/sodipodi-0.dtd"
   xmlns:inkscape="http://www.inkscape.org/namespaces/inkscape"
   version="1.0"
   x="00"
   y="00"
   width="128"
   height="128"
   id="Etiquette"
   sodipodi:version="0.32"
   inkscape:version="0.41+cvs"
   sodipodi:docname="gnome-fs-share.svg"
   sodipodi:docbase="/home/andy/Desktop/Etiquette/human/scalable/filesystems">
  <metadata
     id="About">
    <rdf:RDF
       id="RDF232">
      <cc:Work
         rdf:about=""
         id="Work233">
        <dc:format
           id="format234">image/svg+xml</dc:format>
        <dc:type
           id="type236"
           rdf:resource="http://purl.org/dc/dcmitype/StillImage" />
        <dc:creator
           id="creator1291">
          <cc:Agent
             id="Agent1292">
            <dc:title
               id="title1293">Andrew Fitzsimon</dc:title>
          </cc:Agent>
        </dc:creator>
        <dc:date
           id="date1295">2004-12-25</dc:date>
        <dc:title
           id="title1297">Etiquette Icon</dc:title>
        <cc:license
           id="license1299"
           rdf:resource="http://creativecommons.org/licenses/by/2.0/" />
        <dc:rights
           id="rights1308">
          <cc:Agent
             id="Agent1309">
            <dc:title
               id="title1310">Andrew Fitzsimon</dc:title>
          </cc:Agent>
        </dc:rights>
      </cc:Work>
      <cc:License
         rdf:about="http://creativecommons.org/licenses/by/2.0/"
         id="License1300">
        <cc:permits
           rdf:resource="http://web.resource.org/cc/Reproduction"
           id="permits1301" />
        <cc:permits
           rdf:resource="http://web.resource.org/cc/Distribution"
           id="permits1302" />
        <cc:requires
           rdf:resource="http://web.resource.org/cc/Notice"
           id="requires1303" />
        <cc:requires
           rdf:resource="http://web.resource.org/cc/Attribution"
           id="requires1304" />
        <cc:prohibits
           rdf:resource="http://web.resource.org/cc/CommercialUse"
           id="prohibits1305" />
        <cc:permits
           rdf:resource="http://web.resource.org/cc/DerivativeWorks"
           id="permits1306" />
        <cc:requires
           rdf:resource="http://web.resource.org/cc/ShareAlike"
           id="requires1307" />
      </cc:License>
    </rdf:RDF>
  </metadata>
  <sodipodi:namedview
     id="base"
     pagecolor="#ffffff"
     bordercolor="#666666"
     borderopacity="1.0"
     inkscape:pageopacity="0.0"
     inkscape:pageshadow="0"
     inkscape:zoom="1.0000000"
     inkscape:cx="42.641418"
     inkscape:cy="34.955505"
     inkscape:window-width="531"
     inkscape:window-height="534"
     inkscape:window-x="19"
     inkscape:window-y="26"
     inkscape:current-layer="Etiquette"
     showgrid="false"
     gridspacingx="8.0000000pt"
     gridspacingy="8.0000000pt"
     gridoriginy="0.0000000pt"
     gridoriginx="0pt"
     inkscape:grid-points="false"
     gridtolerance="40pt"
     showborder="true"
     inkscape:grid-bbox="false"
     gridcolor="#ffffff"
     gridopacity="0.0000000"
     gridempspacing="14"
     gridempcolor="#3f3fff"
     gridempopacity="0.0000000" />
  <defs
     id="Gradients">
    <linearGradient
       id="linearGradient2492"
       inkscape:collect="always">
      <stop
         id="stop2494"
         offset="0"
         style="stop-color:#dcd7d2;stop-opacity:1;" />
      <stop
         id="stop2496"
         offset="1"
         style="stop-color:#dcd7d2;stop-opacity:0;" />
    </linearGradient>
    <linearGradient
       id="linearGradient2438"
       inkscape:collect="always">
      <stop
         id="stop2440"
         offset="0"
         style="stop-color:#d2c7bd;stop-opacity:1;" />
      <stop
         id="stop2442"
         offset="1"
         style="stop-color:#d2c7bd;stop-opacity:0;" />
    </linearGradient>
    <linearGradient
       inkscape:collect="always"
       id="linearGradient92">
      <stop
         style="stop-color:#000000;stop-opacity:1;"
         offset="0"
         id="stop93" />
      <stop
         style="stop-color:#000000;stop-opacity:0;"
         offset="1"
         id="stop94" />
    </linearGradient>
    <linearGradient
       id="3DShadowGradient">
      <stop
         style="stop-color:#565248;stop-opacity:1;"
         offset="0"
         id="stop3933" />
      <stop
         style="stop-color:#565248;stop-opacity:0;"
         offset="1"
         id="stop3934" />
    </linearGradient>
    <radialGradient
       inkscape:collect="always"
       xlink:href="#MaterialSoftShadow"
       id="radialGradient2970"
       gradientUnits="userSpaceOnUse"
       cx="25.912205"
       cy="175.83524"
       fx="25.459438"
       fy="142.80988"
       r="56.143108" />
    <linearGradient
       id="Basic3DDarkGradient">
      <stop
         style="stop-color:#807d74;stop-opacity:1;"
         offset="0"
         id="stop3929" />
      <stop
         style="stop-color:#807d74;stop-opacity:0;"
         offset="1"
         id="stop3930" />
    </linearGradient>
    <linearGradient
       id="MaterialSoftShadow">
      <stop
         style="stop-color:#000000;stop-opacity:0.215;"
         offset="0"
         id="stop2619" />
      <stop
         style="stop-color:#000000;stop-opacity:0.098;"
         offset="0.50000000"
         id="stop2621" />
      <stop
         style="stop-color:#000000;stop-opacity:0;"
         offset="1"
         id="stop2620" />
    </linearGradient>
    <linearGradient
       id="WhiteTransparent">
      <stop
         style="stop-color:#ffffff;stop-opacity:1;"
         offset="0"
         id="stopWhiteFull" />
      <stop
         style="stop-color:#ffffff;stop-opacity:0;"
         offset="1"
         id="stopWhiteTransparent" />
    </linearGradient>
    <linearGradient
       inkscape:collect="always"
       xlink:href="#WhiteTransparent"
       id="linearGradient10409"
       gradientUnits="userSpaceOnUse"
       gradientTransform="matrix(3.180358,0.000000,0.000000,0.346182,-3.048520,-4.711982)"
       x1="26.845953"
       y1="160.47531"
       x2="26.888615"
       y2="207.16502" />
    <linearGradient
       inkscape:collect="always"
       xlink:href="#Basic3DDarkGradient"
       id="linearGradient10415"
       gradientUnits="userSpaceOnUse"
       gradientTransform="matrix(1.531530,0.000000,0.000000,0.718878,-3.048520,-5.175702)"
       x1="3.3979435"
       y1="124.18470"
       x2="78.711426"
       y2="124.18470" />
    <linearGradient
       inkscape:collect="always"
       xlink:href="#Basic3DDarkGradient"
       id="linearGradient10421"
       gradientUnits="userSpaceOnUse"
       gradientTransform="scale(1.150702,0.869035)"
       x1="64.216156"
       y1="58.259041"
       x2="65.807091"
       y2="23.747826" />
    <linearGradient
       inkscape:collect="always"
       xlink:href="#WhiteTransparent"
       id="linearGradient194"
       gradientTransform="matrix(1.912425,0.000000,0.000000,0.575700,-3.048520,-5.175702)"
       x1="38.306545"
       y1="235.00525"
       x2="41.340191"
       y2="148.93845"
       gradientUnits="userSpaceOnUse" />
    <linearGradient
       inkscape:collect="always"
       xlink:href="#3DShadowGradient"
       id="linearGradient198"
       gradientTransform="matrix(1.222691,0.000000,0.000000,0.900458,-3.048520,-5.175702)"
       x1="51.691013"
       y1="-6.4641781"
       x2="59.674019"
       y2="52.618374"
       gradientUnits="userSpaceOnUse" />
    <linearGradient
       inkscape:collect="always"
       xlink:href="#linearGradient92"
       id="linearGradient225"
       gradientTransform="scale(1.884921,0.530526)"
       x1="34.063450"
       y1="113.74319"
       x2="34.190170"
       y2="85.134789"
       gradientUnits="userSpaceOnUse" />
    <linearGradient
       inkscape:collect="always"
       xlink:href="#Basic3DDarkGradient"
       id="linearGradient102"
       gradientUnits="userSpaceOnUse"
       gradientTransform="scale(1.459604,0.685117)"
       x1="55.407467"
       y1="92.169785"
       x2="55.407467"
       y2="253.63820" />
    <linearGradient
       inkscape:collect="always"
       xlink:href="#MaterialSoftShadow"
       id="linearGradient866"
       gradientUnits="userSpaceOnUse"
       gradientTransform="scale(1.822611,0.548663)"
       x1="38.521580"
       y1="237.15240"
       x2="33.548130"
       y2="125.36791" />
    <linearGradient
       gradientUnits="userSpaceOnUse"
       y2="127.76643"
       x2="119.31552"
       y1="87.227554"
       x1="83.443993"
       gradientTransform="matrix(1.025645,0.000000,0.000000,0.974996,64.00000,139.0000)"
       id="linearGradient2174"
       xlink:href="#WhiteTransparent"
       inkscape:collect="always" />
    <linearGradient
       gradientUnits="userSpaceOnUse"
       y2="557.93005"
       x2="173.71799"
       y1="532.18958"
       x1="173.71799"
       gradientTransform="scale(1.498152,0.667489)"
       id="linearGradient2444"
       xlink:href="#linearGradient2438"
       inkscape:collect="always" />
    <linearGradient
       gradientUnits="userSpaceOnUse"
       y2="562.36652"
       x2="181.35043"
       y1="602.70251"
       x1="181.56923"
       gradientTransform="matrix(1.317741,0.000000,0.000000,0.567936,36.50106,54.52956)"
       id="linearGradient2462"
       xlink:href="#3DShadowGradient"
       inkscape:collect="always" />
    <linearGradient
       y2="557.93005"
       x2="173.71799"
       y1="532.18958"
       x1="173.71799"
       gradientTransform="matrix(1.498152,0.000000,0.000000,0.667489,-170.5688,-225.3054)"
       gradientUnits="userSpaceOnUse"
       id="linearGradient2476"
       xlink:href="#linearGradient2438"
       inkscape:collect="always" />
    <linearGradient
       y2="562.36652"
       x2="181.35043"
       y1="602.70251"
       x1="181.56923"
       gradientTransform="matrix(1.317741,0.000000,0.000000,0.567936,-134.0678,-170.7758)"
       gradientUnits="userSpaceOnUse"
       id="linearGradient2478"
       xlink:href="#3DShadowGradient"
       inkscape:collect="always" />
    <linearGradient
       y2="557.93005"
       x2="173.71799"
       y1="532.18958"
       x1="173.71799"
       gradientTransform="matrix(1.498152,0.000000,0.000000,0.667489,-170.5688,-225.3054)"
       gradientUnits="userSpaceOnUse"
       id="linearGradient2488"
       xlink:href="#linearGradient2438"
       inkscape:collect="always" />
    <linearGradient
       y2="562.36652"
       x2="181.35043"
       y1="602.70251"
       x1="181.56923"
       gradientTransform="matrix(1.317741,0.000000,0.000000,0.567936,-134.0678,-170.7758)"
       gradientUnits="userSpaceOnUse"
       id="linearGradient2490"
       xlink:href="#3DShadowGradient"
       inkscape:collect="always" />
    <linearGradient
       gradientUnits="userSpaceOnUse"
       y2="134.36992"
       x2="102.61179"
       y1="140.28462"
       x1="113.04950"
       gradientTransform="matrix(0.928888,0.000000,0.000000,0.943171,6.992095,8.979350)"
       id="linearGradient2498"
       xlink:href="#linearGradient2492"
       inkscape:collect="always" />
  </defs>
  <path
     sodipodi:type="arc"
     style="fill:url(#radialGradient2970);fill-opacity:1.0000000;fill-rule:evenodd;stroke-width:1.0000000pt"
     id="path10398"
     sodipodi:cx="25.912205"
     sodipodi:cy="175.83524"
     sodipodi:rx="56.143108"
     sodipodi:ry="56.143108"
     d="M 82.055313 175.83524 A 56.143108 56.143108 0 1 1  -30.230904,175.83524 A 56.143108 56.143108 0 1 1  82.055313 175.83524 z"
     transform="matrix(1.061544,0.000000,0.000000,7.393471e-2,34.34913,106.7019)" />
  <path
     style="stroke-opacity:1.0000000;stroke-miterlimit:4.0000000;stroke-width:2.6231930;stroke:#666666;fill-rule:evenodd;fill-opacity:1.0000000;fill:#bab5ab"
     d="M 13.527831,89.021069 L 13.527831,23.621047 C 13.527831,17.011674 16.786355,12.239726 23.632986,12.239726 L 57.099549,12.239726 C 63.946187,12.239726 64.776825,23.403470 71.623463,23.403470 L 109.74872,23.403470 C 112.83991,23.403470 115.19518,26.600999 115.19518,30.275073 L 115.19518,89.021069 L 13.527831,89.021069 z "
     id="path10399"
     sodipodi:nodetypes="cczzzzzcc" />
  <path
     style="fill:url(#linearGradient198);fill-opacity:1.0000000;fill-rule:evenodd;stroke:none;stroke-width:1.2500000;stroke-opacity:0.33962265"
     d="M 17.314787,85.634649 L 17.314787,26.447289 C 17.314787,20.465772 20.263779,16.147135 26.460007,16.147135 L 54.923970,16.147135 C 61.120207,16.147135 61.871939,26.250381 68.068184,26.250381 L 106.73964,26.250381 C 109.53718,26.250381 111.66872,29.144162 111.66872,32.469216 L 111.66872,85.634649 L 17.314787,85.634649 z "
     id="path10401"
     sodipodi:nodetypes="cczzzzzcc" />
  <path
     style="fill:url(#linearGradient10421);fill-opacity:1.0;fill-rule:evenodd;stroke:none;stroke-width:1.2500000;stroke-opacity:0.33962265"
     d="M 13.527831,89.021069 L 13.527831,23.621047 C 13.527831,17.011674 16.786355,12.239726 23.632986,12.239726 L 57.099549,12.239726 C 63.946187,12.239726 64.776825,23.403470 71.623463,23.403470 L 109.74872,23.403470 C 112.83991,23.403470 115.19518,26.600999 115.19518,30.275073 L 115.19518,89.021069 L 13.527831,89.021069 z "
     id="path10400"
     sodipodi:nodetypes="cczzzzzcc" />
  <path
     style="fill:#fafafa;fill-opacity:1.0000000;fill-rule:evenodd;stroke:#444444;stroke-width:1.9673948;stroke-linecap:round;stroke-linejoin:round;stroke-miterlimit:4.0000000;stroke-opacity:1.0000000"
     d="M 29.832632,32.680251 L 29.832632,109.26545 L 98.692404,109.26545 L 98.717504,32.745896 L 29.832632,32.680251 z "
     id="path10402"
     sodipodi:nodetypes="ccccc" />
  <path
     style="fill:url(#linearGradient225);fill-opacity:1.0000000;fill-rule:evenodd;stroke:none;stroke-width:1.4895619;stroke-linecap:round;stroke-linejoin:round;stroke-miterlimit:4.0000000;stroke-opacity:0.58823532"
     d="M 28.940122,37.015430 L 28.940122,56.689800 L 98.816229,56.689800 L 98.841698,37.032293 L 28.940122,37.015430 z "
     id="path10424"
     sodipodi:nodetypes="ccccc" />
  <path
     style="stroke-dasharray:none;fill:#eae8e3;fill-opacity:1.0000000;fill-rule:evenodd;stroke:#666666;stroke-width:2.6250000;stroke-miterlimit:4.0000000;stroke-opacity:1.0000000"
     d="M 3.5800406,67.752282 L 9.3924860,108.43403 C 9.9148550,112.09013 13.522236,116.26770 17.204085,116.26770 L 112.43256,116.26770 C 115.68675,116.26770 117.80666,111.66197 118.29127,108.43403 L 124.39889,67.752282 C 125.47737,60.568651 121.61305,53.386027 115.81257,53.386027 L 12.166386,53.386027 C 6.3658748,53.386027 2.5527687,60.562327 3.5800406,67.752282 z "
     id="path10403"
     sodipodi:nodetypes="czzzzzzzz" />
  <path
     style="opacity:0.28301886;fill:url(#linearGradient10415);fill-opacity:1.0000000;fill-rule:evenodd;stroke:none;stroke-width:1.3937240;stroke-miterlimit:4.0000000;stroke-opacity:0.31372550"
     d="M 4.3152919,67.077140 L 10.532030,107.87857 C 11.029756,111.14522 14.611954,114.82222 18.248618,114.87654 L 111.38570,116.26770 C 114.59996,116.31572 116.73226,112.16028 117.17316,109.26973 L 123.66456,66.711464 C 124.64574,60.278708 120.91259,53.857352 115.18267,53.877816 L 12.797190,54.243492 C 7.0672744,54.263957 3.3364850,60.653076 4.3152919,67.077140 z "
     id="path10404"
     sodipodi:nodetypes="czzzzzzzz" />
  <path
     style="stroke-opacity:0.48026314;stroke-miterlimit:4.0000000;stroke-width:1.3937240;stroke:none;fill-rule:evenodd;fill-opacity:1.0;fill:url(#linearGradient102);opacity:0.48427673"
     d="M 4.3152919,67.077140 L 9.6481465,109.20440 C 10.063130,112.48258 13.727666,116.19984 17.364735,116.20237 L 111.38570,116.26770 C 114.60032,116.26993 116.73226,112.16028 117.17316,109.26973 L 123.66456,66.711464 C 124.64574,60.278708 120.91259,53.857352 115.18267,53.877816 L 12.797190,54.243492 C 7.0672744,54.263957 3.4992024,60.630384 4.3152919,67.077140 z "
     id="path101"
     sodipodi:nodetypes="czzzzzzzz" />
  <path
     style="fill:url(#linearGradient194);fill-opacity:1.0000000;fill-rule:evenodd;stroke-width:1.0000000pt;opacity:0.11320755"
     d="M 10.033008,78.399512 L 14.020810,101.48840 C 14.701688,105.43060 14.205694,111.19236 19.940778,111.16118 L 106.40045,110.69105 C 113.40458,110.65296 112.79439,107.21951 113.80744,102.42459 L 118.86488,78.486788 L 10.033008,78.399512 z "
     id="path10405"
     sodipodi:nodetypes="czzzzcc" />
  <path
     style="fill:url(#linearGradient10409);fill-opacity:1.0000000;fill-rule:evenodd;stroke-width:0.90415878pt"
     d="M 4.9682151,66.485404 C 4.7818079,67.291978 8.2654741,59.375578 14.171745,59.375578 L 111.83689,59.375578 C 119.10273,59.375578 122.28228,66.950432 122.46870,66.143857 C 122.65511,65.337290 124.48911,54.536131 113.18243,54.536131 L 14.596023,54.536131 C 3.1496173,54.536131 5.1546221,65.678836 4.9682151,66.485404 z "
     id="path10407"
     sodipodi:nodetypes="czzzzzz" />
  <path
     style="fill:none;fill-opacity:1.0000000;fill-rule:evenodd;stroke:none;stroke-width:2.6231930;stroke-miterlimit:4.0000000;stroke-opacity:1.0000000"
     d="M 3.5800406,67.752282 L 9.3924860,108.43403 C 9.9148550,112.09013 13.522236,116.26770 17.204085,116.26770 L 112.43256,116.26770 C 115.68675,116.26770 117.80666,111.66197 118.29127,108.43403 L 124.39889,67.752282 C 125.47737,60.568651 121.61305,53.386027 115.81257,53.386027 L 12.166386,53.386027 C 6.3658748,53.386027 2.5527687,60.562327 3.5800406,67.752282 z "
     id="path99"
     sodipodi:nodetypes="czzzzzzzz" />
  <path
     style="fill:url(#linearGradient866);fill-opacity:1.0;fill-rule:evenodd;stroke-width:1.0000000pt"
     d="M 8.8007750,67.899512 L 14.020810,101.48840 C 19.052329,79.460767 108.36546,78.976869 113.80744,102.42459 L 118.86488,67.986788 L 8.8007750,67.899512 z "
     id="path864"
     sodipodi:nodetypes="ccccc" />
  <path
     d="M 118.65351,82.962086 C 118.65351,60.047239 100.07731,41.471073 77.162458,41.471073 C 54.247603,41.471073 35.671474,60.047239 35.671474,82.962086 C 35.671474,105.87695 54.247603,124.45311 77.162458,124.45311 C 100.07731,124.45311 118.65351,105.87695 118.65351,82.962086 z "
     style="fill:none;fill-opacity:1.0000000;fill-rule:evenodd;stroke:none;stroke-width:3.7500000;stroke-linecap:butt;stroke-linejoin:miter;stroke-miterlimit:4.0000000;stroke-opacity:1.0000000"
     id="path4291" />
  <path
     d="M 118.65351,82.962086 C 118.65351,60.047239 100.07731,41.471073 77.162458,41.471073 C 54.247603,41.471073 35.671474,60.047239 35.671474,82.962086 C 35.671474,105.87695 54.247603,124.45311 77.162458,124.45311 C 100.07731,124.45311 118.65351,105.87695 118.65351,82.962086 z "
     style="fill:none;fill-opacity:0.94117647;fill-rule:evenodd;stroke:none;stroke-width:5.8040280;stroke-linecap:butt;stroke-linejoin:miter;stroke-miterlimit:4.0000000;stroke-opacity:1.0000000"
     id="path4292" />
  <g
     transform="translate(-30.00000,-44.00000)"
     id="g2480">
    <path
       sodipodi:nodetypes="cccccccccc"
       id="path2464"
       d="M 60.571161,128.68178 C 60.571161,128.68178 81.430811,121.61071 94.158731,126.56046 C 106.88666,131.51021 115.72549,132.92442 116.78615,136.81351 C 117.84681,140.70260 113.95772,148.12722 106.53310,147.77367 C 99.108481,147.42012 86.380561,145.29879 86.380561,145.29879 C 93.451631,146.00590 134.81737,152.72341 142.24200,149.89499 C 149.66662,147.06656 145.42398,157.31961 138.35291,159.08737 C 131.28184,160.85514 109.00798,161.91580 102.99757,165.80489 C 96.987161,169.69398 69.763549,158.38027 58.803391,159.79448 C 53.853651,160.85514 52.439431,133.98508 60.571161,128.68178 z "
       style="stroke-dasharray:none;stroke-opacity:1.0000000;stroke-miterlimit:4.0000000;stroke-linejoin:round;stroke-linecap:round;stroke-width:1.8750000;stroke:#444444;fill-rule:evenodd;fill-opacity:1.0000000;fill:#9d8a76" />
    <rect
       y="123.59927"
       x="32.610703"
       height="46.949749"
       width="12.125631"
       id="rect2466"
       style="fill:#000000;fill-opacity:1.0000000;fill-rule:nonzero;stroke:none;stroke-width:3.1250000;stroke-linecap:round;stroke-linejoin:round;stroke-miterlimit:4.0000000;stroke-dashoffset:0.0000000;stroke-opacity:1.0000000" />
    <rect
       y="125.01348"
       x="44.277969"
       height="42.000000"
       width="14.246952"
       id="rect2468"
       style="fill:#ffffff;fill-opacity:1.0000000;fill-rule:nonzero;stroke:#000000;stroke-width:3.1250000;stroke-linecap:round;stroke-linejoin:round;stroke-miterlimit:4.0000000;stroke-dashoffset:0.0000000;stroke-opacity:1.0000000" />
    <path
       sodipodi:nodetypes="cccczzc"
       id="path2470"
       d="M 61.110701,130.99697 C 61.110701,130.99697 77.360701,127.24697 83.610701,127.24697 C 89.860701,127.24697 108.11070,133.24697 110.86070,136.24697 C 113.61070,139.24697 109.61070,148.24697 104.11070,144.49697 C 98.610701,140.74697 91.360701,133.24697 81.610701,135.99697 C 72.322937,138.61660 89.610701,147.99697 77.860701,152.49697 C 66.545513,156.83045 55.110701,145.99697 61.110701,130.99697 z "
       style="fill:url(#linearGradient2488);fill-opacity:1.0000000;fill-rule:evenodd;stroke:none;stroke-width:0.25000000pt;stroke-linecap:butt;stroke-linejoin:miter;stroke-opacity:1.0000000" />
    <path
       id="path2472"
       d="M 109.69887,135.05688 C 109.69887,135.05688 104.98773,135.99807 104.30787,138.86829 C 103.62801,141.73852 104.45987,145.33215 107.35211,145.55188 C 110.24435,145.77161 114.73745,139.74697 114.40925,137.53386 C 114.08106,135.32076 109.69887,135.05688 109.69887,135.05688 z "
       style="fill:url(#linearGradient2498);fill-opacity:1.0000000;fill-rule:evenodd;stroke:none;stroke-width:1.2500000;stroke-linecap:butt;stroke-linejoin:miter;stroke-miterlimit:4.0000000;stroke-opacity:1.0000000" />
    <path
       sodipodi:nodetypes="ccccccccccccccc"
       id="path2474"
       d="M 73.312091,135.38726 C 70.090591,136.21646 61.235267,136.89092 60.127737,140.61297 C 57.578697,145.48061 57.971147,151.30563 59.010597,156.55510 C 61.512197,159.07718 70.062771,160.12433 73.138501,161.57879 C 81.807331,163.86840 90.350011,165.23120 99.259111,166.08115 C 105.25250,165.16042 110.97587,162.76842 117.12389,162.39411 C 123.19101,161.33898 129.62829,161.20035 135.21973,158.61787 C 137.63177,157.21340 138.24125,154.61072 134.76192,155.66578 C 124.30548,156.41370 113.91751,154.27420 103.45530,154.68973 C 97.807351,153.81170 92.030601,152.72838 86.775161,150.74273 C 85.408761,148.26630 89.301261,148.09039 90.853931,148.49662 C 96.845621,149.10705 102.82211,149.90104 108.80809,150.58052 C 111.38257,148.92721 113.78082,144.93197 111.72550,142.23800 C 105.24899,138.41872 97.897111,136.34505 90.633661,134.64071 C 84.854901,133.37850 79.026791,134.24223 73.312091,135.38726 z "
       style="fill:url(#linearGradient2490);fill-opacity:1.0000000;fill-rule:evenodd;stroke:none;stroke-width:2.5000000;stroke-linecap:butt;stroke-linejoin:miter;stroke-miterlimit:4.0000000;stroke-opacity:1.0000000" />
  </g>
</svg>
